<svg xmlns="http://www.w3.org/2000/svg" xmlns:xlink="http://www.w3.org/1999/xlink" width="700" zoomAndPan="magnify" viewBox="0 0 525 525.000007" height="700" preserveAspectRatio="xMidYMid meet" version="1.0"><defs><clipPath id="ab4de3791d"><path d="M 0.5 1.644531 L 524.5 1.644531 L 524.5 524 L 0.5 524 Z M 0.5 1.644531 " clip-rule="nonzero"/></clipPath><clipPath id="145cbb15b2"><path d="M 524.5 263.785156 C 524.5 119.007812 407.136719 1.644531 262.363281 1.644531 C 117.589844 1.644531 0.222656 119.007812 0.222656 263.785156 C 0.222656 386.714844 84.851562 489.871094 199.039062 518.203125 L 199.039062 343.894531 L 144.976562 343.894531 L 144.976562 263.785156 L 199.03125 263.785156 L 199.03125 229.265625 C 199.03125 140.042969 239.410156 98.6875 327.003906 98.6875 C 343.613281 98.6875 372.273438 101.9375 383.996094 105.199219 L 383.996094 177.8125 C 377.808594 177.164062 367.0625 176.835938 353.710938 176.835938 C 310.730469 176.835938 294.125 193.121094 294.125 235.453125 L 294.125 263.785156 L 379.746094 263.785156 L 365.035156 343.894531 L 294.125 343.894531 L 294.125 524.003906 C 423.914062 508.328125 524.5 397.808594 524.5 263.785156 " clip-rule="nonzero"/></clipPath></defs><g clip-path="url(#ab4de3791d)"><g clip-path="url(#145cbb15b2)"><path fill="#ffffff" d="M 0.222656 1.644531 L 524.675781 1.644531 L 524.675781 524 L 0.222656 524 Z M 0.222656 1.644531 " fill-opacity="1" fill-rule="nonzero"/></g></g></svg>