<svg xmlns="http://www.w3.org/2000/svg" xmlns:xlink="http://www.w3.org/1999/xlink" width="1024" zoomAndPan="magnify" viewBox="0 0 768 767.999994" height="1024" preserveAspectRatio="xMidYMid meet" version="1.0"><defs><g/><clipPath id="4cfdeb961e"><path d="M 20.730469 18.066406 L 747.269531 18.066406 L 747.269531 750 L 20.730469 750 Z M 20.730469 18.066406 " clip-rule="nonzero"/></clipPath><clipPath id="fd6018ef85"><path d="M 56.730469 18.066406 L 711.269531 18.066406 C 731.152344 18.066406 747.269531 34.1875 747.269531 54.066406 L 747.269531 713.933594 C 747.269531 733.8125 731.152344 749.933594 711.269531 749.933594 L 56.730469 749.933594 C 36.847656 749.933594 20.730469 733.8125 20.730469 713.933594 L 20.730469 54.066406 C 20.730469 34.1875 36.847656 18.066406 56.730469 18.066406 Z M 56.730469 18.066406 " clip-rule="nonzero"/></clipPath><clipPath id="fff12ea7a1"><path d="M 138 73.082031 L 386 73.082031 L 386 201 L 138 201 Z M 138 73.082031 " clip-rule="nonzero"/></clipPath><clipPath id="9aedfe96d7"><path d="M 90.042969 476 L 187 476 L 187 617 L 90.042969 617 Z M 90.042969 476 " clip-rule="nonzero"/></clipPath></defs><rect x="-76.8" width="921.6" fill="#ffffff" y="-76.799999" height="921.599993" fill-opacity="1"/><rect x="-76.8" width="921.6" fill="#ffffff" y="-76.799999" height="921.599993" fill-opacity="1"/><g clip-path="url(#4cfdeb961e)"><g clip-path="url(#fd6018ef85)"><path fill="#1e4270" d="M 20.730469 18.066406 L 747.269531 18.066406 L 747.269531 750.28125 L 20.730469 750.28125 Z M 20.730469 18.066406 " fill-opacity="1" fill-rule="nonzero"/></g></g><g clip-path="url(#fff12ea7a1)"><path fill="#ffffff" d="M 146.734375 199.335938 C 147.914062 198.15625 147.914062 195.796875 146.734375 194.617188 C 203.371094 123.820312 285.96875 82.523438 375.644531 80.164062 C 376.824219 82.523438 378.003906 83.703125 380.367188 83.703125 C 382.726562 83.703125 385.085938 81.34375 385.085938 78.984375 C 385.085938 76.621094 382.726562 73.082031 380.367188 73.082031 C 378.003906 73.082031 376.824219 74.261719 375.644531 76.621094 C 353.226562 77.800781 330.808594 80.164062 309.570312 86.0625 C 287.148438 91.960938 265.910156 100.222656 244.671875 110.839844 C 224.613281 120.28125 205.734375 132.082031 188.035156 146.238281 C 172.695312 160.398438 157.355469 175.738281 144.375 192.257812 C 142.015625 191.078125 140.835938 192.257812 139.65625 193.4375 C 138.476562 195.796875 138.476562 198.15625 140.835938 199.335938 C 142.015625 201.699219 144.375 200.515625 146.734375 199.335938 Z M 146.734375 199.335938 " fill-opacity="1" fill-rule="nonzero"/></g><g clip-path="url(#9aedfe96d7)"><path fill="#ffffff" d="M 179.773438 608.78125 C 142.015625 574.5625 113.695312 532.082031 97.175781 483.707031 C 98.355469 482.527344 99.539062 480.164062 98.355469 478.984375 C 97.175781 476.625 94.816406 475.445312 92.457031 476.625 C 91.277344 476.625 90.097656 478.984375 90.097656 481.34375 C 91.277344 483.707031 92.457031 484.886719 94.816406 484.886719 C 111.335938 533.261719 140.835938 575.742188 178.59375 611.140625 C 177.414062 612.320312 178.59375 614.679688 179.773438 615.859375 C 182.132812 617.039062 184.492188 617.039062 185.671875 615.859375 C 186.855469 613.5 186.855469 611.140625 185.671875 609.960938 C 184.492188 607.601562 182.132812 607.601562 179.773438 608.78125 Z M 179.773438 608.78125 " fill-opacity="1" fill-rule="nonzero"/></g><path fill="#ffffff" d="M 380.367188 684.296875 C 378.003906 684.296875 376.824219 685.476562 375.644531 687.835938 C 322.546875 686.65625 270.628906 671.316406 224.613281 643 C 224.613281 640.640625 224.613281 639.457031 222.253906 638.277344 C 219.890625 637.097656 217.53125 637.097656 216.351562 639.457031 C 215.171875 641.820312 215.171875 644.179688 217.53125 645.359375 C 218.710938 646.539062 221.070312 646.539062 222.253906 645.359375 C 268.269531 673.675781 320.1875 689.015625 374.464844 691.375 C 375.644531 693.738281 376.824219 694.917969 379.1875 694.917969 C 381.546875 694.917969 383.90625 692.554688 383.90625 690.195312 C 383.90625 687.835938 382.726562 684.296875 380.367188 684.296875 Z M 380.367188 684.296875 " fill-opacity="1" fill-rule="nonzero"/><path fill="#ffffff" d="M 500.71875 660.699219 C 498.359375 661.878906 498.359375 663.058594 498.359375 665.417969 C 484.199219 671.316406 468.863281 676.039062 454.703125 679.578125 C 453.523438 678.398438 452.34375 677.21875 449.984375 677.21875 C 447.621094 677.21875 446.441406 680.757812 446.441406 683.117188 C 446.441406 685.476562 449.984375 686.65625 452.34375 686.65625 C 454.703125 686.65625 455.882812 684.296875 455.882812 683.117188 C 471.222656 679.578125 485.382812 674.855469 500.71875 668.957031 C 501.898438 670.136719 504.261719 671.316406 505.441406 670.136719 C 507.800781 668.957031 508.980469 666.597656 507.800781 664.238281 C 505.441406 660.699219 503.082031 659.519531 500.71875 660.699219 Z M 500.71875 660.699219 " fill-opacity="1" fill-rule="nonzero"/><path fill="#ffffff" d="M 680.074219 460.105469 C 677.714844 458.925781 675.351562 461.285156 674.171875 463.644531 C 674.171875 466.007812 674.171875 467.1875 676.53125 468.367188 C 655.292969 541.523438 609.277344 602.878906 544.378906 643 C 543.199219 641.820312 540.839844 641.820312 539.660156 643 C 537.300781 644.179688 537.300781 646.539062 538.480469 648.898438 C 539.660156 651.257812 542.019531 651.257812 544.378906 650.078125 C 545.558594 648.898438 546.738281 646.539062 546.738281 645.359375 C 578.597656 625.300781 606.914062 600.519531 629.335938 569.839844 C 652.933594 539.164062 669.453125 504.945312 680.074219 468.367188 C 682.433594 468.367188 683.613281 467.1875 683.613281 464.824219 C 684.792969 462.464844 682.433594 460.105469 680.074219 460.105469 Z M 680.074219 460.105469 " fill-opacity="1" fill-rule="nonzero"/><path fill="#ffffff" d="M 689.511719 419.988281 C 690.691406 408.1875 691.871094 395.210938 691.871094 382.230469 C 691.871094 353.910156 688.332031 325.59375 680.074219 298.453125 C 672.992188 273.675781 663.554688 250.074219 650.574219 227.65625 C 651.753906 226.476562 651.753906 224.117188 650.574219 222.9375 C 649.394531 220.578125 647.035156 220.578125 644.675781 221.757812 C 642.316406 222.9375 642.316406 225.296875 643.496094 227.65625 C 644.675781 228.835938 647.035156 230.015625 648.214844 230.015625 C 675.351562 276.035156 689.511719 329.132812 689.511719 382.230469 C 689.511719 394.027344 688.332031 407.007812 687.152344 418.808594 C 684.792969 418.808594 683.613281 421.167969 683.613281 422.347656 C 683.613281 424.707031 684.792969 427.066406 687.152344 427.066406 C 689.511719 427.066406 691.871094 425.886719 691.871094 423.527344 C 691.871094 423.527344 690.691406 421.167969 689.511719 419.988281 Z M 689.511719 419.988281 " fill-opacity="1" fill-rule="nonzero"/><path fill="#ffffff" d="M 434.644531 86.0625 C 437.003906 86.0625 438.183594 84.882812 439.363281 83.703125 C 496 94.320312 549.097656 120.28125 591.578125 159.21875 C 590.398438 160.398438 591.578125 162.757812 592.757812 163.9375 C 595.117188 165.117188 597.476562 165.117188 599.835938 163.9375 C 601.015625 161.578125 601.015625 159.21875 599.835938 156.859375 C 598.65625 155.679688 596.296875 155.679688 595.117188 155.679688 C 573.878906 135.621094 550.277344 119.101562 524.320312 107.300781 C 498.359375 94.320312 470.042969 84.882812 441.722656 78.984375 C 441.722656 76.621094 439.363281 75.441406 438.183594 75.441406 C 435.824219 75.441406 433.464844 76.621094 433.464844 78.984375 C 433.464844 81.34375 431.101562 86.0625 434.644531 86.0625 Z M 434.644531 86.0625 " fill-opacity="1" fill-rule="nonzero"/><path fill="#ffffff" d="M 302.488281 666.597656 C 304.847656 667.777344 307.207031 665.417969 308.386719 663.058594 C 309.570312 660.699219 307.207031 658.339844 304.847656 657.15625 C 302.488281 657.15625 301.308594 657.15625 300.128906 658.339844 C 236.410156 639.457031 180.953125 598.160156 143.195312 542.703125 C 144.375 541.523438 144.375 539.164062 143.195312 537.984375 C 142.015625 535.625 138.476562 535.625 137.296875 536.804688 C 134.9375 537.984375 134.9375 541.523438 136.117188 542.703125 C 137.296875 543.882812 139.65625 545.0625 140.835938 543.882812 C 159.714844 572.203125 182.132812 595.800781 209.273438 615.859375 C 236.410156 635.917969 267.089844 651.257812 298.949219 661.878906 C 298.949219 664.238281 300.128906 665.417969 302.488281 666.597656 Z M 302.488281 666.597656 " fill-opacity="1" fill-rule="nonzero"/><path fill="#ffffff" d="M 562.078125 614.679688 C 563.257812 615.859375 565.617188 615.859375 567.976562 614.679688 C 570.335938 613.5 570.335938 609.960938 569.15625 608.78125 C 567.976562 607.601562 564.4375 606.421875 563.257812 607.601562 C 562.078125 608.78125 560.898438 611.140625 562.078125 612.320312 C 511.339844 651.257812 451.164062 671.316406 386.265625 671.316406 C 379.1875 671.316406 372.105469 671.316406 365.027344 670.136719 C 365.027344 667.777344 362.667969 666.597656 361.488281 666.597656 C 359.125 666.597656 356.765625 667.777344 356.765625 671.316406 C 356.765625 673.675781 357.945312 676.039062 361.488281 676.039062 C 363.847656 676.039062 365.027344 674.859375 366.207031 673.675781 C 373.285156 673.675781 380.367188 674.859375 387.445312 674.859375 C 420.484375 674.859375 453.523438 668.957031 485.382812 658.339844 C 510.160156 647.71875 537.300781 633.558594 562.078125 614.679688 Z M 562.078125 614.679688 " fill-opacity="1" fill-rule="nonzero"/><path fill="#ffffff" d="M 642.316406 527.363281 C 643.496094 525.003906 642.316406 522.644531 641.132812 521.464844 C 639.953125 520.285156 636.414062 521.464844 635.234375 522.644531 C 634.054688 523.824219 634.054688 526.183594 635.234375 527.363281 C 625.796875 543.882812 613.996094 559.222656 602.195312 573.382812 C 601.015625 572.203125 598.65625 573.382812 597.476562 574.5625 C 596.296875 576.921875 596.296875 579.28125 597.476562 581.640625 C 598.65625 584 602.195312 582.820312 604.554688 581.640625 C 605.734375 580.460938 605.734375 578.101562 605.734375 576.921875 C 618.714844 562.761719 629.335938 546.242188 639.953125 529.722656 C 638.773438 529.722656 641.132812 528.542969 642.316406 527.363281 Z M 642.316406 527.363281 " fill-opacity="1" fill-rule="nonzero"/><path fill="#ffffff" d="M 660.015625 291.375 C 657.652344 292.554688 656.472656 294.914062 656.472656 297.273438 C 657.652344 299.632812 658.832031 300.8125 661.195312 300.8125 C 669.453125 327.953125 672.992188 355.089844 672.992188 383.410156 C 672.992188 417.628906 667.09375 450.667969 656.472656 481.34375 C 654.113281 481.34375 652.933594 482.527344 651.753906 483.707031 C 650.574219 486.066406 651.753906 488.425781 654.113281 489.605469 C 656.472656 490.785156 658.832031 489.605469 660.015625 487.246094 C 661.195312 484.886719 660.015625 483.707031 658.832031 482.527344 C 670.632812 450.667969 676.53125 417.628906 676.53125 383.410156 C 676.53125 355.089844 672.992188 326.773438 664.734375 299.632812 C 665.914062 298.453125 667.09375 296.09375 665.914062 294.914062 C 664.734375 292.554688 662.375 290.195312 660.015625 291.375 Z M 660.015625 291.375 " fill-opacity="1" fill-rule="nonzero"/><path fill="#ffffff" d="M 641.132812 245.355469 C 610.457031 187.539062 559.71875 141.519531 499.539062 115.5625 C 499.539062 113.199219 498.359375 112.019531 497.179688 110.839844 C 494.820312 109.660156 492.460938 110.839844 491.28125 113.199219 C 490.101562 115.5625 491.28125 117.921875 493.640625 119.101562 C 496 120.28125 497.179688 119.101562 498.359375 117.921875 C 557.359375 143.878906 606.917969 188.71875 637.59375 246.535156 C 636.414062 247.714844 636.414062 250.074219 636.414062 251.253906 C 637.59375 253.613281 639.953125 254.796875 642.316406 253.613281 C 644.675781 252.433594 645.855469 250.074219 644.675781 247.714844 C 645.855469 245.355469 643.496094 244.175781 641.132812 245.355469 Z M 641.132812 245.355469 " fill-opacity="1" fill-rule="nonzero"/><path fill="#ffffff" d="M 457.0625 97.863281 C 454.703125 97.863281 453.523438 97.863281 452.34375 100.222656 C 429.921875 95.5 407.503906 91.960938 383.90625 91.960938 C 356.765625 91.960938 330.808594 95.5 304.847656 102.582031 C 281.25 109.660156 258.832031 119.101562 237.589844 130.898438 C 236.410156 129.71875 234.050781 129.71875 232.871094 130.898438 C 231.691406 130.898438 230.511719 134.441406 231.691406 136.800781 C 232.871094 139.160156 235.230469 139.160156 237.589844 137.980469 C 238.769531 136.800781 239.953125 134.441406 239.953125 133.261719 C 283.609375 108.480469 333.167969 94.320312 383.90625 94.320312 C 406.324219 94.320312 428.742188 96.683594 451.164062 102.582031 C 451.164062 104.941406 452.34375 106.121094 454.703125 106.121094 C 457.0625 107.300781 459.421875 104.941406 460.601562 102.582031 C 461.78125 100.222656 460.601562 97.863281 457.0625 97.863281 Z M 457.0625 97.863281 " fill-opacity="1" fill-rule="nonzero"/><path fill="#ffffff" d="M 117.238281 270.132812 C 119.597656 271.3125 121.957031 270.132812 123.136719 267.773438 C 124.316406 265.414062 123.136719 264.234375 121.957031 263.054688 C 139.65625 224.117188 166.792969 188.71875 199.832031 161.578125 C 201.011719 162.757812 203.371094 162.757812 204.554688 161.578125 C 208.09375 159.21875 208.09375 155.679688 205.734375 154.5 C 204.554688 152.140625 202.191406 152.140625 199.832031 153.320312 C 198.652344 154.5 197.472656 156.859375 198.652344 158.039062 C 164.433594 186.359375 137.296875 221.757812 119.597656 261.875 C 117.238281 261.875 116.058594 263.054688 114.875 264.234375 C 113.695312 266.59375 114.875 268.953125 117.238281 270.132812 Z M 117.238281 270.132812 " fill-opacity="1" fill-rule="nonzero"/><path fill="#ffffff" d="M 154.996094 227.65625 C 152.636719 227.65625 151.457031 227.65625 150.273438 230.015625 C 149.09375 232.375 149.09375 234.734375 151.457031 235.914062 C 153.816406 237.097656 156.175781 237.097656 157.355469 234.734375 C 158.535156 233.554688 158.535156 231.195312 157.355469 230.015625 C 188.035156 185.179688 231.691406 149.78125 281.25 129.71875 C 282.429688 130.898438 284.789062 132.082031 285.96875 130.898438 C 288.328125 129.71875 289.507812 127.359375 288.328125 125 C 287.148438 122.640625 284.789062 121.460938 282.429688 122.640625 C 280.070312 123.820312 278.890625 125 278.890625 127.359375 C 255.289062 136.800781 231.691406 150.960938 210.453125 168.660156 C 189.214844 185.179688 170.335938 205.238281 154.996094 227.65625 Z M 154.996094 227.65625 " fill-opacity="1" fill-rule="nonzero"/><path fill="#ffffff" d="M 209.273438 601.699219 C 211.632812 602.878906 213.992188 602.878906 215.171875 600.519531 C 216.351562 598.160156 216.351562 595.800781 213.992188 594.621094 C 212.8125 593.441406 210.453125 593.441406 209.273438 594.621094 C 180.953125 571.023438 156.175781 540.34375 139.65625 507.304688 C 140.835938 506.125 140.835938 503.765625 140.835938 502.585938 C 139.65625 499.042969 137.296875 497.863281 134.9375 499.042969 C 132.574219 500.226562 131.394531 502.585938 132.574219 504.945312 C 133.757812 507.304688 134.9375 507.304688 137.296875 507.304688 C 145.554688 523.824219 156.175781 540.34375 167.972656 555.683594 C 179.773438 569.839844 192.753906 584 208.09375 595.800781 C 206.914062 598.160156 208.09375 600.519531 209.273438 601.699219 Z M 209.273438 601.699219 " fill-opacity="1" fill-rule="nonzero"/><path fill="#ffffff" d="M 264.730469 635.917969 C 267.089844 637.097656 268.269531 635.917969 269.449219 634.738281 C 302.488281 650.078125 337.886719 658.339844 375.644531 659.519531 C 376.824219 661.878906 378.003906 663.058594 380.367188 663.058594 C 382.726562 663.058594 385.085938 660.699219 385.085938 658.339844 C 385.085938 655.976562 382.726562 653.617188 380.367188 653.617188 C 378.003906 653.617188 376.824219 654.796875 375.644531 657.15625 C 339.066406 655.976562 303.667969 647.71875 270.628906 632.378906 C 270.628906 630.019531 269.449219 628.839844 268.269531 627.660156 C 265.910156 626.480469 263.550781 627.660156 262.371094 630.019531 C 261.191406 632.378906 262.371094 634.738281 264.730469 635.917969 Z M 264.730469 635.917969 " fill-opacity="1" fill-rule="nonzero"/><path fill="#ffffff" d="M 420.484375 660.699219 C 422.84375 660.699219 424.023438 659.519531 424.023438 657.15625 C 442.902344 654.796875 461.78125 650.078125 479.480469 643 C 497.179688 637.097656 513.699219 627.660156 530.21875 618.21875 C 531.398438 619.398438 533.757812 619.398438 536.117188 618.21875 C 538.480469 617.039062 538.480469 613.5 537.300781 612.320312 C 536.117188 609.960938 532.578125 609.960938 531.398438 611.140625 C 530.21875 612.320312 529.039062 614.679688 529.039062 615.859375 C 497.179688 635.917969 461.78125 648.898438 424.023438 654.796875 C 422.84375 652.4375 420.484375 651.257812 419.304688 651.257812 C 416.945312 651.257812 414.585938 653.617188 415.765625 655.976562 C 416.945312 658.339844 418.125 660.699219 420.484375 660.699219 Z M 420.484375 660.699219 " fill-opacity="1" fill-rule="nonzero"/><path fill="#ffffff" d="M 660.015625 434.148438 C 660.015625 431.789062 658.832031 429.425781 656.472656 428.246094 C 654.113281 427.066406 651.753906 429.425781 650.574219 431.789062 C 650.574219 434.148438 651.753906 435.328125 652.933594 436.507812 C 642.316406 488.425781 617.535156 535.625 579.777344 573.382812 C 578.597656 572.203125 576.238281 573.382812 575.058594 574.5625 C 572.699219 576.921875 572.699219 579.28125 575.058594 581.640625 C 577.417969 584 579.777344 584 582.136719 581.640625 C 583.316406 580.460938 583.316406 578.101562 583.316406 576.921875 C 602.195312 558.042969 617.535156 536.804688 629.335938 513.203125 C 642.3125 489.605469 650.574219 463.644531 656.472656 437.6875 C 657.652344 437.6875 658.832031 436.507812 660.015625 434.148438 Z M 660.015625 434.148438 " fill-opacity="1" fill-rule="nonzero"/><path fill="#ffffff" d="M 619.894531 232.375 C 618.714844 230.015625 615.175781 230.015625 613.996094 231.195312 C 611.636719 232.375 611.636719 235.914062 612.816406 237.097656 C 613.996094 238.277344 616.355469 239.457031 617.535156 239.457031 C 644.675781 283.113281 658.832031 332.671875 658.832031 383.410156 C 658.832031 385.769531 658.832031 388.128906 658.832031 389.308594 C 656.472656 389.308594 655.292969 391.667969 655.292969 394.027344 C 655.292969 396.390625 657.652344 398.75 660.015625 398.75 C 662.375 398.75 664.734375 396.390625 664.734375 394.027344 C 664.734375 391.667969 663.554688 390.488281 662.375 389.308594 C 662.375 386.949219 662.375 384.589844 662.375 383.410156 C 662.375 331.492188 648.214844 281.933594 621.074219 238.277344 C 621.074219 235.914062 621.074219 234.734375 619.894531 232.375 Z M 619.894531 232.375 " fill-opacity="1" fill-rule="nonzero"/><path fill="#ffffff" d="M 585.675781 193.4375 C 571.515625 178.097656 555 165.117188 538.480469 153.320312 C 531.398438 148.597656 523.140625 143.878906 514.878906 139.160156 C 514.878906 136.800781 513.699219 135.621094 512.519531 134.441406 C 510.160156 133.261719 507.800781 134.441406 506.621094 136.800781 C 505.441406 139.160156 506.621094 141.519531 508.980469 142.699219 C 511.339844 143.878906 512.519531 142.699219 513.699219 141.519531 C 521.960938 146.238281 529.039062 150.960938 537.300781 155.679688 C 553.816406 167.480469 570.335938 180.457031 584.496094 195.796875 C 583.316406 196.976562 583.316406 199.335938 585.675781 200.515625 C 586.855469 202.878906 590.398438 202.878906 592.757812 200.515625 C 595.117188 199.335938 595.117188 195.796875 592.757812 193.4375 C 589.214844 193.4375 588.035156 192.257812 585.675781 193.4375 Z M 585.675781 193.4375 " fill-opacity="1" fill-rule="nonzero"/><path fill="#ffffff" d="M 216.351562 575.742188 C 215.171875 574.5625 212.8125 574.5625 211.632812 575.742188 C 196.292969 561.582031 182.132812 546.242188 170.335938 528.542969 C 171.515625 527.363281 171.515625 525.003906 170.335938 522.644531 C 169.15625 520.285156 165.613281 520.285156 164.433594 521.464844 C 162.074219 522.644531 162.074219 526.183594 163.253906 527.363281 C 164.433594 528.542969 166.792969 529.722656 167.972656 529.722656 C 179.773438 547.421875 193.933594 563.941406 209.273438 578.101562 C 208.09375 579.28125 209.273438 581.640625 210.453125 582.820312 C 212.8125 584 215.171875 584 216.351562 582.820312 C 217.53125 581.640625 218.710938 576.921875 216.351562 575.742188 Z M 216.351562 575.742188 " fill-opacity="1" fill-rule="nonzero"/><path fill="#ffffff" d="M 248.210938 608.78125 C 249.390625 609.960938 251.75 609.960938 252.929688 608.78125 C 271.808594 620.578125 293.050781 628.839844 314.289062 634.738281 C 314.289062 637.097656 315.46875 638.277344 317.828125 638.277344 C 320.1875 639.457031 322.546875 637.097656 323.726562 634.738281 C 324.90625 632.378906 322.546875 630.019531 320.1875 628.839844 C 317.828125 628.839844 316.648438 628.839844 315.46875 631.199219 C 294.230469 625.300781 274.171875 617.039062 255.289062 605.242188 C 255.289062 602.878906 255.289062 601.699219 252.929688 600.519531 C 250.570312 599.339844 248.210938 599.339844 247.03125 601.699219 C 245.851562 604.058594 245.851562 607.601562 248.210938 608.78125 Z M 248.210938 608.78125 " fill-opacity="1" fill-rule="nonzero"/><path fill="#ffffff" d="M 466.5 631.199219 C 467.683594 632.378906 470.042969 633.558594 471.222656 632.378906 C 473.582031 631.199219 474.761719 628.839844 473.582031 626.480469 C 472.402344 624.121094 470.042969 622.941406 467.683594 624.121094 C 465.320312 625.300781 464.140625 626.480469 464.140625 628.839844 C 438.183594 637.097656 411.042969 641.820312 382.726562 641.820312 C 375.644531 641.820312 368.566406 641.820312 361.488281 640.640625 C 361.488281 638.277344 359.125 637.097656 357.945312 637.097656 C 355.585938 637.097656 353.226562 638.277344 353.226562 640.640625 C 353.226562 643 354.40625 645.359375 356.765625 645.359375 C 359.125 645.359375 360.304688 644.179688 361.488281 643 C 368.566406 644.179688 375.644531 644.179688 382.726562 644.179688 C 412.222656 644.179688 440.542969 640.640625 466.5 631.199219 Z M 466.5 631.199219 " fill-opacity="1" fill-rule="nonzero"/><path fill="#ffffff" d="M 593.9375 539.164062 C 596.296875 539.164062 597.476562 539.164062 598.65625 537.984375 C 599.835938 535.625 599.835938 533.261719 597.476562 532.082031 C 595.117188 530.902344 592.757812 530.902344 591.578125 533.261719 C 590.398438 534.441406 590.398438 536.804688 591.578125 537.984375 C 570.335938 566.300781 543.199219 589.902344 513.699219 607.601562 C 512.519531 606.421875 510.160156 606.421875 508.980469 607.601562 C 506.621094 608.78125 505.441406 611.140625 506.621094 613.5 C 507.800781 615.859375 510.160156 617.039062 512.519531 615.859375 C 513.699219 614.679688 514.878906 613.5 514.878906 611.140625 C 530.21875 601.699219 544.378906 592.261719 558.539062 579.28125 C 571.515625 566.300781 583.316406 553.324219 593.9375 539.164062 Z M 593.9375 539.164062 " fill-opacity="1" fill-rule="nonzero"/><path fill="#ffffff" d="M 632.875 306.710938 C 630.515625 307.894531 629.335938 310.253906 629.335938 312.613281 C 629.335938 314.972656 631.695312 316.152344 634.054688 316.152344 C 639.953125 338.570312 643.496094 360.992188 643.496094 383.410156 C 643.496094 411.726562 638.773438 440.046875 630.515625 466.007812 C 628.15625 466.007812 626.976562 467.1875 625.796875 469.546875 C 624.617188 471.90625 625.796875 474.265625 628.15625 475.445312 C 630.515625 476.625 632.875 475.445312 634.054688 473.085938 C 635.234375 470.726562 634.054688 469.546875 632.875 468.367188 C 642.316406 441.226562 647.035156 412.910156 647.035156 384.589844 C 647.035156 360.992188 643.496094 338.570312 637.59375 316.152344 C 638.773438 314.972656 639.953125 312.613281 638.773438 311.433594 C 637.59375 307.894531 635.234375 305.53125 632.875 306.710938 Z M 632.875 306.710938 " fill-opacity="1" fill-rule="nonzero"/><path fill="#ffffff" d="M 618.714844 267.773438 C 611.636719 252.433594 602.195312 239.457031 592.757812 225.296875 C 583.316406 212.316406 571.515625 200.515625 559.71875 188.71875 C 560.898438 187.539062 559.71875 185.179688 558.539062 183.996094 C 556.179688 182.816406 553.816406 182.816406 552.636719 183.996094 C 550.277344 186.359375 550.277344 189.898438 552.636719 191.078125 C 553.816406 192.257812 556.179688 192.257812 557.359375 191.078125 C 582.136719 213.496094 601.015625 239.457031 616.355469 267.773438 C 615.175781 268.953125 615.175781 271.3125 615.175781 272.496094 C 616.355469 274.855469 618.714844 276.035156 621.074219 274.855469 C 623.433594 273.675781 624.617188 271.3125 623.433594 268.953125 C 622.253906 267.773438 621.074219 267.773438 618.714844 267.773438 Z M 618.714844 267.773438 " fill-opacity="1" fill-rule="nonzero"/><path fill="#ffffff" d="M 451.164062 127.359375 C 448.800781 126.179688 446.441406 128.539062 445.261719 130.898438 C 444.082031 133.261719 446.441406 135.621094 448.800781 136.800781 C 451.164062 136.800781 452.34375 136.800781 453.523438 134.441406 C 474.761719 140.339844 494.820312 148.597656 513.699219 159.21875 C 513.699219 161.578125 513.699219 162.757812 516.058594 163.9375 C 518.417969 165.117188 520.78125 165.117188 521.960938 162.757812 C 523.140625 160.398438 523.140625 158.039062 520.78125 156.859375 C 518.417969 155.679688 516.058594 155.679688 514.878906 156.859375 C 496 146.238281 475.941406 136.800781 454.703125 130.898438 C 454.703125 129.71875 453.523438 127.359375 451.164062 127.359375 Z M 451.164062 127.359375 " fill-opacity="1" fill-rule="nonzero"/><path fill="#ffffff" d="M 411.042969 120.28125 C 408.683594 120.28125 407.503906 121.460938 406.324219 122.640625 C 399.246094 121.460938 392.164062 121.460938 385.085938 121.460938 C 363.847656 121.460938 343.785156 123.820312 323.726562 128.539062 C 319.007812 129.71875 313.109375 130.898438 308.386719 133.261719 C 277.710938 142.699219 249.390625 158.039062 223.433594 178.097656 C 222.253906 176.917969 219.890625 176.917969 217.53125 178.097656 C 215.171875 179.277344 215.171875 182.816406 216.351562 183.996094 C 217.53125 186.359375 221.070312 186.359375 222.253906 185.179688 C 223.433594 183.996094 224.613281 181.636719 223.433594 180.457031 C 248.210938 160.398438 276.53125 146.238281 307.207031 136.800781 C 311.929688 135.621094 317.828125 134.441406 322.546875 132.082031 C 342.605469 127.359375 362.667969 125 382.726562 125 C 389.804688 125 396.886719 125 403.964844 126.179688 C 403.964844 128.539062 406.324219 129.71875 407.503906 129.71875 C 409.863281 129.71875 412.222656 128.539062 412.222656 126.179688 C 415.765625 122.640625 413.402344 120.28125 411.042969 120.28125 Z M 411.042969 120.28125 " fill-opacity="1" fill-rule="nonzero"/><path fill="#ffffff" d="M 435.824219 626.480469 C 438.183594 626.480469 439.363281 624.121094 439.363281 622.941406 C 471.222656 615.859375 500.71875 602.878906 527.859375 582.820312 C 540.839844 573.382812 553.816406 561.582031 565.617188 549.78125 C 576.238281 539.164062 585.675781 526.183594 593.9375 513.203125 C 596.296875 513.203125 597.476562 513.203125 598.65625 510.84375 C 599.835938 508.484375 599.835938 506.125 597.476562 504.945312 C 595.117188 503.765625 592.757812 503.765625 591.578125 506.125 C 590.398438 507.304688 590.398438 509.664062 591.578125 510.84375 C 557.359375 565.121094 503.082031 604.058594 440.542969 618.21875 C 439.363281 617.039062 438.183594 615.859375 435.824219 615.859375 C 433.464844 615.859375 432.285156 618.21875 432.285156 621.757812 C 431.101562 625.300781 433.464844 627.660156 435.824219 626.480469 Z M 435.824219 626.480469 " fill-opacity="1" fill-rule="nonzero"/><path fill="#ffffff" d="M 630.515625 418.808594 C 630.515625 416.449219 629.335938 414.089844 626.976562 414.089844 C 624.613281 414.089844 622.253906 415.269531 622.253906 417.628906 C 622.253906 419.988281 623.433594 421.167969 624.613281 422.347656 C 621.074219 442.40625 615.175781 462.464844 606.914062 481.34375 C 604.554688 481.34375 603.375 482.527344 602.195312 483.707031 C 601.015625 486.066406 602.195312 488.425781 604.554688 489.605469 C 606.914062 490.785156 609.277344 489.605469 610.457031 487.246094 C 611.636719 484.886719 610.457031 483.707031 609.277344 482.527344 C 617.535156 463.644531 623.433594 443.585938 626.976562 422.347656 C 629.335938 422.347656 630.515625 421.167969 630.515625 418.808594 Z M 630.515625 418.808594 " fill-opacity="1" fill-rule="nonzero"/><path fill="#ffffff" d="M 609.277344 283.113281 C 610.457031 281.933594 611.636719 279.574219 610.457031 278.394531 C 609.277344 276.035156 606.914062 274.855469 604.554688 276.035156 C 602.195312 277.214844 601.015625 279.574219 602.195312 281.933594 C 603.375 284.292969 604.554688 284.292969 606.914062 284.292969 C 610.457031 293.734375 613.996094 303.171875 617.535156 312.613281 C 623.433594 332.671875 626.976562 352.730469 626.976562 372.789062 C 624.613281 373.96875 623.433594 375.148438 623.433594 377.511719 C 623.433594 379.871094 625.796875 382.230469 628.15625 382.230469 C 630.515625 382.230469 632.875 379.871094 632.875 377.511719 C 632.875 375.148438 631.695312 373.96875 629.335938 372.789062 C 628.15625 351.550781 624.617188 331.492188 618.714844 311.433594 C 617.535156 303.171875 613.996094 292.554688 609.277344 283.113281 Z M 609.277344 283.113281 " fill-opacity="1" fill-rule="nonzero"/><path fill="#ffffff" d="M 589.214844 258.335938 C 590.398438 260.695312 593.9375 260.695312 595.117188 259.515625 C 597.476562 258.335938 597.476562 254.796875 596.296875 253.613281 C 595.117188 252.433594 592.757812 251.253906 591.578125 251.253906 C 571.515625 220.578125 545.558594 193.4375 513.699219 174.558594 C 513.699219 172.199219 513.699219 171.019531 511.339844 169.839844 C 508.980469 168.660156 506.621094 169.839844 505.441406 171.019531 C 504.261719 173.378906 505.441406 175.738281 506.621094 176.917969 C 507.800781 178.097656 510.160156 178.097656 511.339844 176.917969 C 542.019531 195.796875 567.976562 221.757812 588.035156 252.433594 C 588.035156 253.613281 588.035156 255.976562 589.214844 258.335938 Z M 589.214844 258.335938 " fill-opacity="1" fill-rule="nonzero"/><path fill="#ffffff" d="M 473.582031 150.960938 C 471.222656 149.78125 470.042969 150.960938 468.863281 152.140625 C 445.261719 143.878906 419.304688 137.980469 394.523438 137.980469 C 393.34375 135.621094 392.164062 134.441406 389.804688 134.441406 C 387.445312 134.441406 385.085938 136.800781 385.085938 139.160156 C 385.085938 141.519531 387.445312 143.878906 389.804688 143.878906 C 392.164062 143.878906 393.34375 142.699219 394.523438 140.339844 C 419.304688 141.519531 444.082031 146.238281 467.683594 154.5 C 467.683594 156.859375 468.863281 158.039062 470.042969 159.21875 C 472.402344 160.398438 474.761719 159.21875 475.941406 156.859375 C 477.121094 154.5 475.941406 150.960938 473.582031 150.960938 Z M 473.582031 150.960938 " fill-opacity="1" fill-rule="nonzero"/><path fill="#ffffff" d="M 347.328125 136.800781 C 344.96875 136.800781 343.785156 139.160156 343.785156 140.339844 C 323.726562 143.878906 303.667969 149.78125 284.789062 158.039062 C 283.609375 156.859375 281.25 155.679688 280.070312 156.859375 C 277.710938 158.039062 276.53125 160.398438 277.710938 162.757812 C 278.890625 165.117188 281.25 166.296875 283.609375 165.117188 C 285.96875 163.9375 285.96875 162.757812 285.96875 160.398438 C 304.847656 152.140625 323.726562 146.238281 343.785156 142.699219 C 344.96875 143.878906 346.148438 145.058594 348.507812 145.058594 C 350.867188 145.058594 353.226562 142.699219 352.046875 140.339844 C 352.046875 137.980469 349.6875 136.800781 347.328125 136.800781 Z M 347.328125 136.800781 " fill-opacity="1" fill-rule="nonzero"/><path fill="#ffffff" d="M 173.875 255.976562 C 171.515625 255.976562 170.335938 255.976562 169.15625 258.335938 C 167.972656 260.695312 169.15625 263.054688 170.335938 264.234375 C 172.695312 265.414062 175.054688 264.234375 176.234375 263.054688 C 177.414062 261.875 177.414062 259.515625 176.234375 258.335938 C 192.753906 231.195312 215.171875 206.417969 239.953125 187.539062 C 241.132812 188.71875 243.492188 188.71875 244.671875 187.539062 C 247.03125 186.359375 247.03125 182.816406 245.851562 181.636719 C 244.671875 179.277344 241.132812 179.277344 239.953125 180.457031 C 238.769531 181.636719 237.589844 183.996094 238.769531 185.179688 C 225.792969 194.617188 213.992188 205.238281 202.191406 217.035156 C 191.574219 228.835938 182.132812 242.996094 173.875 255.976562 Z M 173.875 255.976562 " fill-opacity="1" fill-rule="nonzero"/><path fill="#ffffff" d="M 269.449219 604.058594 C 271.808594 605.242188 274.171875 604.058594 275.351562 601.699219 C 276.53125 599.339844 275.351562 596.980469 272.988281 595.800781 C 270.628906 594.621094 269.449219 595.800781 268.269531 596.980469 C 228.152344 575.742188 195.113281 543.882812 172.695312 503.765625 C 173.875 502.585938 173.875 500.226562 173.875 499.042969 C 172.695312 496.683594 170.335938 495.503906 167.972656 496.683594 C 165.613281 497.863281 164.433594 500.226562 165.613281 502.585938 C 166.792969 503.765625 167.972656 504.945312 170.335938 504.945312 C 182.132812 525.003906 195.113281 542.703125 211.632812 559.222656 C 228.152344 575.742188 245.851562 588.722656 265.910156 599.339844 C 267.089844 601.699219 268.269531 604.058594 269.449219 604.058594 Z M 269.449219 604.058594 " fill-opacity="1" fill-rule="nonzero"/><path fill="#ffffff" d="M 310.75 621.757812 C 313.109375 621.757812 314.289062 621.757812 315.46875 620.578125 C 337.886719 626.480469 360.304688 630.019531 383.90625 630.019531 C 386.265625 630.019531 388.625 630.019531 389.804688 630.019531 C 390.984375 631.199219 392.164062 633.558594 394.523438 632.378906 C 396.886719 632.378906 399.246094 630.019531 399.246094 627.660156 C 399.246094 625.300781 396.886719 622.941406 394.523438 622.941406 C 392.164062 622.941406 390.984375 624.121094 389.804688 626.480469 C 387.445312 626.480469 385.085938 626.480469 383.90625 626.480469 C 361.488281 626.480469 337.886719 622.941406 316.648438 617.039062 C 316.648438 614.679688 315.46875 613.5 313.109375 612.320312 C 310.75 611.140625 308.386719 613.5 307.207031 615.859375 C 307.207031 618.21875 308.386719 620.578125 310.75 621.757812 Z M 310.75 621.757812 " fill-opacity="1" fill-rule="nonzero"/><path fill="#ffffff" d="M 498.359375 580.460938 C 497.179688 579.28125 494.820312 579.28125 493.640625 580.460938 C 491.28125 580.460938 490.101562 584 491.28125 586.359375 C 492.460938 588.722656 494.820312 589.902344 497.179688 588.722656 C 498.359375 587.542969 499.539062 586.359375 499.539062 584 C 519.601562 572.203125 537.300781 558.042969 552.636719 541.523438 C 567.976562 525.003906 580.957031 506.125 591.578125 484.886719 C 593.9375 484.886719 595.117188 483.707031 596.296875 482.527344 C 597.476562 480.164062 596.296875 477.804688 593.9375 476.625 C 591.578125 475.445312 589.214844 476.625 588.035156 478.984375 C 586.855469 481.34375 588.035156 482.527344 589.214844 483.707031 C 570.335938 522.644531 537.300781 558.042969 498.359375 580.460938 Z M 498.359375 580.460938 " fill-opacity="1" fill-rule="nonzero"/><path fill="#ffffff" d="M 617.535156 371.609375 C 617.535156 369.25 615.175781 366.890625 612.816406 366.890625 C 610.457031 366.890625 608.097656 369.25 608.097656 371.609375 C 608.097656 373.96875 609.277344 375.148438 611.636719 376.328125 C 611.636719 378.691406 611.636719 381.050781 611.636719 383.410156 C 611.636719 401.109375 609.277344 418.808594 605.734375 435.328125 C 603.375 435.328125 602.195312 436.507812 602.195312 438.867188 C 601.015625 441.226562 603.375 443.585938 605.734375 444.765625 C 608.097656 445.945312 610.457031 443.585938 611.636719 441.226562 C 611.636719 438.867188 611.636719 437.6875 609.277344 436.507812 C 612.816406 418.808594 615.175781 401.109375 615.175781 383.410156 C 615.175781 381.050781 615.175781 378.691406 615.175781 376.328125 C 616.355469 375.148438 617.535156 373.96875 617.535156 371.609375 Z M 617.535156 371.609375 " fill-opacity="1" fill-rule="nonzero"/><path fill="#ffffff" d="M 603.375 333.851562 C 603.375 336.210938 606.914062 337.390625 609.277344 337.390625 C 611.636719 337.390625 612.816406 333.851562 612.816406 331.492188 C 612.816406 329.132812 610.457031 327.953125 609.277344 327.953125 C 603.375 304.351562 593.9375 283.113281 582.136719 261.875 C 583.316406 260.695312 583.316406 258.335938 582.136719 255.976562 C 580.957031 253.613281 577.417969 253.613281 576.238281 254.796875 C 573.878906 255.976562 573.878906 259.515625 575.058594 260.695312 C 576.238281 261.875 578.597656 263.054688 579.777344 263.054688 C 591.578125 283.113281 601.015625 304.351562 606.917969 327.953125 C 604.554688 330.3125 603.375 331.492188 603.375 333.851562 Z M 603.375 333.851562 " fill-opacity="1" fill-rule="nonzero"/><path fill="#ffffff" d="M 451.164062 159.21875 C 448.800781 158.039062 446.441406 160.398438 445.261719 162.757812 C 445.261719 165.117188 446.441406 167.480469 448.800781 167.480469 C 451.164062 167.480469 452.34375 167.480469 453.523438 166.296875 C 487.742188 176.917969 518.417969 195.796875 544.378906 221.757812 C 543.199219 222.9375 544.378906 225.296875 545.558594 226.476562 C 546.738281 228.835938 550.277344 228.835938 552.636719 226.476562 C 555 224.117188 555 221.757812 552.636719 219.398438 C 551.457031 218.214844 549.097656 217.035156 547.917969 218.214844 C 521.960938 192.257812 490.101562 173.378906 455.882812 162.757812 C 454.703125 161.578125 453.523438 159.21875 451.164062 159.21875 Z M 451.164062 159.21875 " fill-opacity="1" fill-rule="nonzero"/><path fill="#ffffff" d="M 409.863281 160.398438 C 412.222656 160.398438 414.585938 159.21875 414.585938 156.859375 C 414.585938 154.5 413.402344 152.140625 411.042969 152.140625 C 408.683594 152.140625 407.503906 153.320312 406.324219 154.5 C 399.246094 153.320312 392.164062 153.320312 383.90625 153.320312 C 369.746094 153.320312 355.585938 154.5 341.425781 156.859375 C 340.246094 155.679688 339.066406 154.5 336.707031 154.5 C 334.347656 154.5 333.167969 158.039062 333.167969 160.398438 C 333.167969 162.757812 336.707031 163.9375 339.066406 163.9375 C 341.425781 163.9375 342.605469 161.578125 342.605469 160.398438 C 356.765625 156.859375 370.925781 155.679688 385.085938 155.679688 C 392.164062 155.679688 399.246094 155.679688 406.324219 156.859375 C 406.324219 158.039062 407.503906 160.398438 409.863281 160.398438 Z M 409.863281 160.398438 " fill-opacity="1" fill-rule="nonzero"/><path fill="#ffffff" d="M 289.507812 176.917969 C 290.6875 178.097656 293.050781 179.277344 294.230469 178.097656 C 296.589844 176.917969 297.769531 174.558594 296.589844 172.199219 C 295.410156 169.839844 293.050781 168.660156 290.6875 169.839844 C 288.328125 171.019531 288.328125 172.199219 288.328125 174.558594 C 254.109375 189.898438 223.433594 214.675781 201.011719 245.355469 C 198.652344 245.355469 197.472656 245.355469 196.292969 246.535156 C 195.113281 248.894531 195.113281 251.253906 197.472656 252.433594 C 199.832031 253.613281 202.191406 253.613281 203.371094 251.253906 C 204.554688 250.074219 204.554688 247.714844 203.371094 246.535156 C 225.792969 215.855469 255.289062 192.257812 289.507812 176.917969 Z M 289.507812 176.917969 " fill-opacity="1" fill-rule="nonzero"/><path fill="#ffffff" d="M 209.273438 537.984375 C 210.453125 540.34375 213.992188 540.34375 216.351562 537.984375 C 218.710938 536.804688 218.710938 533.261719 216.351562 530.902344 C 215.171875 529.722656 212.8125 528.542969 211.632812 529.722656 C 196.292969 512.023438 184.492188 493.144531 176.234375 471.90625 C 177.414062 470.726562 178.59375 468.367188 177.414062 467.1875 C 176.234375 464.828125 173.875 463.644531 171.515625 464.828125 C 169.15625 466.007812 167.972656 468.367188 169.15625 470.726562 C 169.15625 473.085938 170.335938 474.265625 172.695312 474.265625 C 182.132812 495.503906 193.933594 514.382812 209.273438 532.082031 C 208.09375 534.441406 208.09375 536.804688 209.273438 537.984375 Z M 209.273438 537.984375 " fill-opacity="1" fill-rule="nonzero"/><path fill="#ffffff" d="M 252.929688 573.382812 C 276.53125 589.902344 302.488281 601.699219 329.628906 607.601562 C 329.628906 609.960938 330.808594 611.140625 333.167969 611.140625 C 335.527344 611.140625 337.886719 609.960938 339.066406 607.601562 C 339.066406 605.242188 337.886719 602.878906 335.527344 601.699219 C 333.167969 601.699219 331.988281 601.699219 330.808594 604.058594 C 303.667969 596.980469 278.890625 586.359375 255.289062 569.84375 C 255.289062 567.480469 255.289062 566.300781 254.109375 565.121094 C 251.75 563.941406 249.390625 563.941406 248.210938 566.300781 C 247.03125 568.660156 247.03125 571.023438 249.390625 572.203125 C 249.390625 574.5625 251.75 574.5625 252.929688 573.382812 Z M 252.929688 573.382812 " fill-opacity="1" fill-rule="nonzero"/><path fill="#ffffff" d="M 458.242188 605.242188 C 460.601562 604.058594 461.78125 601.699219 460.601562 599.339844 C 459.421875 596.980469 457.0625 595.800781 454.703125 596.980469 C 452.34375 598.160156 451.164062 599.339844 451.164062 601.699219 C 429.921875 608.78125 406.324219 612.320312 383.90625 612.320312 C 381.546875 612.320312 379.1875 612.320312 378.003906 612.320312 C 378.003906 609.960938 375.644531 608.78125 373.285156 608.78125 C 370.925781 608.78125 368.566406 611.140625 368.566406 613.5 C 368.566406 615.859375 370.925781 618.21875 373.285156 618.21875 C 375.644531 618.21875 376.824219 617.039062 378.003906 615.859375 C 380.367188 615.859375 382.726562 615.859375 383.90625 615.859375 C 407.503906 615.859375 429.921875 612.320312 452.34375 605.242188 C 453.523438 605.242188 455.882812 605.242188 458.242188 605.242188 Z M 458.242188 605.242188 " fill-opacity="1" fill-rule="nonzero"/><path fill="#ffffff" d="M 280.070312 201.699219 C 281.25 200.515625 282.429688 199.335938 282.429688 196.976562 C 307.207031 183.996094 333.167969 174.558594 361.484375 172.199219 C 362.667969 173.378906 363.847656 174.558594 366.207031 174.558594 C 368.566406 174.558594 370.925781 172.199219 370.925781 169.839844 C 370.925781 167.480469 368.566406 165.117188 366.207031 165.117188 C 363.847656 165.117188 362.667969 166.296875 362.667969 168.660156 C 334.347656 172.199219 307.207031 180.457031 282.429688 194.617188 C 281.25 193.4375 278.890625 193.4375 276.53125 194.617188 C 274.171875 195.796875 274.171875 198.15625 275.351562 200.515625 C 274.171875 202.878906 277.710938 202.878906 280.070312 201.699219 Z M 280.070312 201.699219 " fill-opacity="1" fill-rule="nonzero"/><path fill="#ffffff" d="M 221.070312 523.824219 C 235.230469 539.164062 250.570312 553.324219 268.269531 565.121094 C 268.269531 567.480469 268.269531 568.660156 270.628906 569.84375 C 272.988281 571.023438 275.351562 569.84375 276.53125 568.660156 C 277.710938 567.480469 276.53125 563.941406 275.351562 562.761719 C 274.171875 561.582031 271.808594 561.582031 270.628906 562.761719 C 252.929688 552.140625 237.589844 537.984375 223.433594 522.644531 C 224.613281 521.464844 224.613281 519.105469 223.433594 517.925781 C 222.253906 515.5625 218.710938 515.5625 217.53125 516.742188 C 215.171875 517.925781 215.171875 521.464844 216.351562 522.644531 C 217.53125 525.003906 219.890625 525.003906 221.070312 523.824219 Z M 221.070312 523.824219 " fill-opacity="1" fill-rule="nonzero"/><path fill="#ffffff" d="M 310.75 588.722656 C 313.109375 589.902344 314.289062 588.722656 315.46875 587.542969 C 337.886719 594.621094 360.304688 598.160156 383.90625 598.160156 C 390.984375 598.160156 398.066406 598.160156 406.324219 596.980469 C 407.503906 598.160156 408.683594 599.339844 411.042969 599.339844 C 413.402344 599.339844 415.765625 596.980469 414.585938 594.621094 C 414.585938 592.261719 412.222656 589.902344 409.863281 591.082031 C 407.503906 591.082031 406.324219 592.261719 406.324219 594.621094 C 399.246094 595.800781 392.164062 595.800781 385.085938 595.800781 C 361.488281 595.800781 339.066406 592.261719 317.828125 585.179688 C 317.828125 582.820312 316.648438 581.640625 314.289062 580.460938 C 311.929688 579.28125 309.570312 580.460938 308.386719 582.820312 C 307.207031 585.179688 308.386719 587.542969 310.75 588.722656 Z M 310.75 588.722656 " fill-opacity="1" fill-rule="nonzero"/><path fill="#ffffff" d="M 451.164062 591.082031 C 453.523438 589.902344 454.703125 588.722656 454.703125 586.359375 C 488.921875 574.5625 519.601562 554.503906 543.199219 527.363281 C 544.378906 528.542969 546.738281 527.363281 547.917969 526.183594 C 549.097656 523.824219 549.097656 521.464844 547.917969 520.285156 C 545.558594 519.105469 543.199219 519.105469 542.019531 520.285156 C 540.839844 521.464844 540.839844 523.824219 542.019531 525.003906 C 518.417969 550.960938 487.742188 571.023438 454.703125 582.820312 C 453.523438 581.640625 451.164062 580.460938 449.984375 581.640625 C 447.621094 582.820312 446.441406 585.179688 446.441406 587.542969 C 446.441406 589.902344 448.800781 592.261719 451.164062 591.082031 Z M 451.164062 591.082031 " fill-opacity="1" fill-rule="nonzero"/><path fill="#ffffff" d="M 601.015625 356.269531 C 601.015625 353.910156 598.65625 351.550781 596.296875 352.730469 C 593.9375 352.730469 591.578125 355.089844 592.757812 357.449219 C 592.757812 359.8125 593.9375 360.992188 596.296875 360.992188 C 597.476562 368.070312 597.476562 375.148438 597.476562 382.230469 C 597.476562 416.449219 589.214844 450.667969 573.878906 480.164062 C 571.515625 480.164062 570.335938 480.164062 569.15625 482.527344 C 567.976562 484.886719 569.15625 487.246094 571.515625 488.425781 C 573.878906 489.605469 576.238281 488.425781 577.417969 486.066406 C 578.597656 484.886719 578.597656 482.527344 576.238281 480.164062 C 583.316406 466.007812 589.214844 450.667969 593.9375 435.328125 C 598.65625 417.628906 601.015625 398.75 601.015625 381.050781 C 601.015625 373.96875 601.015625 366.890625 599.835938 358.628906 C 601.015625 360.992188 602.195312 358.628906 601.015625 356.269531 Z M 601.015625 356.269531 " fill-opacity="1" fill-rule="nonzero"/><path fill="#ffffff" d="M 586.855469 300.8125 C 585.675781 298.453125 584.496094 297.273438 582.136719 298.453125 C 566.796875 264.234375 543.199219 233.554688 513.699219 211.136719 C 483.019531 187.539062 446.441406 173.378906 408.683594 169.839844 C 408.683594 167.480469 406.324219 166.296875 405.144531 166.296875 C 402.785156 166.296875 400.425781 167.480469 400.425781 171.019531 C 400.425781 174.558594 401.605469 175.738281 405.144531 175.738281 C 407.503906 175.738281 408.683594 174.558594 409.863281 173.378906 C 485.382812 181.636719 550.277344 230.015625 580.957031 300.8125 C 579.777344 301.992188 578.597656 304.351562 579.777344 305.53125 C 580.957031 307.894531 583.316406 309.074219 585.675781 307.894531 C 586.855469 305.53125 588.035156 303.171875 586.855469 300.8125 Z M 586.855469 300.8125 " fill-opacity="1" fill-rule="nonzero"/><path fill="#ffffff" d="M 473.582031 117.921875 C 471.222656 116.742188 470.042969 117.921875 468.863281 119.101562 C 457.0625 115.5625 444.082031 112.019531 431.101562 109.660156 C 415.765625 108.480469 400.425781 106.121094 385.085938 106.121094 C 372.105469 106.121094 360.304688 107.300781 347.328125 108.480469 C 346.148438 107.300781 344.96875 106.121094 342.605469 106.121094 C 340.246094 106.121094 337.886719 108.480469 339.066406 110.839844 C 339.066406 113.199219 341.425781 115.5625 343.785156 114.382812 C 346.148438 114.382812 347.328125 112.019531 347.328125 110.839844 C 359.125 109.660156 372.105469 108.480469 383.90625 108.480469 C 399.246094 108.480469 414.585938 109.660156 429.921875 112.019531 C 442.902344 114.382812 454.703125 116.742188 466.5 121.460938 C 466.5 123.820312 467.683594 125 470.042969 126.179688 C 472.402344 127.359375 474.761719 126.179688 475.941406 123.820312 C 477.121094 121.460938 475.941406 119.101562 473.582031 117.921875 Z M 473.582031 117.921875 " fill-opacity="1" fill-rule="nonzero"/><path fill="#ffffff" d="M 221.070312 499.042969 C 247.03125 536.804688 285.96875 563.941406 329.628906 575.742188 C 329.628906 578.101562 330.808594 579.28125 333.167969 579.28125 C 335.527344 580.460938 337.886719 578.101562 339.066406 575.742188 C 340.246094 573.382812 337.886719 571.023438 335.527344 569.839844 C 333.167969 569.839844 331.988281 569.839844 330.808594 572.203125 C 287.148438 560.402344 249.390625 533.261719 223.433594 496.683594 C 224.613281 495.503906 224.613281 493.144531 223.433594 491.964844 C 222.253906 489.605469 218.710938 489.605469 217.53125 490.785156 C 216.351562 491.964844 215.171875 495.503906 216.351562 496.683594 C 216.351562 497.863281 218.710938 499.042969 221.070312 499.042969 Z M 221.070312 499.042969 " fill-opacity="1" fill-rule="nonzero"/><path fill="#ffffff" d="M 458.242188 572.203125 C 460.601562 571.023438 461.78125 568.660156 460.601562 566.300781 C 459.421875 563.941406 457.0625 562.761719 454.703125 563.941406 C 452.34375 565.121094 452.34375 566.300781 452.34375 568.660156 C 431.101562 576.921875 407.503906 580.460938 385.085938 580.460938 C 382.726562 580.460938 380.367188 580.460938 378.003906 580.460938 C 378.003906 578.101562 375.644531 576.921875 373.285156 576.921875 C 370.925781 576.921875 368.566406 579.28125 368.566406 581.640625 C 368.566406 584 370.925781 586.359375 373.285156 586.359375 C 375.644531 586.359375 376.824219 585.179688 378.003906 584 C 380.367188 584 382.726562 584 385.085938 584 C 408.683594 584 432.285156 580.460938 453.523438 572.203125 C 454.703125 572.203125 457.0625 573.382812 458.242188 572.203125 Z M 458.242188 572.203125 " fill-opacity="1" fill-rule="nonzero"/><path fill="#ffffff" d="M 570.335938 466.007812 C 571.515625 463.644531 570.335938 461.285156 567.976562 460.105469 C 565.617188 458.925781 563.257812 460.105469 562.078125 462.464844 C 560.898438 464.828125 562.078125 466.007812 563.257812 467.1875 C 547.917969 497.863281 525.5 525.003906 497.179688 545.0625 C 496 543.882812 493.640625 543.882812 492.460938 545.0625 C 490.101562 546.242188 490.101562 549.78125 491.28125 550.960938 C 492.460938 553.324219 496 553.324219 497.179688 552.140625 C 498.359375 550.960938 499.539062 548.601562 499.539062 547.421875 C 529.039062 527.363281 551.457031 500.226562 566.796875 468.367188 C 567.976562 468.367188 569.15625 467.1875 570.335938 466.007812 Z M 570.335938 466.007812 " fill-opacity="1" fill-rule="nonzero"/><path fill="#ffffff" d="M 577.417969 408.1875 C 577.417969 410.546875 578.597656 412.910156 580.957031 412.910156 C 583.316406 412.910156 585.675781 411.726562 585.675781 409.367188 C 585.675781 407.007812 584.496094 405.828125 583.316406 404.648438 C 584.496094 397.570312 584.496094 390.488281 584.496094 382.230469 C 584.496094 366.890625 582.136719 351.550781 578.597656 336.210938 C 575.058594 323.230469 571.515625 310.253906 565.617188 298.453125 C 566.796875 297.273438 566.796875 294.914062 566.796875 293.734375 C 565.617188 291.375 563.257812 290.195312 560.898438 291.375 C 558.539062 292.554688 557.359375 294.914062 558.539062 297.273438 C 559.71875 298.453125 560.898438 299.632812 563.257812 299.632812 C 575.058594 325.59375 580.957031 353.910156 580.957031 382.230469 C 580.957031 389.308594 580.957031 396.390625 579.777344 403.46875 C 578.597656 404.648438 577.417969 407.007812 577.417969 408.1875 Z M 577.417969 408.1875 " fill-opacity="1" fill-rule="nonzero"/><path fill="#ffffff" d="M 534.9375 251.253906 C 517.238281 230.015625 494.820312 213.496094 470.042969 201.699219 C 470.042969 199.335938 468.863281 198.15625 467.683594 196.976562 C 465.320312 195.796875 462.960938 196.976562 461.78125 199.335938 C 460.601562 201.699219 461.78125 204.058594 464.140625 205.238281 C 466.5 206.417969 467.683594 205.238281 468.863281 204.058594 C 493.640625 215.855469 514.878906 232.375 532.578125 252.433594 C 531.398438 253.613281 531.398438 255.976562 532.578125 257.15625 C 533.757812 259.515625 537.300781 259.515625 538.480469 258.335938 C 540.839844 257.15625 540.839844 253.613281 539.660156 252.433594 C 539.660156 251.253906 537.300781 251.253906 534.9375 251.253906 Z M 534.9375 251.253906 " fill-opacity="1" fill-rule="nonzero"/><path fill="#ffffff" d="M 426.382812 183.996094 C 424.023438 183.996094 422.84375 183.996094 421.664062 186.359375 C 409.863281 183.996094 396.886719 182.816406 383.90625 182.816406 C 356.765625 182.816406 330.808594 187.539062 306.027344 198.15625 C 283.609375 207.597656 263.550781 220.578125 245.851562 238.277344 C 244.671875 237.097656 242.3125 238.277344 239.953125 239.457031 C 237.589844 241.816406 238.769531 244.175781 239.953125 246.535156 C 242.3125 248.894531 244.671875 247.714844 247.03125 246.535156 C 248.210938 245.355469 248.210938 242.996094 248.210938 241.816406 C 284.789062 206.417969 333.167969 187.539062 383.90625 187.539062 C 395.703125 187.539062 408.683594 188.71875 420.484375 191.078125 C 420.484375 193.4375 421.664062 194.617188 424.023438 194.617188 C 426.382812 194.617188 428.742188 193.4375 429.921875 191.078125 C 431.101562 187.539062 428.742188 185.179688 426.382812 183.996094 Z M 426.382812 183.996094 " fill-opacity="1" fill-rule="nonzero"/><path fill="#ffffff" d="M 572.699219 388.128906 C 572.699219 385.769531 570.335938 383.410156 567.976562 383.410156 C 565.617188 383.410156 563.257812 385.769531 563.257812 388.128906 C 563.257812 390.488281 564.4375 391.667969 565.617188 392.847656 C 564.4375 425.886719 553.816406 456.566406 536.117188 483.707031 C 533.757812 483.707031 532.578125 483.707031 531.398438 486.066406 C 530.21875 488.425781 530.21875 490.785156 532.578125 491.964844 C 534.9375 493.144531 537.300781 493.144531 538.480469 490.785156 C 539.660156 489.605469 539.660156 487.246094 538.480469 484.886719 C 556.179688 457.746094 566.796875 425.886719 567.976562 392.847656 C 571.515625 391.667969 572.699219 390.488281 572.699219 388.128906 Z M 572.699219 388.128906 " fill-opacity="1" fill-rule="nonzero"/><path fill="#ffffff" d="M 565.617188 352.730469 C 567.976562 352.730469 570.335938 350.371094 569.15625 346.832031 C 569.15625 344.472656 566.796875 343.292969 565.617188 343.292969 C 559.71875 314.972656 546.738281 287.832031 527.859375 265.414062 C 529.039062 264.234375 529.039062 261.875 527.859375 259.515625 C 526.679688 257.15625 523.140625 257.15625 521.960938 259.515625 C 519.601562 260.695312 519.601562 264.234375 521.960938 265.414062 C 523.140625 266.59375 525.5 267.773438 526.679688 266.59375 C 545.558594 289.011719 558.539062 314.972656 564.4375 343.292969 C 563.257812 344.472656 562.078125 345.652344 562.078125 348.011719 C 560.898438 351.550781 563.257812 352.730469 565.617188 352.730469 Z M 565.617188 352.730469 " fill-opacity="1" fill-rule="nonzero"/><path fill="#ffffff" d="M 378.003906 198.15625 C 376.824219 196.976562 375.644531 194.617188 373.285156 195.796875 C 370.925781 195.796875 368.566406 198.15625 368.566406 200.515625 C 368.566406 202.878906 370.925781 205.238281 373.285156 205.238281 C 375.644531 205.238281 376.824219 204.058594 376.824219 201.699219 C 379.1875 201.699219 381.546875 201.699219 382.726562 201.699219 C 418.125 201.699219 452.34375 212.316406 481.839844 231.195312 C 481.839844 233.554688 481.839844 234.734375 484.199219 235.914062 C 486.5625 237.097656 488.921875 237.097656 490.101562 234.734375 C 491.28125 232.375 491.28125 230.015625 488.921875 228.835938 C 487.742188 227.65625 485.382812 227.65625 483.019531 228.835938 C 453.523438 209.957031 418.125 199.335938 382.726562 199.335938 C 382.726562 198.15625 380.367188 198.15625 378.003906 198.15625 Z M 378.003906 198.15625 " fill-opacity="1" fill-rule="nonzero"/><path fill="#ffffff" d="M 268.269531 527.363281 C 283.609375 539.164062 300.128906 548.601562 317.828125 555.683594 C 336.707031 562.761719 355.585938 567.480469 375.644531 567.480469 C 375.644531 569.84375 378.003906 571.023438 380.367188 571.023438 C 382.726562 571.023438 385.085938 568.660156 385.085938 566.300781 C 385.085938 563.941406 382.726562 561.582031 380.367188 561.582031 C 378.003906 561.582031 376.824219 562.761719 375.644531 563.941406 C 337.886719 561.582031 300.128906 547.421875 270.628906 523.824219 C 271.808594 522.644531 270.628906 520.285156 269.449219 519.105469 C 267.089844 517.925781 264.730469 517.925781 263.550781 519.105469 C 262.371094 520.285156 262.371094 523.824219 263.550781 525.003906 C 264.730469 528.542969 267.089844 528.542969 268.269531 527.363281 Z M 268.269531 527.363281 " fill-opacity="1" fill-rule="nonzero"/><path fill="#ffffff" d="M 420.484375 567.480469 C 422.84375 567.480469 424.023438 565.121094 424.023438 563.941406 C 452.34375 558.042969 478.300781 545.0625 500.71875 527.363281 C 501.898438 528.542969 504.261719 528.542969 506.621094 527.363281 C 508.980469 526.183594 508.980469 522.644531 506.621094 521.464844 C 505.441406 519.105469 501.898438 519.105469 500.71875 521.464844 C 499.539062 522.644531 498.359375 525.003906 499.539062 526.183594 C 477.121094 543.882812 451.164062 556.863281 424.023438 562.761719 C 422.84375 561.582031 421.664062 560.402344 419.304688 560.402344 C 416.945312 560.402344 414.585938 562.761719 415.765625 566.300781 C 415.765625 566.300781 418.125 568.660156 420.484375 567.480469 Z M 420.484375 567.480469 " fill-opacity="1" fill-rule="nonzero"/><path fill="#ffffff" d="M 421.664062 548.601562 C 422.84375 549.78125 425.203125 550.960938 426.382812 550.960938 C 428.742188 549.78125 429.921875 547.421875 429.921875 545.0625 C 428.742188 542.703125 426.382812 541.523438 424.023438 541.523438 C 421.664062 541.523438 420.484375 543.882812 420.484375 545.0625 C 408.683594 547.421875 395.703125 548.601562 383.90625 548.601562 C 376.824219 548.601562 369.746094 548.601562 362.667969 547.421875 C 362.667969 545.0625 360.304688 543.882812 359.125 543.882812 C 356.765625 543.882812 354.40625 545.0625 354.40625 547.421875 C 354.40625 549.78125 355.585938 552.140625 357.945312 552.140625 C 360.304688 552.140625 361.484375 550.960938 362.667969 549.78125 C 369.746094 550.960938 376.824219 550.960938 385.085938 550.960938 C 396.886719 553.324219 409.863281 550.960938 421.664062 548.601562 Z M 421.664062 548.601562 " fill-opacity="1" fill-rule="nonzero"/><path fill="#ffffff" d="M 536.117188 466.007812 C 537.300781 463.644531 536.117188 461.285156 533.757812 460.105469 C 531.398438 458.925781 529.039062 460.105469 527.859375 462.464844 C 526.679688 463.644531 526.679688 466.007812 529.039062 467.1875 C 513.699219 493.144531 493.640625 513.203125 467.683594 528.542969 C 466.5 527.363281 464.140625 527.363281 462.960938 527.363281 C 460.601562 528.542969 459.421875 530.902344 460.601562 533.261719 C 461.78125 535.625 464.140625 536.804688 466.5 535.625 C 468.863281 534.441406 468.863281 533.261719 468.863281 530.902344 C 494.820312 515.5625 516.058594 494.324219 531.398438 468.367188 C 532.578125 468.367188 534.9375 467.1875 536.117188 466.007812 Z M 536.117188 466.007812 " fill-opacity="1" fill-rule="nonzero"/><path fill="#ffffff" d="M 525.5 287.832031 C 507.800781 261.875 483.019531 240.636719 454.703125 227.65625 C 454.703125 225.296875 453.523438 224.117188 452.34375 222.9375 C 449.984375 221.757812 447.621094 222.9375 446.441406 225.296875 C 445.261719 227.65625 446.441406 230.015625 448.800781 231.195312 C 451.164062 232.375 452.34375 231.195312 453.523438 230.015625 C 512.519531 257.15625 551.457031 316.152344 551.457031 382.230469 C 551.457031 395.210938 550.277344 407.007812 547.917969 418.808594 C 545.558594 418.808594 544.378906 419.988281 544.378906 422.347656 C 543.199219 424.707031 545.558594 427.066406 547.917969 428.246094 C 550.277344 429.425781 552.636719 427.066406 553.816406 424.707031 C 553.816406 422.347656 553.816406 421.167969 551.457031 419.988281 C 553.816406 408.1875 556.179688 395.210938 556.179688 382.230469 C 553.816406 349.191406 544.378906 316.152344 525.5 287.832031 Z M 525.5 287.832031 " fill-opacity="1" fill-rule="nonzero"/><path fill="#ffffff" d="M 395.703125 211.136719 C 393.34375 211.136719 392.164062 212.316406 390.984375 213.496094 C 388.625 213.496094 386.265625 213.496094 383.90625 213.496094 C 370.925781 213.496094 357.945312 214.675781 344.96875 218.214844 C 343.785156 217.035156 341.425781 215.855469 340.246094 215.855469 C 337.886719 217.035156 336.707031 219.398438 336.707031 221.757812 C 337.886719 224.117188 340.246094 225.296875 342.605469 225.296875 C 344.96875 225.296875 346.148438 222.9375 346.148438 221.757812 C 359.125 219.398438 370.925781 217.035156 383.90625 217.035156 C 386.265625 217.035156 388.625 217.035156 389.804688 217.035156 C 389.804688 219.398438 392.164062 220.578125 393.34375 220.578125 C 395.703125 220.578125 398.066406 219.398438 398.066406 215.855469 C 398.066406 212.316406 398.066406 211.136719 395.703125 211.136719 Z M 395.703125 211.136719 " fill-opacity="1" fill-rule="nonzero"/><path fill="#ffffff" d="M 269.449219 476.625 C 267.089844 474.265625 264.730469 474.265625 262.371094 475.445312 C 260.011719 476.625 260.011719 480.164062 261.191406 481.34375 C 262.371094 482.527344 264.730469 483.707031 265.910156 482.527344 C 282.429688 502.585938 304.847656 517.925781 328.449219 526.183594 C 328.449219 528.542969 329.628906 529.722656 331.988281 530.902344 C 334.347656 532.082031 336.707031 530.902344 337.886719 528.542969 C 339.066406 526.183594 337.886719 523.824219 335.527344 522.644531 C 333.167969 521.464844 331.988281 522.644531 330.808594 523.824219 C 307.207031 514.382812 285.96875 500.226562 269.449219 480.164062 C 270.628906 480.164062 270.628906 477.804688 269.449219 476.625 Z M 269.449219 476.625 " fill-opacity="1" fill-rule="nonzero"/><path fill="#ffffff" d="M 388.625 540.34375 C 390.984375 540.34375 392.164062 539.164062 393.34375 536.804688 C 420.484375 535.625 447.621094 526.183594 470.042969 510.84375 C 471.222656 512.023438 473.582031 512.023438 475.941406 510.84375 C 478.300781 509.664062 478.300781 506.125 477.121094 504.945312 C 475.941406 502.585938 472.402344 502.585938 471.222656 503.765625 C 470.042969 504.945312 468.863281 507.304688 470.042969 508.484375 C 447.621094 523.824219 421.664062 532.082031 394.523438 533.261719 C 393.34375 532.082031 392.164062 530.902344 389.804688 530.902344 C 387.445312 530.902344 385.085938 533.261719 385.085938 535.625 C 385.085938 537.984375 386.265625 540.34375 388.625 540.34375 Z M 388.625 540.34375 " fill-opacity="1" fill-rule="nonzero"/><path fill="#ffffff" d="M 542.019531 371.609375 C 542.019531 369.25 539.660156 366.890625 537.300781 366.890625 C 534.9375 366.890625 532.578125 369.25 532.578125 371.609375 C 532.578125 373.96875 533.757812 375.148438 536.117188 375.148438 C 536.117188 377.511719 536.117188 379.871094 536.117188 382.230469 C 536.117188 412.910156 527.859375 441.226562 510.160156 466.007812 C 507.800781 466.007812 506.621094 466.007812 505.441406 467.1875 C 504.261719 469.546875 504.261719 471.90625 506.621094 473.085938 C 508.980469 474.265625 511.339844 474.265625 512.519531 471.90625 C 513.699219 470.726562 513.699219 468.367188 512.519531 466.007812 C 529.039062 440.046875 538.480469 410.546875 538.480469 379.871094 C 538.480469 377.511719 538.480469 375.148438 538.480469 372.789062 C 540.839844 375.148438 542.019531 373.96875 542.019531 371.609375 Z M 542.019531 371.609375 " fill-opacity="1" fill-rule="nonzero"/><path fill="#ffffff" d="M 497.179688 273.675781 C 494.820312 271.3125 492.460938 271.3125 490.101562 273.675781 C 487.742188 276.035156 487.742188 278.394531 490.101562 280.753906 C 491.28125 281.933594 493.640625 281.933594 494.820312 281.933594 C 504.261719 292.554688 512.519531 303.171875 518.417969 316.152344 C 517.238281 317.332031 517.238281 319.691406 517.238281 320.871094 C 518.417969 323.230469 520.78125 324.414062 523.140625 323.230469 C 525.5 322.050781 526.679688 319.691406 525.5 317.332031 C 524.320312 314.972656 523.140625 314.972656 520.78125 314.972656 C 514.878906 301.992188 506.621094 291.375 497.179688 280.753906 C 499.539062 277.214844 498.359375 274.855469 497.179688 273.675781 Z M 497.179688 273.675781 " fill-opacity="1" fill-rule="nonzero"/><path fill="#ffffff" d="M 459.421875 244.175781 C 457.0625 242.996094 455.882812 242.996094 453.523438 245.355469 C 432.285156 234.734375 408.683594 228.835938 385.085938 228.835938 C 378.003906 228.835938 369.746094 228.835938 362.667969 230.015625 C 361.484375 228.835938 360.304688 227.65625 357.945312 227.65625 C 355.585938 227.65625 353.226562 230.015625 354.40625 233.554688 C 354.40625 235.914062 356.765625 238.277344 360.304688 237.097656 C 362.667969 237.097656 363.847656 234.734375 363.847656 233.554688 C 370.925781 232.375 378.003906 232.375 385.085938 232.375 C 408.683594 232.375 432.285156 238.277344 452.34375 248.894531 C 452.34375 251.253906 453.523438 252.433594 454.703125 253.613281 C 457.0625 254.796875 459.421875 253.613281 460.601562 251.253906 C 461.78125 248.894531 461.78125 245.355469 459.421875 244.175781 Z M 459.421875 244.175781 " fill-opacity="1" fill-rule="nonzero"/><path fill="#ffffff" d="M 329.628906 503.765625 C 327.269531 502.585938 324.90625 503.765625 323.726562 506.125 C 322.546875 508.484375 323.726562 510.84375 326.085938 512.023438 C 328.449219 513.203125 329.628906 512.023438 331.988281 510.84375 C 348.507812 517.925781 367.386719 521.464844 385.085938 521.464844 C 392.164062 521.464844 400.425781 521.464844 407.503906 520.285156 C 408.683594 521.464844 409.863281 522.644531 412.222656 522.644531 C 414.585938 522.644531 415.765625 520.285156 415.765625 516.742188 C 415.765625 513.203125 413.402344 513.203125 409.863281 513.203125 C 407.503906 513.203125 406.324219 515.5625 406.324219 516.742188 C 399.246094 517.925781 392.164062 517.925781 385.085938 517.925781 C 367.386719 517.925781 349.6875 514.382812 333.167969 507.304688 C 331.988281 507.304688 331.988281 504.945312 329.628906 503.765625 Z M 329.628906 503.765625 " fill-opacity="1" fill-rule="nonzero"/><path fill="#ffffff" d="M 504.261719 453.027344 C 506.621094 453.027344 507.800781 453.027344 508.980469 450.667969 C 510.160156 448.308594 508.980469 445.945312 506.621094 444.765625 C 504.261719 443.585938 501.898438 444.765625 500.71875 447.128906 C 499.539062 448.308594 499.539062 450.667969 501.898438 451.847656 C 490.101562 471.90625 473.582031 489.605469 452.34375 501.40625 C 451.164062 500.226562 448.800781 500.226562 447.621094 500.226562 C 445.261719 501.40625 444.082031 503.765625 445.261719 506.125 C 446.441406 508.484375 448.800781 509.664062 451.164062 508.484375 C 453.523438 507.304688 453.523438 506.125 453.523438 503.765625 C 475.941406 490.785156 492.460938 474.265625 504.261719 453.027344 Z M 504.261719 453.027344 " fill-opacity="1" fill-rule="nonzero"/><path fill="#ffffff" d="M 514.878906 408.1875 C 514.878906 410.546875 516.058594 412.910156 518.417969 414.089844 C 520.78125 414.089844 523.140625 412.910156 524.320312 410.546875 C 524.320312 408.1875 524.320312 407.007812 521.960938 405.828125 C 523.140625 398.75 523.140625 391.667969 523.140625 383.410156 C 523.140625 358.628906 517.238281 335.03125 504.261719 313.792969 C 505.441406 312.613281 505.441406 310.253906 504.261719 307.894531 C 503.082031 305.53125 499.539062 305.53125 498.359375 306.710938 C 497.179688 307.894531 496 311.433594 497.179688 312.613281 C 498.359375 313.792969 500.71875 314.972656 501.902344 314.972656 C 513.699219 335.03125 519.601562 358.628906 519.601562 383.410156 C 519.601562 390.488281 519.601562 397.570312 518.417969 404.648438 C 517.238281 404.648438 514.878906 405.828125 514.878906 408.1875 Z M 514.878906 408.1875 " fill-opacity="1" fill-rule="nonzero"/><path fill="#ffffff" d="M 460.601562 266.59375 C 438.183594 251.253906 411.042969 244.175781 383.90625 244.175781 C 370.925781 244.175781 359.125 245.355469 346.148438 248.894531 C 344.96875 247.714844 342.605469 246.535156 341.425781 247.714844 C 339.066406 248.894531 337.886719 251.253906 339.066406 253.613281 C 340.246094 255.976562 342.605469 257.15625 344.96875 255.976562 C 347.328125 254.796875 348.507812 253.613281 348.507812 251.253906 C 360.304688 247.714844 372.105469 246.535156 385.085938 246.535156 C 412.222656 246.535156 437.003906 254.796875 459.421875 268.953125 C 459.421875 271.3125 459.421875 272.496094 460.601562 273.675781 C 462.960938 274.855469 465.320312 274.855469 466.5 272.496094 C 467.683594 270.132812 467.683594 267.773438 465.320312 266.59375 C 464.140625 265.414062 462.960938 265.414062 460.601562 266.59375 Z M 460.601562 266.59375 " fill-opacity="1" fill-rule="nonzero"/><path fill="#ffffff" d="M 283.609375 444.765625 C 282.429688 442.40625 280.070312 442.40625 277.710938 443.585938 C 275.351562 444.765625 275.351562 447.125 276.53125 449.488281 C 277.710938 450.667969 280.070312 451.847656 281.25 451.847656 C 287.148438 461.285156 294.230469 469.546875 302.488281 476.625 C 310.75 483.707031 320.1875 489.605469 329.628906 494.324219 C 329.628906 496.683594 330.808594 497.863281 331.988281 499.042969 C 334.347656 500.226562 336.707031 499.042969 337.886719 496.683594 C 339.066406 494.324219 337.886719 491.964844 335.527344 490.785156 C 333.167969 489.605469 331.988281 490.785156 330.808594 491.964844 C 311.929688 482.527344 295.410156 468.367188 283.609375 450.667969 C 284.789062 448.308594 284.789062 445.945312 283.609375 444.765625 Z M 283.609375 444.765625 " fill-opacity="1" fill-rule="nonzero"/><path fill="#ffffff" d="M 378.003906 503.765625 C 378.003906 501.40625 375.644531 500.226562 374.464844 500.226562 C 372.105469 500.226562 369.746094 501.40625 369.746094 503.765625 C 369.746094 506.125 370.925781 508.484375 373.285156 508.484375 C 375.644531 508.484375 376.824219 507.304688 378.003906 506.125 C 380.367188 506.125 382.726562 506.125 385.085938 506.125 C 406.324219 506.125 427.5625 500.226562 446.441406 489.605469 C 447.621094 490.785156 449.984375 490.785156 452.34375 489.605469 C 454.703125 488.425781 454.703125 484.886719 453.523438 483.707031 C 452.34375 481.34375 448.800781 481.34375 447.621094 482.527344 C 444.082031 484.886719 444.082031 486.066406 444.082031 488.425781 C 426.382812 499.042969 405.144531 503.765625 383.90625 503.765625 C 382.726562 503.765625 380.367188 503.765625 378.003906 503.765625 Z M 378.003906 503.765625 " fill-opacity="1" fill-rule="nonzero"/><path fill="#ffffff" d="M 478.300781 454.207031 C 477.121094 456.566406 477.121094 458.925781 479.480469 460.105469 C 481.839844 461.285156 484.199219 461.285156 485.382812 458.925781 C 486.5625 457.746094 486.5625 455.386719 485.382812 453.027344 C 492.460938 443.585938 497.179688 432.96875 501.902344 422.347656 C 506.621094 409.367188 508.980469 395.210938 508.980469 382.230469 C 508.980469 368.070312 506.621094 355.089844 501.902344 342.113281 C 503.082031 340.929688 504.261719 338.570312 503.082031 337.390625 C 501.902344 335.03125 499.539062 333.851562 497.179688 335.03125 C 494.820312 336.210938 493.640625 338.570312 494.820312 340.929688 C 496 343.292969 497.179688 343.292969 499.539062 343.292969 C 504.261719 356.269531 505.441406 369.25 505.441406 382.230469 C 505.441406 407.007812 498.359375 431.789062 483.019531 451.847656 C 481.839844 451.847656 479.480469 453.027344 478.300781 454.207031 Z M 478.300781 454.207031 " fill-opacity="1" fill-rule="nonzero"/><path fill="#ffffff" d="M 466.5 290.195312 C 454.703125 279.574219 439.363281 271.3125 424.023438 265.414062 C 424.023438 263.054688 422.84375 261.875 420.484375 260.695312 C 418.125 259.515625 415.765625 261.875 414.585938 264.234375 C 413.402344 266.59375 415.765625 268.953125 418.125 270.132812 C 420.484375 270.132812 421.664062 270.132812 422.84375 268.953125 C 438.183594 273.675781 452.34375 281.933594 464.140625 292.554688 C 462.960938 293.734375 464.140625 296.09375 465.320312 297.273438 C 467.683594 299.632812 470.042969 298.453125 472.402344 297.273438 C 474.761719 296.09375 473.582031 292.554688 472.402344 290.195312 C 470.042969 290.195312 467.683594 289.011719 466.5 290.195312 Z M 466.5 290.195312 " fill-opacity="1" fill-rule="nonzero"/><path fill="#ffffff" d="M 437.003906 481.34375 C 439.363281 480.164062 439.363281 478.984375 439.363281 476.625 C 449.984375 470.726562 459.421875 462.464844 467.683594 453.027344 C 475.941406 443.585938 481.839844 432.96875 486.5625 422.347656 C 488.921875 422.347656 490.101562 421.167969 491.28125 418.808594 C 492.460938 416.449219 491.28125 414.089844 488.921875 412.910156 C 486.5625 411.726562 484.199219 412.910156 483.019531 415.269531 C 481.839844 417.628906 483.019531 418.808594 484.199219 419.988281 C 475.941406 442.40625 459.421875 460.105469 439.363281 473.085938 C 438.183594 471.90625 435.824219 471.90625 434.644531 471.90625 C 432.285156 473.085938 431.101562 475.445312 432.285156 477.804688 C 431.101562 482.527344 434.644531 482.527344 437.003906 481.34375 Z M 437.003906 481.34375 " fill-opacity="1" fill-rule="nonzero"/><path fill="#ffffff" d="M 480.660156 326.773438 C 479.480469 324.414062 475.941406 324.414062 474.761719 325.59375 C 472.402344 326.773438 472.402344 330.3125 473.582031 331.492188 C 474.761719 332.671875 475.941406 333.851562 478.300781 333.851562 C 485.382812 346.832031 488.921875 359.8125 490.101562 373.96875 C 488.921875 375.148438 487.742188 376.328125 487.742188 378.691406 C 487.742188 381.050781 490.101562 383.410156 492.460938 383.410156 C 494.820312 383.410156 497.179688 381.050781 497.179688 378.691406 C 497.179688 376.328125 496 375.148438 493.640625 373.96875 C 492.460938 359.8125 487.742188 345.652344 481.839844 332.671875 C 481.839844 331.492188 481.839844 329.132812 480.660156 326.773438 Z M 480.660156 326.773438 " fill-opacity="1" fill-rule="nonzero"/><path fill="#ffffff" d="M 440.542969 297.273438 C 442.902344 298.453125 445.261719 298.453125 446.441406 296.09375 C 447.621094 293.734375 447.621094 291.375 445.261719 290.195312 C 444.082031 289.011719 441.722656 289.011719 439.363281 290.195312 C 422.84375 280.753906 403.964844 274.855469 383.90625 274.855469 C 375.644531 274.855469 368.566406 276.035156 360.304688 277.214844 C 359.125 276.035156 356.765625 274.855469 355.585938 274.855469 C 353.226562 276.035156 352.046875 278.394531 352.046875 280.753906 C 353.226562 283.113281 355.585938 284.292969 357.945312 284.292969 C 360.304688 284.292969 361.488281 281.933594 361.488281 280.753906 C 368.566406 279.574219 376.824219 278.394531 383.90625 278.394531 C 402.785156 278.394531 421.664062 283.113281 437.003906 292.554688 C 438.183594 293.734375 438.183594 296.09375 440.542969 297.273438 Z M 440.542969 297.273438 " fill-opacity="1" fill-rule="nonzero"/><path fill="#ffffff" d="M 311.929688 455.386719 C 310.75 453.027344 307.207031 453.027344 304.847656 455.386719 C 302.488281 456.566406 302.488281 460.105469 304.847656 462.464844 C 306.027344 463.644531 308.386719 464.828125 310.75 463.644531 C 320.1875 471.90625 330.808594 478.984375 341.425781 483.707031 C 354.40625 489.605469 368.566406 491.964844 383.90625 491.964844 C 386.265625 491.964844 388.625 491.964844 390.984375 491.964844 C 392.164062 494.324219 393.34375 494.324219 395.703125 494.324219 C 398.066406 494.324219 400.425781 491.964844 399.246094 489.605469 C 399.246094 487.246094 396.886719 484.886719 394.523438 486.066406 C 392.164062 486.066406 390.984375 487.246094 390.984375 489.605469 C 388.625 489.605469 386.265625 489.605469 385.085938 489.605469 C 357.945312 489.605469 333.167969 480.164062 314.289062 462.464844 C 314.289062 458.925781 314.289062 457.746094 311.929688 455.386719 Z M 311.929688 455.386719 " fill-opacity="1" fill-rule="nonzero"/><g fill="#ffffff" fill-opacity="1"><g transform="translate(92.057022, 428.805894)"><g><path d="M 35.5 -146.390625 L 56 -146.390625 C 64.65625 -146.390625 71.207031 -144.160156 75.65625 -139.703125 C 80.113281 -135.253906 82.34375 -128.695312 82.34375 -120.03125 L 82.34375 -100.640625 C 82.34375 -98.691406 81.367188 -97.71875 79.421875 -97.71875 L 60.390625 -97.71875 C 58.429688 -97.71875 57.453125 -98.691406 57.453125 -100.640625 L 57.453125 -114.921875 C 57.453125 -119.796875 55.015625 -122.234375 50.140625 -122.234375 L 41.359375 -122.234375 C 36.472656 -122.234375 34.03125 -119.796875 34.03125 -114.921875 L 34.03125 -89.65625 L 77.578125 -75.390625 C 80.753906 -74.046875 82.34375 -71.789062 82.34375 -68.625 L 82.34375 -26.34375 C 82.34375 -17.8125 80.113281 -11.285156 75.65625 -6.765625 C 71.207031 -2.253906 64.65625 0 56 0 L 35.5 0 C 26.957031 0 20.429688 -2.253906 15.921875 -6.765625 C 11.410156 -11.285156 9.15625 -17.8125 9.15625 -26.34375 L 9.15625 -45.5625 C 9.15625 -47.507812 10.128906 -48.484375 12.078125 -48.484375 L 31.109375 -48.484375 C 33.054688 -48.484375 34.03125 -47.507812 34.03125 -45.5625 L 34.03125 -31.46875 C 34.03125 -26.59375 36.472656 -24.15625 41.359375 -24.15625 L 50.140625 -24.15625 C 55.015625 -24.15625 57.453125 -26.59375 57.453125 -31.46875 L 57.453125 -55.8125 L 14.09375 -70.078125 C 10.800781 -71.179688 9.15625 -73.441406 9.15625 -76.859375 L 9.15625 -120.03125 C 9.15625 -128.695312 11.410156 -135.253906 15.921875 -139.703125 C 20.429688 -144.160156 26.957031 -146.390625 35.5 -146.390625 Z M 35.5 -146.390625 "/></g></g></g><g fill="#ffffff" fill-opacity="1"><g transform="translate(183.545091, 428.805894)"><g><path d="M 84.359375 -120.03125 L 84.359375 -75.390625 C 84.359375 -63.191406 79.90625 -55.140625 71 -51.234375 L 83.625 -3.296875 C 84.226562 -1.097656 83.375 0 81.0625 0 L 62.03125 0 C 60.320312 0 59.285156 -0.851562 58.921875 -2.5625 L 46.65625 -49.046875 L 34.03125 -49.046875 L 34.03125 -2.921875 C 34.03125 -0.972656 33.054688 0 31.109375 0 L 12.078125 0 C 10.128906 0 9.15625 -0.972656 9.15625 -2.921875 L 9.15625 -143.453125 C 9.15625 -145.410156 10.128906 -146.390625 12.078125 -146.390625 L 58 -146.390625 C 66.664062 -146.390625 73.222656 -144.160156 77.671875 -139.703125 C 82.128906 -135.253906 84.359375 -128.695312 84.359375 -120.03125 Z M 34.03125 -73.1875 L 52.15625 -73.1875 C 57.03125 -73.1875 59.46875 -75.628906 59.46875 -80.515625 L 59.46875 -114.921875 C 59.46875 -119.796875 57.03125 -122.234375 52.15625 -122.234375 L 34.03125 -122.234375 Z M 34.03125 -73.1875 "/></g></g></g><g fill="#ffffff" fill-opacity="1"><g transform="translate(277.045864, 428.805894)"><g><path d="M 34.03125 -24.15625 L 34.03125 -143.453125 C 34.03125 -145.410156 33.054688 -146.390625 31.109375 -146.390625 L 12.078125 -146.390625 C 10.128906 -146.390625 9.15625 -145.410156 9.15625 -143.453125 L 9.15625 -2.921875 C 9.15625 -0.972656 10.128906 0 12.078125 0 L 77.578125 0 C 79.535156 0 80.515625 -0.972656 80.515625 -2.921875 L 80.515625 -21.21875 C 80.515625 -23.175781 79.535156 -24.15625 77.578125 -24.15625 Z M 34.03125 -24.15625 "/></g></g></g></svg>