<?xml version="1.0" encoding="UTF-8"?>
<svg id="Layer_1" data-name="Layer 1" xmlns="http://www.w3.org/2000/svg" viewBox="0 0 1024 1024">
  <defs>
    <style>
      .cls-1 {
        fill: #fff;
      }
    </style>
  </defs>
  <path class="cls-1" d="M893.98,63.88H130.02c-36.54,0-66.16,29.62-66.16,66.16v763.93c0,36.54,29.62,66.16,66.16,66.16h763.95c36.54,0,66.16-29.62,66.16-66.16V130.04c0-36.54-29.62-66.16-66.16-66.16ZM330.99,827.4h-134.74v-428.05h134.74v428.05ZM263.63,340.05c-42.9,0-77.68-32.65-77.68-77.34s34.78-77.38,77.68-77.38,77.68,32.69,77.68,77.38-34.78,77.34-77.68,77.34ZM827.74,827.73h-134.74v-233.79c0-68.98-29.33-90.25-67.15-90.25-39.98,0-79.18,30.09-79.18,91.97v232.07h-134.74v-428.05h129.58v59.3h1.72c13.04-26.35,58.55-71.34,128.07-71.34,75.19,0,156.43,44.6,156.43,175.34v264.74Z"/>
</svg>