<svg xmlns="http://www.w3.org/2000/svg" xmlns:xlink="http://www.w3.org/1999/xlink" width="1024" zoomAndPan="magnify" viewBox="0 0 768 767.999994" height="1024" preserveAspectRatio="xMidYMid meet" version="1.0"><defs><clipPath id="bb8b19f91b"><path d="M 12 109.921875 L 753 109.921875 L 753 411 L 12 411 Z M 12 109.921875 " clip-rule="nonzero"/></clipPath><clipPath id="70e1f7c37d"><path d="M 0 202 L 768 202 L 768 658.171875 L 0 658.171875 Z M 0 202 " clip-rule="nonzero"/></clipPath></defs><g clip-path="url(#bb8b19f91b)"><path fill="#ffffff" d="M 333.761719 392.988281 C 335.546875 394.359375 337.382812 395.652344 339.273438 396.871094 C 341.164062 398.089844 343.101562 399.230469 345.085938 400.292969 C 347.066406 401.351562 349.09375 402.328125 351.15625 403.226562 C 353.21875 404.121094 355.316406 404.929688 357.445312 405.652344 C 359.578125 406.375 361.730469 407.011719 363.914062 407.558594 C 366.097656 408.105469 368.296875 408.558594 370.515625 408.925781 C 372.734375 409.292969 374.964844 409.570312 377.207031 409.753906 C 379.449219 409.9375 381.695312 410.027344 383.945312 410.027344 C 386.195312 410.027344 388.441406 409.9375 390.683594 409.753906 C 392.925781 409.570312 395.15625 409.292969 397.375 408.925781 C 399.59375 408.558594 401.792969 408.105469 403.976562 407.558594 C 406.160156 407.011719 408.3125 406.375 410.445312 405.652344 C 412.574219 404.929688 414.671875 404.121094 416.734375 403.226562 C 418.796875 402.328125 420.820312 401.351562 422.804688 400.292969 C 424.789062 399.230469 426.726562 398.089844 428.617188 396.871094 C 430.507812 395.652344 432.34375 394.359375 434.128906 392.988281 L 752.609375 144.835938 C 750.722656 142.152344 748.6875 139.585938 746.496094 137.144531 C 744.304688 134.703125 741.976562 132.402344 739.507812 130.238281 C 737.039062 128.078125 734.453125 126.070312 731.746094 124.21875 C 729.035156 122.367188 726.226562 120.6875 723.316406 119.171875 C 720.40625 117.65625 717.414062 116.324219 714.34375 115.167969 C 711.273438 114.011719 708.144531 113.046875 704.957031 112.265625 C 701.773438 111.488281 698.550781 110.902344 695.292969 110.507812 C 692.035156 110.117188 688.765625 109.921875 685.484375 109.921875 L 82.515625 109.921875 C 79.039062 109.929688 75.582031 110.15625 72.136719 110.601562 C 68.691406 111.050781 65.289062 111.714844 61.925781 112.59375 C 58.566406 113.472656 55.273438 114.5625 52.054688 115.863281 C 48.832031 117.160156 45.703125 118.65625 42.671875 120.351562 C 39.640625 122.046875 36.726562 123.929688 33.933594 125.996094 C 31.140625 128.0625 28.488281 130.296875 25.980469 132.699219 C 23.472656 135.101562 21.125 137.652344 18.941406 140.355469 C 16.753906 143.054688 14.75 145.882812 12.925781 148.839844 Z M 333.761719 392.988281 " fill-opacity="1" fill-rule="nonzero"/></g><g clip-path="url(#70e1f7c37d)"><path fill="#ffffff" d="M 467.703125 436.429688 C 464.730469 438.710938 461.671875 440.867188 458.523438 442.898438 C 455.375 444.929688 452.148438 446.832031 448.84375 448.597656 C 445.539062 450.363281 442.167969 451.992188 438.730469 453.484375 C 435.292969 454.976562 431.800781 456.324219 428.25 457.53125 C 424.703125 458.734375 421.113281 459.792969 417.476562 460.703125 C 413.84375 461.613281 410.175781 462.375 406.480469 462.984375 C 402.78125 463.597656 399.066406 464.054688 395.332031 464.363281 C 391.597656 464.667969 387.855469 464.820312 384.109375 464.820312 C 380.363281 464.820312 376.621094 464.667969 372.886719 464.363281 C 369.152344 464.054688 365.4375 463.597656 361.738281 462.984375 C 358.042969 462.375 354.375 461.613281 350.742188 460.703125 C 347.105469 459.792969 343.515625 458.734375 339.96875 457.53125 C 336.417969 456.324219 332.925781 454.976562 329.488281 453.484375 C 326.050781 451.992188 322.679688 450.363281 319.375 448.597656 C 316.070312 446.832031 312.84375 444.929688 309.695312 442.898438 C 306.546875 440.867188 303.488281 438.710938 300.515625 436.429688 L 0.289062 208.121094 L 0.289062 575.851562 C 0.289062 577.199219 0.324219 578.542969 0.390625 579.886719 C 0.457031 581.230469 0.554688 582.574219 0.6875 583.914062 C 0.820312 585.25 0.984375 586.585938 1.179688 587.917969 C 1.378906 589.25 1.609375 590.574219 1.871094 591.894531 C 2.132812 593.214844 2.429688 594.527344 2.753906 595.832031 C 3.082031 597.136719 3.441406 598.433594 3.832031 599.722656 C 4.222656 601.007812 4.644531 602.285156 5.097656 603.554688 C 5.550781 604.820312 6.035156 606.074219 6.550781 607.316406 C 7.066406 608.5625 7.609375 609.792969 8.183594 611.007812 C 8.761719 612.222656 9.363281 613.425781 10 614.613281 C 10.632812 615.800781 11.296875 616.96875 11.988281 618.125 C 12.679688 619.277344 13.398438 620.414062 14.148438 621.535156 C 14.894531 622.652344 15.671875 623.753906 16.472656 624.832031 C 17.273438 625.914062 18.101562 626.972656 18.953125 628.015625 C 19.808594 629.054688 20.6875 630.074219 21.589844 631.070312 C 22.496094 632.066406 23.421875 633.042969 24.375 633.992188 C 25.324219 634.945312 26.300781 635.871094 27.296875 636.777344 C 28.292969 637.679688 29.3125 638.558594 30.351562 639.414062 C 31.390625 640.265625 32.453125 641.09375 33.535156 641.894531 C 34.613281 642.695312 35.714844 643.472656 36.832031 644.21875 C 37.953125 644.964844 39.089844 645.6875 40.242188 646.378906 C 41.398438 647.070312 42.566406 647.734375 43.753906 648.367188 C 44.941406 649 46.140625 649.605469 47.359375 650.183594 C 48.574219 650.757812 49.804688 651.300781 51.046875 651.816406 C 52.292969 652.332031 53.546875 652.816406 54.8125 653.269531 C 56.082031 653.722656 57.359375 654.144531 58.644531 654.535156 C 59.933594 654.925781 61.230469 655.285156 62.535156 655.613281 C 63.839844 655.9375 65.152344 656.234375 66.472656 656.496094 C 67.792969 656.757812 69.117188 656.988281 70.449219 657.1875 C 71.78125 657.382812 73.117188 657.546875 74.453125 657.679688 C 75.792969 657.8125 77.136719 657.910156 78.480469 657.976562 C 79.824219 658.042969 81.167969 658.078125 82.515625 658.078125 L 685.484375 658.078125 C 686.832031 658.078125 688.175781 658.042969 689.519531 657.976562 C 690.863281 657.910156 692.207031 657.8125 693.546875 657.679688 C 694.882812 657.546875 696.21875 657.382812 697.550781 657.1875 C 698.882812 656.988281 700.207031 656.757812 701.527344 656.496094 C 702.847656 656.234375 704.160156 655.9375 705.464844 655.613281 C 706.769531 655.285156 708.066406 654.925781 709.355469 654.535156 C 710.640625 654.144531 711.917969 653.722656 713.1875 653.269531 C 714.453125 652.816406 715.707031 652.332031 716.953125 651.816406 C 718.195312 651.300781 719.425781 650.757812 720.640625 650.183594 C 721.855469 649.605469 723.058594 649 724.246094 648.367188 C 725.433594 647.734375 726.601562 647.070312 727.757812 646.378906 C 728.910156 645.6875 730.046875 644.964844 731.167969 644.21875 C 732.285156 643.472656 733.386719 642.695312 734.464844 641.894531 C 735.546875 641.09375 736.609375 640.265625 737.648438 639.414062 C 738.6875 638.558594 739.707031 637.679688 740.703125 636.777344 C 741.699219 635.871094 742.675781 634.945312 743.625 633.992188 C 744.578125 633.042969 745.503906 632.066406 746.410156 631.070312 C 747.3125 630.074219 748.191406 629.054688 749.046875 628.015625 C 749.898438 626.972656 750.726562 625.914062 751.527344 624.832031 C 752.328125 623.753906 753.105469 622.652344 753.851562 621.535156 C 754.601562 620.414062 755.320312 619.277344 756.011719 618.125 C 756.703125 616.96875 757.367188 615.800781 758 614.613281 C 758.636719 613.425781 759.238281 612.222656 759.816406 611.007812 C 760.390625 609.792969 760.933594 608.5625 761.449219 607.316406 C 761.964844 606.074219 762.449219 604.820312 762.902344 603.554688 C 763.355469 602.285156 763.777344 601.007812 764.167969 599.722656 C 764.558594 598.433594 764.917969 597.136719 765.246094 595.832031 C 765.570312 594.527344 765.867188 593.214844 766.128906 591.894531 C 766.390625 590.574219 766.621094 589.25 766.820312 587.917969 C 767.015625 586.585938 767.179688 585.25 767.3125 583.914062 C 767.445312 582.574219 767.542969 581.230469 767.609375 579.886719 C 767.675781 578.542969 767.710938 577.199219 767.710938 575.851562 L 767.710938 202.695312 Z M 467.703125 436.429688 " fill-opacity="1" fill-rule="nonzero"/></g></svg>