<svg xmlns="http://www.w3.org/2000/svg" xmlns:xlink="http://www.w3.org/1999/xlink" width="600" zoomAndPan="magnify" viewBox="0 0 450 449.999984" height="600" preserveAspectRatio="xMidYMid meet" version="1.0"><defs><g/><clipPath id="5acc7e334d"><path d="M 87.28125 229 L 132 229 L 132 294 L 87.28125 294 Z M 87.28125 229 " clip-rule="nonzero"/></clipPath><clipPath id="b2e7db6b37"><path d="M 144 303 L 222 303 L 222 329.25 L 144 329.25 Z M 144 303 " clip-rule="nonzero"/></clipPath><clipPath id="380fd8a329"><path d="M 340 112 L 362.53125 112 L 362.53125 207 L 340 207 Z M 340 112 " clip-rule="nonzero"/></clipPath></defs><g fill="#181410" fill-opacity="1"><g transform="translate(54.288832, 378.168601)"><g><path d="M 8.515625 -35.09375 L 13.421875 -35.09375 C 15.492188 -35.09375 17.0625 -34.554688 18.125 -33.484375 C 19.195312 -32.421875 19.734375 -30.847656 19.734375 -28.765625 L 19.734375 -24.125 C 19.734375 -23.65625 19.5 -23.421875 19.03125 -23.421875 L 14.46875 -23.421875 C 14 -23.421875 13.765625 -23.65625 13.765625 -24.125 L 13.765625 -27.546875 C 13.765625 -28.710938 13.179688 -29.296875 12.015625 -29.296875 L 9.90625 -29.296875 C 8.738281 -29.296875 8.15625 -28.710938 8.15625 -27.546875 L 8.15625 -21.484375 L 18.59375 -18.0625 C 19.351562 -17.75 19.734375 -17.210938 19.734375 -16.453125 L 19.734375 -6.3125 C 19.734375 -4.269531 19.195312 -2.707031 18.125 -1.625 C 17.0625 -0.539062 15.492188 0 13.421875 0 L 8.515625 0 C 6.460938 0 4.894531 -0.539062 3.8125 -1.625 C 2.726562 -2.707031 2.1875 -4.269531 2.1875 -6.3125 L 2.1875 -10.921875 C 2.1875 -11.390625 2.421875 -11.625 2.890625 -11.625 L 7.453125 -11.625 C 7.921875 -11.625 8.15625 -11.390625 8.15625 -10.921875 L 8.15625 -7.546875 C 8.15625 -6.378906 8.738281 -5.796875 9.90625 -5.796875 L 12.015625 -5.796875 C 13.179688 -5.796875 13.765625 -6.378906 13.765625 -7.546875 L 13.765625 -13.375 L 3.375 -16.796875 C 2.582031 -17.054688 2.1875 -17.597656 2.1875 -18.421875 L 2.1875 -28.765625 C 2.1875 -30.847656 2.726562 -32.421875 3.8125 -33.484375 C 4.894531 -34.554688 6.460938 -35.09375 8.515625 -35.09375 Z M 8.515625 -35.09375 "/></g></g></g><g fill="#181410" fill-opacity="1"><g transform="translate(76.216606, 378.168601)"><g><path d="M 20.53125 -35.09375 L 26.3125 -35.09375 C 26.894531 -35.09375 27.1875 -34.796875 27.1875 -34.203125 L 27.1875 -0.875 C 27.1875 -0.289062 26.894531 0 26.3125 0 L 22.234375 0 C 21.648438 0 21.359375 -0.289062 21.359375 -0.875 L 21.359375 -20.609375 L 21.046875 -20.609375 L 16.703125 -0.796875 C 16.585938 -0.265625 16.269531 0 15.75 0 L 13.59375 0 C 13.09375 0 12.769531 -0.265625 12.625 -0.796875 L 8.296875 -20.609375 L 7.984375 -20.609375 L 7.984375 -0.875 C 7.984375 -0.289062 7.691406 0 7.109375 0 L 3.0625 0 C 2.476562 0 2.1875 -0.289062 2.1875 -0.875 L 2.1875 -34.203125 C 2.1875 -34.796875 2.476562 -35.09375 3.0625 -35.09375 L 8.859375 -35.09375 C 9.390625 -35.09375 9.710938 -34.828125 9.828125 -34.296875 L 14.6875 -12.453125 L 19.5625 -34.296875 C 19.707031 -34.828125 20.03125 -35.09375 20.53125 -35.09375 Z M 20.53125 -35.09375 "/></g></g></g><g fill="#181410" fill-opacity="1"><g transform="translate(105.599818, 378.168601)"><g><path d="M 23.328125 0 L 18.6875 0 C 18.300781 0 18.066406 -0.203125 17.984375 -0.609375 L 16.75 -7.015625 L 8.953125 -7.015625 L 7.765625 -0.609375 C 7.671875 -0.203125 7.4375 0 7.0625 0 L 2.375 0 C 1.84375 0 1.648438 -0.25 1.796875 -0.75 L 9.078125 -34.46875 C 9.160156 -34.882812 9.410156 -35.09375 9.828125 -35.09375 L 15.921875 -35.09375 C 16.328125 -35.09375 16.578125 -34.882812 16.671875 -34.46875 L 23.953125 -0.75 C 24.035156 -0.25 23.828125 0 23.328125 0 Z M 15.65625 -12.109375 L 12.84375 -27.40625 L 10.046875 -12.109375 Z M 15.65625 -12.109375 "/></g></g></g><g fill="#181410" fill-opacity="1"><g transform="translate(131.29916, 378.168601)"><g><path d="M 20.21875 -28.765625 L 20.21875 -18.0625 C 20.21875 -15.144531 19.148438 -13.21875 17.015625 -12.28125 L 20.046875 -0.796875 C 20.191406 -0.265625 19.988281 0 19.4375 0 L 14.875 0 C 14.457031 0 14.207031 -0.203125 14.125 -0.609375 L 11.1875 -11.75 L 8.15625 -11.75 L 8.15625 -0.703125 C 8.15625 -0.234375 7.921875 0 7.453125 0 L 2.890625 0 C 2.421875 0 2.1875 -0.234375 2.1875 -0.703125 L 2.1875 -34.390625 C 2.1875 -34.859375 2.421875 -35.09375 2.890625 -35.09375 L 13.90625 -35.09375 C 15.976562 -35.09375 17.546875 -34.554688 18.609375 -33.484375 C 19.679688 -32.421875 20.21875 -30.847656 20.21875 -28.765625 Z M 8.15625 -17.546875 L 12.5 -17.546875 C 13.664062 -17.546875 14.25 -18.128906 14.25 -19.296875 L 14.25 -27.546875 C 14.25 -28.710938 13.664062 -29.296875 12.5 -29.296875 L 8.15625 -29.296875 Z M 8.15625 -17.546875 "/></g></g></g><g fill="#181410" fill-opacity="1"><g transform="translate(153.709337, 378.168601)"><g><path d="M 2.015625 -35.09375 L 18.15625 -35.09375 C 18.625 -35.09375 18.859375 -34.859375 18.859375 -34.390625 L 18.859375 -30 C 18.859375 -29.53125 18.625 -29.296875 18.15625 -29.296875 L 13.0625 -29.296875 L 13.0625 -0.703125 C 13.0625 -0.234375 12.832031 0 12.375 0 L 7.8125 0 C 7.34375 0 7.109375 -0.234375 7.109375 -0.703125 L 7.109375 -29.296875 L 2.015625 -29.296875 C 1.546875 -29.296875 1.3125 -29.53125 1.3125 -30 L 1.3125 -34.390625 C 1.3125 -34.859375 1.546875 -35.09375 2.015625 -35.09375 Z M 2.015625 -35.09375 "/></g></g></g><g fill="#181410" fill-opacity="1"><g transform="translate(173.882888, 378.168601)"><g/></g></g><g fill="#181410" fill-opacity="1"><g transform="translate(184.846771, 378.168601)"><g><path d="M 20.21875 -28.765625 L 20.21875 -18.0625 C 20.21875 -15.144531 19.148438 -13.21875 17.015625 -12.28125 L 20.046875 -0.796875 C 20.191406 -0.265625 19.988281 0 19.4375 0 L 14.875 0 C 14.457031 0 14.207031 -0.203125 14.125 -0.609375 L 11.1875 -11.75 L 8.15625 -11.75 L 8.15625 -0.703125 C 8.15625 -0.234375 7.921875 0 7.453125 0 L 2.890625 0 C 2.421875 0 2.1875 -0.234375 2.1875 -0.703125 L 2.1875 -34.390625 C 2.1875 -34.859375 2.421875 -35.09375 2.890625 -35.09375 L 13.90625 -35.09375 C 15.976562 -35.09375 17.546875 -34.554688 18.609375 -33.484375 C 19.679688 -32.421875 20.21875 -30.847656 20.21875 -28.765625 Z M 8.15625 -17.546875 L 12.5 -17.546875 C 13.664062 -17.546875 14.25 -18.128906 14.25 -19.296875 L 14.25 -27.546875 C 14.25 -28.710938 13.664062 -29.296875 12.5 -29.296875 L 8.15625 -29.296875 Z M 8.15625 -17.546875 "/></g></g></g><g fill="#181410" fill-opacity="1"><g transform="translate(207.256947, 378.168601)"><g><path d="M 19.6875 -34.390625 L 19.6875 -30 C 19.6875 -29.5 19.453125 -29.25 18.984375 -29.25 L 8.03125 -29.25 L 8.03125 -20.484375 L 16.40625 -20.484375 C 16.875 -20.484375 17.109375 -20.234375 17.109375 -19.734375 L 17.109375 -15.390625 C 17.109375 -14.898438 16.875 -14.65625 16.40625 -14.65625 L 8.03125 -14.65625 L 8.03125 -5.796875 L 18.984375 -5.796875 C 19.453125 -5.796875 19.6875 -5.5625 19.6875 -5.09375 L 19.6875 -0.703125 C 19.6875 -0.234375 19.453125 0 18.984375 0 L 2.84375 0 C 2.40625 0 2.1875 -0.234375 2.1875 -0.703125 L 2.1875 -34.390625 C 2.1875 -34.859375 2.40625 -35.09375 2.84375 -35.09375 L 18.984375 -35.09375 C 19.453125 -35.09375 19.6875 -34.859375 19.6875 -34.390625 Z M 19.6875 -34.390625 "/></g></g></g><g fill="#181410" fill-opacity="1"><g transform="translate(229.14087, 378.168601)"><g><path d="M 2.1875 -0.703125 L 2.1875 -34.390625 C 2.1875 -34.859375 2.421875 -35.09375 2.890625 -35.09375 L 13.421875 -35.09375 C 15.492188 -35.09375 17.0625 -34.554688 18.125 -33.484375 C 19.195312 -32.421875 19.734375 -30.847656 19.734375 -28.765625 L 19.734375 -18.0625 C 19.734375 -16.019531 19.195312 -14.457031 18.125 -13.375 C 17.0625 -12.289062 15.492188 -11.75 13.421875 -11.75 L 8.15625 -11.75 L 8.15625 -0.703125 C 8.15625 -0.234375 7.921875 0 7.453125 0 L 2.890625 0 C 2.421875 0 2.1875 -0.234375 2.1875 -0.703125 Z M 8.15625 -17.546875 L 12.015625 -17.546875 C 13.179688 -17.546875 13.765625 -18.128906 13.765625 -19.296875 L 13.765625 -27.546875 C 13.765625 -28.710938 13.179688 -29.296875 12.015625 -29.296875 L 8.15625 -29.296875 Z M 8.15625 -17.546875 "/></g></g></g><g fill="#181410" fill-opacity="1"><g transform="translate(251.068634, 378.168601)"><g><path d="M 2.1875 -6.3125 L 2.1875 -28.765625 C 2.1875 -30.847656 2.726562 -32.421875 3.8125 -33.484375 C 4.894531 -34.554688 6.460938 -35.09375 8.515625 -35.09375 L 13.421875 -35.09375 C 15.492188 -35.09375 17.0625 -34.554688 18.125 -33.484375 C 19.195312 -32.421875 19.734375 -30.847656 19.734375 -28.765625 L 19.734375 -6.3125 C 19.734375 -4.269531 19.195312 -2.707031 18.125 -1.625 C 17.0625 -0.539062 15.492188 0 13.421875 0 L 8.515625 0 C 6.460938 0 4.894531 -0.539062 3.8125 -1.625 C 2.726562 -2.707031 2.1875 -4.269531 2.1875 -6.3125 Z M 9.78125 -5.65625 L 12.328125 -5.65625 C 13.492188 -5.65625 14.078125 -6.238281 14.078125 -7.40625 L 14.078125 -27.671875 C 14.078125 -28.847656 13.492188 -29.4375 12.328125 -29.4375 L 9.78125 -29.4375 C 8.613281 -29.4375 8.03125 -28.847656 8.03125 -27.671875 L 8.03125 -7.40625 C 8.03125 -6.238281 8.613281 -5.65625 9.78125 -5.65625 Z M 9.78125 -5.65625 "/></g></g></g><g fill="#181410" fill-opacity="1"><g transform="translate(272.996398, 378.168601)"><g><path d="M 20.21875 -28.765625 L 20.21875 -18.0625 C 20.21875 -15.144531 19.148438 -13.21875 17.015625 -12.28125 L 20.046875 -0.796875 C 20.191406 -0.265625 19.988281 0 19.4375 0 L 14.875 0 C 14.457031 0 14.207031 -0.203125 14.125 -0.609375 L 11.1875 -11.75 L 8.15625 -11.75 L 8.15625 -0.703125 C 8.15625 -0.234375 7.921875 0 7.453125 0 L 2.890625 0 C 2.421875 0 2.1875 -0.234375 2.1875 -0.703125 L 2.1875 -34.390625 C 2.1875 -34.859375 2.421875 -35.09375 2.890625 -35.09375 L 13.90625 -35.09375 C 15.976562 -35.09375 17.546875 -34.554688 18.609375 -33.484375 C 19.679688 -32.421875 20.21875 -30.847656 20.21875 -28.765625 Z M 8.15625 -17.546875 L 12.5 -17.546875 C 13.664062 -17.546875 14.25 -18.128906 14.25 -19.296875 L 14.25 -27.546875 C 14.25 -28.710938 13.664062 -29.296875 12.5 -29.296875 L 8.15625 -29.296875 Z M 8.15625 -17.546875 "/></g></g></g><g fill="#181410" fill-opacity="1"><g transform="translate(295.406574, 378.168601)"><g><path d="M 2.015625 -35.09375 L 18.15625 -35.09375 C 18.625 -35.09375 18.859375 -34.859375 18.859375 -34.390625 L 18.859375 -30 C 18.859375 -29.53125 18.625 -29.296875 18.15625 -29.296875 L 13.0625 -29.296875 L 13.0625 -0.703125 C 13.0625 -0.234375 12.832031 0 12.375 0 L 7.8125 0 C 7.34375 0 7.109375 -0.234375 7.109375 -0.703125 L 7.109375 -29.296875 L 2.015625 -29.296875 C 1.546875 -29.296875 1.3125 -29.53125 1.3125 -30 L 1.3125 -34.390625 C 1.3125 -34.859375 1.546875 -35.09375 2.015625 -35.09375 Z M 2.015625 -35.09375 "/></g></g></g><g fill="#181410" fill-opacity="1"><g transform="translate(315.580126, 378.168601)"><g/></g></g><g fill="#181410" fill-opacity="1"><g transform="translate(326.544008, 378.168601)"><g><path d="M 8.15625 -5.796875 L 8.15625 -34.390625 C 8.15625 -34.859375 7.921875 -35.09375 7.453125 -35.09375 L 2.890625 -35.09375 C 2.421875 -35.09375 2.1875 -34.859375 2.1875 -34.390625 L 2.1875 -0.703125 C 2.1875 -0.234375 2.421875 0 2.890625 0 L 18.59375 0 C 19.0625 0 19.296875 -0.234375 19.296875 -0.703125 L 19.296875 -5.09375 C 19.296875 -5.5625 19.0625 -5.796875 18.59375 -5.796875 Z M 8.15625 -5.796875 "/></g></g></g><g fill="#181410" fill-opacity="1"><g transform="translate(348.033219, 378.168601)"><g><path d="M 23.328125 0 L 18.6875 0 C 18.300781 0 18.066406 -0.203125 17.984375 -0.609375 L 16.75 -7.015625 L 8.953125 -7.015625 L 7.765625 -0.609375 C 7.671875 -0.203125 7.4375 0 7.0625 0 L 2.375 0 C 1.84375 0 1.648438 -0.25 1.796875 -0.75 L 9.078125 -34.46875 C 9.160156 -34.882812 9.410156 -35.09375 9.828125 -35.09375 L 15.921875 -35.09375 C 16.328125 -35.09375 16.578125 -34.882812 16.671875 -34.46875 L 23.953125 -0.75 C 24.035156 -0.25 23.828125 0 23.328125 0 Z M 15.65625 -12.109375 L 12.84375 -27.40625 L 10.046875 -12.109375 Z M 15.65625 -12.109375 "/></g></g></g><g fill="#181410" fill-opacity="1"><g transform="translate(373.732562, 378.168601)"><g><path d="M 19.78125 -28.765625 L 19.78125 -20.703125 C 19.78125 -19.878906 19.515625 -19.191406 18.984375 -18.640625 C 18.460938 -18.085938 17.804688 -17.738281 17.015625 -17.59375 L 17.015625 -17.5 C 17.804688 -17.382812 18.460938 -17.039062 18.984375 -16.46875 C 19.515625 -15.894531 19.78125 -15.203125 19.78125 -14.390625 L 19.78125 -6.3125 C 19.78125 -4.269531 19.238281 -2.707031 18.15625 -1.625 C 17.070312 -0.539062 15.492188 0 13.421875 0 L 2.890625 0 C 2.421875 0 2.1875 -0.234375 2.1875 -0.703125 L 2.1875 -34.390625 C 2.1875 -34.859375 2.421875 -35.09375 2.890625 -35.09375 L 13.421875 -35.09375 C 15.492188 -35.09375 17.070312 -34.554688 18.15625 -33.484375 C 19.238281 -32.421875 19.78125 -30.847656 19.78125 -28.765625 Z M 13.953125 -22.15625 L 13.953125 -27.546875 C 13.953125 -28.710938 13.363281 -29.296875 12.1875 -29.296875 L 8.203125 -29.296875 L 8.203125 -20.4375 L 12.1875 -20.4375 C 13.363281 -20.4375 13.953125 -21.007812 13.953125 -22.15625 Z M 13.953125 -7.546875 L 13.953125 -12.890625 C 13.953125 -14.066406 13.363281 -14.65625 12.1875 -14.65625 L 8.203125 -14.65625 L 8.203125 -5.796875 L 12.1875 -5.796875 C 13.363281 -5.796875 13.953125 -6.378906 13.953125 -7.546875 Z M 13.953125 -7.546875 "/></g></g></g><path fill="#000000" d="M 113.207031 102.714844 C 113.746094 102.171875 113.746094 101.09375 113.207031 100.554688 C 139.109375 68.191406 176.882812 49.316406 217.890625 48.234375 C 218.433594 49.316406 218.972656 49.855469 220.050781 49.855469 C 221.128906 49.855469 222.207031 48.777344 222.207031 47.695312 C 222.207031 46.617188 221.128906 45 220.050781 45 C 218.972656 45 218.433594 45.539062 217.890625 46.617188 C 207.640625 47.15625 197.386719 48.234375 187.675781 50.933594 C 177.421875 53.628906 167.707031 57.40625 157.996094 62.261719 C 148.824219 66.574219 140.1875 71.96875 132.09375 78.441406 C 125.078125 84.914062 118.066406 91.925781 112.128906 99.476562 C 111.050781 98.9375 110.511719 99.476562 109.96875 100.015625 C 109.429688 101.09375 109.429688 102.171875 110.511719 102.714844 C 111.050781 103.792969 112.128906 103.253906 113.207031 102.714844 Z M 113.207031 102.714844 " fill-opacity="1" fill-rule="nonzero"/><g clip-path="url(#5acc7e334d)"><path fill="#000000" d="M 128.316406 289.875 C 111.050781 274.234375 98.097656 254.816406 90.542969 232.703125 C 91.085938 232.164062 91.625 231.082031 91.085938 230.542969 C 90.542969 229.464844 89.464844 228.925781 88.386719 229.464844 C 87.847656 229.464844 87.308594 230.542969 87.308594 231.625 C 87.847656 232.703125 88.386719 233.242188 89.464844 233.242188 C 97.019531 255.355469 110.511719 274.773438 127.777344 290.953125 C 127.238281 291.492188 127.777344 292.574219 128.316406 293.113281 C 129.398438 293.652344 130.476562 293.652344 131.015625 293.113281 C 131.554688 292.03125 131.554688 290.953125 131.015625 290.414062 C 130.476562 289.335938 129.398438 289.335938 128.316406 289.875 Z M 128.316406 289.875 " fill-opacity="1" fill-rule="nonzero"/></g><g clip-path="url(#b2e7db6b37)"><path fill="#000000" d="M 220.050781 324.394531 C 218.972656 324.394531 218.433594 324.933594 217.890625 326.015625 C 193.609375 325.472656 169.867188 318.460938 148.824219 305.515625 C 148.824219 304.4375 148.824219 303.898438 147.742188 303.359375 C 146.664062 302.820312 145.585938 302.820312 145.046875 303.898438 C 144.503906 304.976562 144.503906 306.058594 145.585938 306.597656 C 146.125 307.136719 147.203125 307.136719 147.742188 306.597656 C 168.789062 319.542969 192.53125 326.554688 217.351562 327.632812 C 217.890625 328.710938 218.433594 329.25 219.511719 329.25 C 220.589844 329.25 221.667969 328.171875 221.667969 327.09375 C 221.667969 326.015625 221.128906 324.394531 220.050781 324.394531 Z M 220.050781 324.394531 " fill-opacity="1" fill-rule="nonzero"/></g><path fill="#000000" d="M 275.089844 313.609375 C 274.011719 314.148438 274.011719 314.6875 274.011719 315.765625 C 267.535156 318.460938 260.519531 320.621094 254.046875 322.238281 C 253.507812 321.699219 252.964844 321.160156 251.886719 321.160156 C 250.808594 321.160156 250.269531 322.777344 250.269531 323.855469 C 250.269531 324.933594 251.886719 325.472656 252.964844 325.472656 C 254.046875 325.472656 254.585938 324.394531 254.585938 323.855469 C 261.601562 322.238281 268.074219 320.082031 275.089844 317.382812 C 275.628906 317.921875 276.710938 318.460938 277.25 317.921875 C 278.328125 317.382812 278.867188 316.304688 278.328125 315.226562 C 277.25 313.609375 276.167969 313.070312 275.089844 313.609375 Z M 275.089844 313.609375 " fill-opacity="1" fill-rule="nonzero"/><path fill="#000000" d="M 357.109375 221.914062 C 356.03125 221.375 354.953125 222.453125 354.414062 223.53125 C 354.414062 224.613281 354.414062 225.152344 355.492188 225.691406 C 345.777344 259.132812 324.734375 287.179688 295.054688 305.515625 C 294.515625 304.976562 293.4375 304.976562 292.898438 305.515625 C 291.816406 306.058594 291.816406 307.136719 292.359375 308.214844 C 292.898438 309.292969 293.976562 309.292969 295.054688 308.753906 C 295.59375 308.214844 296.136719 307.136719 296.136719 306.597656 C 310.703125 297.425781 323.65625 286.101562 333.90625 272.078125 C 344.699219 258.050781 352.253906 242.410156 357.109375 225.691406 C 358.191406 225.691406 358.730469 225.152344 358.730469 224.070312 C 359.269531 222.992188 358.191406 221.914062 357.109375 221.914062 Z M 357.109375 221.914062 " fill-opacity="1" fill-rule="nonzero"/><g clip-path="url(#380fd8a329)"><path fill="#000000" d="M 361.425781 203.574219 C 361.96875 198.183594 362.507812 192.25 362.507812 186.316406 C 362.507812 173.371094 360.886719 160.425781 357.109375 148.019531 C 353.875 136.695312 349.554688 125.90625 343.621094 115.65625 C 344.160156 115.117188 344.160156 114.039062 343.621094 113.5 C 343.082031 112.421875 342 112.421875 340.921875 112.960938 C 339.84375 113.5 339.84375 114.578125 340.382812 115.65625 C 340.921875 116.199219 342 116.738281 342.542969 116.738281 C 354.953125 137.773438 361.425781 162.042969 361.425781 186.316406 C 361.425781 191.710938 360.886719 197.644531 360.347656 203.035156 C 359.269531 203.035156 358.730469 204.117188 358.730469 204.65625 C 358.730469 205.734375 359.269531 206.8125 360.347656 206.8125 C 361.425781 206.8125 362.507812 206.273438 362.507812 205.195312 C 362.507812 205.195312 361.96875 204.117188 361.425781 203.574219 Z M 361.425781 203.574219 " fill-opacity="1" fill-rule="nonzero"/></g><path fill="#000000" d="M 244.871094 50.933594 C 245.953125 50.933594 246.492188 50.394531 247.03125 49.855469 C 272.933594 54.707031 297.214844 66.574219 316.640625 84.375 C 316.101562 84.914062 316.640625 85.992188 317.179688 86.53125 C 318.257812 87.070312 319.339844 87.070312 320.417969 86.53125 C 320.957031 85.453125 320.957031 84.375 320.417969 83.296875 C 319.878906 82.757812 318.796875 82.757812 318.257812 82.757812 C 308.546875 73.585938 297.753906 66.035156 285.882812 60.640625 C 274.011719 54.707031 261.0625 50.394531 248.109375 47.695312 C 248.109375 46.617188 247.03125 46.078125 246.492188 46.078125 C 245.410156 46.078125 244.332031 46.617188 244.332031 47.695312 C 244.332031 48.777344 243.253906 50.933594 244.871094 50.933594 Z M 244.871094 50.933594 " fill-opacity="1" fill-rule="nonzero"/><path fill="#000000" d="M 184.4375 316.304688 C 185.515625 316.84375 186.59375 315.765625 187.132812 314.6875 C 187.675781 313.609375 186.59375 312.53125 185.515625 311.988281 C 184.4375 311.988281 183.898438 311.988281 183.355469 312.53125 C 154.21875 303.898438 128.855469 285.019531 111.589844 259.671875 C 112.128906 259.132812 112.128906 258.050781 111.589844 257.511719 C 111.050781 256.433594 109.429688 256.433594 108.890625 256.972656 C 107.8125 257.511719 107.8125 259.132812 108.351562 259.671875 C 108.890625 260.210938 109.96875 260.75 110.511719 260.210938 C 119.144531 273.15625 129.398438 283.941406 141.808594 293.113281 C 154.21875 302.28125 168.25 309.292969 182.816406 314.148438 C 182.816406 315.226562 183.355469 315.765625 184.4375 316.304688 Z M 184.4375 316.304688 " fill-opacity="1" fill-rule="nonzero"/><path fill="#000000" d="M 303.148438 292.574219 C 303.691406 293.113281 304.769531 293.113281 305.847656 292.574219 C 306.925781 292.03125 306.925781 290.414062 306.386719 289.875 C 305.847656 289.335938 304.230469 288.796875 303.691406 289.335938 C 303.148438 289.875 302.609375 290.953125 303.148438 291.492188 C 279.945312 309.292969 252.425781 318.460938 222.75 318.460938 C 219.511719 318.460938 216.273438 318.460938 213.035156 317.921875 C 213.035156 316.84375 211.957031 316.304688 211.417969 316.304688 C 210.335938 316.304688 209.257812 316.84375 209.257812 318.460938 C 209.257812 319.542969 209.796875 320.621094 211.417969 320.621094 C 212.496094 320.621094 213.035156 320.082031 213.574219 319.542969 C 216.8125 319.542969 220.050781 320.082031 223.289062 320.082031 C 238.398438 320.082031 253.507812 317.382812 268.074219 312.53125 C 279.40625 307.675781 291.816406 301.203125 303.148438 292.574219 Z M 303.148438 292.574219 " fill-opacity="1" fill-rule="nonzero"/><path fill="#000000" d="M 339.84375 252.660156 C 340.382812 251.582031 339.84375 250.5 339.304688 249.960938 C 338.765625 249.421875 337.144531 249.960938 336.605469 250.5 C 336.066406 251.039062 336.066406 252.121094 336.605469 252.660156 C 332.289062 260.210938 326.894531 267.222656 321.496094 273.695312 C 320.957031 273.15625 319.878906 273.695312 319.339844 274.234375 C 318.796875 275.3125 318.796875 276.390625 319.339844 277.46875 C 319.878906 278.546875 321.496094 278.007812 322.574219 277.46875 C 323.117188 276.929688 323.117188 275.851562 323.117188 275.3125 C 329.050781 268.839844 333.90625 261.289062 338.765625 253.738281 C 338.222656 253.738281 339.304688 253.199219 339.84375 252.660156 Z M 339.84375 252.660156 " fill-opacity="1" fill-rule="nonzero"/><path fill="#000000" d="M 347.9375 144.785156 C 346.859375 145.324219 346.320312 146.402344 346.320312 147.480469 C 346.859375 148.558594 347.398438 149.097656 348.476562 149.097656 C 352.253906 161.503906 353.875 173.910156 353.875 186.855469 C 353.875 202.496094 351.175781 217.597656 346.320312 231.625 C 345.238281 231.625 344.699219 232.164062 344.160156 232.703125 C 343.621094 233.78125 344.160156 234.859375 345.238281 235.398438 C 346.320312 235.9375 347.398438 235.398438 347.9375 234.320312 C 348.476562 233.242188 347.9375 232.703125 347.398438 232.164062 C 352.792969 217.597656 355.492188 202.496094 355.492188 186.855469 C 355.492188 173.910156 353.875 160.964844 350.097656 148.558594 C 350.636719 148.019531 351.175781 146.941406 350.636719 146.402344 C 350.097656 145.324219 349.015625 144.246094 347.9375 144.785156 Z M 347.9375 144.785156 " fill-opacity="1" fill-rule="nonzero"/><path fill="#000000" d="M 339.304688 123.75 C 325.273438 97.320312 302.070312 76.285156 274.550781 64.417969 C 274.550781 63.339844 274.011719 62.800781 273.472656 62.261719 C 272.390625 61.71875 271.3125 62.261719 270.773438 63.339844 C 270.234375 64.417969 270.773438 65.496094 271.851562 66.035156 C 272.933594 66.574219 273.472656 66.035156 274.011719 65.496094 C 300.992188 77.363281 323.65625 97.859375 337.683594 124.289062 C 337.144531 124.828125 337.144531 125.90625 337.144531 126.445312 C 337.683594 127.523438 338.765625 128.0625 339.84375 127.523438 C 340.921875 126.984375 341.460938 125.90625 340.921875 124.828125 C 341.460938 123.75 340.382812 123.210938 339.304688 123.75 Z M 339.304688 123.75 " fill-opacity="1" fill-rule="nonzero"/><path fill="#000000" d="M 255.125 56.328125 C 254.046875 56.328125 253.507812 56.328125 252.964844 57.40625 C 242.714844 55.25 232.460938 53.628906 221.667969 53.628906 C 209.257812 53.628906 197.386719 55.25 185.515625 58.484375 C 174.722656 61.71875 164.472656 66.035156 154.757812 71.429688 C 154.21875 70.890625 153.140625 70.890625 152.601562 71.429688 C 152.058594 71.429688 151.519531 73.046875 152.058594 74.125 C 152.601562 75.203125 153.679688 75.203125 154.757812 74.664062 C 155.296875 74.125 155.835938 73.046875 155.835938 72.507812 C 175.804688 61.179688 198.464844 54.707031 221.667969 54.707031 C 231.921875 54.707031 242.175781 55.789062 252.425781 58.484375 C 252.425781 59.5625 252.964844 60.101562 254.046875 60.101562 C 255.125 60.640625 256.203125 59.5625 256.742188 58.484375 C 257.285156 57.40625 256.742188 56.328125 255.125 56.328125 Z M 255.125 56.328125 " fill-opacity="1" fill-rule="nonzero"/><path fill="#000000" d="M 99.71875 135.074219 C 100.796875 135.613281 101.875 135.074219 102.417969 133.996094 C 102.957031 132.917969 102.417969 132.378906 101.875 131.839844 C 109.96875 114.039062 122.382812 97.859375 137.492188 85.453125 C 138.03125 85.992188 139.109375 85.992188 139.648438 85.453125 C 141.269531 84.375 141.269531 82.757812 140.1875 82.214844 C 139.648438 81.136719 138.570312 81.136719 137.492188 81.675781 C 136.949219 82.214844 136.410156 83.296875 136.949219 83.835938 C 121.300781 96.78125 108.890625 112.960938 100.796875 131.300781 C 99.71875 131.300781 99.179688 131.839844 98.640625 132.378906 C 98.097656 133.457031 98.640625 134.535156 99.71875 135.074219 Z M 99.71875 135.074219 " fill-opacity="1" fill-rule="nonzero"/><path fill="#000000" d="M 116.984375 115.65625 C 115.90625 115.65625 115.367188 115.65625 114.828125 116.738281 C 114.289062 117.816406 114.289062 118.894531 115.367188 119.433594 C 116.445312 119.972656 117.523438 119.972656 118.066406 118.894531 C 118.605469 118.355469 118.605469 117.277344 118.066406 116.738281 C 132.09375 96.242188 152.058594 80.058594 174.722656 70.890625 C 175.261719 71.429688 176.34375 71.96875 176.882812 71.429688 C 177.960938 70.890625 178.5 69.8125 177.960938 68.734375 C 177.421875 67.652344 176.34375 67.113281 175.261719 67.652344 C 174.183594 68.191406 173.644531 68.734375 173.644531 69.8125 C 162.851562 74.125 152.058594 80.597656 142.347656 88.6875 C 132.632812 96.242188 124 105.410156 116.984375 115.65625 Z M 116.984375 115.65625 " fill-opacity="1" fill-rule="nonzero"/><path fill="#000000" d="M 141.808594 286.640625 C 142.886719 287.179688 143.964844 287.179688 144.503906 286.101562 C 145.046875 285.019531 145.046875 283.941406 143.964844 283.402344 C 143.425781 282.863281 142.347656 282.863281 141.808594 283.402344 C 128.855469 272.617188 117.523438 258.59375 109.96875 243.488281 C 110.511719 242.949219 110.511719 241.871094 110.511719 241.332031 C 109.96875 239.714844 108.890625 239.175781 107.8125 239.714844 C 106.734375 240.253906 106.195312 241.332031 106.734375 242.410156 C 107.273438 243.488281 107.8125 243.488281 108.890625 243.488281 C 112.667969 251.039062 117.523438 258.59375 122.921875 265.605469 C 128.316406 272.078125 134.253906 278.550781 141.269531 283.941406 C 140.726562 285.019531 141.269531 286.101562 141.808594 286.640625 Z M 141.808594 286.640625 " fill-opacity="1" fill-rule="nonzero"/><path fill="#000000" d="M 167.167969 302.28125 C 168.25 302.820312 168.789062 302.28125 169.328125 301.742188 C 184.4375 308.753906 200.625 312.53125 217.890625 313.070312 C 218.433594 314.148438 218.972656 314.6875 220.050781 314.6875 C 221.128906 314.6875 222.207031 313.609375 222.207031 312.53125 C 222.207031 311.449219 221.128906 310.371094 220.050781 310.371094 C 218.972656 310.371094 218.433594 310.910156 217.890625 311.988281 C 201.164062 311.449219 184.976562 307.675781 169.867188 300.664062 C 169.867188 299.585938 169.328125 299.046875 168.789062 298.503906 C 167.707031 297.964844 166.628906 298.503906 166.089844 299.585938 C 165.550781 300.664062 166.089844 301.742188 167.167969 302.28125 Z M 167.167969 302.28125 " fill-opacity="1" fill-rule="nonzero"/><path fill="#000000" d="M 238.398438 313.609375 C 239.476562 313.609375 240.015625 313.070312 240.015625 311.988281 C 248.648438 310.910156 257.285156 308.753906 265.378906 305.515625 C 273.472656 302.820312 281.027344 298.503906 288.582031 294.191406 C 289.121094 294.730469 290.199219 294.730469 291.277344 294.191406 C 292.359375 293.652344 292.359375 292.03125 291.816406 291.492188 C 291.277344 290.414062 289.660156 290.414062 289.121094 290.953125 C 288.582031 291.492188 288.042969 292.574219 288.042969 293.113281 C 273.472656 302.28125 257.285156 308.214844 240.015625 310.910156 C 239.476562 309.832031 238.398438 309.292969 237.859375 309.292969 C 236.777344 309.292969 235.699219 310.371094 236.238281 311.449219 C 236.777344 312.53125 237.316406 313.609375 238.398438 313.609375 Z M 238.398438 313.609375 " fill-opacity="1" fill-rule="nonzero"/><path fill="#000000" d="M 347.9375 210.046875 C 347.9375 208.96875 347.398438 207.890625 346.320312 207.351562 C 345.238281 206.8125 344.160156 207.890625 343.621094 208.96875 C 343.621094 210.046875 344.160156 210.585938 344.699219 211.128906 C 339.84375 234.859375 328.511719 256.433594 311.246094 273.695312 C 310.703125 273.15625 309.625 273.695312 309.085938 274.234375 C 308.007812 275.3125 308.007812 276.390625 309.085938 277.46875 C 310.164062 278.550781 311.246094 278.550781 312.324219 277.46875 C 312.863281 276.929688 312.863281 275.851562 312.863281 275.3125 C 321.496094 266.683594 328.511719 256.972656 333.90625 246.1875 C 339.84375 235.398438 343.621094 223.53125 346.320312 211.667969 C 346.859375 211.667969 347.398438 211.128906 347.9375 210.046875 Z M 347.9375 210.046875 " fill-opacity="1" fill-rule="nonzero"/><path fill="#000000" d="M 329.589844 117.816406 C 329.050781 116.738281 327.433594 116.738281 326.894531 117.277344 C 325.8125 117.816406 325.8125 119.433594 326.351562 119.972656 C 326.894531 120.511719 327.972656 121.050781 328.511719 121.050781 C 340.921875 141.007812 347.398438 163.664062 347.398438 186.855469 C 347.398438 187.933594 347.398438 189.011719 347.398438 189.550781 C 346.320312 189.550781 345.777344 190.632812 345.777344 191.710938 C 345.777344 192.789062 346.859375 193.867188 347.9375 193.867188 C 349.015625 193.867188 350.097656 192.789062 350.097656 191.710938 C 350.097656 190.632812 349.554688 190.089844 349.015625 189.550781 C 349.015625 188.472656 349.015625 187.394531 349.015625 186.855469 C 349.015625 163.121094 342.542969 140.46875 330.128906 120.511719 C 330.128906 119.433594 330.128906 118.894531 329.589844 117.816406 Z M 329.589844 117.816406 " fill-opacity="1" fill-rule="nonzero"/><path fill="#000000" d="M 313.941406 100.015625 C 307.46875 93.003906 299.914062 87.070312 292.359375 81.675781 C 289.121094 79.519531 285.34375 77.363281 281.566406 75.203125 C 281.566406 74.125 281.027344 73.585938 280.488281 73.046875 C 279.40625 72.507812 278.328125 73.046875 277.789062 74.125 C 277.25 75.203125 277.789062 76.285156 278.867188 76.824219 C 279.945312 77.363281 280.488281 76.824219 281.027344 76.285156 C 284.804688 78.441406 288.042969 80.597656 291.816406 82.757812 C 299.371094 88.148438 306.925781 94.082031 313.402344 101.09375 C 312.863281 101.632812 312.863281 102.714844 313.941406 103.253906 C 314.480469 104.332031 316.101562 104.332031 317.179688 103.253906 C 318.257812 102.714844 318.257812 101.09375 317.179688 100.015625 C 315.5625 100.015625 315.019531 99.476562 313.941406 100.015625 Z M 313.941406 100.015625 " fill-opacity="1" fill-rule="nonzero"/><path fill="#000000" d="M 145.046875 274.773438 C 144.503906 274.234375 143.425781 274.234375 142.886719 274.773438 C 135.871094 268.300781 129.398438 261.289062 124 253.199219 C 124.539062 252.660156 124.539062 251.582031 124 250.5 C 123.460938 249.421875 121.84375 249.421875 121.300781 249.960938 C 120.222656 250.5 120.222656 252.121094 120.761719 252.660156 C 121.300781 253.199219 122.382812 253.738281 122.921875 253.738281 C 128.316406 261.828125 134.792969 269.378906 141.808594 275.851562 C 141.269531 276.390625 141.808594 277.46875 142.347656 278.007812 C 143.425781 278.550781 144.503906 278.550781 145.046875 278.007812 C 145.585938 277.46875 146.125 275.3125 145.046875 274.773438 Z M 145.046875 274.773438 " fill-opacity="1" fill-rule="nonzero"/><path fill="#000000" d="M 159.613281 289.875 C 160.152344 290.414062 161.234375 290.414062 161.773438 289.875 C 170.40625 295.269531 180.121094 299.046875 189.832031 301.742188 C 189.832031 302.820312 190.371094 303.359375 191.453125 303.359375 C 192.53125 303.898438 193.609375 302.820312 194.148438 301.742188 C 194.6875 300.664062 193.609375 299.585938 192.53125 299.046875 C 191.453125 299.046875 190.910156 299.046875 190.371094 300.125 C 180.660156 297.425781 171.484375 293.652344 162.851562 288.257812 C 162.851562 287.179688 162.851562 286.640625 161.773438 286.101562 C 160.695312 285.5625 159.613281 285.5625 159.074219 286.640625 C 158.535156 287.71875 158.535156 289.335938 159.613281 289.875 Z M 159.613281 289.875 " fill-opacity="1" fill-rule="nonzero"/><path fill="#000000" d="M 259.441406 300.125 C 259.980469 300.664062 261.0625 301.203125 261.601562 300.664062 C 262.679688 300.125 263.21875 299.046875 262.679688 297.964844 C 262.140625 296.886719 261.0625 296.347656 259.980469 296.886719 C 258.902344 297.425781 258.363281 297.964844 258.363281 299.046875 C 246.492188 302.820312 234.082031 304.976562 221.128906 304.976562 C 217.890625 304.976562 214.65625 304.976562 211.417969 304.4375 C 211.417969 303.359375 210.335938 302.820312 209.796875 302.820312 C 208.71875 302.820312 207.640625 303.359375 207.640625 304.4375 C 207.640625 305.515625 208.179688 306.597656 209.257812 306.597656 C 210.335938 306.597656 210.878906 306.058594 211.417969 305.515625 C 214.65625 306.058594 217.890625 306.058594 221.128906 306.058594 C 234.621094 306.058594 247.570312 304.4375 259.441406 300.125 Z M 259.441406 300.125 " fill-opacity="1" fill-rule="nonzero"/><path fill="#000000" d="M 317.71875 258.050781 C 318.796875 258.050781 319.339844 258.050781 319.878906 257.511719 C 320.417969 256.433594 320.417969 255.355469 319.339844 254.816406 C 318.257812 254.277344 317.179688 254.277344 316.640625 255.355469 C 316.101562 255.894531 316.101562 256.972656 316.640625 257.511719 C 306.925781 270.457031 294.515625 281.246094 281.027344 289.335938 C 280.488281 288.796875 279.40625 288.796875 278.867188 289.335938 C 277.789062 289.875 277.25 290.953125 277.789062 292.03125 C 278.328125 293.113281 279.40625 293.652344 280.488281 293.113281 C 281.027344 292.574219 281.566406 292.03125 281.566406 290.953125 C 288.582031 286.640625 295.054688 282.324219 301.53125 276.390625 C 307.46875 270.457031 312.863281 264.523438 317.71875 258.050781 Z M 317.71875 258.050781 " fill-opacity="1" fill-rule="nonzero"/><path fill="#000000" d="M 335.527344 151.796875 C 334.449219 152.335938 333.90625 153.414062 333.90625 154.492188 C 333.90625 155.570312 334.988281 156.109375 336.066406 156.109375 C 338.765625 166.359375 340.382812 176.605469 340.382812 186.855469 C 340.382812 199.800781 338.222656 212.746094 334.449219 224.613281 C 333.367188 224.613281 332.828125 225.152344 332.289062 226.230469 C 331.75 227.308594 332.289062 228.386719 333.367188 228.925781 C 334.449219 229.464844 335.527344 228.925781 336.066406 227.847656 C 336.605469 226.769531 336.066406 226.230469 335.527344 225.691406 C 339.84375 213.285156 342 200.339844 342 187.394531 C 342 176.605469 340.382812 166.359375 337.683594 156.109375 C 338.222656 155.570312 338.765625 154.492188 338.222656 153.953125 C 337.683594 152.335938 336.605469 151.257812 335.527344 151.796875 Z M 335.527344 151.796875 " fill-opacity="1" fill-rule="nonzero"/><path fill="#000000" d="M 329.050781 133.996094 C 325.8125 126.984375 321.496094 121.050781 317.179688 114.578125 C 312.863281 108.644531 307.46875 103.253906 302.070312 97.859375 C 302.609375 97.320312 302.070312 96.242188 301.53125 95.699219 C 300.453125 95.160156 299.371094 95.160156 298.832031 95.699219 C 297.753906 96.78125 297.753906 98.398438 298.832031 98.9375 C 299.371094 99.476562 300.453125 99.476562 300.992188 98.9375 C 312.324219 109.183594 320.957031 121.050781 327.972656 133.996094 C 327.433594 134.535156 327.433594 135.613281 327.433594 136.152344 C 327.972656 137.234375 329.050781 137.773438 330.128906 137.234375 C 331.210938 136.695312 331.75 135.613281 331.210938 134.535156 C 330.671875 133.996094 330.128906 133.996094 329.050781 133.996094 Z M 329.050781 133.996094 " fill-opacity="1" fill-rule="nonzero"/><path fill="#000000" d="M 252.425781 69.8125 C 251.347656 69.273438 250.269531 70.351562 249.730469 71.429688 C 249.1875 72.507812 250.269531 73.585938 251.347656 74.125 C 252.425781 74.125 252.964844 74.125 253.507812 73.046875 C 263.21875 75.746094 272.390625 79.519531 281.027344 84.375 C 281.027344 85.453125 281.027344 85.992188 282.105469 86.53125 C 283.183594 87.070312 284.265625 87.070312 284.804688 85.992188 C 285.34375 84.914062 285.34375 83.835938 284.265625 83.296875 C 283.183594 82.757812 282.105469 82.757812 281.566406 83.296875 C 272.933594 78.441406 263.757812 74.125 254.046875 71.429688 C 254.046875 70.890625 253.507812 69.8125 252.425781 69.8125 Z M 252.425781 69.8125 " fill-opacity="1" fill-rule="nonzero"/><path fill="#000000" d="M 234.082031 66.574219 C 233 66.574219 232.460938 67.113281 231.921875 67.652344 C 228.683594 67.113281 225.445312 67.113281 222.210938 67.113281 C 212.496094 67.113281 203.324219 68.191406 194.148438 70.351562 C 191.992188 70.890625 189.292969 71.429688 187.132812 72.507812 C 173.105469 76.824219 160.152344 83.835938 148.28125 93.003906 C 147.742188 92.464844 146.664062 92.464844 145.585938 93.003906 C 144.503906 93.542969 144.503906 95.160156 145.046875 95.699219 C 145.585938 96.78125 147.203125 96.78125 147.742188 96.242188 C 148.28125 95.699219 148.824219 94.621094 148.28125 94.082031 C 159.613281 84.914062 172.566406 78.441406 186.59375 74.125 C 188.753906 73.585938 191.453125 73.046875 193.609375 71.96875 C 202.78125 69.8125 211.957031 68.734375 221.128906 68.734375 C 224.367188 68.734375 227.605469 68.734375 230.84375 69.273438 C 230.84375 70.351562 231.921875 70.890625 232.460938 70.890625 C 233.539062 70.890625 234.621094 70.351562 234.621094 69.273438 C 236.238281 67.652344 235.160156 66.574219 234.082031 66.574219 Z M 234.082031 66.574219 " fill-opacity="1" fill-rule="nonzero"/><path fill="#000000" d="M 245.410156 297.964844 C 246.492188 297.964844 247.03125 296.886719 247.03125 296.347656 C 261.601562 293.113281 275.089844 287.179688 287.5 278.007812 C 293.4375 273.695312 299.371094 268.300781 304.769531 262.90625 C 309.625 258.050781 313.941406 252.121094 317.71875 246.1875 C 318.796875 246.1875 319.339844 246.1875 319.878906 245.109375 C 320.417969 244.027344 320.417969 242.949219 319.339844 242.410156 C 318.257812 241.871094 317.179688 241.871094 316.640625 242.949219 C 316.101562 243.488281 316.101562 244.566406 316.640625 245.109375 C 300.992188 269.917969 276.167969 287.71875 247.570312 294.191406 C 247.03125 293.652344 246.492188 293.113281 245.414062 293.113281 C 244.332031 293.113281 243.792969 294.191406 243.792969 295.808594 C 243.253906 297.425781 244.332031 298.503906 245.410156 297.964844 Z M 245.410156 297.964844 " fill-opacity="1" fill-rule="nonzero"/><path fill="#000000" d="M 334.449219 203.035156 C 334.449219 201.957031 333.90625 200.878906 332.828125 200.878906 C 331.75 200.878906 330.671875 201.417969 330.671875 202.496094 C 330.671875 203.574219 331.210938 204.117188 331.75 204.65625 C 330.128906 213.824219 327.433594 222.992188 323.65625 231.625 C 322.574219 231.625 322.035156 232.164062 321.496094 232.703125 C 320.957031 233.78125 321.496094 234.859375 322.574219 235.398438 C 323.65625 235.9375 324.734375 235.398438 325.273438 234.320312 C 325.8125 233.242188 325.273438 232.703125 324.734375 232.164062 C 328.511719 223.53125 331.210938 214.363281 332.828125 204.65625 C 333.90625 204.65625 334.449219 204.117188 334.449219 203.035156 Z M 334.449219 203.035156 " fill-opacity="1" fill-rule="nonzero"/><path fill="#000000" d="M 324.734375 141.007812 C 325.273438 140.46875 325.8125 139.390625 325.273438 138.851562 C 324.734375 137.773438 323.65625 137.234375 322.574219 137.773438 C 321.496094 138.3125 320.957031 139.390625 321.496094 140.46875 C 322.035156 141.546875 322.574219 141.546875 323.65625 141.546875 C 325.273438 145.863281 326.894531 150.179688 328.511719 154.492188 C 331.210938 163.664062 332.828125 172.832031 332.828125 182 C 331.75 182.539062 331.210938 183.078125 331.210938 184.160156 C 331.210938 185.238281 332.289062 186.316406 333.367188 186.316406 C 334.449219 186.316406 335.527344 185.238281 335.527344 184.160156 C 335.527344 183.078125 334.988281 182.539062 333.90625 182 C 333.367188 172.292969 331.75 163.121094 329.050781 153.953125 C 328.511719 150.179688 326.894531 145.324219 324.734375 141.007812 Z M 324.734375 141.007812 " fill-opacity="1" fill-rule="nonzero"/><path fill="#000000" d="M 315.5625 129.683594 C 316.101562 130.761719 317.71875 130.761719 318.257812 130.222656 C 319.339844 129.683594 319.339844 128.0625 318.796875 127.523438 C 318.257812 126.984375 317.179688 126.445312 316.640625 126.445312 C 307.46875 112.421875 295.59375 100.015625 281.027344 91.386719 C 281.027344 90.308594 281.027344 89.769531 279.945312 89.230469 C 278.867188 88.6875 277.789062 89.230469 277.25 89.769531 C 276.710938 90.847656 277.25 91.925781 277.789062 92.464844 C 278.328125 93.003906 279.40625 93.003906 279.945312 92.464844 C 293.976562 101.09375 305.847656 112.960938 315.019531 126.984375 C 315.019531 127.523438 315.019531 128.601562 315.5625 129.683594 Z M 315.5625 129.683594 " fill-opacity="1" fill-rule="nonzero"/><path fill="#000000" d="M 262.679688 80.597656 C 261.601562 80.058594 261.0625 80.597656 260.519531 81.136719 C 249.730469 77.363281 237.859375 74.664062 226.527344 74.664062 C 225.984375 73.585938 225.445312 73.046875 224.367188 73.046875 C 223.289062 73.046875 222.207031 74.125 222.207031 75.203125 C 222.207031 76.285156 223.289062 77.363281 224.367188 77.363281 C 225.445312 77.363281 225.984375 76.824219 226.527344 75.746094 C 237.859375 76.285156 249.1875 78.441406 259.980469 82.214844 C 259.980469 83.296875 260.519531 83.835938 261.0625 84.375 C 262.140625 84.914062 263.21875 84.375 263.757812 83.296875 C 264.296875 82.214844 263.757812 80.597656 262.679688 80.597656 Z M 262.679688 80.597656 " fill-opacity="1" fill-rule="nonzero"/><path fill="#000000" d="M 204.941406 74.125 C 203.863281 74.125 203.324219 75.203125 203.324219 75.746094 C 194.148438 77.363281 184.976562 80.058594 176.34375 83.835938 C 175.804688 83.296875 174.722656 82.757812 174.183594 83.296875 C 173.105469 83.835938 172.566406 84.914062 173.105469 85.992188 C 173.644531 87.070312 174.722656 87.609375 175.804688 87.070312 C 176.882812 86.53125 176.882812 85.992188 176.882812 84.914062 C 185.515625 81.136719 194.148438 78.441406 203.324219 76.824219 C 203.863281 77.363281 204.402344 77.902344 205.480469 77.902344 C 206.558594 77.902344 207.640625 76.824219 207.101562 75.746094 C 207.101562 74.664062 206.019531 74.125 204.941406 74.125 Z M 204.941406 74.125 " fill-opacity="1" fill-rule="nonzero"/><path fill="#000000" d="M 125.621094 128.601562 C 124.539062 128.601562 124 128.601562 123.460938 129.683594 C 122.921875 130.761719 123.460938 131.839844 124 132.378906 C 125.078125 132.917969 126.160156 132.378906 126.699219 131.839844 C 127.238281 131.300781 127.238281 130.222656 126.699219 129.683594 C 134.253906 117.277344 144.503906 105.949219 155.835938 97.320312 C 156.375 97.859375 157.457031 97.859375 157.996094 97.320312 C 159.074219 96.78125 159.074219 95.160156 158.535156 94.621094 C 157.996094 93.542969 156.375 93.542969 155.835938 94.082031 C 155.296875 94.621094 154.757812 95.699219 155.296875 96.242188 C 149.363281 100.554688 143.964844 105.410156 138.570312 110.804688 C 133.714844 116.199219 129.398438 122.667969 125.621094 128.601562 Z M 125.621094 128.601562 " fill-opacity="1" fill-rule="nonzero"/><path fill="#000000" d="M 169.328125 287.71875 C 170.40625 288.257812 171.484375 287.71875 172.027344 286.640625 C 172.566406 285.5625 172.027344 284.480469 170.945312 283.941406 C 169.867188 283.402344 169.328125 283.941406 168.789062 284.480469 C 150.441406 274.773438 135.332031 260.210938 125.078125 241.871094 C 125.621094 241.332031 125.621094 240.253906 125.621094 239.714844 C 125.078125 238.636719 124 238.097656 122.921875 238.636719 C 121.84375 239.175781 121.300781 240.253906 121.84375 241.332031 C 122.382812 241.871094 122.921875 242.410156 124 242.410156 C 129.398438 251.582031 135.332031 259.671875 142.886719 267.222656 C 150.441406 274.773438 158.535156 280.707031 167.707031 285.5625 C 168.25 286.640625 168.789062 287.71875 169.328125 287.71875 Z M 169.328125 287.71875 " fill-opacity="1" fill-rule="nonzero"/><path fill="#000000" d="M 188.214844 295.808594 C 189.292969 295.808594 189.832031 295.808594 190.371094 295.269531 C 200.625 297.964844 210.878906 299.585938 221.667969 299.585938 C 222.75 299.585938 223.828125 299.585938 224.367188 299.585938 C 224.90625 300.125 225.445312 301.203125 226.527344 300.664062 C 227.605469 300.664062 228.683594 299.585938 228.683594 298.503906 C 228.683594 297.425781 227.605469 296.347656 226.527344 296.347656 C 225.445312 296.347656 224.90625 296.886719 224.367188 297.964844 C 223.289062 297.964844 222.210938 297.964844 221.667969 297.964844 C 211.417969 297.964844 200.625 296.347656 190.910156 293.652344 C 190.910156 292.574219 190.371094 292.03125 189.292969 291.492188 C 188.214844 290.953125 187.132812 292.03125 186.59375 293.113281 C 186.59375 294.191406 187.132812 295.269531 188.214844 295.808594 Z M 188.214844 295.808594 " fill-opacity="1" fill-rule="nonzero"/><path fill="#000000" d="M 274.011719 276.929688 C 273.472656 276.390625 272.390625 276.390625 271.851562 276.929688 C 270.773438 276.929688 270.234375 278.550781 270.773438 279.628906 C 271.3125 280.707031 272.390625 281.246094 273.472656 280.707031 C 274.011719 280.167969 274.550781 279.628906 274.550781 278.550781 C 283.722656 273.15625 291.816406 266.683594 298.832031 259.132812 C 305.847656 251.582031 311.785156 242.949219 316.640625 233.242188 C 317.71875 233.242188 318.257812 232.703125 318.796875 232.164062 C 319.339844 231.082031 318.796875 230.003906 317.71875 229.464844 C 316.640625 228.925781 315.5625 229.464844 315.019531 230.542969 C 314.480469 231.625 315.019531 232.164062 315.5625 232.703125 C 306.925781 250.5 291.816406 266.683594 274.011719 276.929688 Z M 274.011719 276.929688 " fill-opacity="1" fill-rule="nonzero"/><path fill="#000000" d="M 328.511719 181.460938 C 328.511719 180.382812 327.433594 179.304688 326.351562 179.304688 C 325.273438 179.304688 324.195312 180.382812 324.195312 181.460938 C 324.195312 182.539062 324.734375 183.078125 325.8125 183.617188 C 325.8125 184.699219 325.8125 185.777344 325.8125 186.855469 C 325.8125 194.945312 324.734375 203.035156 323.117188 210.585938 C 322.035156 210.585938 321.496094 211.128906 321.496094 212.207031 C 320.957031 213.285156 322.035156 214.363281 323.117188 214.902344 C 324.195312 215.441406 325.273438 214.363281 325.8125 213.285156 C 325.8125 212.207031 325.8125 211.667969 324.734375 211.128906 C 326.351562 203.035156 327.433594 194.945312 327.433594 186.855469 C 327.433594 185.777344 327.433594 184.699219 327.433594 183.617188 C 327.972656 183.078125 328.511719 182.539062 328.511719 181.460938 Z M 328.511719 181.460938 " fill-opacity="1" fill-rule="nonzero"/><path fill="#000000" d="M 322.035156 164.203125 C 322.035156 165.28125 323.65625 165.820312 324.734375 165.820312 C 325.8125 165.820312 326.351562 164.203125 326.351562 163.121094 C 326.351562 162.042969 325.273438 161.503906 324.734375 161.503906 C 322.035156 150.71875 317.71875 141.007812 312.324219 131.300781 C 312.863281 130.761719 312.863281 129.683594 312.324219 128.601562 C 311.785156 127.523438 310.164062 127.523438 309.625 128.0625 C 308.546875 128.601562 308.546875 130.222656 309.085938 130.761719 C 309.625 131.300781 310.703125 131.839844 311.246094 131.839844 C 316.640625 141.007812 320.957031 150.71875 323.65625 161.503906 C 322.574219 162.582031 322.035156 163.121094 322.035156 164.203125 Z M 322.035156 164.203125 " fill-opacity="1" fill-rule="nonzero"/><path fill="#000000" d="M 252.425781 84.375 C 251.347656 83.835938 250.269531 84.914062 249.730469 85.992188 C 249.730469 87.070312 250.269531 88.148438 251.347656 88.148438 C 252.425781 88.148438 252.964844 88.148438 253.507812 87.609375 C 269.15625 92.464844 283.183594 101.09375 295.054688 112.960938 C 294.515625 113.5 295.054688 114.578125 295.59375 115.117188 C 296.136719 116.199219 297.753906 116.199219 298.832031 115.117188 C 299.914062 114.039062 299.914062 112.960938 298.832031 111.882812 C 298.292969 111.34375 297.214844 110.804688 296.675781 111.34375 C 284.804688 99.476562 270.234375 90.847656 254.585938 85.992188 C 254.046875 85.453125 253.507812 84.375 252.425781 84.375 Z M 252.425781 84.375 " fill-opacity="1" fill-rule="nonzero"/><path fill="#000000" d="M 233.539062 84.914062 C 234.621094 84.914062 235.699219 84.375 235.699219 83.296875 C 235.699219 82.214844 235.160156 81.136719 234.082031 81.136719 C 233 81.136719 232.460938 81.675781 231.921875 82.214844 C 228.683594 81.675781 225.445312 81.675781 221.667969 81.675781 C 215.195312 81.675781 208.71875 82.214844 202.242188 83.296875 C 201.703125 82.757812 201.164062 82.214844 200.085938 82.214844 C 199.007812 82.214844 198.464844 83.835938 198.464844 84.914062 C 198.464844 85.992188 200.085938 86.53125 201.164062 86.53125 C 202.242188 86.53125 202.78125 85.453125 202.78125 84.914062 C 209.257812 83.296875 215.734375 82.757812 222.207031 82.757812 C 225.445312 82.757812 228.683594 82.757812 231.921875 83.296875 C 231.921875 83.835938 232.460938 84.914062 233.539062 84.914062 Z M 233.539062 84.914062 " fill-opacity="1" fill-rule="nonzero"/><path fill="#000000" d="M 178.5 92.464844 C 179.039062 93.003906 180.121094 93.542969 180.660156 93.003906 C 181.738281 92.464844 182.277344 91.386719 181.738281 90.308594 C 181.199219 89.230469 180.121094 88.6875 179.039062 89.230469 C 177.960938 89.769531 177.960938 90.308594 177.960938 91.386719 C 162.3125 98.398438 148.28125 109.726562 138.03125 123.75 C 136.949219 123.75 136.410156 123.75 135.871094 124.289062 C 135.332031 125.367188 135.332031 126.445312 136.410156 126.984375 C 137.492188 127.523438 138.570312 127.523438 139.109375 126.445312 C 139.648438 125.90625 139.648438 124.828125 139.109375 124.289062 C 149.363281 110.265625 162.851562 99.476562 178.5 92.464844 Z M 178.5 92.464844 " fill-opacity="1" fill-rule="nonzero"/><path fill="#000000" d="M 141.808594 257.511719 C 142.347656 258.59375 143.964844 258.59375 145.046875 257.511719 C 146.125 256.972656 146.125 255.355469 145.046875 254.277344 C 144.503906 253.738281 143.425781 253.199219 142.886719 253.738281 C 135.871094 245.648438 130.476562 237.015625 126.699219 227.308594 C 127.238281 226.769531 127.777344 225.691406 127.238281 225.152344 C 126.699219 224.070312 125.621094 223.53125 124.539062 224.070312 C 123.460938 224.613281 122.921875 225.691406 123.460938 226.769531 C 123.460938 227.847656 124 228.386719 125.078125 228.386719 C 129.398438 238.097656 134.792969 246.726562 141.808594 254.816406 C 141.269531 255.894531 141.269531 256.972656 141.808594 257.511719 Z M 141.808594 257.511719 " fill-opacity="1" fill-rule="nonzero"/><path fill="#000000" d="M 161.773438 273.695312 C 172.566406 281.246094 184.4375 286.640625 196.847656 289.335938 C 196.847656 290.414062 197.386719 290.953125 198.464844 290.953125 C 199.546875 290.953125 200.625 290.414062 201.164062 289.335938 C 201.164062 288.257812 200.625 287.179688 199.546875 286.640625 C 198.464844 286.640625 197.925781 286.640625 197.386719 287.71875 C 184.976562 284.480469 173.644531 279.628906 162.851562 272.078125 C 162.851562 270.996094 162.851562 270.457031 162.3125 269.917969 C 161.234375 269.378906 160.152344 269.378906 159.613281 270.457031 C 159.074219 271.535156 159.074219 272.617188 160.152344 273.15625 C 160.152344 274.234375 161.234375 274.234375 161.773438 273.695312 Z M 161.773438 273.695312 " fill-opacity="1" fill-rule="nonzero"/><path fill="#000000" d="M 255.664062 288.257812 C 256.742188 287.71875 257.285156 286.640625 256.742188 285.5625 C 256.203125 284.480469 255.125 283.941406 254.046875 284.480469 C 252.964844 285.019531 252.425781 285.5625 252.425781 286.640625 C 242.714844 289.875 231.921875 291.492188 221.667969 291.492188 C 220.589844 291.492188 219.511719 291.492188 218.972656 291.492188 C 218.972656 290.414062 217.890625 289.875 216.8125 289.875 C 215.734375 289.875 214.65625 290.953125 214.65625 292.03125 C 214.65625 293.113281 215.734375 294.191406 216.8125 294.191406 C 217.890625 294.191406 218.433594 293.652344 218.972656 293.113281 C 220.050781 293.113281 221.128906 293.113281 221.667969 293.113281 C 232.460938 293.113281 242.714844 291.492188 252.964844 288.257812 C 253.507812 288.257812 254.585938 288.257812 255.664062 288.257812 Z M 255.664062 288.257812 " fill-opacity="1" fill-rule="nonzero"/><path fill="#000000" d="M 174.183594 103.792969 C 174.722656 103.253906 175.261719 102.714844 175.261719 101.632812 C 186.59375 95.699219 198.464844 91.386719 211.417969 90.308594 C 211.957031 90.847656 212.496094 91.386719 213.574219 91.386719 C 214.65625 91.386719 215.734375 90.308594 215.734375 89.230469 C 215.734375 88.148438 214.65625 87.070312 213.574219 87.070312 C 212.496094 87.070312 211.957031 87.609375 211.957031 88.6875 C 199.007812 90.308594 186.59375 94.082031 175.261719 100.554688 C 174.722656 100.015625 173.644531 100.015625 172.566406 100.554688 C 171.484375 101.09375 171.484375 102.171875 172.027344 103.253906 C 171.484375 104.332031 173.105469 104.332031 174.183594 103.792969 Z M 174.183594 103.792969 " fill-opacity="1" fill-rule="nonzero"/><path fill="#000000" d="M 147.203125 251.039062 C 153.679688 258.050781 160.695312 264.523438 168.789062 269.917969 C 168.789062 270.996094 168.789062 271.535156 169.867188 272.078125 C 170.945312 272.617188 172.027344 272.078125 172.566406 271.535156 C 173.105469 270.996094 172.566406 269.378906 172.027344 268.839844 C 171.484375 268.300781 170.40625 268.300781 169.867188 268.839844 C 161.773438 263.984375 154.757812 257.511719 148.28125 250.5 C 148.824219 249.960938 148.824219 248.882812 148.28125 248.34375 C 147.742188 247.265625 146.125 247.265625 145.585938 247.804688 C 144.503906 248.34375 144.503906 249.960938 145.046875 250.5 C 145.585938 251.582031 146.664062 251.582031 147.203125 251.039062 Z M 147.203125 251.039062 " fill-opacity="1" fill-rule="nonzero"/><path fill="#000000" d="M 188.214844 280.707031 C 189.292969 281.246094 189.832031 280.707031 190.371094 280.167969 C 200.625 283.402344 210.878906 285.019531 221.667969 285.019531 C 224.90625 285.019531 228.144531 285.019531 231.921875 284.480469 C 232.460938 285.019531 233 285.5625 234.082031 285.5625 C 235.160156 285.5625 236.238281 284.480469 235.699219 283.402344 C 235.699219 282.324219 234.621094 281.246094 233.539062 281.785156 C 232.460938 281.785156 231.921875 282.324219 231.921875 283.402344 C 228.683594 283.941406 225.445312 283.941406 222.210938 283.941406 C 211.417969 283.941406 201.164062 282.324219 191.453125 279.089844 C 191.453125 278.007812 190.910156 277.46875 189.832031 276.929688 C 188.753906 276.390625 187.675781 276.929688 187.132812 278.007812 C 186.59375 279.089844 187.132812 280.167969 188.214844 280.707031 Z M 188.214844 280.707031 " fill-opacity="1" fill-rule="nonzero"/><path fill="#000000" d="M 252.425781 281.785156 C 253.507812 281.246094 254.046875 280.707031 254.046875 279.628906 C 269.695312 274.234375 283.722656 265.066406 294.515625 252.660156 C 295.054688 253.199219 296.136719 252.660156 296.675781 252.121094 C 297.214844 251.039062 297.214844 249.960938 296.675781 249.421875 C 295.59375 248.882812 294.515625 248.882812 293.976562 249.421875 C 293.4375 249.960938 293.4375 251.039062 293.976562 251.582031 C 283.183594 263.445312 269.15625 272.617188 254.046875 278.007812 C 253.507812 277.46875 252.425781 276.929688 251.886719 277.46875 C 250.808594 278.007812 250.269531 279.089844 250.269531 280.167969 C 250.269531 281.246094 251.347656 282.324219 252.425781 281.785156 Z M 252.425781 281.785156 " fill-opacity="1" fill-rule="nonzero"/><path fill="#000000" d="M 320.957031 174.449219 C 320.957031 173.371094 319.878906 172.292969 318.796875 172.832031 C 317.71875 172.832031 316.640625 173.910156 317.179688 174.988281 C 317.179688 176.066406 317.71875 176.605469 318.796875 176.605469 C 319.339844 179.84375 319.339844 183.078125 319.339844 186.316406 C 319.339844 201.957031 315.5625 217.597656 308.546875 231.082031 C 307.46875 231.082031 306.925781 231.082031 306.386719 232.164062 C 305.847656 233.242188 306.386719 234.320312 307.46875 234.859375 C 308.546875 235.398438 309.625 234.859375 310.164062 233.78125 C 310.703125 233.242188 310.703125 232.164062 309.625 231.082031 C 312.863281 224.613281 315.5625 217.597656 317.71875 210.585938 C 319.878906 202.496094 320.957031 193.867188 320.957031 185.777344 C 320.957031 182.539062 320.957031 179.304688 320.417969 175.527344 C 320.957031 176.605469 321.496094 175.527344 320.957031 174.449219 Z M 320.957031 174.449219 " fill-opacity="1" fill-rule="nonzero"/><path fill="#000000" d="M 314.480469 149.097656 C 313.941406 148.019531 313.402344 147.480469 312.324219 148.019531 C 305.308594 132.378906 294.515625 118.355469 281.027344 108.105469 C 266.996094 97.320312 250.269531 90.847656 233 89.230469 C 233 88.148438 231.921875 87.609375 231.382812 87.609375 C 230.304688 87.609375 229.222656 88.148438 229.222656 89.769531 C 229.222656 91.386719 229.761719 91.925781 231.382812 91.925781 C 232.460938 91.925781 233 91.386719 233.539062 90.847656 C 268.074219 94.621094 297.753906 116.738281 311.785156 149.097656 C 311.246094 149.636719 310.703125 150.71875 311.246094 151.257812 C 311.785156 152.335938 312.863281 152.875 313.941406 152.335938 C 314.480469 151.257812 315.019531 150.179688 314.480469 149.097656 Z M 314.480469 149.097656 " fill-opacity="1" fill-rule="nonzero"/><path fill="#000000" d="M 262.679688 65.496094 C 261.601562 64.957031 261.0625 65.496094 260.519531 66.035156 C 255.125 64.417969 249.1875 62.800781 243.253906 61.71875 C 236.238281 61.179688 229.222656 60.101562 222.207031 60.101562 C 216.273438 60.101562 210.878906 60.640625 204.941406 61.179688 C 204.402344 60.640625 203.863281 60.101562 202.78125 60.101562 C 201.703125 60.101562 200.625 61.179688 201.164062 62.261719 C 201.164062 63.339844 202.242188 64.417969 203.324219 63.878906 C 204.402344 63.878906 204.941406 62.800781 204.941406 62.261719 C 210.335938 61.71875 216.273438 61.179688 221.667969 61.179688 C 228.683594 61.179688 235.699219 61.71875 242.714844 62.800781 C 248.648438 63.878906 254.046875 64.957031 259.441406 67.113281 C 259.441406 68.191406 259.980469 68.734375 261.0625 69.273438 C 262.140625 69.8125 263.21875 69.273438 263.757812 68.191406 C 264.296875 67.113281 263.757812 66.035156 262.679688 65.496094 Z M 262.679688 65.496094 " fill-opacity="1" fill-rule="nonzero"/><path fill="#000000" d="M 147.203125 239.714844 C 159.074219 256.972656 176.882812 269.378906 196.847656 274.773438 C 196.847656 275.851562 197.386719 276.390625 198.464844 276.390625 C 199.546875 276.929688 200.625 275.851562 201.164062 274.773438 C 201.703125 273.695312 200.625 272.617188 199.546875 272.078125 C 198.464844 272.078125 197.925781 272.078125 197.386719 273.15625 C 177.421875 267.761719 160.152344 255.355469 148.28125 238.636719 C 148.824219 238.097656 148.824219 237.015625 148.28125 236.476562 C 147.742188 235.398438 146.125 235.398438 145.585938 235.9375 C 145.046875 236.476562 144.503906 238.097656 145.046875 238.636719 C 145.046875 239.175781 146.125 239.714844 147.203125 239.714844 Z M 147.203125 239.714844 " fill-opacity="1" fill-rule="nonzero"/><path fill="#000000" d="M 255.664062 273.15625 C 256.742188 272.617188 257.285156 271.535156 256.742188 270.457031 C 256.203125 269.378906 255.125 268.839844 254.046875 269.378906 C 252.964844 269.917969 252.964844 270.457031 252.964844 271.535156 C 243.253906 275.3125 232.460938 276.929688 222.207031 276.929688 C 221.128906 276.929688 220.050781 276.929688 218.972656 276.929688 C 218.972656 275.851562 217.890625 275.3125 216.8125 275.3125 C 215.734375 275.3125 214.65625 276.390625 214.65625 277.46875 C 214.65625 278.550781 215.734375 279.628906 216.8125 279.628906 C 217.890625 279.628906 218.433594 279.089844 218.972656 278.550781 C 220.050781 278.550781 221.128906 278.550781 222.207031 278.550781 C 233 278.550781 243.792969 276.929688 253.507812 273.15625 C 254.046875 273.15625 255.125 273.695312 255.664062 273.15625 Z M 255.664062 273.15625 " fill-opacity="1" fill-rule="nonzero"/><path fill="#000000" d="M 306.925781 224.613281 C 307.46875 223.53125 306.925781 222.453125 305.847656 221.914062 C 304.769531 221.375 303.691406 221.914062 303.148438 222.992188 C 302.609375 224.070312 303.148438 224.613281 303.691406 225.152344 C 296.675781 239.175781 286.421875 251.582031 273.472656 260.75 C 272.933594 260.210938 271.851562 260.210938 271.3125 260.75 C 270.234375 261.289062 270.234375 262.90625 270.773438 263.445312 C 271.3125 264.523438 272.933594 264.523438 273.472656 263.984375 C 274.011719 263.445312 274.550781 262.367188 274.550781 261.828125 C 288.042969 252.660156 298.292969 240.253906 305.308594 225.691406 C 305.847656 225.691406 306.386719 225.152344 306.925781 224.613281 Z M 306.925781 224.613281 " fill-opacity="1" fill-rule="nonzero"/><path fill="#000000" d="M 310.164062 198.183594 C 310.164062 199.261719 310.703125 200.339844 311.785156 200.339844 C 312.863281 200.339844 313.941406 199.800781 313.941406 198.722656 C 313.941406 197.644531 313.402344 197.101562 312.863281 196.5625 C 313.402344 193.328125 313.402344 190.089844 313.402344 186.316406 C 313.402344 179.304688 312.324219 172.292969 310.703125 165.28125 C 309.085938 159.347656 307.46875 153.414062 304.769531 148.019531 C 305.308594 147.480469 305.308594 146.402344 305.308594 145.863281 C 304.769531 144.785156 303.691406 144.246094 302.609375 144.785156 C 301.53125 145.324219 300.992188 146.402344 301.53125 147.480469 C 302.070312 148.019531 302.609375 148.558594 303.691406 148.558594 C 309.085938 160.425781 311.785156 173.371094 311.785156 186.316406 C 311.785156 189.550781 311.785156 192.789062 311.246094 196.023438 C 310.703125 196.5625 310.164062 197.644531 310.164062 198.183594 Z M 310.164062 198.183594 " fill-opacity="1" fill-rule="nonzero"/><path fill="#000000" d="M 290.738281 126.445312 C 282.644531 116.738281 272.390625 109.183594 261.0625 103.792969 C 261.0625 102.714844 260.519531 102.171875 259.980469 101.632812 C 258.902344 101.09375 257.824219 101.632812 257.285156 102.714844 C 256.742188 103.792969 257.285156 104.871094 258.363281 105.410156 C 259.441406 105.949219 259.980469 105.410156 260.519531 104.871094 C 271.851562 110.265625 281.566406 117.816406 289.660156 126.984375 C 289.121094 127.523438 289.121094 128.601562 289.660156 129.140625 C 290.199219 130.222656 291.816406 130.222656 292.359375 129.683594 C 293.4375 129.140625 293.4375 127.523438 292.898438 126.984375 C 292.898438 126.445312 291.816406 126.445312 290.738281 126.445312 Z M 290.738281 126.445312 " fill-opacity="1" fill-rule="nonzero"/><path fill="#000000" d="M 241.09375 95.699219 C 240.015625 95.699219 239.476562 95.699219 238.9375 96.78125 C 233.539062 95.699219 227.605469 95.160156 221.667969 95.160156 C 209.257812 95.160156 197.386719 97.320312 186.054688 102.171875 C 175.804688 106.488281 166.628906 112.421875 158.535156 120.511719 C 157.996094 119.972656 156.917969 120.511719 155.835938 121.050781 C 154.757812 122.128906 155.296875 123.210938 155.835938 124.289062 C 156.917969 125.367188 157.996094 124.828125 159.074219 124.289062 C 159.613281 123.75 159.613281 122.667969 159.613281 122.128906 C 176.34375 105.949219 198.464844 97.320312 221.667969 97.320312 C 227.066406 97.320312 233 97.859375 238.398438 98.9375 C 238.398438 100.015625 238.9375 100.554688 240.015625 100.554688 C 241.09375 100.554688 242.175781 100.015625 242.714844 98.9375 C 243.253906 97.320312 242.175781 96.242188 241.09375 95.699219 Z M 241.09375 95.699219 " fill-opacity="1" fill-rule="nonzero"/><path fill="#000000" d="M 308.007812 189.011719 C 308.007812 187.933594 306.925781 186.855469 305.847656 186.855469 C 304.769531 186.855469 303.691406 187.933594 303.691406 189.011719 C 303.691406 190.089844 304.230469 190.632812 304.769531 191.171875 C 304.230469 206.273438 299.371094 220.296875 291.277344 232.703125 C 290.199219 232.703125 289.660156 232.703125 289.121094 233.78125 C 288.582031 234.859375 288.582031 235.9375 289.660156 236.476562 C 290.738281 237.015625 291.816406 237.015625 292.359375 235.9375 C 292.898438 235.398438 292.898438 234.320312 292.359375 233.242188 C 300.453125 220.835938 305.308594 206.273438 305.847656 191.171875 C 307.46875 190.632812 308.007812 190.089844 308.007812 189.011719 Z M 308.007812 189.011719 " fill-opacity="1" fill-rule="nonzero"/><path fill="#000000" d="M 304.769531 172.832031 C 305.847656 172.832031 306.925781 171.753906 306.386719 170.132812 C 306.386719 169.054688 305.308594 168.515625 304.769531 168.515625 C 302.070312 155.570312 296.136719 143.167969 287.5 132.917969 C 288.042969 132.378906 288.042969 131.300781 287.5 130.222656 C 286.960938 129.140625 285.34375 129.140625 284.804688 130.222656 C 283.722656 130.761719 283.722656 132.378906 284.804688 132.917969 C 285.34375 133.457031 286.421875 133.996094 286.960938 133.457031 C 295.59375 143.707031 301.53125 155.570312 304.230469 168.515625 C 303.691406 169.054688 303.148438 169.59375 303.148438 170.675781 C 302.609375 172.292969 303.691406 172.832031 304.769531 172.832031 Z M 304.769531 172.832031 " fill-opacity="1" fill-rule="nonzero"/><path fill="#000000" d="M 218.972656 102.171875 C 218.433594 101.632812 217.890625 100.554688 216.8125 101.09375 C 215.734375 101.09375 214.65625 102.171875 214.65625 103.253906 C 214.65625 104.332031 215.734375 105.410156 216.8125 105.410156 C 217.890625 105.410156 218.433594 104.871094 218.433594 103.792969 C 219.511719 103.792969 220.589844 103.792969 221.128906 103.792969 C 237.316406 103.792969 252.964844 108.644531 266.457031 117.277344 C 266.457031 118.355469 266.457031 118.894531 267.535156 119.433594 C 268.613281 119.972656 269.695312 119.972656 270.234375 118.894531 C 270.773438 117.816406 270.773438 116.738281 269.695312 116.199219 C 269.15625 115.65625 268.074219 115.65625 266.996094 116.199219 C 253.507812 107.566406 237.316406 102.714844 221.128906 102.714844 C 221.128906 102.171875 220.050781 102.171875 218.972656 102.171875 Z M 218.972656 102.171875 " fill-opacity="1" fill-rule="nonzero"/><path fill="#000000" d="M 168.789062 252.660156 C 175.804688 258.050781 183.355469 262.367188 191.453125 265.605469 C 200.085938 268.839844 208.71875 270.996094 217.890625 270.996094 C 217.890625 272.078125 218.972656 272.617188 220.050781 272.617188 C 221.128906 272.617188 222.207031 271.535156 222.207031 270.457031 C 222.207031 269.378906 221.128906 268.300781 220.050781 268.300781 C 218.972656 268.300781 218.433594 268.839844 217.890625 269.378906 C 200.625 268.300781 183.355469 261.828125 169.867188 251.039062 C 170.40625 250.5 169.867188 249.421875 169.328125 248.882812 C 168.25 248.34375 167.167969 248.34375 166.628906 248.882812 C 166.089844 249.421875 166.089844 251.039062 166.628906 251.582031 C 167.167969 253.199219 168.25 253.199219 168.789062 252.660156 Z M 168.789062 252.660156 " fill-opacity="1" fill-rule="nonzero"/><path fill="#000000" d="M 238.398438 270.996094 C 239.476562 270.996094 240.015625 269.917969 240.015625 269.378906 C 252.964844 266.683594 264.839844 260.75 275.089844 252.660156 C 275.628906 253.199219 276.710938 253.199219 277.789062 252.660156 C 278.867188 252.121094 278.867188 250.5 277.789062 249.960938 C 277.25 248.882812 275.628906 248.882812 275.089844 249.960938 C 274.550781 250.5 274.011719 251.582031 274.550781 252.121094 C 264.296875 260.210938 252.425781 266.144531 240.015625 268.839844 C 239.476562 268.300781 238.9375 267.761719 237.859375 267.761719 C 236.777344 267.761719 235.699219 268.839844 236.238281 270.457031 C 236.238281 270.457031 237.316406 271.535156 238.398438 270.996094 Z M 238.398438 270.996094 " fill-opacity="1" fill-rule="nonzero"/><path fill="#000000" d="M 238.9375 262.367188 C 239.476562 262.90625 240.554688 263.445312 241.09375 263.445312 C 242.175781 262.90625 242.714844 261.828125 242.714844 260.75 C 242.175781 259.671875 241.09375 259.132812 240.015625 259.132812 C 238.9375 259.132812 238.398438 260.210938 238.398438 260.75 C 233 261.828125 227.066406 262.367188 221.667969 262.367188 C 218.433594 262.367188 215.195312 262.367188 211.957031 261.828125 C 211.957031 260.75 210.878906 260.210938 210.335938 260.210938 C 209.257812 260.210938 208.179688 260.75 208.179688 261.828125 C 208.179688 262.90625 208.71875 263.984375 209.796875 263.984375 C 210.878906 263.984375 211.417969 263.445312 211.957031 262.90625 C 215.195312 263.445312 218.433594 263.445312 222.207031 263.445312 C 227.605469 264.523438 233.539062 263.445312 238.9375 262.367188 Z M 238.9375 262.367188 " fill-opacity="1" fill-rule="nonzero"/><path fill="#000000" d="M 291.277344 224.613281 C 291.816406 223.53125 291.277344 222.453125 290.199219 221.914062 C 289.121094 221.375 288.042969 221.914062 287.5 222.992188 C 286.960938 223.53125 286.960938 224.613281 288.042969 225.152344 C 281.027344 237.015625 271.851562 246.1875 259.980469 253.199219 C 259.441406 252.660156 258.363281 252.660156 257.824219 252.660156 C 256.742188 253.199219 256.203125 254.277344 256.742188 255.355469 C 257.285156 256.433594 258.363281 256.972656 259.441406 256.433594 C 260.519531 255.894531 260.519531 255.355469 260.519531 254.277344 C 272.390625 247.265625 282.105469 237.554688 289.121094 225.691406 C 289.660156 225.691406 290.738281 225.152344 291.277344 224.613281 Z M 291.277344 224.613281 " fill-opacity="1" fill-rule="nonzero"/><path fill="#000000" d="M 286.421875 143.167969 C 278.328125 131.300781 266.996094 121.589844 254.046875 115.65625 C 254.046875 114.578125 253.507812 114.039062 252.964844 113.5 C 251.886719 112.960938 250.808594 113.5 250.269531 114.578125 C 249.730469 115.65625 250.269531 116.738281 251.347656 117.277344 C 252.425781 117.816406 252.964844 117.277344 253.507812 116.738281 C 280.488281 129.140625 298.292969 156.109375 298.292969 186.316406 C 298.292969 192.25 297.753906 197.644531 296.675781 203.035156 C 295.59375 203.035156 295.054688 203.574219 295.054688 204.65625 C 294.515625 205.734375 295.59375 206.8125 296.675781 207.351562 C 297.753906 207.890625 298.832031 206.8125 299.371094 205.734375 C 299.371094 204.65625 299.371094 204.117188 298.292969 203.574219 C 299.371094 198.183594 300.453125 192.25 300.453125 186.316406 C 299.371094 171.214844 295.054688 156.109375 286.421875 143.167969 Z M 286.421875 143.167969 " fill-opacity="1" fill-rule="nonzero"/><path fill="#000000" d="M 227.066406 108.105469 C 225.984375 108.105469 225.445312 108.644531 224.90625 109.183594 C 223.828125 109.183594 222.75 109.183594 221.667969 109.183594 C 215.734375 109.183594 209.796875 109.726562 203.863281 111.34375 C 203.324219 110.804688 202.242188 110.265625 201.703125 110.265625 C 200.625 110.804688 200.085938 111.882812 200.085938 112.960938 C 200.625 114.039062 201.703125 114.578125 202.78125 114.578125 C 203.863281 114.578125 204.402344 113.5 204.402344 112.960938 C 210.335938 111.882812 215.734375 110.804688 221.667969 110.804688 C 222.75 110.804688 223.828125 110.804688 224.367188 110.804688 C 224.367188 111.882812 225.445312 112.421875 225.984375 112.421875 C 227.066406 112.421875 228.144531 111.882812 228.144531 110.265625 C 228.144531 108.644531 228.144531 108.105469 227.066406 108.105469 Z M 227.066406 108.105469 " fill-opacity="1" fill-rule="nonzero"/><path fill="#000000" d="M 169.328125 229.464844 C 168.25 228.386719 167.167969 228.386719 166.089844 228.925781 C 165.011719 229.464844 165.011719 231.082031 165.550781 231.625 C 166.089844 232.164062 167.167969 232.703125 167.707031 232.164062 C 175.261719 241.332031 185.515625 248.34375 196.308594 252.121094 C 196.308594 253.199219 196.847656 253.738281 197.925781 254.277344 C 199.007812 254.816406 200.085938 254.277344 200.625 253.199219 C 201.164062 252.121094 200.625 251.039062 199.546875 250.5 C 198.464844 249.960938 197.925781 250.5 197.386719 251.039062 C 186.59375 246.726562 176.882812 240.253906 169.328125 231.082031 C 169.867188 231.082031 169.867188 230.003906 169.328125 229.464844 Z M 169.328125 229.464844 " fill-opacity="1" fill-rule="nonzero"/><path fill="#000000" d="M 223.828125 258.59375 C 224.90625 258.59375 225.445312 258.050781 225.984375 256.972656 C 238.398438 256.433594 250.808594 252.121094 261.0625 245.109375 C 261.601562 245.648438 262.679688 245.648438 263.757812 245.109375 C 264.839844 244.566406 264.839844 242.949219 264.296875 242.410156 C 263.757812 241.332031 262.140625 241.332031 261.601562 241.871094 C 261.0625 242.410156 260.519531 243.488281 261.0625 244.027344 C 250.808594 251.039062 238.9375 254.816406 226.527344 255.355469 C 225.984375 254.816406 225.445312 254.277344 224.367188 254.277344 C 223.289062 254.277344 222.207031 255.355469 222.207031 256.433594 C 222.207031 257.511719 222.75 258.59375 223.828125 258.59375 Z M 223.828125 258.59375 " fill-opacity="1" fill-rule="nonzero"/><path fill="#000000" d="M 293.976562 181.460938 C 293.976562 180.382812 292.898438 179.304688 291.816406 179.304688 C 290.738281 179.304688 289.660156 180.382812 289.660156 181.460938 C 289.660156 182.539062 290.199219 183.078125 291.277344 183.078125 C 291.277344 184.160156 291.277344 185.238281 291.277344 186.316406 C 291.277344 200.339844 287.5 213.285156 279.40625 224.613281 C 278.328125 224.613281 277.789062 224.613281 277.25 225.152344 C 276.710938 226.230469 276.710938 227.308594 277.789062 227.847656 C 278.867188 228.386719 279.945312 228.386719 280.488281 227.308594 C 281.027344 226.769531 281.027344 225.691406 280.488281 224.613281 C 288.042969 212.746094 292.359375 199.261719 292.359375 185.238281 C 292.359375 184.160156 292.359375 183.078125 292.359375 182 C 293.4375 183.078125 293.976562 182.539062 293.976562 181.460938 Z M 293.976562 181.460938 " fill-opacity="1" fill-rule="nonzero"/><path fill="#000000" d="M 273.472656 136.695312 C 272.390625 135.613281 271.3125 135.613281 270.234375 136.695312 C 269.15625 137.773438 269.15625 138.851562 270.234375 139.929688 C 270.773438 140.46875 271.851562 140.46875 272.390625 140.46875 C 276.710938 145.324219 280.488281 150.179688 283.183594 156.109375 C 282.644531 156.648438 282.644531 157.730469 282.644531 158.269531 C 283.183594 159.347656 284.265625 159.886719 285.34375 159.347656 C 286.421875 158.808594 286.960938 157.730469 286.421875 156.648438 C 285.882812 155.570312 285.34375 155.570312 284.265625 155.570312 C 281.566406 149.636719 277.789062 144.785156 273.472656 139.929688 C 274.550781 138.3125 274.011719 137.234375 273.472656 136.695312 Z M 273.472656 136.695312 " fill-opacity="1" fill-rule="nonzero"/><path fill="#000000" d="M 256.203125 123.210938 C 255.125 122.667969 254.585938 122.667969 253.507812 123.75 C 243.792969 118.894531 233 116.199219 222.207031 116.199219 C 218.972656 116.199219 215.195312 116.199219 211.957031 116.738281 C 211.417969 116.199219 210.878906 115.65625 209.796875 115.65625 C 208.71875 115.65625 207.640625 116.738281 208.179688 118.355469 C 208.179688 119.433594 209.257812 120.511719 210.878906 119.972656 C 211.957031 119.972656 212.496094 118.894531 212.496094 118.355469 C 215.734375 117.816406 218.972656 117.816406 222.207031 117.816406 C 233 117.816406 243.792969 120.511719 252.964844 125.367188 C 252.964844 126.445312 253.507812 126.984375 254.046875 127.523438 C 255.125 128.0625 256.203125 127.523438 256.742188 126.445312 C 257.285156 125.367188 257.285156 123.75 256.203125 123.210938 Z M 256.203125 123.210938 " fill-opacity="1" fill-rule="nonzero"/><path fill="#000000" d="M 196.847656 241.871094 C 195.769531 241.332031 194.6875 241.871094 194.148438 242.949219 C 193.609375 244.027344 194.148438 245.109375 195.230469 245.648438 C 196.308594 246.1875 196.847656 245.648438 197.925781 245.109375 C 205.480469 248.34375 214.113281 249.960938 222.207031 249.960938 C 225.445312 249.960938 229.222656 249.960938 232.460938 249.421875 C 233 249.960938 233.539062 250.5 234.621094 250.5 C 235.699219 250.5 236.238281 249.421875 236.238281 247.804688 C 236.238281 246.1875 235.160156 246.1875 233.539062 246.1875 C 232.460938 246.1875 231.921875 247.265625 231.921875 247.804688 C 228.683594 248.34375 225.445312 248.34375 222.207031 248.34375 C 214.113281 248.34375 206.019531 246.726562 198.464844 243.488281 C 197.925781 243.488281 197.925781 242.410156 196.847656 241.871094 Z M 196.847656 241.871094 " fill-opacity="1" fill-rule="nonzero"/><path fill="#000000" d="M 276.710938 218.679688 C 277.789062 218.679688 278.328125 218.679688 278.867188 217.597656 C 279.40625 216.519531 278.867188 215.441406 277.789062 214.902344 C 276.710938 214.363281 275.628906 214.902344 275.089844 215.980469 C 274.550781 216.519531 274.550781 217.597656 275.628906 218.140625 C 270.234375 227.308594 262.679688 235.398438 252.964844 240.792969 C 252.425781 240.253906 251.347656 240.253906 250.808594 240.253906 C 249.730469 240.792969 249.1875 241.871094 249.730469 242.949219 C 250.269531 244.027344 251.347656 244.566406 252.425781 244.027344 C 253.507812 243.488281 253.507812 242.949219 253.507812 241.871094 C 263.757812 235.9375 271.3125 228.386719 276.710938 218.679688 Z M 276.710938 218.679688 " fill-opacity="1" fill-rule="nonzero"/><path fill="#000000" d="M 281.566406 198.183594 C 281.566406 199.261719 282.105469 200.339844 283.183594 200.878906 C 284.265625 200.878906 285.34375 200.339844 285.882812 199.261719 C 285.882812 198.183594 285.882812 197.644531 284.804688 197.101562 C 285.34375 193.867188 285.34375 190.632812 285.34375 186.855469 C 285.34375 175.527344 282.644531 164.742188 276.710938 155.03125 C 277.25 154.492188 277.25 153.414062 276.710938 152.335938 C 276.167969 151.257812 274.550781 151.257812 274.011719 151.796875 C 273.472656 152.335938 272.933594 153.953125 273.472656 154.492188 C 274.011719 155.03125 275.089844 155.570312 275.628906 155.570312 C 281.027344 164.742188 283.722656 175.527344 283.722656 186.855469 C 283.722656 190.089844 283.722656 193.328125 283.183594 196.5625 C 282.644531 196.5625 281.566406 197.101562 281.566406 198.183594 Z M 281.566406 198.183594 " fill-opacity="1" fill-rule="nonzero"/><path fill="#000000" d="M 256.742188 133.457031 C 246.492188 126.445312 234.082031 123.210938 221.667969 123.210938 C 215.734375 123.210938 210.335938 123.75 204.402344 125.367188 C 203.863281 124.828125 202.78125 124.289062 202.242188 124.828125 C 201.164062 125.367188 200.625 126.445312 201.164062 127.523438 C 201.703125 128.601562 202.78125 129.140625 203.863281 128.601562 C 204.941406 128.0625 205.480469 127.523438 205.480469 126.445312 C 210.878906 124.828125 216.273438 124.289062 222.207031 124.289062 C 234.621094 124.289062 245.953125 128.0625 256.203125 134.535156 C 256.203125 135.613281 256.203125 136.152344 256.742188 136.695312 C 257.824219 137.234375 258.902344 137.234375 259.441406 136.152344 C 259.980469 135.074219 259.980469 133.996094 258.902344 133.457031 C 258.363281 132.917969 257.824219 132.917969 256.742188 133.457031 Z M 256.742188 133.457031 " fill-opacity="1" fill-rule="nonzero"/><path fill="#000000" d="M 175.804688 214.902344 C 175.261719 213.824219 174.183594 213.824219 173.105469 214.363281 C 172.027344 214.902344 172.027344 215.980469 172.566406 217.058594 C 173.105469 217.597656 174.183594 218.140625 174.722656 218.140625 C 177.421875 222.453125 180.660156 226.230469 184.4375 229.464844 C 188.214844 232.703125 192.53125 235.398438 196.847656 237.554688 C 196.847656 238.636719 197.386719 239.175781 197.925781 239.714844 C 199.003906 240.253906 200.085938 239.714844 200.625 238.636719 C 201.164062 237.554688 200.625 236.476562 199.546875 235.9375 C 198.464844 235.398438 197.925781 235.9375 197.386719 236.476562 C 188.753906 232.164062 181.199219 225.691406 175.800781 217.597656 C 176.34375 216.519531 176.34375 215.441406 175.804688 214.902344 Z M 175.804688 214.902344 " fill-opacity="1" fill-rule="nonzero"/><path fill="#000000" d="M 218.972656 241.871094 C 218.972656 240.792969 217.890625 240.253906 217.351562 240.253906 C 216.273438 240.253906 215.195312 240.792969 215.195312 241.871094 C 215.195312 242.949219 215.734375 244.027344 216.8125 244.027344 C 217.890625 244.027344 218.433594 243.488281 218.972656 242.949219 C 220.050781 242.949219 221.128906 242.949219 222.207031 242.949219 C 231.921875 242.949219 241.636719 240.253906 250.269531 235.398438 C 250.808594 235.9375 251.886719 235.9375 252.964844 235.398438 C 254.046875 234.859375 254.046875 233.242188 253.507812 232.703125 C 252.964844 231.625 251.347656 231.625 250.808594 232.164062 C 249.1875 233.242188 249.1875 233.78125 249.1875 234.859375 C 241.09375 239.714844 231.382812 241.871094 221.667969 241.871094 C 221.128906 241.871094 220.050781 241.871094 218.972656 241.871094 Z M 218.972656 241.871094 " fill-opacity="1" fill-rule="nonzero"/><path fill="#000000" d="M 264.839844 219.21875 C 264.296875 220.296875 264.296875 221.375 265.378906 221.914062 C 266.457031 222.453125 267.535156 222.453125 268.074219 221.375 C 268.613281 220.835938 268.613281 219.757812 268.074219 218.679688 C 271.3125 214.363281 273.472656 209.507812 275.628906 204.65625 C 277.789062 198.722656 278.867188 192.25 278.867188 186.316406 C 278.867188 179.84375 277.789062 173.910156 275.628906 167.976562 C 276.167969 167.4375 276.710938 166.359375 276.167969 165.820312 C 275.628906 164.742188 274.550781 164.203125 273.472656 164.742188 C 272.390625 165.28125 271.851562 166.359375 272.390625 167.4375 C 272.933594 168.515625 273.472656 168.515625 274.550781 168.515625 C 276.710938 174.449219 277.25 180.382812 277.25 186.316406 C 277.25 197.644531 274.011719 208.96875 266.996094 218.140625 C 266.457031 218.140625 265.378906 218.679688 264.839844 219.21875 Z M 264.839844 219.21875 " fill-opacity="1" fill-rule="nonzero"/><path fill="#000000" d="M 259.441406 144.246094 C 254.046875 139.390625 247.03125 135.613281 240.015625 132.917969 C 240.015625 131.839844 239.476562 131.300781 238.398438 130.761719 C 237.316406 130.222656 236.238281 131.300781 235.699219 132.378906 C 235.160156 133.457031 236.238281 134.535156 237.316406 135.074219 C 238.398438 135.074219 238.9375 135.074219 239.476562 134.535156 C 246.492188 136.695312 252.964844 140.46875 258.363281 145.324219 C 257.824219 145.863281 258.363281 146.941406 258.902344 147.480469 C 259.980469 148.558594 261.0625 148.019531 262.140625 147.480469 C 263.21875 146.941406 262.679688 145.324219 262.140625 144.246094 C 261.0625 144.246094 259.980469 143.707031 259.441406 144.246094 Z M 259.441406 144.246094 " fill-opacity="1" fill-rule="nonzero"/><path fill="#000000" d="M 245.953125 231.625 C 247.03125 231.082031 247.03125 230.542969 247.03125 229.464844 C 251.886719 226.769531 256.203125 222.992188 259.980469 218.679688 C 263.757812 214.363281 266.457031 209.507812 268.613281 204.65625 C 269.695312 204.65625 270.234375 204.117188 270.773438 203.035156 C 271.3125 201.957031 270.773438 200.878906 269.695312 200.339844 C 268.613281 199.800781 267.535156 200.339844 266.996094 201.417969 C 266.457031 202.496094 266.996094 203.035156 267.535156 203.574219 C 263.757812 213.824219 256.203125 221.914062 247.03125 227.847656 C 246.492188 227.308594 245.410156 227.308594 244.871094 227.308594 C 243.792969 227.847656 243.253906 228.925781 243.792969 230.003906 C 243.253906 232.164062 244.871094 232.164062 245.953125 231.625 Z M 245.953125 231.625 " fill-opacity="1" fill-rule="nonzero"/><path fill="#000000" d="M 265.917969 160.964844 C 265.378906 159.886719 263.757812 159.886719 263.21875 160.425781 C 262.140625 160.964844 262.140625 162.582031 262.679688 163.121094 C 263.21875 163.664062 263.757812 164.203125 264.839844 164.203125 C 268.074219 170.132812 269.695312 176.066406 270.234375 182.539062 C 269.695312 183.078125 269.15625 183.617188 269.15625 184.699219 C 269.15625 185.777344 270.234375 186.855469 271.3125 186.855469 C 272.390625 186.855469 273.472656 185.777344 273.472656 184.699219 C 273.472656 183.617188 272.933594 183.078125 271.851562 182.539062 C 271.3125 176.066406 269.15625 169.59375 266.457031 163.664062 C 266.457031 163.121094 266.457031 162.042969 265.917969 160.964844 Z M 265.917969 160.964844 " fill-opacity="1" fill-rule="nonzero"/><path fill="#000000" d="M 247.570312 147.480469 C 248.648438 148.019531 249.730469 148.019531 250.269531 146.941406 C 250.808594 145.863281 250.808594 144.785156 249.730469 144.246094 C 249.1875 143.707031 248.109375 143.707031 247.03125 144.246094 C 239.476562 139.929688 230.84375 137.234375 221.667969 137.234375 C 217.890625 137.234375 214.65625 137.773438 210.878906 138.3125 C 210.335938 137.773438 209.257812 137.234375 208.71875 137.234375 C 207.640625 137.773438 207.101562 138.851562 207.101562 139.929688 C 207.640625 141.007812 208.71875 141.546875 209.796875 141.546875 C 210.878906 141.546875 211.417969 140.46875 211.417969 139.929688 C 214.65625 139.390625 218.433594 138.851562 221.667969 138.851562 C 230.304688 138.851562 238.9375 141.007812 245.953125 145.324219 C 246.492188 145.863281 246.492188 146.941406 247.570312 147.480469 Z M 247.570312 147.480469 " fill-opacity="1" fill-rule="nonzero"/><path fill="#000000" d="M 188.753906 219.757812 C 188.214844 218.679688 186.59375 218.679688 185.515625 219.757812 C 184.4375 220.296875 184.4375 221.914062 185.515625 222.992188 C 186.054688 223.53125 187.132812 224.070312 188.214844 223.53125 C 192.53125 227.308594 197.386719 230.542969 202.242188 232.703125 C 208.179688 235.398438 214.65625 236.476562 221.667969 236.476562 C 222.75 236.476562 223.828125 236.476562 224.90625 236.476562 C 225.445312 237.554688 225.984375 237.554688 227.066406 237.554688 C 228.144531 237.554688 229.222656 236.476562 228.683594 235.398438 C 228.683594 234.320312 227.605469 233.242188 226.527344 233.78125 C 225.445312 233.78125 224.90625 234.320312 224.90625 235.398438 C 223.828125 235.398438 222.75 235.398438 222.207031 235.398438 C 209.796875 235.398438 198.464844 231.082031 189.832031 222.992188 C 189.832031 221.375 189.832031 220.835938 188.753906 219.757812 Z M 188.753906 219.757812 " fill-opacity="1" fill-rule="nonzero"/></svg>