<svg xmlns="http://www.w3.org/2000/svg" xmlns:xlink="http://www.w3.org/1999/xlink" width="1024" zoomAndPan="magnify" viewBox="0 0 768 767.999994" height="1024" preserveAspectRatio="xMidYMid meet" version="1.0"><defs><clipPath id="5e25e8021d"><path d="M 91 23.136719 L 378 23.136719 L 378 172 L 91 172 Z M 91 23.136719 " clip-rule="nonzero"/></clipPath><clipPath id="c3f43f9e64"><path d="M 34.714844 490 L 147 490 L 147 655 L 34.714844 655 Z M 34.714844 490 " clip-rule="nonzero"/></clipPath><clipPath id="f19b1859eb"><path d="M 180 678 L 376 678 L 376 744.636719 L 180 744.636719 Z M 180 678 " clip-rule="nonzero"/></clipPath><clipPath id="6ab81c83cb"><path d="M 676 194 L 732.964844 194 L 732.964844 434 L 676 434 Z M 676 194 " clip-rule="nonzero"/></clipPath></defs><g clip-path="url(#5e25e8021d)"><path fill="#ffffff" d="M 100.511719 169.671875 C 101.878906 168.300781 101.878906 165.5625 100.511719 164.191406 C 166.246094 82.023438 262.113281 34.089844 366.191406 31.351562 C 367.5625 34.089844 368.933594 35.460938 371.671875 35.460938 C 374.410156 35.460938 377.148438 32.722656 377.148438 29.984375 C 377.148438 27.242188 374.410156 23.136719 371.671875 23.136719 C 368.933594 23.136719 367.5625 24.503906 366.191406 27.242188 C 340.171875 28.613281 314.152344 31.351562 289.5 38.199219 C 263.480469 45.046875 238.832031 54.632812 214.179688 66.960938 C 190.898438 77.914062 168.984375 91.609375 148.445312 108.042969 C 130.640625 124.476562 112.835938 142.28125 97.773438 161.453125 C 95.035156 160.085938 93.664062 161.453125 92.292969 162.824219 C 90.925781 165.5625 90.925781 168.300781 93.664062 169.671875 C 95.035156 172.410156 97.773438 171.039062 100.511719 169.671875 Z M 100.511719 169.671875 " fill-opacity="1" fill-rule="nonzero"/></g><g clip-path="url(#c3f43f9e64)"><path fill="#ffffff" d="M 138.855469 644.886719 C 95.035156 605.167969 62.164062 555.867188 42.992188 499.71875 C 44.363281 498.347656 45.730469 495.609375 44.363281 494.242188 C 42.992188 491.5 40.253906 490.132812 37.515625 491.5 C 36.144531 491.5 34.777344 494.242188 34.777344 496.980469 C 36.144531 499.71875 37.515625 501.089844 40.253906 501.089844 C 59.425781 557.238281 93.664062 606.539062 137.488281 647.625 C 136.117188 648.992188 137.488281 651.734375 138.855469 653.101562 C 141.597656 654.472656 144.335938 654.472656 145.703125 653.101562 C 147.074219 650.363281 147.074219 647.625 145.703125 646.253906 C 144.335938 643.515625 141.597656 643.515625 138.855469 644.886719 Z M 138.855469 644.886719 " fill-opacity="1" fill-rule="nonzero"/></g><g clip-path="url(#f19b1859eb)"><path fill="#ffffff" d="M 371.671875 732.53125 C 368.933594 732.53125 367.5625 733.902344 366.191406 736.640625 C 304.566406 735.273438 244.308594 717.46875 190.898438 684.601562 C 190.898438 681.859375 190.898438 680.492188 188.160156 679.121094 C 185.417969 677.753906 182.679688 677.753906 181.3125 680.492188 C 179.941406 683.230469 179.941406 685.96875 182.679688 687.339844 C 184.050781 688.707031 186.789062 688.707031 188.160156 687.339844 C 241.570312 720.207031 301.828125 738.011719 364.824219 740.75 C 366.191406 743.488281 367.5625 744.859375 370.300781 744.859375 C 373.039062 744.859375 375.78125 742.117188 375.78125 739.378906 C 375.78125 736.640625 374.410156 732.53125 371.671875 732.53125 Z M 371.671875 732.53125 " fill-opacity="1" fill-rule="nonzero"/></g><path fill="#ffffff" d="M 511.359375 705.144531 C 508.621094 706.511719 508.621094 707.882812 508.621094 710.621094 C 492.1875 717.46875 474.382812 722.945312 457.949219 727.054688 C 456.578125 725.683594 455.210938 724.316406 452.472656 724.316406 C 449.730469 724.316406 448.363281 728.425781 448.363281 731.164062 C 448.363281 733.902344 452.472656 735.273438 455.210938 735.273438 C 457.949219 735.273438 459.320312 732.53125 459.320312 731.164062 C 477.121094 727.054688 493.554688 721.578125 511.359375 714.730469 C 512.730469 716.097656 515.46875 717.46875 516.835938 716.097656 C 519.574219 714.730469 520.945312 711.988281 519.574219 709.25 C 516.835938 705.144531 514.097656 703.773438 511.359375 705.144531 Z M 511.359375 705.144531 " fill-opacity="1" fill-rule="nonzero"/><path fill="#ffffff" d="M 719.523438 472.328125 C 716.78125 470.960938 714.042969 473.699219 712.675781 476.4375 C 712.675781 479.175781 712.675781 480.546875 715.414062 481.914062 C 690.761719 566.824219 637.351562 638.039062 562.03125 684.601562 C 560.660156 683.230469 557.921875 683.230469 556.550781 684.601562 C 553.8125 685.96875 553.8125 688.707031 555.183594 691.449219 C 556.550781 694.1875 559.292969 694.1875 562.03125 692.816406 C 563.398438 691.449219 564.769531 688.707031 564.769531 687.339844 C 601.746094 664.058594 634.613281 635.296875 660.632812 599.691406 C 688.023438 564.085938 707.195312 524.371094 719.523438 481.914062 C 722.261719 481.914062 723.628906 480.546875 723.628906 477.808594 C 725 475.066406 722.261719 472.328125 719.523438 472.328125 Z M 719.523438 472.328125 " fill-opacity="1" fill-rule="nonzero"/><g clip-path="url(#6ab81c83cb)"><path fill="#ffffff" d="M 730.476562 425.765625 C 731.847656 412.070312 733.21875 397.007812 733.21875 381.941406 C 733.21875 349.074219 729.109375 316.207031 719.523438 284.707031 C 711.304688 255.949219 700.347656 228.558594 685.285156 202.539062 C 686.652344 201.167969 686.652344 198.429688 685.285156 197.0625 C 683.914062 194.320312 681.175781 194.320312 678.4375 195.691406 C 675.699219 197.0625 675.699219 199.800781 677.066406 202.539062 C 678.4375 203.910156 681.175781 205.277344 682.546875 205.277344 C 714.042969 258.6875 730.476562 320.316406 730.476562 381.941406 C 730.476562 395.636719 729.109375 410.703125 727.738281 424.398438 C 725 424.398438 723.628906 427.136719 723.628906 428.503906 C 723.628906 431.246094 725 433.984375 727.738281 433.984375 C 730.476562 433.984375 733.21875 432.613281 733.21875 429.875 C 733.21875 429.875 731.847656 427.136719 730.476562 425.765625 Z M 730.476562 425.765625 " fill-opacity="1" fill-rule="nonzero"/></g><path fill="#ffffff" d="M 434.667969 38.199219 C 437.40625 38.199219 438.777344 36.832031 440.144531 35.460938 C 505.882812 47.785156 567.507812 77.914062 616.808594 123.109375 C 615.441406 124.476562 616.808594 127.21875 618.179688 128.585938 C 620.917969 129.957031 623.65625 129.957031 626.394531 128.585938 C 627.765625 125.847656 627.765625 123.109375 626.394531 120.371094 C 625.027344 119 622.289062 119 620.917969 119 C 596.269531 95.71875 568.878906 76.546875 538.75 62.851562 C 508.621094 47.785156 475.753906 36.832031 442.882812 29.984375 C 442.882812 27.242188 440.144531 25.875 438.777344 25.875 C 436.035156 25.875 433.296875 27.242188 433.296875 29.984375 C 433.296875 32.722656 430.558594 38.199219 434.667969 38.199219 Z M 434.667969 38.199219 " fill-opacity="1" fill-rule="nonzero"/><path fill="#ffffff" d="M 281.285156 711.988281 C 284.023438 713.359375 286.761719 710.621094 288.132812 707.882812 C 289.5 705.144531 286.761719 702.402344 284.023438 701.035156 C 281.285156 701.035156 279.914062 701.035156 278.546875 702.402344 C 204.59375 680.492188 140.226562 632.558594 96.402344 568.195312 C 97.773438 566.824219 97.773438 564.085938 96.402344 562.714844 C 95.035156 559.976562 90.925781 559.976562 89.554688 561.347656 C 86.816406 562.714844 86.816406 566.824219 88.1875 568.195312 C 89.554688 569.5625 92.292969 570.933594 93.664062 569.5625 C 115.574219 602.429688 141.597656 629.820312 173.09375 653.101562 C 204.59375 676.382812 240.199219 694.1875 277.175781 706.511719 C 277.175781 709.25 278.546875 710.621094 281.285156 711.988281 Z M 281.285156 711.988281 " fill-opacity="1" fill-rule="nonzero"/><path fill="#ffffff" d="M 582.574219 651.734375 C 583.941406 653.101562 586.679688 653.101562 589.421875 651.734375 C 592.160156 650.363281 592.160156 646.253906 590.789062 644.886719 C 589.421875 643.515625 585.3125 642.144531 583.941406 643.515625 C 582.574219 644.886719 581.203125 647.625 582.574219 648.992188 C 523.683594 694.1875 453.839844 717.46875 378.519531 717.46875 C 370.300781 717.46875 362.085938 717.46875 353.867188 716.097656 C 353.867188 713.359375 351.128906 711.992188 349.757812 711.992188 C 347.019531 711.992188 344.28125 713.359375 344.28125 717.46875 C 344.28125 720.207031 345.652344 722.945312 349.757812 722.945312 C 352.496094 722.945312 353.867188 721.578125 355.238281 720.207031 C 363.453125 720.207031 371.671875 721.578125 379.886719 721.578125 C 418.234375 721.578125 456.578125 714.730469 493.554688 702.402344 C 522.316406 690.078125 553.8125 673.644531 582.574219 651.734375 Z M 582.574219 651.734375 " fill-opacity="1" fill-rule="nonzero"/><path fill="#ffffff" d="M 675.699219 550.390625 C 677.066406 547.652344 675.699219 544.910156 674.328125 543.542969 C 672.960938 542.171875 668.851562 543.542969 667.480469 544.910156 C 666.113281 546.28125 666.113281 549.019531 667.480469 550.390625 C 656.523438 569.5625 642.832031 587.367188 629.136719 603.800781 C 627.765625 602.429688 625.027344 603.800781 623.65625 605.167969 C 622.289062 607.910156 622.289062 610.648438 623.65625 613.386719 C 625.027344 616.125 629.136719 614.757812 631.875 613.386719 C 633.242188 612.015625 633.242188 609.277344 633.242188 607.910156 C 648.308594 591.476562 660.632812 572.300781 672.960938 553.128906 C 671.589844 553.128906 674.328125 551.757812 675.699219 550.390625 Z M 675.699219 550.390625 " fill-opacity="1" fill-rule="nonzero"/><path fill="#ffffff" d="M 696.242188 276.492188 C 693.5 277.859375 692.132812 280.601562 692.132812 283.339844 C 693.5 286.078125 694.871094 287.449219 697.609375 287.449219 C 707.195312 318.945312 711.304688 350.445312 711.304688 383.3125 C 711.304688 423.027344 704.457031 461.371094 692.132812 496.980469 C 689.394531 496.980469 688.023438 498.347656 686.652344 499.71875 C 685.285156 502.457031 686.652344 505.195312 689.394531 506.566406 C 692.132812 507.9375 694.871094 506.566406 696.242188 503.828125 C 697.609375 501.089844 696.242188 499.71875 694.871094 498.347656 C 708.566406 461.371094 715.414062 423.027344 715.414062 383.3125 C 715.414062 350.445312 711.304688 317.578125 701.71875 286.078125 C 703.089844 284.707031 704.457031 281.96875 703.089844 280.601562 C 701.71875 277.859375 698.980469 275.121094 696.242188 276.492188 Z M 696.242188 276.492188 " fill-opacity="1" fill-rule="nonzero"/><path fill="#ffffff" d="M 674.328125 223.082031 C 638.722656 155.976562 579.832031 102.566406 509.988281 72.4375 C 509.988281 69.699219 508.621094 68.328125 507.25 66.960938 C 504.511719 65.589844 501.773438 66.960938 500.402344 69.699219 C 499.035156 72.4375 500.402344 75.175781 503.140625 76.546875 C 505.882812 77.914062 507.25 76.546875 508.621094 75.175781 C 577.09375 105.304688 634.613281 157.34375 670.21875 224.449219 C 668.851562 225.820312 668.851562 228.558594 668.851562 229.929688 C 670.21875 232.667969 672.960938 234.039062 675.699219 232.667969 C 678.4375 231.296875 679.808594 228.558594 678.4375 225.820312 C 679.808594 223.082031 677.066406 221.710938 674.328125 223.082031 Z M 674.328125 223.082031 " fill-opacity="1" fill-rule="nonzero"/><path fill="#ffffff" d="M 460.6875 51.894531 C 457.949219 51.894531 456.578125 51.894531 455.210938 54.632812 C 429.191406 49.15625 403.167969 45.046875 375.78125 45.046875 C 344.28125 45.046875 314.152344 49.15625 284.023438 57.371094 C 256.632812 65.589844 230.613281 76.546875 205.960938 90.242188 C 204.59375 88.871094 201.855469 88.871094 200.484375 90.242188 C 199.113281 90.242188 197.746094 94.347656 199.113281 97.089844 C 200.484375 99.828125 203.222656 99.828125 205.960938 98.457031 C 207.332031 97.089844 208.703125 94.347656 208.703125 92.980469 C 259.371094 64.21875 316.890625 47.785156 375.78125 47.785156 C 401.800781 47.785156 427.820312 50.523438 453.839844 57.371094 C 453.839844 60.113281 455.210938 61.480469 457.949219 61.480469 C 460.6875 62.851562 463.425781 60.113281 464.796875 57.371094 C 466.164062 54.632812 464.796875 51.894531 460.6875 51.894531 Z M 460.6875 51.894531 " fill-opacity="1" fill-rule="nonzero"/><path fill="#ffffff" d="M 66.273438 251.839844 C 69.011719 253.210938 71.753906 251.839844 73.121094 249.101562 C 74.492188 246.363281 73.121094 244.992188 71.753906 243.625 C 92.292969 198.429688 123.792969 157.34375 162.136719 125.847656 C 163.507812 127.21875 166.246094 127.21875 167.617188 125.847656 C 171.726562 123.109375 171.726562 119 168.984375 117.628906 C 167.617188 114.890625 164.878906 114.890625 162.136719 116.261719 C 160.769531 117.628906 159.398438 120.371094 160.769531 121.738281 C 121.054688 154.605469 89.554688 195.691406 69.011719 242.253906 C 66.273438 242.253906 64.90625 243.625 63.535156 244.992188 C 62.164062 247.730469 63.535156 250.472656 66.273438 251.839844 Z M 66.273438 251.839844 " fill-opacity="1" fill-rule="nonzero"/><path fill="#ffffff" d="M 110.097656 202.539062 C 107.359375 202.539062 105.988281 202.539062 104.621094 205.277344 C 103.25 208.015625 103.25 210.757812 105.988281 212.125 C 108.726562 213.496094 111.46875 213.496094 112.835938 210.757812 C 114.207031 209.386719 114.207031 206.648438 112.835938 205.277344 C 148.445312 153.238281 199.113281 112.152344 256.632812 88.871094 C 258.003906 90.242188 260.742188 91.609375 262.113281 90.242188 C 264.851562 88.871094 266.21875 86.132812 264.851562 83.394531 C 263.480469 80.652344 260.742188 79.285156 258.003906 80.652344 C 255.265625 82.023438 253.894531 83.394531 253.894531 86.132812 C 226.503906 97.089844 199.113281 113.523438 174.464844 134.0625 C 149.8125 153.238281 127.902344 176.519531 110.097656 202.539062 Z M 110.097656 202.539062 " fill-opacity="1" fill-rule="nonzero"/><path fill="#ffffff" d="M 173.09375 636.667969 C 175.832031 638.039062 178.574219 638.039062 179.941406 635.296875 C 181.3125 632.558594 181.3125 629.820312 178.574219 628.449219 C 177.203125 627.082031 174.464844 627.082031 173.09375 628.449219 C 140.226562 601.0625 111.46875 565.453125 92.292969 527.109375 C 93.664062 525.738281 93.664062 523 93.664062 521.628906 C 92.292969 517.523438 89.554688 516.152344 86.816406 517.523438 C 84.078125 518.890625 82.707031 521.628906 84.078125 524.371094 C 85.445312 527.109375 86.816406 527.109375 89.554688 527.109375 C 99.140625 546.28125 111.46875 565.453125 125.164062 583.257812 C 138.855469 599.691406 153.921875 616.125 171.726562 629.820312 C 170.355469 632.558594 171.726562 635.296875 173.09375 636.667969 Z M 173.09375 636.667969 " fill-opacity="1" fill-rule="nonzero"/><path fill="#ffffff" d="M 237.460938 676.382812 C 240.199219 677.753906 241.570312 676.382812 242.9375 675.015625 C 281.285156 692.816406 322.367188 702.402344 366.191406 703.773438 C 367.5625 706.511719 368.933594 707.882812 371.671875 707.882812 C 374.410156 707.882812 377.148438 705.144531 377.148438 702.402344 C 377.148438 699.664062 374.410156 696.925781 371.671875 696.925781 C 368.933594 696.925781 367.5625 698.296875 366.191406 701.035156 C 323.738281 699.664062 282.652344 690.078125 244.308594 672.273438 C 244.308594 669.535156 242.9375 668.167969 241.570312 666.796875 C 238.832031 665.425781 236.089844 666.796875 234.722656 669.535156 C 233.351562 672.273438 234.722656 675.015625 237.460938 676.382812 Z M 237.460938 676.382812 " fill-opacity="1" fill-rule="nonzero"/><path fill="#ffffff" d="M 418.234375 705.144531 C 420.972656 705.144531 422.34375 703.773438 422.34375 701.035156 C 444.253906 698.296875 466.164062 692.816406 486.707031 684.601562 C 507.25 677.753906 526.421875 666.796875 545.597656 655.839844 C 546.964844 657.210938 549.703125 657.210938 552.445312 655.839844 C 555.183594 654.472656 555.183594 650.363281 553.8125 648.992188 C 552.445312 646.253906 548.335938 646.253906 546.964844 647.625 C 545.597656 648.992188 544.226562 651.734375 544.226562 653.101562 C 507.25 676.382812 466.164062 691.449219 422.34375 698.296875 C 420.972656 695.554688 418.234375 694.1875 416.863281 694.1875 C 414.125 694.1875 411.386719 696.925781 412.753906 699.664062 C 414.125 702.402344 415.496094 705.144531 418.234375 705.144531 Z M 418.234375 705.144531 " fill-opacity="1" fill-rule="nonzero"/><path fill="#ffffff" d="M 696.242188 442.199219 C 696.242188 439.460938 694.871094 436.722656 692.132812 435.351562 C 689.394531 433.984375 686.652344 436.722656 685.285156 439.460938 C 685.285156 442.199219 686.652344 443.570312 688.023438 444.9375 C 675.699219 505.195312 646.9375 559.976562 603.113281 603.800781 C 601.746094 602.429688 599.007812 603.800781 597.636719 605.167969 C 594.898438 607.910156 594.898438 610.648438 597.636719 613.386719 C 600.375 616.125 603.113281 616.125 605.855469 613.386719 C 607.222656 612.015625 607.222656 609.277344 607.222656 607.910156 C 629.136719 585.996094 646.9375 561.347656 660.632812 533.957031 C 675.699219 506.566406 685.285156 476.4375 692.132812 446.308594 C 693.5 446.308594 694.871094 444.9375 696.242188 442.199219 Z M 696.242188 442.199219 " fill-opacity="1" fill-rule="nonzero"/><path fill="#ffffff" d="M 649.679688 208.015625 C 648.308594 205.277344 644.199219 205.277344 642.832031 206.648438 C 640.089844 208.015625 640.089844 212.125 641.460938 213.496094 C 642.832031 214.863281 645.570312 216.234375 646.9375 216.234375 C 678.4375 266.90625 694.871094 324.421875 694.871094 383.3125 C 694.871094 386.050781 694.871094 388.789062 694.871094 390.160156 C 692.132812 390.160156 690.761719 392.898438 690.761719 395.636719 C 690.761719 398.375 693.5 401.117188 696.242188 401.117188 C 698.980469 401.117188 701.71875 398.375 701.71875 395.636719 C 701.71875 392.898438 700.347656 391.527344 698.980469 390.160156 C 698.980469 387.421875 698.980469 384.679688 698.980469 383.3125 C 698.980469 323.054688 682.546875 265.535156 651.046875 214.863281 C 651.046875 212.125 651.046875 210.757812 649.679688 208.015625 Z M 649.679688 208.015625 " fill-opacity="1" fill-rule="nonzero"/><path fill="#ffffff" d="M 609.960938 162.824219 C 593.527344 145.019531 574.355469 129.957031 555.183594 116.261719 C 546.964844 110.78125 537.378906 105.304688 527.792969 99.828125 C 527.792969 97.089844 526.421875 95.71875 525.054688 94.347656 C 522.316406 92.980469 519.574219 94.347656 518.207031 97.089844 C 516.835938 99.828125 518.207031 102.566406 520.945312 103.933594 C 523.683594 105.304688 525.054688 103.933594 526.421875 102.566406 C 536.011719 108.042969 544.226562 113.523438 553.8125 119 C 572.984375 132.695312 592.160156 147.757812 608.59375 165.5625 C 607.222656 166.933594 607.222656 169.671875 609.960938 171.039062 C 611.332031 173.78125 615.441406 173.78125 618.179688 171.039062 C 620.917969 169.671875 620.917969 165.5625 618.179688 162.824219 C 614.070312 162.824219 612.703125 161.453125 609.960938 162.824219 Z M 609.960938 162.824219 " fill-opacity="1" fill-rule="nonzero"/><path fill="#ffffff" d="M 181.3125 606.539062 C 179.941406 605.167969 177.203125 605.167969 175.832031 606.539062 C 158.03125 590.105469 141.597656 572.300781 127.902344 551.757812 C 129.269531 550.390625 129.269531 547.652344 127.902344 544.910156 C 126.53125 542.171875 122.421875 542.171875 121.054688 543.542969 C 118.316406 544.910156 118.316406 549.019531 119.683594 550.390625 C 121.054688 551.757812 123.792969 553.128906 125.164062 553.128906 C 138.855469 573.671875 155.292969 592.84375 173.09375 609.277344 C 171.726562 610.648438 173.09375 613.386719 174.464844 614.757812 C 177.203125 616.125 179.941406 616.125 181.3125 614.757812 C 182.679688 613.386719 184.050781 607.910156 181.3125 606.539062 Z M 181.3125 606.539062 " fill-opacity="1" fill-rule="nonzero"/><path fill="#ffffff" d="M 218.289062 644.886719 C 219.65625 646.253906 222.394531 646.253906 223.765625 644.886719 C 245.675781 658.578125 270.328125 668.167969 294.980469 675.015625 C 294.980469 677.753906 296.347656 679.121094 299.085938 679.121094 C 301.828125 680.492188 304.566406 677.753906 305.933594 675.015625 C 307.304688 672.273438 304.566406 669.535156 301.828125 668.167969 C 299.085938 668.167969 297.71875 668.167969 296.347656 670.90625 C 271.699219 664.058594 248.417969 654.472656 226.503906 640.777344 C 226.503906 638.039062 226.503906 636.667969 223.765625 635.296875 C 221.027344 633.929688 218.289062 633.929688 216.917969 636.667969 C 215.546875 639.40625 215.546875 643.515625 218.289062 644.886719 Z M 218.289062 644.886719 " fill-opacity="1" fill-rule="nonzero"/><path fill="#ffffff" d="M 471.644531 670.90625 C 473.011719 672.273438 475.753906 673.644531 477.121094 672.273438 C 479.859375 670.90625 481.230469 668.167969 479.859375 665.425781 C 478.492188 662.6875 475.753906 661.320312 473.011719 662.6875 C 470.273438 664.058594 468.90625 665.425781 468.90625 668.167969 C 438.777344 677.753906 407.277344 683.230469 374.410156 683.230469 C 366.191406 683.230469 357.976562 683.230469 349.757812 681.859375 C 349.757812 679.121094 347.019531 677.753906 345.652344 677.753906 C 342.910156 677.753906 340.171875 679.121094 340.171875 681.859375 C 340.171875 684.601562 341.542969 687.339844 344.28125 687.339844 C 347.019531 687.339844 348.390625 685.96875 349.757812 684.601562 C 357.976562 685.96875 366.191406 685.96875 374.410156 685.96875 C 408.648438 685.96875 441.515625 681.859375 471.644531 670.90625 Z M 471.644531 670.90625 " fill-opacity="1" fill-rule="nonzero"/><path fill="#ffffff" d="M 619.550781 564.085938 C 622.289062 564.085938 623.65625 564.085938 625.027344 562.714844 C 626.398438 559.976562 626.398438 557.238281 623.65625 555.867188 C 620.917969 554.5 618.179688 554.5 616.808594 557.238281 C 615.441406 558.605469 615.441406 561.347656 616.808594 562.714844 C 592.160156 595.582031 560.660156 622.972656 526.421875 643.515625 C 525.054688 642.144531 522.316406 642.144531 520.945312 643.515625 C 518.207031 644.886719 516.835938 647.625 518.207031 650.363281 C 519.574219 653.101562 522.316406 654.472656 525.054688 653.101562 C 526.421875 651.734375 527.792969 650.363281 527.792969 647.625 C 545.597656 636.667969 562.03125 625.710938 578.464844 610.648438 C 593.527344 595.582031 607.222656 580.519531 619.550781 564.085938 Z M 619.550781 564.085938 " fill-opacity="1" fill-rule="nonzero"/><path fill="#ffffff" d="M 664.742188 294.296875 C 662.003906 295.664062 660.632812 298.402344 660.632812 301.140625 C 660.632812 303.882812 663.371094 305.25 666.113281 305.25 C 672.960938 331.269531 677.066406 357.292969 677.066406 383.3125 C 677.066406 416.179688 671.589844 449.046875 662.003906 479.175781 C 659.265625 479.175781 657.894531 480.546875 656.523438 483.285156 C 655.15625 486.023438 656.523438 488.761719 659.265625 490.132812 C 662.003906 491.5 664.742188 490.132812 666.113281 487.394531 C 667.480469 484.65625 666.113281 483.285156 664.742188 481.914062 C 675.699219 450.417969 681.175781 417.550781 681.175781 384.679688 C 681.175781 357.292969 677.066406 331.269531 670.21875 305.25 C 671.589844 303.882812 672.960938 301.140625 671.589844 299.773438 C 670.21875 295.664062 667.480469 292.925781 664.742188 294.296875 Z M 664.742188 294.296875 " fill-opacity="1" fill-rule="nonzero"/><path fill="#ffffff" d="M 648.308594 249.101562 C 640.089844 231.296875 629.136719 216.234375 618.179688 199.800781 C 607.222656 184.734375 593.527344 171.039062 579.832031 157.34375 C 581.203125 155.976562 579.832031 153.238281 578.464844 151.867188 C 575.726562 150.5 572.984375 150.5 571.617188 151.867188 C 568.878906 154.605469 568.878906 158.714844 571.617188 160.085938 C 572.984375 161.453125 575.726562 161.453125 577.09375 160.085938 C 605.855469 186.105469 627.765625 216.234375 645.570312 249.101562 C 644.199219 250.472656 644.199219 253.210938 644.199219 254.578125 C 645.570312 257.320312 648.308594 258.6875 651.046875 257.320312 C 653.785156 255.949219 655.15625 253.210938 653.785156 250.472656 C 652.417969 249.101562 651.046875 249.101562 648.308594 249.101562 Z M 648.308594 249.101562 " fill-opacity="1" fill-rule="nonzero"/><path fill="#ffffff" d="M 453.839844 86.132812 C 451.101562 84.761719 448.363281 87.5 446.992188 90.242188 C 445.625 92.980469 448.363281 95.71875 451.101562 97.089844 C 453.839844 97.089844 455.210938 97.089844 456.578125 94.347656 C 481.230469 101.195312 504.511719 110.78125 526.421875 123.109375 C 526.421875 125.847656 526.421875 127.21875 529.164062 128.585938 C 531.902344 129.957031 534.640625 129.957031 536.011719 127.21875 C 537.378906 124.476562 537.378906 121.738281 534.640625 120.371094 C 531.902344 119 529.164062 119 527.792969 120.371094 C 505.882812 108.042969 482.601562 97.089844 457.949219 90.242188 C 457.949219 88.871094 456.578125 86.132812 453.839844 86.132812 Z M 453.839844 86.132812 " fill-opacity="1" fill-rule="nonzero"/><path fill="#ffffff" d="M 407.277344 77.914062 C 404.539062 77.914062 403.167969 79.285156 401.800781 80.652344 C 393.582031 79.285156 385.367188 79.285156 377.148438 79.285156 C 352.496094 79.285156 329.214844 82.023438 305.933594 87.5 C 300.457031 88.871094 293.609375 90.242188 288.132812 92.980469 C 252.523438 103.933594 219.65625 121.738281 189.527344 145.019531 C 188.160156 143.652344 185.421875 143.652344 182.679688 145.019531 C 179.941406 146.390625 179.941406 150.5 181.3125 151.867188 C 182.679688 154.605469 186.789062 154.605469 188.160156 153.238281 C 189.527344 151.867188 190.898438 149.128906 189.527344 147.757812 C 218.289062 124.476562 251.15625 108.042969 286.761719 97.089844 C 292.242188 95.71875 299.085938 94.347656 304.566406 91.609375 C 327.847656 86.132812 351.128906 83.394531 374.410156 83.394531 C 382.625 83.394531 390.84375 83.394531 399.0625 84.761719 C 399.0625 87.5 401.800781 88.871094 403.167969 88.871094 C 405.910156 88.871094 408.648438 87.5 408.648438 84.761719 C 412.753906 80.652344 410.015625 77.914062 407.277344 77.914062 Z M 407.277344 77.914062 " fill-opacity="1" fill-rule="nonzero"/><path fill="#ffffff" d="M 436.035156 665.425781 C 438.777344 665.425781 440.144531 662.6875 440.144531 661.320312 C 477.121094 653.101562 511.359375 638.039062 542.855469 614.757812 C 557.921875 603.800781 572.984375 590.105469 586.679688 576.410156 C 599.007812 564.085938 609.960938 549.019531 619.550781 533.957031 C 622.289062 533.957031 623.65625 533.957031 625.027344 531.21875 C 626.398438 528.476562 626.398438 525.738281 623.65625 524.371094 C 620.917969 523 618.179688 523 616.808594 525.738281 C 615.441406 527.109375 615.441406 529.847656 616.808594 531.21875 C 577.09375 594.214844 514.097656 639.40625 441.515625 655.839844 C 440.144531 654.472656 438.777344 653.101562 436.035156 653.101562 C 433.296875 653.101562 431.929688 655.839844 431.929688 659.949219 C 430.558594 664.058594 433.296875 666.796875 436.035156 665.425781 Z M 436.035156 665.425781 " fill-opacity="1" fill-rule="nonzero"/><path fill="#ffffff" d="M 662.003906 424.398438 C 662.003906 421.65625 660.632812 418.917969 657.894531 418.917969 C 655.15625 418.917969 652.417969 420.289062 652.417969 423.027344 C 652.417969 425.765625 653.785156 427.136719 655.15625 428.503906 C 651.046875 451.785156 644.199219 475.066406 634.613281 496.980469 C 631.875 496.980469 630.503906 498.347656 629.136719 499.71875 C 627.765625 502.457031 629.136719 505.195312 631.875 506.566406 C 634.613281 507.9375 637.351562 506.566406 638.722656 503.828125 C 640.089844 501.089844 638.722656 499.71875 637.351562 498.347656 C 646.9375 476.4375 653.785156 453.15625 657.894531 428.503906 C 660.632812 428.503906 662.003906 427.136719 662.003906 424.398438 Z M 662.003906 424.398438 " fill-opacity="1" fill-rule="nonzero"/><path fill="#ffffff" d="M 637.351562 266.90625 C 638.722656 265.535156 640.089844 262.796875 638.722656 261.425781 C 637.351562 258.6875 634.613281 257.320312 631.875 258.6875 C 629.136719 260.058594 627.765625 262.796875 629.136719 265.535156 C 630.503906 268.273438 631.875 268.273438 634.613281 268.273438 C 638.722656 279.230469 642.832031 290.1875 646.9375 301.140625 C 653.785156 324.421875 657.894531 347.707031 657.894531 370.988281 C 655.15625 372.355469 653.785156 373.726562 653.785156 376.464844 C 653.785156 379.203125 656.523438 381.941406 659.265625 381.941406 C 662.003906 381.941406 664.742188 379.203125 664.742188 376.464844 C 664.742188 373.726562 663.371094 372.355469 660.632812 370.988281 C 659.265625 346.335938 655.15625 323.054688 648.308594 299.773438 C 646.9375 290.1875 642.832031 277.859375 637.351562 266.90625 Z M 637.351562 266.90625 " fill-opacity="1" fill-rule="nonzero"/><path fill="#ffffff" d="M 614.070312 238.144531 C 615.441406 240.882812 619.550781 240.882812 620.917969 239.515625 C 623.65625 238.144531 623.65625 234.039062 622.289062 232.667969 C 620.917969 231.296875 618.179688 229.929688 616.808594 229.929688 C 593.527344 194.320312 563.398438 162.824219 526.421875 140.910156 C 526.421875 138.171875 526.421875 136.804688 523.683594 135.433594 C 520.945312 134.0625 518.207031 135.433594 516.835938 136.804688 C 515.46875 139.542969 516.835938 142.28125 518.207031 143.652344 C 519.574219 145.019531 522.316406 145.019531 523.683594 143.652344 C 559.292969 165.5625 589.421875 195.691406 612.703125 231.296875 C 612.703125 232.667969 612.703125 235.40625 614.070312 238.144531 Z M 614.070312 238.144531 " fill-opacity="1" fill-rule="nonzero"/><path fill="#ffffff" d="M 479.859375 113.523438 C 477.121094 112.152344 475.753906 113.523438 474.382812 114.890625 C 446.992188 105.304688 416.863281 98.457031 388.105469 98.457031 C 386.734375 95.71875 385.367188 94.347656 382.625 94.347656 C 379.886719 94.347656 377.148438 97.089844 377.148438 99.828125 C 377.148438 102.566406 379.886719 105.304688 382.625 105.304688 C 385.367188 105.304688 386.734375 103.933594 388.105469 101.195312 C 416.863281 102.566406 445.625 108.042969 473.011719 117.628906 C 473.011719 120.371094 474.382812 121.738281 475.753906 123.109375 C 478.492188 124.476562 481.230469 123.109375 482.601562 120.371094 C 483.96875 117.628906 482.601562 113.523438 479.859375 113.523438 Z M 479.859375 113.523438 " fill-opacity="1" fill-rule="nonzero"/><path fill="#ffffff" d="M 333.324219 97.089844 C 330.585938 97.089844 329.214844 99.828125 329.214844 101.195312 C 305.933594 105.304688 282.652344 112.152344 260.742188 121.738281 C 259.371094 120.371094 256.632812 119 255.265625 120.371094 C 252.523438 121.738281 251.15625 124.476562 252.523438 127.21875 C 253.894531 129.957031 256.632812 131.324219 259.371094 129.957031 C 262.113281 128.585938 262.113281 127.21875 262.113281 124.476562 C 284.023438 114.890625 305.933594 108.042969 329.214844 103.933594 C 330.585938 105.304688 331.957031 106.675781 334.695312 106.675781 C 337.433594 106.675781 340.171875 103.933594 338.804688 101.195312 C 338.804688 98.457031 336.0625 97.089844 333.324219 97.089844 Z M 333.324219 97.089844 " fill-opacity="1" fill-rule="nonzero"/><path fill="#ffffff" d="M 132.007812 235.40625 C 129.269531 235.40625 127.902344 235.40625 126.53125 238.144531 C 125.164062 240.882812 126.53125 243.625 127.902344 244.992188 C 130.640625 246.363281 133.378906 244.992188 134.75 243.625 C 136.117188 242.253906 136.117188 239.515625 134.75 238.144531 C 153.921875 206.648438 179.941406 177.886719 208.703125 155.976562 C 210.070312 157.34375 212.808594 157.34375 214.179688 155.976562 C 216.917969 154.605469 216.917969 150.5 215.546875 149.128906 C 214.179688 146.390625 210.070312 146.390625 208.703125 147.757812 C 207.332031 149.128906 205.960938 151.867188 207.332031 153.238281 C 192.265625 164.191406 178.574219 176.519531 164.878906 190.214844 C 152.550781 203.910156 141.597656 220.34375 132.007812 235.40625 Z M 132.007812 235.40625 " fill-opacity="1" fill-rule="nonzero"/><path fill="#ffffff" d="M 242.9375 639.40625 C 245.675781 640.777344 248.417969 639.40625 249.785156 636.667969 C 251.15625 633.929688 249.785156 631.191406 247.046875 629.820312 C 244.308594 628.449219 242.9375 629.820312 241.570312 631.191406 C 195.007812 606.539062 156.660156 569.5625 130.640625 523 C 132.007812 521.628906 132.007812 518.890625 132.007812 517.523438 C 130.640625 514.78125 127.902344 513.414062 125.164062 514.78125 C 122.421875 516.152344 121.054688 518.890625 122.421875 521.628906 C 123.792969 523 125.164062 524.371094 127.902344 524.371094 C 141.597656 547.652344 156.660156 568.195312 175.832031 587.367188 C 195.007812 606.539062 215.546875 621.605469 238.832031 633.929688 C 240.199219 636.667969 241.570312 639.40625 242.9375 639.40625 Z M 242.9375 639.40625 " fill-opacity="1" fill-rule="nonzero"/><path fill="#ffffff" d="M 290.871094 659.949219 C 293.609375 659.949219 294.980469 659.949219 296.347656 658.578125 C 322.367188 665.425781 348.390625 669.535156 375.78125 669.535156 C 378.519531 669.535156 381.257812 669.535156 382.625 669.535156 C 383.996094 670.90625 385.367188 673.644531 388.105469 672.273438 C 390.84375 672.273438 393.582031 669.535156 393.582031 666.796875 C 393.582031 664.058594 390.84375 661.320312 388.105469 661.320312 C 385.367188 661.320312 383.996094 662.6875 382.625 665.425781 C 379.886719 665.425781 377.148438 665.425781 375.78125 665.425781 C 349.757812 665.425781 322.371094 661.320312 297.71875 654.472656 C 297.71875 651.734375 296.347656 650.363281 293.609375 648.992188 C 290.871094 647.625 288.132812 650.363281 286.761719 653.101562 C 286.761719 655.839844 288.132812 658.578125 290.871094 659.949219 Z M 290.871094 659.949219 " fill-opacity="1" fill-rule="nonzero"/><path fill="#ffffff" d="M 508.621094 612.015625 C 507.25 610.648438 504.511719 610.648438 503.140625 612.015625 C 500.402344 612.015625 499.035156 616.125 500.402344 618.863281 C 501.773438 621.605469 504.511719 622.972656 507.25 621.605469 C 508.621094 620.234375 509.988281 618.863281 509.988281 616.125 C 533.269531 602.429688 553.8125 585.996094 571.617188 566.824219 C 589.421875 547.652344 604.484375 525.738281 616.808594 501.089844 C 619.550781 501.089844 620.917969 499.71875 622.289062 498.347656 C 623.65625 495.609375 622.289062 492.871094 619.550781 491.5 C 616.808594 490.132812 614.070312 491.5 612.703125 494.242188 C 611.332031 496.980469 612.703125 498.347656 614.070312 499.71875 C 592.160156 544.910156 553.8125 585.996094 508.621094 612.015625 Z M 508.621094 612.015625 " fill-opacity="1" fill-rule="nonzero"/><path fill="#ffffff" d="M 646.9375 369.617188 C 646.9375 366.878906 644.199219 364.140625 641.460938 364.140625 C 638.722656 364.140625 635.984375 366.878906 635.984375 369.617188 C 635.984375 372.355469 637.351562 373.726562 640.089844 375.09375 C 640.089844 377.835938 640.089844 380.574219 640.089844 383.3125 C 640.089844 403.855469 637.351562 424.398438 633.242188 443.570312 C 630.503906 443.570312 629.136719 444.9375 629.136719 447.679688 C 627.765625 450.417969 630.503906 453.15625 633.242188 454.527344 C 635.984375 455.894531 638.722656 453.15625 640.089844 450.417969 C 640.089844 447.679688 640.089844 446.308594 637.351562 444.9375 C 641.460938 424.398438 644.199219 403.855469 644.199219 383.3125 C 644.199219 380.574219 644.199219 377.835938 644.199219 375.09375 C 645.570312 373.726562 646.9375 372.355469 646.9375 369.617188 Z M 646.9375 369.617188 " fill-opacity="1" fill-rule="nonzero"/><path fill="#ffffff" d="M 630.503906 325.792969 C 630.503906 328.53125 634.613281 329.902344 637.351562 329.902344 C 640.089844 329.902344 641.460938 325.792969 641.460938 323.054688 C 641.460938 320.316406 638.722656 318.945312 637.351562 318.945312 C 630.503906 291.554688 619.550781 266.90625 605.855469 242.253906 C 607.222656 240.882812 607.222656 238.144531 605.855469 235.40625 C 604.484375 232.667969 600.375 232.667969 599.007812 234.039062 C 596.269531 235.40625 596.269531 239.515625 597.636719 240.882812 C 599.007812 242.253906 601.746094 243.625 603.113281 243.625 C 616.808594 266.90625 627.765625 291.554688 634.613281 318.945312 C 631.875 321.683594 630.503906 323.054688 630.503906 325.792969 Z M 630.503906 325.792969 " fill-opacity="1" fill-rule="nonzero"/><path fill="#ffffff" d="M 453.839844 123.109375 C 451.101562 121.738281 448.363281 124.476562 446.992188 127.21875 C 446.992188 129.957031 448.363281 132.695312 451.101562 132.695312 C 453.839844 132.695312 455.210938 132.695312 456.578125 131.324219 C 496.292969 143.652344 531.902344 165.5625 562.03125 195.691406 C 560.660156 197.0625 562.03125 199.800781 563.398438 201.167969 C 564.769531 203.910156 568.878906 203.910156 571.617188 201.167969 C 574.355469 198.429688 574.355469 195.691406 571.617188 192.953125 C 570.246094 191.582031 567.507812 190.214844 566.140625 191.582031 C 536.011719 161.453125 499.035156 139.542969 459.316406 127.21875 C 457.949219 125.847656 456.578125 123.109375 453.839844 123.109375 Z M 453.839844 123.109375 " fill-opacity="1" fill-rule="nonzero"/><path fill="#ffffff" d="M 405.90625 124.476562 C 408.648438 124.476562 411.386719 123.109375 411.386719 120.371094 C 411.386719 117.628906 410.015625 114.890625 407.277344 114.890625 C 404.539062 114.890625 403.167969 116.261719 401.800781 117.628906 C 393.582031 116.261719 385.367188 116.261719 375.78125 116.261719 C 359.34375 116.261719 342.910156 117.628906 326.476562 120.371094 C 325.109375 119 323.738281 117.628906 321 117.628906 C 318.261719 117.628906 316.890625 121.738281 316.890625 124.476562 C 316.890625 127.21875 321 128.585938 323.738281 128.585938 C 326.476562 128.585938 327.847656 125.847656 327.847656 124.476562 C 344.28125 120.371094 360.714844 119 377.148438 119 C 385.367188 119 393.582031 119 401.800781 120.371094 C 401.800781 121.738281 403.167969 124.476562 405.90625 124.476562 Z M 405.90625 124.476562 " fill-opacity="1" fill-rule="nonzero"/><path fill="#ffffff" d="M 266.21875 143.652344 C 267.589844 145.019531 270.328125 146.390625 271.699219 145.019531 C 274.4375 143.652344 275.804688 140.910156 274.4375 138.171875 C 273.066406 135.433594 270.328125 134.0625 267.589844 135.433594 C 264.851562 136.804688 264.851562 138.171875 264.851562 140.910156 C 225.136719 158.714844 189.527344 187.472656 163.507812 223.082031 C 160.769531 223.082031 159.398438 223.082031 158.03125 224.449219 C 156.660156 227.191406 156.660156 229.929688 159.398438 231.296875 C 162.136719 232.667969 164.878906 232.667969 166.246094 229.929688 C 167.617188 228.558594 167.617188 225.820312 166.246094 224.449219 C 192.265625 188.84375 226.503906 161.453125 266.21875 143.652344 Z M 266.21875 143.652344 " fill-opacity="1" fill-rule="nonzero"/><path fill="#ffffff" d="M 173.09375 562.714844 C 174.464844 565.453125 178.574219 565.453125 181.3125 562.714844 C 184.050781 561.347656 184.050781 557.238281 181.3125 554.5 C 179.941406 553.128906 177.203125 551.757812 175.832031 553.128906 C 158.03125 532.585938 144.335938 510.675781 134.75 486.023438 C 136.117188 484.65625 137.488281 481.914062 136.117188 480.546875 C 134.75 477.808594 132.007812 476.4375 129.269531 477.808594 C 126.53125 479.175781 125.164062 481.914062 126.53125 484.65625 C 126.53125 487.394531 127.902344 488.761719 130.640625 488.761719 C 141.597656 513.414062 155.292969 535.324219 173.09375 555.867188 C 171.726562 558.605469 171.726562 561.347656 173.09375 562.714844 Z M 173.09375 562.714844 " fill-opacity="1" fill-rule="nonzero"/><path fill="#ffffff" d="M 223.765625 603.800781 C 251.15625 622.972656 281.285156 636.667969 312.78125 643.515625 C 312.78125 646.253906 314.152344 647.625 316.890625 647.625 C 319.628906 647.625 322.367188 646.253906 323.738281 643.515625 C 323.738281 640.777344 322.367188 638.039062 319.628906 636.667969 C 316.890625 636.667969 315.523438 636.667969 314.152344 639.40625 C 282.652344 631.191406 253.894531 618.863281 226.503906 599.691406 C 226.503906 596.953125 226.503906 595.582031 225.136719 594.214844 C 222.394531 592.84375 219.65625 592.84375 218.289062 595.582031 C 216.917969 598.324219 216.917969 601.0625 219.65625 602.429688 C 219.65625 605.167969 222.394531 605.167969 223.765625 603.800781 Z M 223.765625 603.800781 " fill-opacity="1" fill-rule="nonzero"/><path fill="#ffffff" d="M 462.058594 640.777344 C 464.796875 639.40625 466.164062 636.667969 464.796875 633.929688 C 463.425781 631.191406 460.6875 629.820312 457.949219 631.191406 C 455.210938 632.558594 453.839844 633.929688 453.839844 636.667969 C 429.191406 644.886719 401.800781 648.992188 375.78125 648.992188 C 373.039062 648.992188 370.300781 648.992188 368.933594 648.992188 C 368.933594 646.253906 366.191406 644.886719 363.453125 644.886719 C 360.714844 644.886719 357.976562 647.625 357.976562 650.363281 C 357.976562 653.101562 360.714844 655.839844 363.453125 655.839844 C 366.191406 655.839844 367.5625 654.472656 368.933594 653.101562 C 371.671875 653.101562 374.410156 653.101562 375.78125 653.101562 C 403.167969 653.101562 429.191406 648.992188 455.210938 640.777344 C 456.578125 640.777344 459.320312 640.777344 462.058594 640.777344 Z M 462.058594 640.777344 " fill-opacity="1" fill-rule="nonzero"/><path fill="#ffffff" d="M 255.265625 172.410156 C 256.632812 171.039062 258.003906 169.671875 258.003906 166.933594 C 286.761719 151.867188 316.890625 140.910156 349.757812 138.171875 C 351.128906 139.542969 352.496094 140.910156 355.238281 140.910156 C 357.976562 140.910156 360.714844 138.171875 360.714844 135.433594 C 360.714844 132.695312 357.976562 129.957031 355.238281 129.957031 C 352.496094 129.957031 351.128906 131.324219 351.128906 134.0625 C 318.261719 138.171875 286.761719 147.757812 258.003906 164.191406 C 256.632812 162.824219 253.894531 162.824219 251.15625 164.191406 C 248.417969 165.5625 248.417969 168.300781 249.785156 171.039062 C 248.417969 173.78125 252.523438 173.78125 255.265625 172.410156 Z M 255.265625 172.410156 " fill-opacity="1" fill-rule="nonzero"/><path fill="#ffffff" d="M 186.789062 546.28125 C 203.222656 564.085938 221.027344 580.519531 241.570312 594.214844 C 241.570312 596.953125 241.570312 598.324219 244.308594 599.691406 C 247.046875 601.0625 249.785156 599.691406 251.15625 598.324219 C 252.523438 596.953125 251.15625 592.84375 249.785156 591.476562 C 248.417969 590.105469 245.675781 590.105469 244.308594 591.476562 C 223.765625 579.148438 205.960938 562.714844 189.527344 544.914062 C 190.898438 543.542969 190.898438 540.804688 189.527344 539.433594 C 188.160156 536.695312 184.050781 536.695312 182.679688 538.066406 C 179.941406 539.433594 179.941406 543.542969 181.3125 544.914062 C 182.679688 547.652344 185.417969 547.652344 186.789062 546.28125 Z M 186.789062 546.28125 " fill-opacity="1" fill-rule="nonzero"/><path fill="#ffffff" d="M 290.871094 621.605469 C 293.609375 622.972656 294.980469 621.605469 296.347656 620.234375 C 322.367188 628.449219 348.390625 632.558594 375.78125 632.558594 C 383.996094 632.558594 392.214844 632.558594 401.800781 631.191406 C 403.167969 632.558594 404.539062 633.929688 407.277344 633.929688 C 410.015625 633.929688 412.753906 631.191406 411.386719 628.453125 C 411.386719 625.710938 408.648438 622.972656 405.90625 624.34375 C 403.167969 624.34375 401.800781 625.710938 401.800781 628.453125 C 393.582031 629.820312 385.367188 629.820312 377.148438 629.820312 C 349.757812 629.820312 323.738281 625.710938 299.085938 617.496094 C 299.085938 614.757812 297.71875 613.386719 294.980469 612.015625 C 292.242188 610.648438 289.5 612.015625 288.132812 614.757812 C 286.761719 617.496094 288.132812 620.234375 290.871094 621.605469 Z M 290.871094 621.605469 " fill-opacity="1" fill-rule="nonzero"/><path fill="#ffffff" d="M 453.839844 624.34375 C 456.578125 622.972656 457.949219 621.605469 457.949219 618.863281 C 497.664062 605.167969 533.269531 581.886719 560.660156 550.390625 C 562.03125 551.757812 564.769531 550.390625 566.140625 549.019531 C 567.507812 546.28125 567.507812 543.542969 566.140625 542.171875 C 563.398438 540.804688 560.660156 540.804688 559.292969 542.171875 C 557.921875 543.542969 557.921875 546.28125 559.292969 547.652344 C 531.902344 577.78125 496.292969 601.0625 457.949219 614.757812 C 456.578125 613.386719 453.839844 612.015625 452.472656 613.386719 C 449.730469 614.757812 448.363281 617.496094 448.363281 620.234375 C 448.363281 622.972656 451.101562 625.710938 453.839844 624.34375 Z M 453.839844 624.34375 " fill-opacity="1" fill-rule="nonzero"/><path fill="#ffffff" d="M 627.765625 351.8125 C 627.765625 349.074219 625.027344 346.335938 622.289062 347.707031 C 619.550781 347.707031 616.808594 350.445312 618.179688 353.183594 C 618.179688 355.921875 619.550781 357.292969 622.289062 357.292969 C 623.65625 365.507812 623.65625 373.726562 623.65625 381.941406 C 623.65625 421.65625 614.070312 461.371094 596.269531 495.609375 C 593.527344 495.609375 592.160156 495.609375 590.789062 498.347656 C 589.421875 501.089844 590.789062 503.828125 593.527344 505.195312 C 596.269531 506.566406 599.007812 505.195312 600.375 502.457031 C 601.746094 501.089844 601.746094 498.347656 599.007812 495.609375 C 607.222656 479.175781 614.070312 461.371094 619.550781 443.570312 C 625.027344 423.027344 627.765625 401.117188 627.765625 380.574219 C 627.765625 372.355469 627.765625 364.140625 626.394531 354.550781 C 627.765625 357.292969 629.136719 354.550781 627.765625 351.8125 Z M 627.765625 351.8125 " fill-opacity="1" fill-rule="nonzero"/><path fill="#ffffff" d="M 611.332031 287.449219 C 609.960938 284.707031 608.59375 283.339844 605.855469 284.707031 C 588.050781 244.992188 560.660156 209.386719 526.421875 183.367188 C 490.816406 155.976562 448.363281 139.542969 404.539062 135.433594 C 404.539062 132.695312 401.800781 131.324219 400.429688 131.324219 C 397.691406 131.324219 394.953125 132.695312 394.953125 136.804688 C 394.953125 140.910156 396.320312 142.28125 400.429688 142.28125 C 403.167969 142.28125 404.539062 140.910156 405.90625 139.542969 C 493.554688 149.128906 568.878906 205.277344 604.484375 287.449219 C 603.113281 288.816406 601.746094 291.554688 603.113281 292.925781 C 604.484375 295.664062 607.222656 297.035156 609.960938 295.664062 C 611.332031 292.925781 612.703125 290.1875 611.332031 287.449219 Z M 611.332031 287.449219 " fill-opacity="1" fill-rule="nonzero"/><path fill="#ffffff" d="M 479.859375 75.175781 C 477.121094 73.804688 475.753906 75.175781 474.382812 76.546875 C 460.6875 72.4375 445.625 68.328125 430.558594 65.589844 C 412.753906 64.21875 394.953125 61.480469 377.148438 61.480469 C 362.085938 61.480469 348.390625 62.851562 333.324219 64.21875 C 331.957031 62.851562 330.585938 61.480469 327.847656 61.480469 C 325.109375 61.480469 322.367188 64.21875 323.738281 66.960938 C 323.738281 69.699219 326.476562 72.4375 329.214844 71.066406 C 331.957031 71.066406 333.324219 68.328125 333.324219 66.960938 C 347.019531 65.589844 362.085938 64.21875 375.78125 64.21875 C 393.582031 64.21875 411.386719 65.589844 429.191406 68.328125 C 444.253906 71.066406 457.949219 73.804688 471.644531 79.285156 C 471.644531 82.023438 473.011719 83.394531 475.753906 84.761719 C 478.492188 86.132812 481.230469 84.761719 482.601562 82.023438 C 483.96875 79.285156 482.601562 76.546875 479.859375 75.175781 Z M 479.859375 75.175781 " fill-opacity="1" fill-rule="nonzero"/><path fill="#ffffff" d="M 186.789062 517.523438 C 216.917969 561.347656 262.113281 592.84375 312.78125 606.539062 C 312.78125 609.277344 314.152344 610.648438 316.890625 610.648438 C 319.628906 612.015625 322.367188 609.277344 323.738281 606.539062 C 325.109375 603.800781 322.367188 601.0625 319.628906 599.691406 C 316.890625 599.691406 315.523438 599.691406 314.152344 602.429688 C 263.480469 588.734375 219.65625 557.238281 189.527344 514.785156 C 190.898438 513.414062 190.898438 510.675781 189.527344 509.304688 C 188.160156 506.566406 184.050781 506.566406 182.679688 507.9375 C 181.3125 509.304688 179.941406 513.414062 181.3125 514.785156 C 181.3125 516.152344 184.050781 517.523438 186.789062 517.523438 Z M 186.789062 517.523438 " fill-opacity="1" fill-rule="nonzero"/><path fill="#ffffff" d="M 462.058594 602.429688 C 464.796875 601.0625 466.164062 598.324219 464.796875 595.582031 C 463.425781 592.84375 460.6875 591.476562 457.949219 592.84375 C 455.210938 594.214844 455.210938 595.582031 455.210938 598.324219 C 430.558594 607.910156 403.167969 612.015625 377.148438 612.015625 C 374.410156 612.015625 371.671875 612.015625 368.933594 612.015625 C 368.933594 609.277344 366.191406 607.910156 363.453125 607.910156 C 360.714844 607.910156 357.976562 610.648438 357.976562 613.386719 C 357.976562 616.125 360.714844 618.863281 363.453125 618.863281 C 366.191406 618.863281 367.5625 617.496094 368.933594 616.125 C 371.671875 616.125 374.410156 616.125 377.148438 616.125 C 404.539062 616.125 431.929688 612.015625 456.578125 602.429688 C 457.949219 602.429688 460.6875 603.800781 462.058594 602.429688 Z M 462.058594 602.429688 " fill-opacity="1" fill-rule="nonzero"/><path fill="#ffffff" d="M 592.160156 479.175781 C 593.527344 476.4375 592.160156 473.699219 589.421875 472.328125 C 586.679688 470.960938 583.941406 472.328125 582.574219 475.066406 C 581.203125 477.808594 582.574219 479.175781 583.941406 480.546875 C 566.140625 516.152344 540.117188 547.652344 507.25 570.933594 C 505.882812 569.5625 503.140625 569.5625 501.773438 570.933594 C 499.035156 572.300781 499.035156 576.410156 500.402344 577.78125 C 501.773438 580.519531 505.882812 580.519531 507.25 579.148438 C 508.621094 577.78125 509.988281 575.039062 509.988281 573.671875 C 544.226562 550.390625 570.246094 518.890625 588.050781 481.914062 C 589.421875 481.914062 590.789062 480.546875 592.160156 479.175781 Z M 592.160156 479.175781 " fill-opacity="1" fill-rule="nonzero"/><path fill="#ffffff" d="M 600.375 412.070312 C 600.375 414.808594 601.746094 417.550781 604.484375 417.550781 C 607.222656 417.550781 609.960938 416.179688 609.960938 413.441406 C 609.960938 410.703125 608.59375 409.332031 607.222656 407.960938 C 608.59375 399.746094 608.59375 391.527344 608.59375 381.941406 C 608.59375 364.140625 605.855469 346.335938 601.746094 328.53125 C 597.636719 313.46875 593.527344 298.402344 586.679688 284.707031 C 588.050781 283.339844 588.050781 280.601562 588.050781 279.230469 C 586.679688 276.492188 583.941406 275.121094 581.203125 276.492188 C 578.464844 277.859375 577.09375 280.601562 578.464844 283.339844 C 579.832031 284.707031 581.203125 286.078125 583.941406 286.078125 C 597.636719 316.207031 604.484375 349.074219 604.484375 381.941406 C 604.484375 390.160156 604.484375 398.375 603.113281 406.59375 C 601.746094 407.960938 600.375 410.703125 600.375 412.070312 Z M 600.375 412.070312 " fill-opacity="1" fill-rule="nonzero"/><path fill="#ffffff" d="M 551.074219 229.929688 C 530.53125 205.277344 504.511719 186.105469 475.753906 172.410156 C 475.753906 169.671875 474.382812 168.300781 473.011719 166.933594 C 470.273438 165.5625 467.535156 166.933594 466.164062 169.671875 C 464.796875 172.410156 466.164062 175.148438 468.90625 176.519531 C 471.644531 177.886719 473.011719 176.519531 474.382812 175.148438 C 503.140625 188.84375 527.792969 208.015625 548.335938 231.296875 C 546.964844 232.667969 546.964844 235.40625 548.335938 236.777344 C 549.703125 239.515625 553.8125 239.515625 555.183594 238.144531 C 557.921875 236.777344 557.921875 232.667969 556.550781 231.296875 C 556.550781 229.929688 553.8125 229.929688 551.074219 229.929688 Z M 551.074219 229.929688 " fill-opacity="1" fill-rule="nonzero"/><path fill="#ffffff" d="M 425.082031 151.867188 C 422.34375 151.867188 420.972656 151.867188 419.601562 154.605469 C 405.90625 151.867188 390.84375 150.5 375.78125 150.5 C 344.28125 150.5 314.152344 155.976562 285.394531 168.300781 C 259.371094 179.257812 236.089844 194.320312 215.546875 214.863281 C 214.179688 213.496094 211.441406 214.863281 208.703125 216.234375 C 205.960938 218.972656 207.332031 221.710938 208.703125 224.449219 C 211.441406 227.191406 214.179688 225.820312 216.917969 224.449219 C 218.289062 223.082031 218.289062 220.34375 218.289062 218.972656 C 260.742188 177.886719 316.890625 155.976562 375.78125 155.976562 C 389.472656 155.976562 404.539062 157.34375 418.234375 160.085938 C 418.234375 162.824219 419.601562 164.191406 422.34375 164.191406 C 425.082031 164.191406 427.820312 162.824219 429.191406 160.085938 C 430.558594 155.976562 427.820312 153.238281 425.082031 151.867188 Z M 425.082031 151.867188 " fill-opacity="1" fill-rule="nonzero"/><path fill="#ffffff" d="M 594.898438 388.789062 C 594.898438 386.050781 592.160156 383.3125 589.421875 383.3125 C 586.679688 383.3125 583.941406 386.050781 583.941406 388.789062 C 583.941406 391.527344 585.3125 392.898438 586.679688 394.269531 C 585.3125 432.613281 572.984375 468.21875 552.445312 499.71875 C 549.703125 499.71875 548.335938 499.71875 546.964844 502.457031 C 545.597656 505.195312 545.597656 507.9375 548.335938 509.304688 C 551.074219 510.675781 553.8125 510.675781 555.183594 507.9375 C 556.550781 506.566406 556.550781 503.828125 555.183594 501.089844 C 575.726562 469.589844 588.050781 432.613281 589.421875 394.269531 C 593.527344 392.898438 594.898438 391.527344 594.898438 388.789062 Z M 594.898438 388.789062 " fill-opacity="1" fill-rule="nonzero"/><path fill="#ffffff" d="M 586.679688 347.707031 C 589.421875 347.707031 592.160156 344.964844 590.789062 340.859375 C 590.789062 338.117188 588.050781 336.75 586.679688 336.75 C 579.832031 303.882812 564.769531 272.382812 542.855469 246.363281 C 544.226562 244.992188 544.226562 242.253906 542.855469 239.515625 C 541.488281 236.777344 537.378906 236.777344 536.011719 239.515625 C 533.269531 240.882812 533.269531 244.992188 536.011719 246.363281 C 537.378906 247.730469 540.117188 249.101562 541.488281 247.730469 C 563.398438 273.753906 578.464844 303.882812 585.3125 336.75 C 583.941406 338.117188 582.574219 339.488281 582.574219 342.226562 C 581.203125 346.335938 583.941406 347.707031 586.679688 347.707031 Z M 586.679688 347.707031 " fill-opacity="1" fill-rule="nonzero"/><path fill="#ffffff" d="M 368.933594 168.300781 C 367.5625 166.933594 366.191406 164.191406 363.453125 165.5625 C 360.714844 165.5625 357.976562 168.300781 357.976562 171.039062 C 357.976562 173.78125 360.714844 176.519531 363.453125 176.519531 C 366.191406 176.519531 367.5625 175.148438 367.5625 172.410156 C 370.300781 172.410156 373.039062 172.410156 374.410156 172.410156 C 415.496094 172.410156 455.210938 184.734375 489.445312 206.648438 C 489.445312 209.386719 489.445312 210.757812 492.1875 212.125 C 494.925781 213.496094 497.664062 213.496094 499.035156 210.757812 C 500.402344 208.015625 500.402344 205.277344 497.664062 203.910156 C 496.292969 202.539062 493.554688 202.539062 490.816406 203.910156 C 456.578125 181.996094 415.496094 169.671875 374.410156 169.671875 C 374.410156 168.300781 371.671875 168.300781 368.933594 168.300781 Z M 368.933594 168.300781 " fill-opacity="1" fill-rule="nonzero"/><path fill="#ffffff" d="M 241.570312 550.390625 C 259.371094 564.085938 278.546875 575.039062 299.085938 583.257812 C 321 591.476562 342.910156 596.953125 366.191406 596.953125 C 366.191406 599.691406 368.933594 601.0625 371.671875 601.0625 C 374.410156 601.0625 377.148438 598.324219 377.148438 595.582031 C 377.148438 592.84375 374.410156 590.105469 371.671875 590.105469 C 368.933594 590.105469 367.5625 591.476562 366.191406 592.84375 C 322.367188 590.105469 278.546875 573.671875 244.308594 546.28125 C 245.675781 544.910156 244.308594 542.171875 242.9375 540.804688 C 240.199219 539.433594 237.460938 539.433594 236.089844 540.804688 C 234.722656 542.171875 234.722656 546.28125 236.089844 547.652344 C 237.460938 551.757812 240.199219 551.757812 241.570312 550.390625 Z M 241.570312 550.390625 " fill-opacity="1" fill-rule="nonzero"/><path fill="#ffffff" d="M 418.234375 596.953125 C 420.972656 596.953125 422.34375 594.214844 422.34375 592.84375 C 455.210938 585.996094 485.339844 570.933594 511.359375 550.390625 C 512.730469 551.757812 515.46875 551.757812 518.207031 550.390625 C 520.945312 549.019531 520.945312 544.914062 518.207031 543.542969 C 516.835938 540.804688 512.730469 540.804688 511.359375 543.542969 C 509.988281 544.914062 508.621094 547.652344 509.988281 549.019531 C 483.96875 569.5625 453.839844 584.628906 422.34375 591.476562 C 420.972656 590.105469 419.601562 588.734375 416.863281 588.734375 C 414.125 588.734375 411.386719 591.476562 412.753906 595.582031 C 412.753906 595.582031 415.496094 598.324219 418.234375 596.953125 Z M 418.234375 596.953125 " fill-opacity="1" fill-rule="nonzero"/><path fill="#ffffff" d="M 419.601562 575.039062 C 420.972656 576.410156 423.710938 577.78125 425.082031 577.78125 C 427.820312 576.410156 429.191406 573.671875 429.191406 570.933594 C 427.820312 568.195312 425.082031 566.824219 422.34375 566.824219 C 419.601562 566.824219 418.234375 569.5625 418.234375 570.933594 C 404.539062 573.671875 389.472656 575.039062 375.78125 575.039062 C 367.5625 575.039062 359.34375 575.039062 351.128906 573.671875 C 351.128906 570.933594 348.390625 569.5625 347.019531 569.5625 C 344.28125 569.5625 341.542969 570.933594 341.542969 573.671875 C 341.542969 576.410156 342.910156 579.148438 345.652344 579.148438 C 348.390625 579.148438 349.757812 577.78125 351.128906 576.410156 C 359.34375 577.78125 367.5625 577.78125 377.148438 577.78125 C 390.84375 580.519531 405.90625 577.78125 419.601562 575.039062 Z M 419.601562 575.039062 " fill-opacity="1" fill-rule="nonzero"/><path fill="#ffffff" d="M 552.445312 479.175781 C 553.8125 476.4375 552.445312 473.699219 549.703125 472.328125 C 546.964844 470.960938 544.226562 472.328125 542.855469 475.066406 C 541.488281 476.4375 541.488281 479.175781 544.226562 480.546875 C 526.421875 510.675781 503.140625 533.957031 473.011719 551.757812 C 471.644531 550.390625 468.90625 550.390625 467.535156 550.390625 C 464.796875 551.757812 463.425781 554.5 464.796875 557.238281 C 466.164062 559.976562 468.90625 561.347656 471.644531 559.976562 C 474.382812 558.605469 474.382812 557.238281 474.382812 554.5 C 504.511719 536.695312 529.164062 512.042969 546.964844 481.914062 C 548.335938 481.914062 551.074219 480.546875 552.445312 479.175781 Z M 552.445312 479.175781 " fill-opacity="1" fill-rule="nonzero"/><path fill="#ffffff" d="M 540.117188 272.382812 C 519.574219 242.253906 490.816406 217.601562 457.949219 202.539062 C 457.949219 199.800781 456.578125 198.429688 455.210938 197.0625 C 452.472656 195.691406 449.730469 197.0625 448.363281 199.800781 C 446.992188 202.539062 448.363281 205.277344 451.101562 206.648438 C 453.839844 208.015625 455.210938 206.648438 456.578125 205.277344 C 525.054688 236.777344 570.246094 305.25 570.246094 381.941406 C 570.246094 397.007812 568.878906 410.703125 566.140625 424.398438 C 563.398438 424.398438 562.03125 425.765625 562.03125 428.503906 C 560.660156 431.246094 563.398438 433.984375 566.140625 435.351562 C 568.878906 436.722656 571.617188 433.984375 572.984375 431.246094 C 572.984375 428.503906 572.984375 427.136719 570.246094 425.765625 C 572.984375 412.070312 575.726562 397.007812 575.726562 381.941406 C 572.984375 343.597656 562.03125 305.25 540.117188 272.382812 Z M 540.117188 272.382812 " fill-opacity="1" fill-rule="nonzero"/><path fill="#ffffff" d="M 389.472656 183.367188 C 386.734375 183.367188 385.367188 184.734375 383.996094 186.105469 C 381.257812 186.105469 378.519531 186.105469 375.78125 186.105469 C 360.714844 186.105469 345.652344 187.472656 330.585938 191.582031 C 329.214844 190.214844 326.476562 188.84375 325.109375 188.84375 C 322.367188 190.214844 321 192.953125 321 195.691406 C 322.371094 198.429688 325.109375 199.800781 327.847656 199.800781 C 330.585938 199.800781 331.957031 197.0625 331.957031 195.691406 C 347.019531 192.953125 360.714844 190.214844 375.78125 190.214844 C 378.519531 190.214844 381.257812 190.214844 382.625 190.214844 C 382.625 192.953125 385.367188 194.320312 386.734375 194.320312 C 389.472656 194.320312 392.214844 192.953125 392.214844 188.84375 C 392.214844 184.734375 392.214844 183.367188 389.472656 183.367188 Z M 389.472656 183.367188 " fill-opacity="1" fill-rule="nonzero"/><path fill="#ffffff" d="M 242.9375 491.5 C 240.199219 488.761719 237.460938 488.761719 234.722656 490.132812 C 231.984375 491.5 231.984375 495.609375 233.351562 496.980469 C 234.722656 498.347656 237.460938 499.71875 238.832031 498.347656 C 258.003906 521.628906 284.023438 539.433594 311.414062 549.019531 C 311.414062 551.757812 312.78125 553.128906 315.523438 554.5 C 318.261719 555.867188 321 554.5 322.367188 551.757812 C 323.738281 549.019531 322.367188 546.28125 319.628906 544.910156 C 316.890625 543.542969 315.523438 544.910156 314.152344 546.28125 C 286.761719 535.324219 262.113281 518.890625 242.9375 495.609375 C 244.308594 495.609375 244.308594 492.871094 242.9375 491.5 Z M 242.9375 491.5 " fill-opacity="1" fill-rule="nonzero"/><path fill="#ffffff" d="M 381.257812 565.453125 C 383.996094 565.453125 385.367188 564.085938 386.734375 561.347656 C 418.234375 559.976562 449.730469 549.019531 475.753906 531.21875 C 477.121094 532.585938 479.859375 532.585938 482.601562 531.21875 C 485.339844 529.847656 485.339844 525.738281 483.96875 524.371094 C 482.601562 521.628906 478.492188 521.628906 477.121094 523 C 475.753906 524.371094 474.382812 527.109375 475.753906 528.476562 C 449.730469 546.28125 419.601562 555.867188 388.105469 557.238281 C 386.734375 555.867188 385.367188 554.5 382.625 554.5 C 379.886719 554.5 377.148438 557.238281 377.148438 559.976562 C 377.148438 562.714844 378.519531 565.453125 381.257812 565.453125 Z M 381.257812 565.453125 " fill-opacity="1" fill-rule="nonzero"/><path fill="#ffffff" d="M 559.292969 369.617188 C 559.292969 366.878906 556.550781 364.140625 553.8125 364.140625 C 551.074219 364.140625 548.335938 366.878906 548.335938 369.617188 C 548.335938 372.355469 549.703125 373.726562 552.445312 373.726562 C 552.445312 376.464844 552.445312 379.203125 552.445312 381.941406 C 552.445312 417.550781 542.855469 450.417969 522.316406 479.175781 C 519.574219 479.175781 518.207031 479.175781 516.835938 480.546875 C 515.46875 483.285156 515.46875 486.023438 518.207031 487.394531 C 520.945312 488.761719 523.683594 488.761719 525.054688 486.023438 C 526.421875 484.65625 526.421875 481.914062 525.054688 479.175781 C 544.226562 449.046875 555.183594 414.808594 555.183594 379.203125 C 555.183594 376.464844 555.183594 373.726562 555.183594 370.988281 C 557.921875 373.726562 559.292969 372.355469 559.292969 369.617188 Z M 559.292969 369.617188 " fill-opacity="1" fill-rule="nonzero"/><path fill="#ffffff" d="M 507.25 255.949219 C 504.511719 253.210938 501.773438 253.210938 499.035156 255.949219 C 496.292969 258.6875 496.292969 261.425781 499.035156 264.167969 C 500.402344 265.535156 503.140625 265.535156 504.511719 265.535156 C 515.46875 277.859375 525.054688 290.1875 531.902344 305.25 C 530.53125 306.621094 530.53125 309.359375 530.53125 310.730469 C 531.902344 313.46875 534.640625 314.835938 537.378906 313.46875 C 540.117188 312.097656 541.488281 309.359375 540.117188 306.621094 C 538.75 303.882812 537.378906 303.882812 534.640625 303.882812 C 527.792969 288.816406 518.207031 276.492188 507.25 264.167969 C 509.988281 260.058594 508.621094 257.320312 507.25 255.949219 Z M 507.25 255.949219 " fill-opacity="1" fill-rule="nonzero"/><path fill="#ffffff" d="M 463.425781 221.710938 C 460.6875 220.34375 459.320312 220.34375 456.578125 223.082031 C 431.929688 210.757812 404.539062 203.910156 377.148438 203.910156 C 368.933594 203.910156 359.34375 203.910156 351.128906 205.277344 C 349.757812 203.910156 348.390625 202.539062 345.652344 202.539062 C 342.910156 202.539062 340.171875 205.277344 341.542969 209.386719 C 341.542969 212.125 344.28125 214.863281 348.390625 213.496094 C 351.128906 213.496094 352.496094 210.757812 352.496094 209.386719 C 360.714844 208.015625 368.933594 208.015625 377.148438 208.015625 C 404.539062 208.015625 431.929688 214.863281 455.210938 227.191406 C 455.210938 229.929688 456.578125 231.296875 457.949219 232.667969 C 460.6875 234.039062 463.425781 232.667969 464.796875 229.929688 C 466.164062 227.191406 466.164062 223.082031 463.425781 221.710938 Z M 463.425781 221.710938 " fill-opacity="1" fill-rule="nonzero"/><path fill="#ffffff" d="M 312.78125 523 C 310.042969 521.628906 307.304688 523 305.933594 525.738281 C 304.566406 528.476562 305.933594 531.21875 308.675781 532.585938 C 311.414062 533.957031 312.78125 532.585938 315.523438 531.21875 C 334.695312 539.433594 356.605469 543.542969 377.148438 543.542969 C 385.367188 543.542969 394.953125 543.542969 403.167969 542.171875 C 404.539062 543.542969 405.90625 544.914062 408.648438 544.914062 C 411.386719 544.914062 412.753906 542.171875 412.753906 538.066406 C 412.753906 533.957031 410.015625 533.957031 405.90625 533.957031 C 403.167969 533.957031 401.800781 536.695312 401.800781 538.066406 C 393.582031 539.433594 385.367188 539.433594 377.148438 539.433594 C 356.605469 539.433594 336.0625 535.324219 316.890625 527.109375 C 315.523438 527.109375 315.523438 524.371094 312.78125 523 Z M 312.78125 523 " fill-opacity="1" fill-rule="nonzero"/><path fill="#ffffff" d="M 515.46875 464.113281 C 518.207031 464.113281 519.574219 464.113281 520.945312 461.371094 C 522.316406 458.632812 520.945312 455.894531 518.207031 454.527344 C 515.46875 453.15625 512.730469 454.527344 511.359375 457.265625 C 509.988281 458.632812 509.988281 461.371094 512.730469 462.742188 C 499.035156 486.023438 479.859375 506.566406 455.210938 520.261719 C 453.839844 518.890625 451.101562 518.890625 449.730469 518.890625 C 446.992188 520.261719 445.625 523 446.992188 525.738281 C 448.363281 528.476562 451.101562 529.847656 453.839844 528.476562 C 456.578125 527.109375 456.578125 525.738281 456.578125 523 C 482.601562 507.9375 501.773438 488.761719 515.46875 464.113281 Z M 515.46875 464.113281 " fill-opacity="1" fill-rule="nonzero"/><path fill="#ffffff" d="M 527.792969 412.070312 C 527.792969 414.808594 529.164062 417.550781 531.902344 418.917969 C 534.640625 418.917969 537.378906 417.550781 538.75 414.808594 C 538.75 412.070312 538.75 410.703125 536.011719 409.332031 C 537.378906 401.117188 537.378906 392.898438 537.378906 383.3125 C 537.378906 354.550781 530.53125 327.164062 515.46875 302.511719 C 516.835938 301.140625 516.835938 298.402344 515.46875 295.664062 C 514.097656 292.925781 509.988281 292.925781 508.621094 294.296875 C 507.25 295.664062 505.882812 299.773438 507.25 301.140625 C 508.621094 302.511719 511.359375 303.882812 512.730469 303.882812 C 526.421875 327.164062 533.269531 354.550781 533.269531 383.3125 C 533.269531 391.527344 533.269531 399.746094 531.902344 407.960938 C 530.53125 407.960938 527.792969 409.332031 527.792969 412.070312 Z M 527.792969 412.070312 " fill-opacity="1" fill-rule="nonzero"/><path fill="#ffffff" d="M 464.796875 247.730469 C 438.777344 229.929688 407.277344 221.710938 375.78125 221.710938 C 360.714844 221.710938 347.019531 223.082031 331.957031 227.191406 C 330.585938 225.820312 327.847656 224.449219 326.476562 225.820312 C 323.738281 227.191406 322.367188 229.929688 323.738281 232.667969 C 325.109375 235.40625 327.847656 236.777344 330.585938 235.40625 C 333.324219 234.039062 334.695312 232.667969 334.695312 229.929688 C 348.390625 225.820312 362.085938 224.449219 377.148438 224.449219 C 408.648438 224.449219 437.40625 234.039062 463.425781 250.472656 C 463.425781 253.210938 463.425781 254.578125 464.796875 255.949219 C 467.535156 257.320312 470.273438 257.320312 471.644531 254.578125 C 473.011719 251.839844 473.011719 249.101562 470.273438 247.730469 C 468.90625 246.363281 467.535156 246.363281 464.796875 247.730469 Z M 464.796875 247.730469 " fill-opacity="1" fill-rule="nonzero"/><path fill="#ffffff" d="M 259.371094 454.527344 C 258.003906 451.785156 255.265625 451.785156 252.523438 453.15625 C 249.785156 454.527344 249.785156 457.265625 251.15625 460.003906 C 252.523438 461.371094 255.265625 462.742188 256.632812 462.742188 C 263.480469 473.699219 271.699219 483.285156 281.285156 491.5 C 290.871094 499.71875 301.828125 506.566406 312.78125 512.042969 C 312.78125 514.785156 314.152344 516.152344 315.523438 517.523438 C 318.261719 518.890625 321 517.523438 322.367188 514.785156 C 323.738281 512.042969 322.367188 509.304688 319.628906 507.9375 C 316.890625 506.566406 315.523438 507.9375 314.152344 509.304688 C 292.242188 498.347656 273.066406 481.914062 259.371094 461.371094 C 260.742188 458.632812 260.742188 455.894531 259.371094 454.527344 Z M 259.371094 454.527344 " fill-opacity="1" fill-rule="nonzero"/><path fill="#ffffff" d="M 368.933594 523 C 368.933594 520.261719 366.191406 518.890625 364.824219 518.890625 C 362.085938 518.890625 359.34375 520.261719 359.34375 523 C 359.34375 525.738281 360.714844 528.476562 363.453125 528.476562 C 366.191406 528.476562 367.5625 527.109375 368.933594 525.738281 C 371.671875 525.738281 374.410156 525.738281 377.148438 525.738281 C 401.800781 525.738281 426.449219 518.890625 448.363281 506.566406 C 449.730469 507.9375 452.472656 507.9375 455.210938 506.566406 C 457.949219 505.195312 457.949219 501.089844 456.578125 499.71875 C 455.210938 496.980469 451.101562 496.980469 449.730469 498.347656 C 445.625 501.089844 445.625 502.457031 445.625 505.195312 C 425.082031 517.523438 400.429688 523 375.78125 523 C 374.410156 523 371.671875 523 368.933594 523 Z M 368.933594 523 " fill-opacity="1" fill-rule="nonzero"/><path fill="#ffffff" d="M 485.339844 465.480469 C 483.96875 468.21875 483.96875 470.960938 486.707031 472.328125 C 489.445312 473.699219 492.1875 473.699219 493.554688 470.960938 C 494.925781 469.589844 494.925781 466.851562 493.554688 464.113281 C 501.773438 453.15625 507.25 440.832031 512.730469 428.503906 C 518.207031 413.441406 520.945312 397.007812 520.945312 381.941406 C 520.945312 365.507812 518.207031 350.445312 512.730469 335.378906 C 514.097656 334.011719 515.46875 331.269531 514.097656 329.902344 C 512.730469 327.164062 509.988281 325.792969 507.25 327.164062 C 504.511719 328.53125 503.140625 331.269531 504.511719 334.011719 C 505.882812 336.75 507.25 336.75 509.988281 336.75 C 515.46875 351.8125 516.835938 366.878906 516.835938 381.941406 C 516.835938 410.703125 508.621094 439.460938 490.816406 462.742188 C 489.445312 462.742188 486.707031 464.113281 485.339844 465.480469 Z M 485.339844 465.480469 " fill-opacity="1" fill-rule="nonzero"/><path fill="#ffffff" d="M 471.644531 275.121094 C 457.949219 262.796875 440.144531 253.210938 422.34375 246.363281 C 422.34375 243.625 420.972656 242.253906 418.234375 240.882812 C 415.496094 239.515625 412.753906 242.253906 411.386719 244.992188 C 410.015625 247.730469 412.753906 250.472656 415.496094 251.839844 C 418.234375 251.839844 419.601562 251.839844 420.972656 250.472656 C 438.777344 255.949219 455.210938 265.535156 468.90625 277.859375 C 467.535156 279.230469 468.90625 281.96875 470.273438 283.339844 C 473.011719 286.078125 475.753906 284.707031 478.492188 283.339844 C 481.230469 281.96875 479.859375 277.859375 478.492188 275.121094 C 475.753906 275.121094 473.011719 273.753906 471.644531 275.121094 Z M 471.644531 275.121094 " fill-opacity="1" fill-rule="nonzero"/><path fill="#ffffff" d="M 437.40625 496.980469 C 440.144531 495.609375 440.144531 494.242188 440.144531 491.5 C 452.472656 484.65625 463.425781 475.066406 473.011719 464.113281 C 482.601562 453.15625 489.445312 440.832031 494.925781 428.503906 C 497.664062 428.503906 499.035156 427.136719 500.402344 424.398438 C 501.773438 421.65625 500.402344 418.917969 497.664062 417.550781 C 494.925781 416.179688 492.1875 417.550781 490.816406 420.289062 C 489.445312 423.027344 490.816406 424.398438 492.1875 425.765625 C 482.601562 451.785156 463.425781 472.328125 440.144531 487.394531 C 438.777344 486.023438 436.035156 486.023438 434.667969 486.023438 C 431.929688 487.394531 430.558594 490.132812 431.929688 492.871094 C 430.558594 498.347656 434.667969 498.347656 437.40625 496.980469 Z M 437.40625 496.980469 " fill-opacity="1" fill-rule="nonzero"/><path fill="#ffffff" d="M 488.078125 317.578125 C 486.707031 314.835938 482.601562 314.835938 481.230469 316.207031 C 478.492188 317.578125 478.492188 321.683594 479.859375 323.054688 C 481.230469 324.421875 482.601562 325.792969 485.339844 325.792969 C 493.554688 340.859375 497.664062 355.921875 499.035156 372.355469 C 497.664062 373.726562 496.292969 375.09375 496.292969 377.835938 C 496.292969 380.574219 499.035156 383.3125 501.773438 383.3125 C 504.511719 383.3125 507.25 380.574219 507.25 377.835938 C 507.25 375.09375 505.882812 373.726562 503.140625 372.355469 C 501.773438 355.921875 496.292969 339.488281 489.449219 324.421875 C 489.445312 323.054688 489.445312 320.316406 488.078125 317.578125 Z M 488.078125 317.578125 " fill-opacity="1" fill-rule="nonzero"/><path fill="#ffffff" d="M 441.515625 283.339844 C 444.253906 284.707031 446.992188 284.707031 448.363281 281.96875 C 449.730469 279.230469 449.730469 276.492188 446.992188 275.121094 C 445.625 273.753906 442.882812 273.753906 440.144531 275.121094 C 420.972656 264.167969 399.0625 257.320312 375.78125 257.320312 C 366.191406 257.320312 357.976562 258.6875 348.390625 260.058594 C 347.019531 258.6875 344.28125 257.320312 342.910156 257.320312 C 340.171875 258.6875 338.804688 261.425781 338.804688 264.167969 C 340.171875 266.90625 342.910156 268.273438 345.652344 268.273438 C 348.390625 268.273438 349.757812 265.535156 349.757812 264.167969 C 357.976562 262.796875 367.5625 261.425781 375.78125 261.425781 C 397.691406 261.425781 419.601562 266.90625 437.40625 277.859375 C 438.777344 279.230469 438.777344 281.96875 441.515625 283.339844 Z M 441.515625 283.339844 " fill-opacity="1" fill-rule="nonzero"/><path fill="#ffffff" d="M 292.242188 466.851562 C 290.871094 464.113281 286.761719 464.113281 284.023438 466.851562 C 281.285156 468.21875 281.285156 472.328125 284.023438 475.066406 C 285.394531 476.4375 288.132812 477.808594 290.871094 476.4375 C 301.828125 486.023438 314.152344 494.242188 326.476562 499.71875 C 341.542969 506.566406 357.976562 509.304688 375.78125 509.304688 C 378.519531 509.304688 381.257812 509.304688 383.996094 509.304688 C 385.367188 512.042969 386.734375 512.042969 389.472656 512.042969 C 392.214844 512.042969 394.953125 509.304688 393.582031 506.566406 C 393.582031 503.828125 390.84375 501.089844 388.105469 502.457031 C 385.367188 502.457031 383.996094 503.828125 383.996094 506.566406 C 381.257812 506.566406 378.519531 506.566406 377.148438 506.566406 C 345.652344 506.566406 316.890625 495.609375 294.980469 475.066406 C 294.980469 470.960938 294.980469 469.589844 292.242188 466.851562 Z M 292.242188 466.851562 " fill-opacity="1" fill-rule="nonzero"/></svg>