<svg xmlns="http://www.w3.org/2000/svg" xmlns:xlink="http://www.w3.org/1999/xlink" width="900" zoomAndPan="magnify" viewBox="0 0 675 112.499997" height="150" preserveAspectRatio="xMidYMid meet" version="1.0"><defs><g/><clipPath id="6a4a3956c9"><path d="M 21 13.621094 L 56 13.621094 L 56 32 L 21 32 Z M 21 13.621094 " clip-rule="nonzero"/></clipPath><clipPath id="0807e3dbea"><path d="M 15.15625 68 L 29 68 L 29 88 L 15.15625 88 Z M 15.15625 68 " clip-rule="nonzero"/></clipPath><clipPath id="cf6ea1b0c9"><path d="M 32 90 L 56 90 L 56 98.746094 L 32 98.746094 Z M 32 90 " clip-rule="nonzero"/></clipPath><clipPath id="93df3cffbe"><path d="M 90 33 L 97.292969 33 L 97.292969 62 L 90 62 Z M 90 33 " clip-rule="nonzero"/></clipPath><clipPath id="0a56f1de7d"><path d="M 61 13.621094 L 85 13.621094 L 85 27 L 61 27 Z M 61 13.621094 " clip-rule="nonzero"/></clipPath></defs><g fill="#ffffff" fill-opacity="1"><g transform="translate(102.728307, 84.145418)"><g><path d="M 13.8125 -56.9375 L 21.78125 -56.9375 C 25.144531 -56.9375 27.691406 -56.066406 29.421875 -54.328125 C 31.160156 -52.597656 32.03125 -50.050781 32.03125 -46.6875 L 32.03125 -39.140625 C 32.03125 -38.378906 31.648438 -38 30.890625 -38 L 23.484375 -38 C 22.722656 -38 22.34375 -38.378906 22.34375 -39.140625 L 22.34375 -44.703125 C 22.34375 -46.597656 21.394531 -47.546875 19.5 -47.546875 L 16.078125 -47.546875 C 14.179688 -47.546875 13.234375 -46.597656 13.234375 -44.703125 L 13.234375 -34.875 L 30.171875 -29.328125 C 31.410156 -28.804688 32.03125 -27.925781 32.03125 -26.6875 L 32.03125 -10.25 C 32.03125 -6.925781 31.160156 -4.382812 29.421875 -2.625 C 27.691406 -0.875 25.144531 0 21.78125 0 L 13.8125 0 C 10.488281 0 7.945312 -0.875 6.1875 -2.625 C 4.4375 -4.382812 3.5625 -6.925781 3.5625 -10.25 L 3.5625 -17.71875 C 3.5625 -18.476562 3.941406 -18.859375 4.703125 -18.859375 L 12.09375 -18.859375 C 12.851562 -18.859375 13.234375 -18.476562 13.234375 -17.71875 L 13.234375 -12.234375 C 13.234375 -10.335938 14.179688 -9.390625 16.078125 -9.390625 L 19.5 -9.390625 C 21.394531 -9.390625 22.34375 -10.335938 22.34375 -12.234375 L 22.34375 -21.703125 L 5.484375 -27.265625 C 4.203125 -27.691406 3.5625 -28.566406 3.5625 -29.890625 L 3.5625 -46.6875 C 3.5625 -50.050781 4.4375 -52.597656 6.1875 -54.328125 C 7.945312 -56.066406 10.488281 -56.9375 13.8125 -56.9375 Z M 13.8125 -56.9375 "/></g></g></g><g fill="#ffffff" fill-opacity="1"><g transform="translate(138.310512, 84.145418)"><g><path d="M 33.3125 -56.9375 L 42.703125 -56.9375 C 43.648438 -56.9375 44.125 -56.460938 44.125 -55.515625 L 44.125 -1.421875 C 44.125 -0.472656 43.648438 0 42.703125 0 L 36.078125 0 C 35.128906 0 34.65625 -0.472656 34.65625 -1.421875 L 34.65625 -33.453125 L 34.15625 -33.453125 L 27.109375 -1.28125 C 26.921875 -0.425781 26.398438 0 25.546875 0 L 22.0625 0 C 21.257812 0 20.738281 -0.425781 20.5 -1.28125 L 13.453125 -33.453125 L 12.953125 -33.453125 L 12.953125 -1.421875 C 12.953125 -0.472656 12.476562 0 11.53125 0 L 4.984375 0 C 4.035156 0 3.5625 -0.472656 3.5625 -1.421875 L 3.5625 -55.515625 C 3.5625 -56.460938 4.035156 -56.9375 4.984375 -56.9375 L 14.375 -56.9375 C 15.226562 -56.9375 15.75 -56.507812 15.9375 -55.65625 L 23.84375 -20.21875 L 31.75 -55.65625 C 31.976562 -56.507812 32.5 -56.9375 33.3125 -56.9375 Z M 33.3125 -56.9375 "/></g></g></g><g fill="#ffffff" fill-opacity="1"><g transform="translate(185.99066, 84.145418)"><g><path d="M 37.859375 0 L 30.3125 0 C 29.695312 0 29.320312 -0.332031 29.1875 -1 L 27.1875 -11.390625 L 14.515625 -11.390625 L 12.59375 -1 C 12.457031 -0.332031 12.078125 0 11.453125 0 L 3.84375 0 C 2.988281 0 2.679688 -0.398438 2.921875 -1.203125 L 14.734375 -55.9375 C 14.878906 -56.601562 15.28125 -56.9375 15.9375 -56.9375 L 25.828125 -56.9375 C 26.492188 -56.9375 26.898438 -56.601562 27.046875 -55.9375 L 38.859375 -1.203125 C 39.003906 -0.398438 38.671875 0 37.859375 0 Z M 25.40625 -19.640625 L 20.859375 -44.484375 L 16.296875 -19.640625 Z M 25.40625 -19.640625 "/></g></g></g><g fill="#ffffff" fill-opacity="1"><g transform="translate(227.692991, 84.145418)"><g><path d="M 32.8125 -46.6875 L 32.8125 -29.328125 C 32.8125 -24.578125 31.078125 -21.441406 27.609375 -19.921875 L 32.53125 -1.28125 C 32.757812 -0.425781 32.425781 0 31.53125 0 L 24.125 0 C 23.457031 0 23.054688 -0.332031 22.921875 -1 L 18.15625 -19.078125 L 13.234375 -19.078125 L 13.234375 -1.140625 C 13.234375 -0.378906 12.851562 0 12.09375 0 L 4.703125 0 C 3.941406 0 3.5625 -0.378906 3.5625 -1.140625 L 3.5625 -55.796875 C 3.5625 -56.554688 3.941406 -56.9375 4.703125 -56.9375 L 22.5625 -56.9375 C 25.925781 -56.9375 28.472656 -56.066406 30.203125 -54.328125 C 31.941406 -52.597656 32.8125 -50.050781 32.8125 -46.6875 Z M 13.234375 -28.46875 L 20.28125 -28.46875 C 22.175781 -28.46875 23.125 -29.414062 23.125 -31.3125 L 23.125 -44.703125 C 23.125 -46.597656 22.175781 -47.546875 20.28125 -47.546875 L 13.234375 -47.546875 Z M 13.234375 -28.46875 "/></g></g></g><g fill="#ffffff" fill-opacity="1"><g transform="translate(264.057992, 84.145418)"><g><path d="M 3.28125 -56.9375 L 29.46875 -56.9375 C 30.226562 -56.9375 30.609375 -56.554688 30.609375 -55.796875 L 30.609375 -48.6875 C 30.609375 -47.925781 30.226562 -47.546875 29.46875 -47.546875 L 21.203125 -47.546875 L 21.203125 -1.140625 C 21.203125 -0.378906 20.828125 0 20.078125 0 L 12.671875 0 C 11.910156 0 11.53125 -0.378906 11.53125 -1.140625 L 11.53125 -47.546875 L 3.28125 -47.546875 C 2.519531 -47.546875 2.140625 -47.925781 2.140625 -48.6875 L 2.140625 -55.796875 C 2.140625 -56.554688 2.519531 -56.9375 3.28125 -56.9375 Z M 3.28125 -56.9375 "/></g></g></g><g fill="#ffffff" fill-opacity="1"><g transform="translate(296.793621, 84.145418)"><g/></g></g><g fill="#ffffff" fill-opacity="1"><g transform="translate(314.584716, 84.145418)"><g><path d="M 32.8125 -46.6875 L 32.8125 -29.328125 C 32.8125 -24.578125 31.078125 -21.441406 27.609375 -19.921875 L 32.53125 -1.28125 C 32.757812 -0.425781 32.425781 0 31.53125 0 L 24.125 0 C 23.457031 0 23.054688 -0.332031 22.921875 -1 L 18.15625 -19.078125 L 13.234375 -19.078125 L 13.234375 -1.140625 C 13.234375 -0.378906 12.851562 0 12.09375 0 L 4.703125 0 C 3.941406 0 3.5625 -0.378906 3.5625 -1.140625 L 3.5625 -55.796875 C 3.5625 -56.554688 3.941406 -56.9375 4.703125 -56.9375 L 22.5625 -56.9375 C 25.925781 -56.9375 28.472656 -56.066406 30.203125 -54.328125 C 31.941406 -52.597656 32.8125 -50.050781 32.8125 -46.6875 Z M 13.234375 -28.46875 L 20.28125 -28.46875 C 22.175781 -28.46875 23.125 -29.414062 23.125 -31.3125 L 23.125 -44.703125 C 23.125 -46.597656 22.175781 -47.546875 20.28125 -47.546875 L 13.234375 -47.546875 Z M 13.234375 -28.46875 "/></g></g></g><g fill="#ffffff" fill-opacity="1"><g transform="translate(350.949717, 84.145418)"><g><path d="M 31.953125 -55.796875 L 31.953125 -48.6875 C 31.953125 -47.875 31.570312 -47.46875 30.8125 -47.46875 L 13.03125 -47.46875 L 13.03125 -33.234375 L 26.625 -33.234375 C 27.375 -33.234375 27.75 -32.832031 27.75 -32.03125 L 27.75 -24.984375 C 27.75 -24.171875 27.375 -23.765625 26.625 -23.765625 L 13.03125 -23.765625 L 13.03125 -9.390625 L 30.8125 -9.390625 C 31.570312 -9.390625 31.953125 -9.007812 31.953125 -8.25 L 31.953125 -1.140625 C 31.953125 -0.378906 31.570312 0 30.8125 0 L 4.625 0 C 3.914062 0 3.5625 -0.378906 3.5625 -1.140625 L 3.5625 -55.796875 C 3.5625 -56.554688 3.914062 -56.9375 4.625 -56.9375 L 30.8125 -56.9375 C 31.570312 -56.9375 31.953125 -56.554688 31.953125 -55.796875 Z M 31.953125 -55.796875 "/></g></g></g><g fill="#ffffff" fill-opacity="1"><g transform="translate(386.460766, 84.145418)"><g><path d="M 3.5625 -1.140625 L 3.5625 -55.796875 C 3.5625 -56.554688 3.941406 -56.9375 4.703125 -56.9375 L 21.78125 -56.9375 C 25.144531 -56.9375 27.691406 -56.066406 29.421875 -54.328125 C 31.160156 -52.597656 32.03125 -50.050781 32.03125 -46.6875 L 32.03125 -29.328125 C 32.03125 -26.003906 31.160156 -23.460938 29.421875 -21.703125 C 27.691406 -19.953125 25.144531 -19.078125 21.78125 -19.078125 L 13.234375 -19.078125 L 13.234375 -1.140625 C 13.234375 -0.378906 12.851562 0 12.09375 0 L 4.703125 0 C 3.941406 0 3.5625 -0.378906 3.5625 -1.140625 Z M 13.234375 -28.46875 L 19.5 -28.46875 C 21.394531 -28.46875 22.34375 -29.414062 22.34375 -31.3125 L 22.34375 -44.703125 C 22.34375 -46.597656 21.394531 -47.546875 19.5 -47.546875 L 13.234375 -47.546875 Z M 13.234375 -28.46875 "/></g></g></g><g fill="#ffffff" fill-opacity="1"><g transform="translate(422.042956, 84.145418)"><g><path d="M 3.5625 -10.25 L 3.5625 -46.6875 C 3.5625 -50.050781 4.4375 -52.597656 6.1875 -54.328125 C 7.945312 -56.066406 10.488281 -56.9375 13.8125 -56.9375 L 21.78125 -56.9375 C 25.144531 -56.9375 27.691406 -56.066406 29.421875 -54.328125 C 31.160156 -52.597656 32.03125 -50.050781 32.03125 -46.6875 L 32.03125 -10.25 C 32.03125 -6.925781 31.160156 -4.382812 29.421875 -2.625 C 27.691406 -0.875 25.144531 0 21.78125 0 L 13.8125 0 C 10.488281 0 7.945312 -0.875 6.1875 -2.625 C 4.4375 -4.382812 3.5625 -6.925781 3.5625 -10.25 Z M 15.875 -9.1875 L 20 -9.1875 C 21.894531 -9.1875 22.84375 -10.132812 22.84375 -12.03125 L 22.84375 -44.90625 C 22.84375 -46.800781 21.894531 -47.75 20 -47.75 L 15.875 -47.75 C 13.976562 -47.75 13.03125 -46.800781 13.03125 -44.90625 L 13.03125 -12.03125 C 13.03125 -10.132812 13.976562 -9.1875 15.875 -9.1875 Z M 15.875 -9.1875 "/></g></g></g><g fill="#ffffff" fill-opacity="1"><g transform="translate(457.625145, 84.145418)"><g><path d="M 32.8125 -46.6875 L 32.8125 -29.328125 C 32.8125 -24.578125 31.078125 -21.441406 27.609375 -19.921875 L 32.53125 -1.28125 C 32.757812 -0.425781 32.425781 0 31.53125 0 L 24.125 0 C 23.457031 0 23.054688 -0.332031 22.921875 -1 L 18.15625 -19.078125 L 13.234375 -19.078125 L 13.234375 -1.140625 C 13.234375 -0.378906 12.851562 0 12.09375 0 L 4.703125 0 C 3.941406 0 3.5625 -0.378906 3.5625 -1.140625 L 3.5625 -55.796875 C 3.5625 -56.554688 3.941406 -56.9375 4.703125 -56.9375 L 22.5625 -56.9375 C 25.925781 -56.9375 28.472656 -56.066406 30.203125 -54.328125 C 31.941406 -52.597656 32.8125 -50.050781 32.8125 -46.6875 Z M 13.234375 -28.46875 L 20.28125 -28.46875 C 22.175781 -28.46875 23.125 -29.414062 23.125 -31.3125 L 23.125 -44.703125 C 23.125 -46.597656 22.175781 -47.546875 20.28125 -47.546875 L 13.234375 -47.546875 Z M 13.234375 -28.46875 "/></g></g></g><g fill="#ffffff" fill-opacity="1"><g transform="translate(493.990146, 84.145418)"><g><path d="M 3.28125 -56.9375 L 29.46875 -56.9375 C 30.226562 -56.9375 30.609375 -56.554688 30.609375 -55.796875 L 30.609375 -48.6875 C 30.609375 -47.925781 30.226562 -47.546875 29.46875 -47.546875 L 21.203125 -47.546875 L 21.203125 -1.140625 C 21.203125 -0.378906 20.828125 0 20.078125 0 L 12.671875 0 C 11.910156 0 11.53125 -0.378906 11.53125 -1.140625 L 11.53125 -47.546875 L 3.28125 -47.546875 C 2.519531 -47.546875 2.140625 -47.925781 2.140625 -48.6875 L 2.140625 -55.796875 C 2.140625 -56.554688 2.519531 -56.9375 3.28125 -56.9375 Z M 3.28125 -56.9375 "/></g></g></g><g fill="#ffffff" fill-opacity="1"><g transform="translate(526.725775, 84.145418)"><g/></g></g><g fill="#ffffff" fill-opacity="1"><g transform="translate(544.51687, 84.145418)"><g><path d="M 13.234375 -9.390625 L 13.234375 -55.796875 C 13.234375 -56.554688 12.851562 -56.9375 12.09375 -56.9375 L 4.703125 -56.9375 C 3.941406 -56.9375 3.5625 -56.554688 3.5625 -55.796875 L 3.5625 -1.140625 C 3.5625 -0.378906 3.941406 0 4.703125 0 L 30.171875 0 C 30.929688 0 31.3125 -0.378906 31.3125 -1.140625 L 31.3125 -8.25 C 31.3125 -9.007812 30.929688 -9.390625 30.171875 -9.390625 Z M 13.234375 -9.390625 "/></g></g></g><g fill="#ffffff" fill-opacity="1"><g transform="translate(579.387419, 84.145418)"><g><path d="M 37.859375 0 L 30.3125 0 C 29.695312 0 29.320312 -0.332031 29.1875 -1 L 27.1875 -11.390625 L 14.515625 -11.390625 L 12.59375 -1 C 12.457031 -0.332031 12.078125 0 11.453125 0 L 3.84375 0 C 2.988281 0 2.679688 -0.398438 2.921875 -1.203125 L 14.734375 -55.9375 C 14.878906 -56.601562 15.28125 -56.9375 15.9375 -56.9375 L 25.828125 -56.9375 C 26.492188 -56.9375 26.898438 -56.601562 27.046875 -55.9375 L 38.859375 -1.203125 C 39.003906 -0.398438 38.671875 0 37.859375 0 Z M 25.40625 -19.640625 L 20.859375 -44.484375 L 16.296875 -19.640625 Z M 25.40625 -19.640625 "/></g></g></g><g fill="#ffffff" fill-opacity="1"><g transform="translate(621.089751, 84.145418)"><g><path d="M 32.09375 -46.6875 L 32.09375 -33.59375 C 32.09375 -32.257812 31.664062 -31.140625 30.8125 -30.234375 C 29.957031 -29.335938 28.890625 -28.773438 27.609375 -28.546875 L 27.609375 -28.390625 C 28.890625 -28.203125 29.957031 -27.644531 30.8125 -26.71875 C 31.664062 -25.800781 32.09375 -24.675781 32.09375 -23.34375 L 32.09375 -10.25 C 32.09375 -6.925781 31.210938 -4.382812 29.453125 -2.625 C 27.703125 -0.875 25.144531 0 21.78125 0 L 4.703125 0 C 3.941406 0 3.5625 -0.378906 3.5625 -1.140625 L 3.5625 -55.796875 C 3.5625 -56.554688 3.941406 -56.9375 4.703125 -56.9375 L 21.78125 -56.9375 C 25.144531 -56.9375 27.703125 -56.066406 29.453125 -54.328125 C 31.210938 -52.597656 32.09375 -50.050781 32.09375 -46.6875 Z M 22.625 -35.9375 L 22.625 -44.703125 C 22.625 -46.597656 21.675781 -47.546875 19.78125 -47.546875 L 13.3125 -47.546875 L 13.3125 -33.171875 L 19.78125 -33.171875 C 21.675781 -33.171875 22.625 -34.09375 22.625 -35.9375 Z M 22.625 -12.234375 L 22.625 -20.921875 C 22.625 -22.816406 21.675781 -23.765625 19.78125 -23.765625 L 13.3125 -23.765625 L 13.3125 -9.390625 L 19.78125 -9.390625 C 21.675781 -9.390625 22.625 -10.335938 22.625 -12.234375 Z M 22.625 -12.234375 "/></g></g></g><g clip-path="url(#6a4a3956c9)"><path fill="#ffffff" d="M 22.882812 30.828125 C 23.042969 30.667969 23.042969 30.347656 22.882812 30.1875 C 30.601562 20.539062 41.859375 14.910156 54.082031 14.585938 C 54.242188 14.910156 54.402344 15.070312 54.722656 15.070312 C 55.046875 15.070312 55.367188 14.75 55.367188 14.425781 C 55.367188 14.105469 55.046875 13.621094 54.722656 13.621094 C 54.402344 13.621094 54.242188 13.785156 54.082031 14.105469 C 51.023438 14.265625 47.96875 14.585938 45.074219 15.390625 C 42.019531 16.195312 39.125 17.320312 36.230469 18.769531 C 33.496094 20.054688 30.921875 21.664062 28.511719 23.59375 C 26.421875 25.523438 24.332031 27.613281 22.5625 29.863281 C 22.238281 29.703125 22.078125 29.863281 21.917969 30.027344 C 21.757812 30.347656 21.757812 30.667969 22.078125 30.828125 C 22.238281 31.152344 22.5625 30.992188 22.882812 30.828125 Z M 22.882812 30.828125 " fill-opacity="1" fill-rule="nonzero"/></g><g clip-path="url(#0807e3dbea)"><path fill="#ffffff" d="M 27.386719 86.632812 C 22.238281 81.96875 18.378906 76.179688 16.128906 69.585938 C 16.289062 69.425781 16.449219 69.101562 16.289062 68.941406 C 16.128906 68.621094 15.808594 68.460938 15.484375 68.621094 C 15.324219 68.621094 15.164062 68.941406 15.164062 69.265625 C 15.324219 69.585938 15.484375 69.746094 15.808594 69.746094 C 18.058594 76.339844 22.078125 82.128906 27.226562 86.953125 C 27.0625 87.113281 27.226562 87.4375 27.386719 87.597656 C 27.707031 87.757812 28.027344 87.757812 28.191406 87.597656 C 28.351562 87.273438 28.351562 86.953125 28.191406 86.792969 C 28.027344 86.472656 27.707031 86.472656 27.386719 86.632812 Z M 27.386719 86.632812 " fill-opacity="1" fill-rule="nonzero"/></g><g clip-path="url(#cf6ea1b0c9)"><path fill="#ffffff" d="M 54.722656 96.925781 C 54.402344 96.925781 54.242188 97.085938 54.082031 97.40625 C 46.84375 97.246094 39.769531 95.15625 33.496094 91.296875 C 33.496094 90.972656 33.496094 90.8125 33.175781 90.652344 C 32.851562 90.492188 32.53125 90.492188 32.371094 90.8125 C 32.210938 91.132812 32.210938 91.457031 32.53125 91.617188 C 32.691406 91.777344 33.015625 91.777344 33.175781 91.617188 C 39.445312 95.476562 46.523438 97.566406 53.917969 97.890625 C 54.082031 98.210938 54.242188 98.371094 54.5625 98.371094 C 54.882812 98.371094 55.207031 98.050781 55.207031 97.726562 C 55.207031 97.40625 55.046875 96.925781 54.722656 96.925781 Z M 54.722656 96.925781 " fill-opacity="1" fill-rule="nonzero"/></g><path fill="#ffffff" d="M 71.125 93.707031 C 70.804688 93.867188 70.804688 94.027344 70.804688 94.351562 C 68.875 95.15625 66.785156 95.796875 64.855469 96.28125 C 64.695312 96.121094 64.535156 95.957031 64.210938 95.957031 C 63.890625 95.957031 63.730469 96.441406 63.730469 96.761719 C 63.730469 97.085938 64.210938 97.246094 64.535156 97.246094 C 64.855469 97.246094 65.015625 96.925781 65.015625 96.761719 C 67.105469 96.28125 69.035156 95.636719 71.125 94.832031 C 71.289062 94.992188 71.609375 95.15625 71.769531 94.992188 C 72.089844 94.832031 72.253906 94.511719 72.089844 94.191406 C 71.769531 93.707031 71.449219 93.546875 71.125 93.707031 Z M 71.125 93.707031 " fill-opacity="1" fill-rule="nonzero"/><path fill="#ffffff" d="M 95.570312 66.371094 C 95.25 66.207031 94.925781 66.53125 94.765625 66.851562 C 94.765625 67.171875 94.765625 67.335938 95.085938 67.496094 C 92.191406 77.464844 85.921875 85.828125 77.078125 91.296875 C 76.917969 91.132812 76.59375 91.132812 76.433594 91.296875 C 76.113281 91.457031 76.113281 91.777344 76.273438 92.097656 C 76.433594 92.421875 76.753906 92.421875 77.078125 92.261719 C 77.238281 92.097656 77.398438 91.777344 77.398438 91.617188 C 81.742188 88.882812 85.601562 85.507812 88.65625 81.324219 C 91.871094 77.144531 94.121094 72.480469 95.570312 67.496094 C 95.890625 67.496094 96.054688 67.335938 96.054688 67.011719 C 96.214844 66.691406 95.890625 66.371094 95.570312 66.371094 Z M 95.570312 66.371094 " fill-opacity="1" fill-rule="nonzero"/><g clip-path="url(#93df3cffbe)"><path fill="#ffffff" d="M 96.855469 60.902344 C 97.019531 59.292969 97.179688 57.523438 97.179688 55.753906 C 97.179688 51.894531 96.695312 48.035156 95.570312 44.339844 C 94.605469 40.960938 93.320312 37.746094 91.550781 34.6875 C 91.710938 34.527344 91.710938 34.207031 91.550781 34.046875 C 91.390625 33.722656 91.066406 33.722656 90.746094 33.886719 C 90.425781 34.046875 90.425781 34.367188 90.585938 34.6875 C 90.746094 34.851562 91.066406 35.011719 91.226562 35.011719 C 94.925781 41.28125 96.855469 48.519531 96.855469 55.753906 C 96.855469 57.363281 96.695312 59.132812 96.535156 60.742188 C 96.214844 60.742188 96.054688 61.0625 96.054688 61.222656 C 96.054688 61.546875 96.214844 61.867188 96.535156 61.867188 C 96.855469 61.867188 97.179688 61.707031 97.179688 61.382812 C 97.179688 61.382812 97.019531 61.0625 96.855469 60.902344 Z M 96.855469 60.902344 " fill-opacity="1" fill-rule="nonzero"/></g><g clip-path="url(#0a56f1de7d)"><path fill="#ffffff" d="M 62.121094 15.390625 C 62.441406 15.390625 62.605469 15.230469 62.765625 15.070312 C 70.484375 16.515625 77.71875 20.054688 83.507812 25.363281 C 83.347656 25.523438 83.507812 25.84375 83.671875 26.003906 C 83.992188 26.167969 84.3125 26.167969 84.636719 26.003906 C 84.796875 25.683594 84.796875 25.363281 84.636719 25.039062 C 84.472656 24.878906 84.152344 24.878906 83.992188 24.878906 C 81.097656 22.144531 77.882812 19.894531 74.34375 18.285156 C 70.804688 16.515625 66.945312 15.230469 63.085938 14.425781 C 63.085938 14.105469 62.765625 13.945312 62.605469 13.945312 C 62.28125 13.945312 61.960938 14.105469 61.960938 14.425781 C 61.960938 14.75 61.640625 15.390625 62.121094 15.390625 Z M 62.121094 15.390625 " fill-opacity="1" fill-rule="nonzero"/></g><path fill="#ffffff" d="M 44.109375 94.511719 C 44.433594 94.671875 44.753906 94.351562 44.914062 94.027344 C 45.074219 93.707031 44.753906 93.386719 44.433594 93.226562 C 44.109375 93.226562 43.949219 93.226562 43.789062 93.386719 C 35.105469 90.8125 27.546875 85.183594 22.402344 77.625 C 22.5625 77.464844 22.5625 77.144531 22.402344 76.984375 C 22.238281 76.660156 21.757812 76.660156 21.597656 76.820312 C 21.273438 76.984375 21.273438 77.464844 21.4375 77.625 C 21.597656 77.789062 21.917969 77.949219 22.078125 77.789062 C 24.652344 81.648438 27.707031 84.863281 31.40625 87.597656 C 35.105469 90.332031 39.285156 92.421875 43.628906 93.867188 C 43.628906 94.191406 43.789062 94.351562 44.109375 94.511719 Z M 44.109375 94.511719 " fill-opacity="1" fill-rule="nonzero"/><path fill="#ffffff" d="M 79.488281 87.4375 C 79.648438 87.597656 79.972656 87.597656 80.292969 87.4375 C 80.613281 87.273438 80.613281 86.792969 80.453125 86.632812 C 80.292969 86.472656 79.8125 86.308594 79.648438 86.472656 C 79.488281 86.632812 79.328125 86.953125 79.488281 87.113281 C 72.574219 92.421875 64.371094 95.15625 55.527344 95.15625 C 54.5625 95.15625 53.597656 95.15625 52.632812 94.992188 C 52.632812 94.671875 52.3125 94.511719 52.152344 94.511719 C 51.828125 94.511719 51.507812 94.671875 51.507812 95.15625 C 51.507812 95.476562 51.667969 95.796875 52.152344 95.796875 C 52.472656 95.796875 52.632812 95.636719 52.792969 95.476562 C 53.757812 95.476562 54.722656 95.636719 55.6875 95.636719 C 60.191406 95.636719 64.695312 94.832031 69.035156 93.386719 C 72.414062 91.9375 76.113281 90.007812 79.488281 87.4375 Z M 79.488281 87.4375 " fill-opacity="1" fill-rule="nonzero"/><path fill="#ffffff" d="M 90.425781 75.535156 C 90.585938 75.214844 90.425781 74.890625 90.261719 74.730469 C 90.101562 74.570312 89.621094 74.730469 89.460938 74.890625 C 89.296875 75.054688 89.296875 75.375 89.460938 75.535156 C 88.171875 77.789062 86.566406 79.878906 84.957031 81.808594 C 84.796875 81.648438 84.472656 81.808594 84.3125 81.96875 C 84.152344 82.289062 84.152344 82.613281 84.3125 82.933594 C 84.472656 83.253906 84.957031 83.09375 85.277344 82.933594 C 85.4375 82.773438 85.4375 82.449219 85.4375 82.289062 C 87.207031 80.359375 88.65625 78.109375 90.101562 75.855469 C 89.941406 75.855469 90.261719 75.695312 90.425781 75.535156 Z M 90.425781 75.535156 " fill-opacity="1" fill-rule="nonzero"/><path fill="#ffffff" d="M 92.835938 43.375 C 92.515625 43.535156 92.355469 43.855469 92.355469 44.175781 C 92.515625 44.5 92.675781 44.660156 92.996094 44.660156 C 94.121094 48.359375 94.605469 52.058594 94.605469 55.917969 C 94.605469 60.582031 93.800781 65.082031 92.355469 69.265625 C 92.03125 69.265625 91.871094 69.425781 91.710938 69.585938 C 91.550781 69.90625 91.710938 70.230469 92.03125 70.390625 C 92.355469 70.550781 92.675781 70.390625 92.835938 70.066406 C 92.996094 69.746094 92.835938 69.585938 92.675781 69.425781 C 94.285156 65.082031 95.085938 60.582031 95.085938 55.917969 C 95.085938 52.058594 94.605469 48.199219 93.480469 44.5 C 93.640625 44.339844 93.800781 44.015625 93.640625 43.855469 C 93.480469 43.535156 93.15625 43.210938 92.835938 43.375 Z M 92.835938 43.375 " fill-opacity="1" fill-rule="nonzero"/><path fill="#ffffff" d="M 90.261719 37.101562 C 86.082031 29.222656 79.167969 22.949219 70.964844 19.410156 C 70.964844 19.089844 70.804688 18.929688 70.644531 18.769531 C 70.324219 18.609375 70 18.769531 69.839844 19.089844 C 69.679688 19.410156 69.839844 19.734375 70.160156 19.894531 C 70.484375 20.054688 70.644531 19.894531 70.804688 19.734375 C 78.847656 23.273438 85.601562 29.382812 89.78125 37.261719 C 89.621094 37.421875 89.621094 37.746094 89.621094 37.90625 C 89.78125 38.226562 90.101562 38.386719 90.425781 38.226562 C 90.746094 38.066406 90.90625 37.746094 90.746094 37.421875 C 90.90625 37.101562 90.585938 36.941406 90.261719 37.101562 Z M 90.261719 37.101562 " fill-opacity="1" fill-rule="nonzero"/><path fill="#ffffff" d="M 65.175781 17 C 64.855469 17 64.695312 17 64.535156 17.320312 C 61.476562 16.679688 58.421875 16.195312 55.207031 16.195312 C 51.507812 16.195312 47.96875 16.679688 44.433594 17.644531 C 41.214844 18.609375 38.160156 19.894531 35.265625 21.503906 C 35.105469 21.34375 34.78125 21.34375 34.621094 21.503906 C 34.460938 21.503906 34.300781 21.984375 34.460938 22.308594 C 34.621094 22.628906 34.945312 22.628906 35.265625 22.46875 C 35.425781 22.308594 35.585938 21.984375 35.585938 21.824219 C 41.539062 18.445312 48.292969 16.515625 55.207031 16.515625 C 58.261719 16.515625 61.316406 16.839844 64.371094 17.644531 C 64.371094 17.964844 64.535156 18.125 64.855469 18.125 C 65.175781 18.285156 65.5 17.964844 65.660156 17.644531 C 65.820312 17.320312 65.660156 17 65.175781 17 Z M 65.175781 17 " fill-opacity="1" fill-rule="nonzero"/><path fill="#ffffff" d="M 18.863281 40.480469 C 19.183594 40.640625 19.503906 40.480469 19.667969 40.15625 C 19.828125 39.835938 19.667969 39.675781 19.503906 39.515625 C 21.917969 34.207031 25.617188 29.382812 30.121094 25.683594 C 30.28125 25.84375 30.601562 25.84375 30.761719 25.683594 C 31.246094 25.363281 31.246094 24.878906 30.921875 24.71875 C 30.761719 24.398438 30.441406 24.398438 30.121094 24.558594 C 29.957031 24.71875 29.796875 25.039062 29.957031 25.203125 C 25.296875 29.0625 21.597656 33.886719 19.183594 39.351562 C 18.863281 39.351562 18.703125 39.515625 18.539062 39.675781 C 18.378906 39.996094 18.539062 40.316406 18.863281 40.480469 Z M 18.863281 40.480469 " fill-opacity="1" fill-rule="nonzero"/><path fill="#ffffff" d="M 24.007812 34.6875 C 23.6875 34.6875 23.527344 34.6875 23.367188 35.011719 C 23.203125 35.332031 23.203125 35.652344 23.527344 35.816406 C 23.847656 35.976562 24.167969 35.976562 24.332031 35.652344 C 24.492188 35.492188 24.492188 35.171875 24.332031 35.011719 C 28.511719 28.898438 34.460938 24.074219 41.214844 21.34375 C 41.375 21.503906 41.699219 21.664062 41.859375 21.503906 C 42.179688 21.34375 42.339844 21.019531 42.179688 20.699219 C 42.019531 20.378906 41.699219 20.214844 41.375 20.378906 C 41.054688 20.539062 40.894531 20.699219 40.894531 21.019531 C 37.675781 22.308594 34.460938 24.238281 31.566406 26.648438 C 28.671875 28.898438 26.097656 31.632812 24.007812 34.6875 Z M 24.007812 34.6875 " fill-opacity="1" fill-rule="nonzero"/><path fill="#ffffff" d="M 31.40625 85.667969 C 31.726562 85.828125 32.050781 85.828125 32.210938 85.507812 C 32.371094 85.183594 32.371094 84.863281 32.050781 84.703125 C 31.886719 84.542969 31.566406 84.542969 31.40625 84.703125 C 27.546875 81.484375 24.167969 77.304688 21.917969 72.800781 C 22.078125 72.640625 22.078125 72.320312 22.078125 72.160156 C 21.917969 71.675781 21.597656 71.515625 21.273438 71.675781 C 20.953125 71.835938 20.792969 72.160156 20.953125 72.480469 C 21.113281 72.800781 21.273438 72.800781 21.597656 72.800781 C 22.722656 75.054688 24.167969 77.304688 25.777344 79.394531 C 27.386719 81.324219 29.15625 83.253906 31.246094 84.863281 C 31.085938 85.183594 31.246094 85.507812 31.40625 85.667969 Z M 31.40625 85.667969 " fill-opacity="1" fill-rule="nonzero"/><path fill="#ffffff" d="M 38.964844 90.332031 C 39.285156 90.492188 39.445312 90.332031 39.609375 90.167969 C 44.109375 92.261719 48.933594 93.386719 54.082031 93.546875 C 54.242188 93.867188 54.402344 94.027344 54.722656 94.027344 C 55.046875 94.027344 55.367188 93.707031 55.367188 93.386719 C 55.367188 93.0625 55.046875 92.742188 54.722656 92.742188 C 54.402344 92.742188 54.242188 92.902344 54.082031 93.226562 C 49.09375 93.0625 44.269531 91.9375 39.769531 89.847656 C 39.769531 89.527344 39.609375 89.367188 39.445312 89.203125 C 39.125 89.042969 38.804688 89.203125 38.644531 89.527344 C 38.480469 89.847656 38.644531 90.167969 38.964844 90.332031 Z M 38.964844 90.332031 " fill-opacity="1" fill-rule="nonzero"/><path fill="#ffffff" d="M 60.191406 93.707031 C 60.511719 93.707031 60.675781 93.546875 60.675781 93.226562 C 63.246094 92.902344 65.820312 92.261719 68.230469 91.296875 C 70.644531 90.492188 72.894531 89.203125 75.148438 87.917969 C 75.308594 88.078125 75.628906 88.078125 75.949219 87.917969 C 76.273438 87.757812 76.273438 87.273438 76.113281 87.113281 C 75.949219 86.792969 75.46875 86.792969 75.308594 86.953125 C 75.148438 87.113281 74.984375 87.4375 74.984375 87.597656 C 70.644531 90.332031 65.820312 92.097656 60.675781 92.902344 C 60.511719 92.582031 60.191406 92.421875 60.03125 92.421875 C 59.710938 92.421875 59.386719 92.742188 59.546875 93.0625 C 59.710938 93.386719 59.871094 93.707031 60.191406 93.707031 Z M 60.191406 93.707031 " fill-opacity="1" fill-rule="nonzero"/><path fill="#ffffff" d="M 92.835938 62.832031 C 92.835938 62.511719 92.675781 62.1875 92.355469 62.027344 C 92.03125 61.867188 91.710938 62.1875 91.550781 62.511719 C 91.550781 62.832031 91.710938 62.992188 91.871094 63.152344 C 90.425781 70.230469 87.046875 76.660156 81.902344 81.808594 C 81.742188 81.648438 81.417969 81.808594 81.257812 81.96875 C 80.9375 82.289062 80.9375 82.613281 81.257812 82.933594 C 81.578125 83.253906 81.902344 83.253906 82.222656 82.933594 C 82.382812 82.773438 82.382812 82.449219 82.382812 82.289062 C 84.957031 79.71875 87.046875 76.820312 88.65625 73.605469 C 90.425781 70.390625 91.550781 66.851562 92.355469 63.3125 C 92.515625 63.3125 92.675781 63.152344 92.835938 62.832031 Z M 92.835938 62.832031 " fill-opacity="1" fill-rule="nonzero"/><path fill="#ffffff" d="M 87.367188 35.332031 C 87.207031 35.011719 86.726562 35.011719 86.566406 35.171875 C 86.242188 35.332031 86.242188 35.816406 86.402344 35.976562 C 86.566406 36.136719 86.886719 36.296875 87.046875 36.296875 C 90.746094 42.246094 92.675781 49 92.675781 55.917969 C 92.675781 56.238281 92.675781 56.558594 92.675781 56.71875 C 92.355469 56.71875 92.191406 57.042969 92.191406 57.363281 C 92.191406 57.683594 92.515625 58.007812 92.835938 58.007812 C 93.15625 58.007812 93.480469 57.683594 93.480469 57.363281 C 93.480469 57.042969 93.320312 56.882812 93.15625 56.71875 C 93.15625 56.398438 93.15625 56.078125 93.15625 55.917969 C 93.15625 48.839844 91.226562 42.085938 87.53125 36.136719 C 87.53125 35.816406 87.53125 35.652344 87.367188 35.332031 Z M 87.367188 35.332031 " fill-opacity="1" fill-rule="nonzero"/><path fill="#ffffff" d="M 82.707031 30.027344 C 80.777344 27.933594 78.523438 26.167969 76.273438 24.558594 C 75.308594 23.914062 74.183594 23.273438 73.054688 22.628906 C 73.054688 22.308594 72.894531 22.144531 72.734375 21.984375 C 72.414062 21.824219 72.089844 21.984375 71.929688 22.308594 C 71.769531 22.628906 71.929688 22.949219 72.253906 23.109375 C 72.574219 23.273438 72.734375 23.109375 72.894531 22.949219 C 74.019531 23.59375 74.984375 24.238281 76.113281 24.878906 C 78.363281 26.488281 80.613281 28.257812 82.542969 30.347656 C 82.382812 30.507812 82.382812 30.828125 82.707031 30.992188 C 82.867188 31.3125 83.347656 31.3125 83.671875 30.992188 C 83.992188 30.828125 83.992188 30.347656 83.671875 30.027344 C 83.1875 30.027344 83.027344 29.863281 82.707031 30.027344 Z M 82.707031 30.027344 " fill-opacity="1" fill-rule="nonzero"/><path fill="#ffffff" d="M 32.371094 82.128906 C 32.210938 81.96875 31.886719 81.96875 31.726562 82.128906 C 29.636719 80.199219 27.707031 78.109375 26.097656 75.695312 C 26.261719 75.535156 26.261719 75.214844 26.097656 74.890625 C 25.9375 74.570312 25.457031 74.570312 25.296875 74.730469 C 24.972656 74.890625 24.972656 75.375 25.132812 75.535156 C 25.296875 75.695312 25.617188 75.855469 25.777344 75.855469 C 27.386719 78.269531 29.316406 80.519531 31.40625 82.449219 C 31.246094 82.613281 31.40625 82.933594 31.566406 83.09375 C 31.886719 83.253906 32.210938 83.253906 32.371094 83.09375 C 32.53125 82.933594 32.691406 82.289062 32.371094 82.128906 Z M 32.371094 82.128906 " fill-opacity="1" fill-rule="nonzero"/><path fill="#ffffff" d="M 36.710938 86.632812 C 36.875 86.792969 37.195312 86.792969 37.355469 86.632812 C 39.929688 88.238281 42.824219 89.367188 45.71875 90.167969 C 45.71875 90.492188 45.878906 90.652344 46.199219 90.652344 C 46.523438 90.8125 46.84375 90.492188 47.003906 90.167969 C 47.164062 89.847656 46.84375 89.527344 46.523438 89.367188 C 46.199219 89.367188 46.039062 89.367188 45.878906 89.6875 C 42.984375 88.882812 40.25 87.757812 37.675781 86.148438 C 37.675781 85.828125 37.675781 85.667969 37.355469 85.507812 C 37.035156 85.34375 36.710938 85.34375 36.550781 85.667969 C 36.390625 85.988281 36.390625 86.472656 36.710938 86.632812 Z M 36.710938 86.632812 " fill-opacity="1" fill-rule="nonzero"/><path fill="#ffffff" d="M 66.464844 89.6875 C 66.625 89.847656 66.945312 90.007812 67.105469 89.847656 C 67.429688 89.6875 67.589844 89.367188 67.429688 89.042969 C 67.265625 88.722656 66.945312 88.5625 66.625 88.722656 C 66.300781 88.882812 66.140625 89.042969 66.140625 89.367188 C 62.605469 90.492188 58.90625 91.132812 55.046875 91.132812 C 54.082031 91.132812 53.117188 91.132812 52.152344 90.972656 C 52.152344 90.652344 51.828125 90.492188 51.667969 90.492188 C 51.347656 90.492188 51.023438 90.652344 51.023438 90.972656 C 51.023438 91.296875 51.1875 91.617188 51.507812 91.617188 C 51.828125 91.617188 51.988281 91.457031 52.152344 91.296875 C 53.117188 91.457031 54.082031 91.457031 55.046875 91.457031 C 59.066406 91.457031 62.925781 90.972656 66.464844 89.6875 Z M 66.464844 89.6875 " fill-opacity="1" fill-rule="nonzero"/><path fill="#ffffff" d="M 83.832031 77.144531 C 84.152344 77.144531 84.3125 77.144531 84.472656 76.984375 C 84.636719 76.660156 84.636719 76.339844 84.3125 76.179688 C 83.992188 76.019531 83.671875 76.019531 83.507812 76.339844 C 83.347656 76.5 83.347656 76.820312 83.507812 76.984375 C 80.613281 80.84375 76.917969 84.058594 72.894531 86.472656 C 72.734375 86.308594 72.414062 86.308594 72.253906 86.472656 C 71.929688 86.632812 71.769531 86.953125 71.929688 87.273438 C 72.089844 87.597656 72.414062 87.757812 72.734375 87.597656 C 72.894531 87.4375 73.054688 87.273438 73.054688 86.953125 C 75.148438 85.667969 77.078125 84.378906 79.007812 82.613281 C 80.777344 80.84375 82.382812 79.074219 83.832031 77.144531 Z M 83.832031 77.144531 " fill-opacity="1" fill-rule="nonzero"/><path fill="#ffffff" d="M 89.136719 45.464844 C 88.816406 45.625 88.65625 45.945312 88.65625 46.269531 C 88.65625 46.589844 88.976562 46.75 89.296875 46.75 C 90.101562 49.804688 90.585938 52.859375 90.585938 55.917969 C 90.585938 59.777344 89.941406 63.636719 88.816406 67.171875 C 88.496094 67.171875 88.332031 67.335938 88.171875 67.65625 C 88.011719 67.976562 88.171875 68.300781 88.496094 68.460938 C 88.816406 68.621094 89.136719 68.460938 89.296875 68.136719 C 89.460938 67.816406 89.296875 67.65625 89.136719 67.496094 C 90.425781 63.796875 91.066406 59.9375 91.066406 56.078125 C 91.066406 52.859375 90.585938 49.804688 89.78125 46.75 C 89.941406 46.589844 90.101562 46.269531 89.941406 46.105469 C 89.78125 45.625 89.460938 45.304688 89.136719 45.464844 Z M 89.136719 45.464844 " fill-opacity="1" fill-rule="nonzero"/><path fill="#ffffff" d="M 87.207031 40.15625 C 86.242188 38.066406 84.957031 36.296875 83.671875 34.367188 C 82.382812 32.597656 80.777344 30.992188 79.167969 29.382812 C 79.328125 29.222656 79.167969 28.898438 79.007812 28.738281 C 78.683594 28.578125 78.363281 28.578125 78.203125 28.738281 C 77.882812 29.0625 77.882812 29.542969 78.203125 29.703125 C 78.363281 29.863281 78.683594 29.863281 78.847656 29.703125 C 82.222656 32.757812 84.796875 36.296875 86.886719 40.15625 C 86.726562 40.316406 86.726562 40.640625 86.726562 40.800781 C 86.886719 41.121094 87.207031 41.28125 87.53125 41.121094 C 87.851562 40.960938 88.011719 40.640625 87.851562 40.316406 C 87.691406 40.15625 87.53125 40.15625 87.207031 40.15625 Z M 87.207031 40.15625 " fill-opacity="1" fill-rule="nonzero"/><path fill="#ffffff" d="M 64.371094 21.019531 C 64.050781 20.859375 63.730469 21.179688 63.570312 21.503906 C 63.40625 21.824219 63.730469 22.144531 64.050781 22.308594 C 64.371094 22.308594 64.535156 22.308594 64.695312 21.984375 C 67.589844 22.789062 70.324219 23.914062 72.894531 25.363281 C 72.894531 25.683594 72.894531 25.84375 73.21875 26.003906 C 73.539062 26.167969 73.859375 26.167969 74.019531 25.84375 C 74.183594 25.523438 74.183594 25.203125 73.859375 25.039062 C 73.539062 24.878906 73.21875 24.878906 73.054688 25.039062 C 70.484375 23.59375 67.75 22.308594 64.855469 21.503906 C 64.855469 21.34375 64.695312 21.019531 64.371094 21.019531 Z M 64.371094 21.019531 " fill-opacity="1" fill-rule="nonzero"/><path fill="#ffffff" d="M 58.90625 20.054688 C 58.582031 20.054688 58.421875 20.214844 58.261719 20.378906 C 57.296875 20.214844 56.332031 20.214844 55.367188 20.214844 C 52.472656 20.214844 49.738281 20.539062 47.003906 21.179688 C 46.363281 21.34375 45.558594 21.503906 44.914062 21.824219 C 40.734375 23.109375 36.875 25.203125 33.335938 27.933594 C 33.175781 27.773438 32.851562 27.773438 32.53125 27.933594 C 32.210938 28.097656 32.210938 28.578125 32.371094 28.738281 C 32.53125 29.0625 33.015625 29.0625 33.175781 28.898438 C 33.335938 28.738281 33.496094 28.417969 33.335938 28.257812 C 36.710938 25.523438 40.574219 23.59375 44.753906 22.308594 C 45.398438 22.144531 46.199219 21.984375 46.84375 21.664062 C 49.578125 21.019531 52.3125 20.699219 55.046875 20.699219 C 56.011719 20.699219 56.976562 20.699219 57.941406 20.859375 C 57.941406 21.179688 58.261719 21.34375 58.421875 21.34375 C 58.746094 21.34375 59.066406 21.179688 59.066406 20.859375 C 59.546875 20.378906 59.226562 20.054688 58.90625 20.054688 Z M 58.90625 20.054688 " fill-opacity="1" fill-rule="nonzero"/><path fill="#ffffff" d="M 62.28125 89.042969 C 62.605469 89.042969 62.765625 88.722656 62.765625 88.5625 C 67.105469 87.597656 71.125 85.828125 74.824219 83.09375 C 76.59375 81.808594 78.363281 80.199219 79.972656 78.589844 C 81.417969 77.144531 82.707031 75.375 83.832031 73.605469 C 84.152344 73.605469 84.3125 73.605469 84.472656 73.285156 C 84.636719 72.960938 84.636719 72.640625 84.3125 72.480469 C 83.992188 72.320312 83.671875 72.320312 83.507812 72.640625 C 83.347656 72.800781 83.347656 73.125 83.507812 73.285156 C 78.847656 80.683594 71.449219 85.988281 62.925781 87.917969 C 62.765625 87.757812 62.605469 87.597656 62.28125 87.597656 C 61.960938 87.597656 61.800781 87.917969 61.800781 88.402344 C 61.640625 88.882812 61.960938 89.203125 62.28125 89.042969 Z M 62.28125 89.042969 " fill-opacity="1" fill-rule="nonzero"/><path fill="#ffffff" d="M 88.816406 60.742188 C 88.816406 60.417969 88.65625 60.097656 88.332031 60.097656 C 88.011719 60.097656 87.691406 60.257812 87.691406 60.582031 C 87.691406 60.902344 87.851562 61.0625 88.011719 61.222656 C 87.53125 63.957031 86.726562 66.691406 85.601562 69.265625 C 85.277344 69.265625 85.117188 69.425781 84.957031 69.585938 C 84.796875 69.90625 84.957031 70.230469 85.277344 70.390625 C 85.601562 70.550781 85.921875 70.390625 86.082031 70.066406 C 86.242188 69.746094 86.082031 69.585938 85.921875 69.425781 C 87.046875 66.851562 87.851562 64.117188 88.332031 61.222656 C 88.65625 61.222656 88.816406 61.0625 88.816406 60.742188 Z M 88.816406 60.742188 " fill-opacity="1" fill-rule="nonzero"/><path fill="#ffffff" d="M 85.921875 42.246094 C 86.082031 42.085938 86.242188 41.765625 86.082031 41.605469 C 85.921875 41.28125 85.601562 41.121094 85.277344 41.28125 C 84.957031 41.445312 84.796875 41.765625 84.957031 42.085938 C 85.117188 42.410156 85.277344 42.410156 85.601562 42.410156 C 86.082031 43.695312 86.566406 44.980469 87.046875 46.269531 C 87.851562 49 88.332031 51.734375 88.332031 54.46875 C 88.011719 54.628906 87.851562 54.789062 87.851562 55.113281 C 87.851562 55.433594 88.171875 55.753906 88.496094 55.753906 C 88.816406 55.753906 89.136719 55.433594 89.136719 55.113281 C 89.136719 54.789062 88.976562 54.628906 88.65625 54.46875 C 88.496094 51.574219 88.011719 48.839844 87.207031 46.105469 C 87.046875 44.980469 86.566406 43.535156 85.921875 42.246094 Z M 85.921875 42.246094 " fill-opacity="1" fill-rule="nonzero"/><path fill="#ffffff" d="M 83.1875 38.871094 C 83.347656 39.191406 83.832031 39.191406 83.992188 39.03125 C 84.3125 38.871094 84.3125 38.386719 84.152344 38.226562 C 83.992188 38.066406 83.671875 37.90625 83.507812 37.90625 C 80.777344 33.722656 77.238281 30.027344 72.894531 27.453125 C 72.894531 27.132812 72.894531 26.96875 72.574219 26.808594 C 72.253906 26.648438 71.929688 26.808594 71.769531 26.96875 C 71.609375 27.292969 71.769531 27.613281 71.929688 27.773438 C 72.089844 27.933594 72.414062 27.933594 72.574219 27.773438 C 76.753906 30.347656 80.292969 33.886719 83.027344 38.066406 C 83.027344 38.226562 83.027344 38.546875 83.1875 38.871094 Z M 83.1875 38.871094 " fill-opacity="1" fill-rule="nonzero"/><path fill="#ffffff" d="M 67.429688 24.238281 C 67.105469 24.074219 66.945312 24.238281 66.785156 24.398438 C 63.570312 23.273438 60.03125 22.46875 56.652344 22.46875 C 56.492188 22.144531 56.332031 21.984375 56.011719 21.984375 C 55.6875 21.984375 55.367188 22.308594 55.367188 22.628906 C 55.367188 22.949219 55.6875 23.273438 56.011719 23.273438 C 56.332031 23.273438 56.492188 23.109375 56.652344 22.789062 C 60.03125 22.949219 63.40625 23.59375 66.625 24.71875 C 66.625 25.039062 66.785156 25.203125 66.945312 25.363281 C 67.265625 25.523438 67.589844 25.363281 67.75 25.039062 C 67.910156 24.71875 67.75 24.238281 67.429688 24.238281 Z M 67.429688 24.238281 " fill-opacity="1" fill-rule="nonzero"/><path fill="#ffffff" d="M 50.222656 22.308594 C 49.898438 22.308594 49.738281 22.628906 49.738281 22.789062 C 47.003906 23.273438 44.269531 24.074219 41.699219 25.203125 C 41.539062 25.039062 41.214844 24.878906 41.054688 25.039062 C 40.734375 25.203125 40.574219 25.523438 40.734375 25.84375 C 40.894531 26.167969 41.214844 26.328125 41.539062 26.167969 C 41.859375 26.003906 41.859375 25.84375 41.859375 25.523438 C 44.433594 24.398438 47.003906 23.59375 49.738281 23.109375 C 49.898438 23.273438 50.058594 23.433594 50.382812 23.433594 C 50.703125 23.433594 51.023438 23.109375 50.863281 22.789062 C 50.863281 22.46875 50.542969 22.308594 50.222656 22.308594 Z M 50.222656 22.308594 " fill-opacity="1" fill-rule="nonzero"/><path fill="#ffffff" d="M 26.582031 38.546875 C 26.261719 38.546875 26.097656 38.546875 25.9375 38.871094 C 25.777344 39.191406 25.9375 39.515625 26.097656 39.675781 C 26.421875 39.835938 26.742188 39.675781 26.902344 39.515625 C 27.0625 39.351562 27.0625 39.03125 26.902344 38.871094 C 29.15625 35.171875 32.210938 31.792969 35.585938 29.222656 C 35.746094 29.382812 36.070312 29.382812 36.230469 29.222656 C 36.550781 29.0625 36.550781 28.578125 36.390625 28.417969 C 36.230469 28.097656 35.746094 28.097656 35.585938 28.257812 C 35.425781 28.417969 35.265625 28.738281 35.425781 28.898438 C 33.65625 30.1875 32.050781 31.632812 30.441406 33.242188 C 28.992188 34.851562 27.707031 36.78125 26.582031 38.546875 Z M 26.582031 38.546875 " fill-opacity="1" fill-rule="nonzero"/><path fill="#ffffff" d="M 39.609375 85.988281 C 39.929688 86.148438 40.25 85.988281 40.410156 85.667969 C 40.574219 85.34375 40.410156 85.023438 40.089844 84.863281 C 39.769531 84.703125 39.609375 84.863281 39.445312 85.023438 C 33.980469 82.128906 29.476562 77.789062 26.421875 72.320312 C 26.582031 72.160156 26.582031 71.835938 26.582031 71.675781 C 26.421875 71.355469 26.097656 71.195312 25.777344 71.355469 C 25.457031 71.515625 25.296875 71.835938 25.457031 72.160156 C 25.617188 72.320312 25.777344 72.480469 26.097656 72.480469 C 27.707031 75.214844 29.476562 77.625 31.726562 79.878906 C 33.980469 82.128906 36.390625 83.898438 39.125 85.34375 C 39.285156 85.667969 39.445312 85.988281 39.609375 85.988281 Z M 39.609375 85.988281 " fill-opacity="1" fill-rule="nonzero"/><path fill="#ffffff" d="M 45.234375 88.402344 C 45.558594 88.402344 45.71875 88.402344 45.878906 88.238281 C 48.933594 89.042969 51.988281 89.527344 55.207031 89.527344 C 55.527344 89.527344 55.847656 89.527344 56.011719 89.527344 C 56.171875 89.6875 56.332031 90.007812 56.652344 89.847656 C 56.976562 89.847656 57.296875 89.527344 57.296875 89.203125 C 57.296875 88.882812 56.976562 88.5625 56.652344 88.5625 C 56.332031 88.5625 56.171875 88.722656 56.011719 89.042969 C 55.6875 89.042969 55.367188 89.042969 55.207031 89.042969 C 52.152344 89.042969 48.933594 88.5625 46.039062 87.757812 C 46.039062 87.4375 45.878906 87.273438 45.558594 87.113281 C 45.234375 86.953125 44.914062 87.273438 44.753906 87.597656 C 44.753906 87.917969 44.914062 88.238281 45.234375 88.402344 Z M 45.234375 88.402344 " fill-opacity="1" fill-rule="nonzero"/><path fill="#ffffff" d="M 70.804688 82.773438 C 70.644531 82.613281 70.324219 82.613281 70.160156 82.773438 C 69.839844 82.773438 69.679688 83.253906 69.839844 83.578125 C 70 83.898438 70.324219 84.058594 70.644531 83.898438 C 70.804688 83.738281 70.964844 83.578125 70.964844 83.253906 C 73.699219 81.648438 76.113281 79.71875 78.203125 77.464844 C 80.292969 75.214844 82.0625 72.640625 83.507812 69.746094 C 83.832031 69.746094 83.992188 69.585938 84.152344 69.425781 C 84.3125 69.101562 84.152344 68.78125 83.832031 68.621094 C 83.507812 68.460938 83.1875 68.621094 83.027344 68.941406 C 82.867188 69.265625 83.027344 69.425781 83.1875 69.585938 C 80.613281 74.890625 76.113281 79.71875 70.804688 82.773438 Z M 70.804688 82.773438 " fill-opacity="1" fill-rule="nonzero"/><path fill="#ffffff" d="M 87.046875 54.308594 C 87.046875 53.988281 86.726562 53.664062 86.402344 53.664062 C 86.082031 53.664062 85.761719 53.988281 85.761719 54.308594 C 85.761719 54.628906 85.921875 54.789062 86.242188 54.953125 C 86.242188 55.273438 86.242188 55.59375 86.242188 55.917969 C 86.242188 58.328125 85.921875 60.742188 85.4375 62.992188 C 85.117188 62.992188 84.957031 63.152344 84.957031 63.476562 C 84.796875 63.796875 85.117188 64.117188 85.4375 64.277344 C 85.761719 64.441406 86.082031 64.117188 86.242188 63.796875 C 86.242188 63.476562 86.242188 63.3125 85.921875 63.152344 C 86.402344 60.742188 86.726562 58.328125 86.726562 55.917969 C 86.726562 55.59375 86.726562 55.273438 86.726562 54.953125 C 86.886719 54.789062 87.046875 54.628906 87.046875 54.308594 Z M 87.046875 54.308594 " fill-opacity="1" fill-rule="nonzero"/><path fill="#ffffff" d="M 85.117188 49.164062 C 85.117188 49.484375 85.601562 49.644531 85.921875 49.644531 C 86.242188 49.644531 86.402344 49.164062 86.402344 48.839844 C 86.402344 48.519531 86.082031 48.359375 85.921875 48.359375 C 85.117188 45.140625 83.832031 42.246094 82.222656 39.351562 C 82.382812 39.191406 82.382812 38.871094 82.222656 38.546875 C 82.0625 38.226562 81.578125 38.226562 81.417969 38.386719 C 81.097656 38.546875 81.097656 39.03125 81.257812 39.191406 C 81.417969 39.351562 81.742188 39.515625 81.902344 39.515625 C 83.507812 42.246094 84.796875 45.140625 85.601562 48.359375 C 85.277344 48.679688 85.117188 48.839844 85.117188 49.164062 Z M 85.117188 49.164062 " fill-opacity="1" fill-rule="nonzero"/><path fill="#ffffff" d="M 64.371094 25.363281 C 64.050781 25.203125 63.730469 25.523438 63.570312 25.84375 C 63.570312 26.167969 63.730469 26.488281 64.050781 26.488281 C 64.371094 26.488281 64.535156 26.488281 64.695312 26.328125 C 69.359375 27.773438 73.539062 30.347656 77.078125 33.886719 C 76.917969 34.046875 77.078125 34.367188 77.238281 34.527344 C 77.398438 34.851562 77.882812 34.851562 78.203125 34.527344 C 78.523438 34.207031 78.523438 33.886719 78.203125 33.5625 C 78.042969 33.402344 77.71875 33.242188 77.558594 33.402344 C 74.019531 29.863281 69.679688 27.292969 65.015625 25.84375 C 64.855469 25.683594 64.695312 25.363281 64.371094 25.363281 Z M 64.371094 25.363281 " fill-opacity="1" fill-rule="nonzero"/><path fill="#ffffff" d="M 58.746094 25.523438 C 59.066406 25.523438 59.386719 25.363281 59.386719 25.039062 C 59.386719 24.71875 59.226562 24.398438 58.90625 24.398438 C 58.582031 24.398438 58.421875 24.558594 58.261719 24.71875 C 57.296875 24.558594 56.332031 24.558594 55.207031 24.558594 C 53.277344 24.558594 51.347656 24.71875 49.417969 25.039062 C 49.257812 24.878906 49.09375 24.71875 48.773438 24.71875 C 48.453125 24.71875 48.292969 25.203125 48.292969 25.523438 C 48.292969 25.84375 48.773438 26.003906 49.09375 26.003906 C 49.417969 26.003906 49.578125 25.683594 49.578125 25.523438 C 51.507812 25.039062 53.4375 24.878906 55.367188 24.878906 C 56.332031 24.878906 57.296875 24.878906 58.261719 25.039062 C 58.261719 25.203125 58.421875 25.523438 58.746094 25.523438 Z M 58.746094 25.523438 " fill-opacity="1" fill-rule="nonzero"/><path fill="#ffffff" d="M 42.339844 27.773438 C 42.503906 27.933594 42.824219 28.097656 42.984375 27.933594 C 43.304688 27.773438 43.46875 27.453125 43.304688 27.132812 C 43.144531 26.808594 42.824219 26.648438 42.503906 26.808594 C 42.179688 26.96875 42.179688 27.132812 42.179688 27.453125 C 37.515625 29.542969 33.335938 32.921875 30.28125 37.101562 C 29.957031 37.101562 29.796875 37.101562 29.636719 37.261719 C 29.476562 37.582031 29.476562 37.90625 29.796875 38.066406 C 30.121094 38.226562 30.441406 38.226562 30.601562 37.90625 C 30.761719 37.746094 30.761719 37.421875 30.601562 37.261719 C 33.65625 33.082031 37.675781 29.863281 42.339844 27.773438 Z M 42.339844 27.773438 " fill-opacity="1" fill-rule="nonzero"/><path fill="#ffffff" d="M 31.40625 76.984375 C 31.566406 77.304688 32.050781 77.304688 32.371094 76.984375 C 32.691406 76.820312 32.691406 76.339844 32.371094 76.019531 C 32.210938 75.855469 31.886719 75.695312 31.726562 75.855469 C 29.636719 73.445312 28.027344 70.871094 26.902344 67.976562 C 27.0625 67.816406 27.226562 67.496094 27.0625 67.335938 C 26.902344 67.011719 26.582031 66.851562 26.261719 67.011719 C 25.9375 67.171875 25.777344 67.496094 25.9375 67.816406 C 25.9375 68.136719 26.097656 68.300781 26.421875 68.300781 C 27.707031 71.195312 29.316406 73.765625 31.40625 76.179688 C 31.246094 76.5 31.246094 76.820312 31.40625 76.984375 Z M 31.40625 76.984375 " fill-opacity="1" fill-rule="nonzero"/><path fill="#ffffff" d="M 37.355469 81.808594 C 40.574219 84.058594 44.109375 85.667969 47.808594 86.472656 C 47.808594 86.792969 47.96875 86.953125 48.292969 86.953125 C 48.613281 86.953125 48.933594 86.792969 49.09375 86.472656 C 49.09375 86.148438 48.933594 85.828125 48.613281 85.667969 C 48.292969 85.667969 48.128906 85.667969 47.96875 85.988281 C 44.269531 85.023438 40.894531 83.578125 37.675781 81.324219 C 37.675781 81.003906 37.675781 80.84375 37.515625 80.683594 C 37.195312 80.519531 36.875 80.519531 36.710938 80.84375 C 36.550781 81.164062 36.550781 81.484375 36.875 81.648438 C 36.875 81.96875 37.195312 81.96875 37.355469 81.808594 Z M 37.355469 81.808594 " fill-opacity="1" fill-rule="nonzero"/><path fill="#ffffff" d="M 65.335938 86.148438 C 65.660156 85.988281 65.820312 85.667969 65.660156 85.34375 C 65.5 85.023438 65.175781 84.863281 64.855469 85.023438 C 64.535156 85.183594 64.371094 85.34375 64.371094 85.667969 C 61.476562 86.632812 58.261719 87.113281 55.207031 87.113281 C 54.882812 87.113281 54.5625 87.113281 54.402344 87.113281 C 54.402344 86.792969 54.082031 86.632812 53.757812 86.632812 C 53.4375 86.632812 53.117188 86.953125 53.117188 87.273438 C 53.117188 87.597656 53.4375 87.917969 53.757812 87.917969 C 54.082031 87.917969 54.242188 87.757812 54.402344 87.597656 C 54.722656 87.597656 55.046875 87.597656 55.207031 87.597656 C 58.421875 87.597656 61.476562 87.113281 64.535156 86.148438 C 64.695312 86.148438 65.015625 86.148438 65.335938 86.148438 Z M 65.335938 86.148438 " fill-opacity="1" fill-rule="nonzero"/><path fill="#ffffff" d="M 41.054688 31.152344 C 41.214844 30.992188 41.375 30.828125 41.375 30.507812 C 44.753906 28.738281 48.292969 27.453125 52.152344 27.132812 C 52.3125 27.292969 52.472656 27.453125 52.792969 27.453125 C 53.117188 27.453125 53.4375 27.132812 53.4375 26.808594 C 53.4375 26.488281 53.117188 26.167969 52.792969 26.167969 C 52.472656 26.167969 52.3125 26.328125 52.3125 26.648438 C 48.453125 27.132812 44.753906 28.257812 41.375 30.1875 C 41.214844 30.027344 40.894531 30.027344 40.574219 30.1875 C 40.25 30.347656 40.25 30.667969 40.410156 30.992188 C 40.25 31.3125 40.734375 31.3125 41.054688 31.152344 Z M 41.054688 31.152344 " fill-opacity="1" fill-rule="nonzero"/><path fill="#ffffff" d="M 33.015625 75.054688 C 34.945312 77.144531 37.035156 79.074219 39.445312 80.683594 C 39.445312 81.003906 39.445312 81.164062 39.769531 81.324219 C 40.089844 81.484375 40.410156 81.324219 40.574219 81.164062 C 40.734375 81.003906 40.574219 80.519531 40.410156 80.359375 C 40.25 80.199219 39.929688 80.199219 39.769531 80.359375 C 37.355469 78.914062 35.265625 76.984375 33.335938 74.890625 C 33.496094 74.730469 33.496094 74.410156 33.335938 74.25 C 33.175781 73.925781 32.691406 73.925781 32.53125 74.089844 C 32.210938 74.25 32.210938 74.730469 32.371094 74.890625 C 32.53125 75.214844 32.851562 75.214844 33.015625 75.054688 Z M 33.015625 75.054688 " fill-opacity="1" fill-rule="nonzero"/><path fill="#ffffff" d="M 45.234375 83.898438 C 45.558594 84.058594 45.71875 83.898438 45.878906 83.738281 C 48.933594 84.703125 51.988281 85.183594 55.207031 85.183594 C 56.171875 85.183594 57.136719 85.183594 58.261719 85.023438 C 58.421875 85.183594 58.582031 85.34375 58.90625 85.34375 C 59.226562 85.34375 59.546875 85.023438 59.386719 84.703125 C 59.386719 84.378906 59.066406 84.058594 58.746094 84.21875 C 58.421875 84.21875 58.261719 84.378906 58.261719 84.703125 C 57.296875 84.863281 56.332031 84.863281 55.367188 84.863281 C 52.152344 84.863281 49.09375 84.378906 46.199219 83.414062 C 46.199219 83.09375 46.039062 82.933594 45.71875 82.773438 C 45.398438 82.613281 45.074219 82.773438 44.914062 83.09375 C 44.753906 83.414062 44.914062 83.738281 45.234375 83.898438 Z M 45.234375 83.898438 " fill-opacity="1" fill-rule="nonzero"/><path fill="#ffffff" d="M 64.371094 84.21875 C 64.695312 84.058594 64.855469 83.898438 64.855469 83.578125 C 69.519531 81.96875 73.699219 79.234375 76.917969 75.535156 C 77.078125 75.695312 77.398438 75.535156 77.558594 75.375 C 77.71875 75.054688 77.71875 74.730469 77.558594 74.570312 C 77.238281 74.410156 76.917969 74.410156 76.753906 74.570312 C 76.59375 74.730469 76.59375 75.054688 76.753906 75.214844 C 73.539062 78.753906 69.359375 81.484375 64.855469 83.09375 C 64.695312 82.933594 64.371094 82.773438 64.210938 82.933594 C 63.890625 83.09375 63.730469 83.414062 63.730469 83.738281 C 63.730469 84.058594 64.050781 84.378906 64.371094 84.21875 Z M 64.371094 84.21875 " fill-opacity="1" fill-rule="nonzero"/><path fill="#ffffff" d="M 84.796875 52.21875 C 84.796875 51.894531 84.472656 51.574219 84.152344 51.734375 C 83.832031 51.734375 83.507812 52.058594 83.671875 52.378906 C 83.671875 52.699219 83.832031 52.859375 84.152344 52.859375 C 84.3125 53.824219 84.3125 54.789062 84.3125 55.753906 C 84.3125 60.417969 83.1875 65.082031 81.097656 69.101562 C 80.777344 69.101562 80.613281 69.101562 80.453125 69.425781 C 80.292969 69.746094 80.453125 70.066406 80.777344 70.230469 C 81.097656 70.390625 81.417969 70.230469 81.578125 69.90625 C 81.742188 69.746094 81.742188 69.425781 81.417969 69.101562 C 82.382812 67.171875 83.1875 65.082031 83.832031 62.992188 C 84.472656 60.582031 84.796875 58.007812 84.796875 55.59375 C 84.796875 54.628906 84.796875 53.664062 84.636719 52.539062 C 84.796875 52.859375 84.957031 52.539062 84.796875 52.21875 Z M 84.796875 52.21875 " fill-opacity="1" fill-rule="nonzero"/><path fill="#ffffff" d="M 82.867188 44.660156 C 82.707031 44.339844 82.542969 44.175781 82.222656 44.339844 C 80.132812 39.675781 76.917969 35.492188 72.894531 32.4375 C 68.714844 29.222656 63.730469 27.292969 58.582031 26.808594 C 58.582031 26.488281 58.261719 26.328125 58.101562 26.328125 C 57.777344 26.328125 57.457031 26.488281 57.457031 26.96875 C 57.457031 27.453125 57.617188 27.613281 58.101562 27.613281 C 58.421875 27.613281 58.582031 27.453125 58.746094 27.292969 C 69.035156 28.417969 77.882812 35.011719 82.0625 44.660156 C 81.902344 44.820312 81.742188 45.140625 81.902344 45.304688 C 82.0625 45.625 82.382812 45.785156 82.707031 45.625 C 82.867188 45.304688 83.027344 44.980469 82.867188 44.660156 Z M 82.867188 44.660156 " fill-opacity="1" fill-rule="nonzero"/><path fill="#ffffff" d="M 67.429688 19.734375 C 67.105469 19.574219 66.945312 19.734375 66.785156 19.894531 C 65.175781 19.410156 63.40625 18.929688 61.640625 18.609375 C 59.546875 18.445312 57.457031 18.125 55.367188 18.125 C 53.597656 18.125 51.988281 18.285156 50.222656 18.445312 C 50.058594 18.285156 49.898438 18.125 49.578125 18.125 C 49.257812 18.125 48.933594 18.445312 49.09375 18.769531 C 49.09375 19.089844 49.417969 19.410156 49.738281 19.25 C 50.058594 19.25 50.222656 18.929688 50.222656 18.769531 C 51.828125 18.609375 53.597656 18.445312 55.207031 18.445312 C 57.296875 18.445312 59.386719 18.609375 61.476562 18.929688 C 63.246094 19.25 64.855469 19.574219 66.464844 20.214844 C 66.464844 20.539062 66.625 20.699219 66.945312 20.859375 C 67.265625 21.019531 67.589844 20.859375 67.75 20.539062 C 67.910156 20.214844 67.75 19.894531 67.429688 19.734375 Z M 67.429688 19.734375 " fill-opacity="1" fill-rule="nonzero"/><path fill="#ffffff" d="M 33.015625 71.675781 C 36.550781 76.820312 41.859375 80.519531 47.808594 82.128906 C 47.808594 82.449219 47.96875 82.613281 48.292969 82.613281 C 48.613281 82.773438 48.933594 82.449219 49.09375 82.128906 C 49.257812 81.808594 48.933594 81.484375 48.613281 81.324219 C 48.292969 81.324219 48.128906 81.324219 47.96875 81.648438 C 42.019531 80.039062 36.875 76.339844 33.335938 71.355469 C 33.496094 71.195312 33.496094 70.871094 33.335938 70.710938 C 33.175781 70.390625 32.691406 70.390625 32.53125 70.550781 C 32.371094 70.710938 32.210938 71.195312 32.371094 71.355469 C 32.371094 71.515625 32.691406 71.675781 33.015625 71.675781 Z M 33.015625 71.675781 " fill-opacity="1" fill-rule="nonzero"/><path fill="#ffffff" d="M 65.335938 81.648438 C 65.660156 81.484375 65.820312 81.164062 65.660156 80.84375 C 65.5 80.519531 65.175781 80.359375 64.855469 80.519531 C 64.535156 80.683594 64.535156 80.84375 64.535156 81.164062 C 61.640625 82.289062 58.421875 82.773438 55.367188 82.773438 C 55.046875 82.773438 54.722656 82.773438 54.402344 82.773438 C 54.402344 82.449219 54.082031 82.289062 53.757812 82.289062 C 53.4375 82.289062 53.117188 82.613281 53.117188 82.933594 C 53.117188 83.253906 53.4375 83.578125 53.757812 83.578125 C 54.082031 83.578125 54.242188 83.414062 54.402344 83.253906 C 54.722656 83.253906 55.046875 83.253906 55.367188 83.253906 C 58.582031 83.253906 61.800781 82.773438 64.695312 81.648438 C 64.855469 81.648438 65.175781 81.808594 65.335938 81.648438 Z M 65.335938 81.648438 " fill-opacity="1" fill-rule="nonzero"/><path fill="#ffffff" d="M 80.613281 67.171875 C 80.777344 66.851562 80.613281 66.53125 80.292969 66.371094 C 79.972656 66.207031 79.648438 66.371094 79.488281 66.691406 C 79.328125 67.011719 79.488281 67.171875 79.648438 67.335938 C 77.558594 71.515625 74.503906 75.214844 70.644531 77.949219 C 70.484375 77.789062 70.160156 77.789062 70 77.949219 C 69.679688 78.109375 69.679688 78.589844 69.839844 78.753906 C 70 79.074219 70.484375 79.074219 70.644531 78.914062 C 70.804688 78.753906 70.964844 78.429688 70.964844 78.269531 C 74.984375 75.535156 78.042969 71.835938 80.132812 67.496094 C 80.292969 67.496094 80.453125 67.335938 80.613281 67.171875 Z M 80.613281 67.171875 " fill-opacity="1" fill-rule="nonzero"/><path fill="#ffffff" d="M 81.578125 59.292969 C 81.578125 59.617188 81.742188 59.9375 82.0625 59.9375 C 82.382812 59.9375 82.707031 59.777344 82.707031 59.453125 C 82.707031 59.132812 82.542969 58.972656 82.382812 58.8125 C 82.542969 57.847656 82.542969 56.882812 82.542969 55.753906 C 82.542969 53.664062 82.222656 51.574219 81.742188 49.484375 C 81.257812 47.714844 80.777344 45.945312 79.972656 44.339844 C 80.132812 44.175781 80.132812 43.855469 80.132812 43.695312 C 79.972656 43.375 79.648438 43.210938 79.328125 43.375 C 79.007812 43.535156 78.847656 43.855469 79.007812 44.175781 C 79.167969 44.339844 79.328125 44.5 79.648438 44.5 C 81.257812 48.035156 82.0625 51.894531 82.0625 55.753906 C 82.0625 56.71875 82.0625 57.683594 81.902344 58.652344 C 81.742188 58.8125 81.578125 59.132812 81.578125 59.292969 Z M 81.578125 59.292969 " fill-opacity="1" fill-rule="nonzero"/><path fill="#ffffff" d="M 75.789062 37.90625 C 73.378906 35.011719 70.324219 32.757812 66.945312 31.152344 C 66.945312 30.828125 66.785156 30.667969 66.625 30.507812 C 66.300781 30.347656 65.980469 30.507812 65.820312 30.828125 C 65.660156 31.152344 65.820312 31.472656 66.140625 31.632812 C 66.464844 31.792969 66.625 31.632812 66.785156 31.472656 C 70.160156 33.082031 73.054688 35.332031 75.46875 38.066406 C 75.308594 38.226562 75.308594 38.546875 75.46875 38.710938 C 75.628906 39.03125 76.113281 39.03125 76.273438 38.871094 C 76.59375 38.710938 76.59375 38.226562 76.433594 38.066406 C 76.433594 37.90625 76.113281 37.90625 75.789062 37.90625 Z M 75.789062 37.90625 " fill-opacity="1" fill-rule="nonzero"/><path fill="#ffffff" d="M 60.996094 28.738281 C 60.675781 28.738281 60.511719 28.738281 60.351562 29.0625 C 58.746094 28.738281 56.976562 28.578125 55.207031 28.578125 C 51.507812 28.578125 47.96875 29.222656 44.59375 30.667969 C 41.539062 31.957031 38.804688 33.722656 36.390625 36.136719 C 36.230469 35.976562 35.910156 36.136719 35.585938 36.296875 C 35.265625 36.617188 35.425781 36.941406 35.585938 37.261719 C 35.910156 37.582031 36.230469 37.421875 36.550781 37.261719 C 36.710938 37.101562 36.710938 36.78125 36.710938 36.617188 C 41.699219 31.792969 48.292969 29.222656 55.207031 29.222656 C 56.8125 29.222656 58.582031 29.382812 60.191406 29.703125 C 60.191406 30.027344 60.351562 30.1875 60.675781 30.1875 C 60.996094 30.1875 61.316406 30.027344 61.476562 29.703125 C 61.640625 29.222656 61.316406 28.898438 60.996094 28.738281 Z M 60.996094 28.738281 " fill-opacity="1" fill-rule="nonzero"/><path fill="#ffffff" d="M 80.9375 56.558594 C 80.9375 56.238281 80.613281 55.917969 80.292969 55.917969 C 79.972656 55.917969 79.648438 56.238281 79.648438 56.558594 C 79.648438 56.882812 79.8125 57.042969 79.972656 57.203125 C 79.8125 61.707031 78.363281 65.886719 75.949219 69.585938 C 75.628906 69.585938 75.46875 69.585938 75.308594 69.90625 C 75.148438 70.230469 75.148438 70.550781 75.46875 70.710938 C 75.789062 70.871094 76.113281 70.871094 76.273438 70.550781 C 76.433594 70.390625 76.433594 70.066406 76.273438 69.746094 C 78.683594 66.046875 80.132812 61.707031 80.292969 57.203125 C 80.777344 57.042969 80.9375 56.882812 80.9375 56.558594 Z M 80.9375 56.558594 " fill-opacity="1" fill-rule="nonzero"/><path fill="#ffffff" d="M 79.972656 51.734375 C 80.292969 51.734375 80.613281 51.414062 80.453125 50.929688 C 80.453125 50.609375 80.132812 50.449219 79.972656 50.449219 C 79.167969 46.589844 77.398438 42.890625 74.824219 39.835938 C 74.984375 39.675781 74.984375 39.351562 74.824219 39.03125 C 74.664062 38.710938 74.183594 38.710938 74.019531 39.03125 C 73.699219 39.191406 73.699219 39.675781 74.019531 39.835938 C 74.183594 39.996094 74.503906 40.15625 74.664062 39.996094 C 77.238281 43.050781 79.007812 46.589844 79.8125 50.449219 C 79.648438 50.609375 79.488281 50.769531 79.488281 51.09375 C 79.328125 51.574219 79.648438 51.734375 79.972656 51.734375 Z M 79.972656 51.734375 " fill-opacity="1" fill-rule="nonzero"/><path fill="#ffffff" d="M 54.402344 30.667969 C 54.242188 30.507812 54.082031 30.1875 53.757812 30.347656 C 53.4375 30.347656 53.117188 30.667969 53.117188 30.992188 C 53.117188 31.3125 53.4375 31.632812 53.757812 31.632812 C 54.082031 31.632812 54.242188 31.472656 54.242188 31.152344 C 54.5625 31.152344 54.882812 31.152344 55.046875 31.152344 C 59.871094 31.152344 64.535156 32.597656 68.554688 35.171875 C 68.554688 35.492188 68.554688 35.652344 68.875 35.816406 C 69.195312 35.976562 69.519531 35.976562 69.679688 35.652344 C 69.839844 35.332031 69.839844 35.011719 69.519531 34.851562 C 69.359375 34.6875 69.035156 34.6875 68.714844 34.851562 C 64.695312 32.277344 59.871094 30.828125 55.046875 30.828125 C 55.046875 30.667969 54.722656 30.667969 54.402344 30.667969 Z M 54.402344 30.667969 " fill-opacity="1" fill-rule="nonzero"/><path fill="#ffffff" d="M 39.445312 75.535156 C 41.539062 77.144531 43.789062 78.429688 46.199219 79.394531 C 48.773438 80.359375 51.347656 81.003906 54.082031 81.003906 C 54.082031 81.324219 54.402344 81.484375 54.722656 81.484375 C 55.046875 81.484375 55.367188 81.164062 55.367188 80.84375 C 55.367188 80.519531 55.046875 80.199219 54.722656 80.199219 C 54.402344 80.199219 54.242188 80.359375 54.082031 80.519531 C 48.933594 80.199219 43.789062 78.269531 39.769531 75.054688 C 39.929688 74.890625 39.769531 74.570312 39.609375 74.410156 C 39.285156 74.25 38.964844 74.25 38.804688 74.410156 C 38.640625 74.570312 38.640625 75.054688 38.804688 75.214844 C 38.964844 75.695312 39.285156 75.695312 39.445312 75.535156 Z M 39.445312 75.535156 " fill-opacity="1" fill-rule="nonzero"/><path fill="#ffffff" d="M 60.191406 81.003906 C 60.511719 81.003906 60.675781 80.683594 60.675781 80.519531 C 64.535156 79.71875 68.070312 77.949219 71.125 75.535156 C 71.289062 75.695312 71.609375 75.695312 71.929688 75.535156 C 72.253906 75.375 72.253906 74.890625 71.929688 74.730469 C 71.769531 74.410156 71.289062 74.410156 71.125 74.730469 C 70.964844 74.890625 70.804688 75.214844 70.964844 75.375 C 67.910156 77.789062 64.371094 79.554688 60.675781 80.359375 C 60.511719 80.199219 60.351562 80.039062 60.03125 80.039062 C 59.710938 80.039062 59.386719 80.359375 59.546875 80.84375 C 59.546875 80.84375 59.871094 81.164062 60.191406 81.003906 Z M 60.191406 81.003906 " fill-opacity="1" fill-rule="nonzero"/><path fill="#ffffff" d="M 60.351562 78.429688 C 60.511719 78.589844 60.835938 78.753906 60.996094 78.753906 C 61.316406 78.589844 61.476562 78.269531 61.476562 77.949219 C 61.316406 77.625 60.996094 77.464844 60.675781 77.464844 C 60.351562 77.464844 60.191406 77.789062 60.191406 77.949219 C 58.582031 78.269531 56.8125 78.429688 55.207031 78.429688 C 54.242188 78.429688 53.277344 78.429688 52.3125 78.269531 C 52.3125 77.949219 51.988281 77.789062 51.828125 77.789062 C 51.507812 77.789062 51.1875 77.949219 51.1875 78.269531 C 51.1875 78.589844 51.347656 78.914062 51.667969 78.914062 C 51.988281 78.914062 52.152344 78.753906 52.3125 78.589844 C 53.277344 78.753906 54.242188 78.753906 55.367188 78.753906 C 56.976562 79.074219 58.746094 78.753906 60.351562 78.429688 Z M 60.351562 78.429688 " fill-opacity="1" fill-rule="nonzero"/><path fill="#ffffff" d="M 75.949219 67.171875 C 76.113281 66.851562 75.949219 66.53125 75.628906 66.371094 C 75.308594 66.207031 74.984375 66.371094 74.824219 66.691406 C 74.664062 66.851562 74.664062 67.171875 74.984375 67.335938 C 72.894531 70.871094 70.160156 73.605469 66.625 75.695312 C 66.464844 75.535156 66.140625 75.535156 65.980469 75.535156 C 65.660156 75.695312 65.5 76.019531 65.660156 76.339844 C 65.820312 76.660156 66.140625 76.820312 66.464844 76.660156 C 66.785156 76.5 66.785156 76.339844 66.785156 76.019531 C 70.324219 73.925781 73.21875 71.03125 75.308594 67.496094 C 75.46875 67.496094 75.789062 67.335938 75.949219 67.171875 Z M 75.949219 67.171875 " fill-opacity="1" fill-rule="nonzero"/><path fill="#ffffff" d="M 74.503906 42.890625 C 72.089844 39.351562 68.714844 36.457031 64.855469 34.6875 C 64.855469 34.367188 64.695312 34.207031 64.535156 34.046875 C 64.210938 33.886719 63.890625 34.046875 63.730469 34.367188 C 63.570312 34.6875 63.730469 35.011719 64.050781 35.171875 C 64.371094 35.332031 64.535156 35.171875 64.695312 35.011719 C 72.734375 38.710938 78.042969 46.75 78.042969 55.753906 C 78.042969 57.523438 77.882812 59.132812 77.558594 60.742188 C 77.238281 60.742188 77.078125 60.902344 77.078125 61.222656 C 76.917969 61.546875 77.238281 61.867188 77.558594 62.027344 C 77.882812 62.1875 78.203125 61.867188 78.363281 61.546875 C 78.363281 61.222656 78.363281 61.0625 78.042969 60.902344 C 78.363281 59.292969 78.683594 57.523438 78.683594 55.753906 C 78.363281 51.253906 77.078125 46.75 74.503906 42.890625 Z M 74.503906 42.890625 " fill-opacity="1" fill-rule="nonzero"/><path fill="#ffffff" d="M 56.8125 32.4375 C 56.492188 32.4375 56.332031 32.597656 56.171875 32.757812 C 55.847656 32.757812 55.527344 32.757812 55.207031 32.757812 C 53.4375 32.757812 51.667969 32.921875 49.898438 33.402344 C 49.738281 33.242188 49.417969 33.082031 49.257812 33.082031 C 48.933594 33.242188 48.773438 33.5625 48.773438 33.886719 C 48.933594 34.207031 49.257812 34.367188 49.578125 34.367188 C 49.898438 34.367188 50.058594 34.046875 50.058594 33.886719 C 51.828125 33.5625 53.4375 33.242188 55.207031 33.242188 C 55.527344 33.242188 55.847656 33.242188 56.011719 33.242188 C 56.011719 33.5625 56.332031 33.722656 56.492188 33.722656 C 56.8125 33.722656 57.136719 33.5625 57.136719 33.082031 C 57.136719 32.597656 57.136719 32.4375 56.8125 32.4375 Z M 56.8125 32.4375 " fill-opacity="1" fill-rule="nonzero"/><path fill="#ffffff" d="M 39.609375 68.621094 C 39.285156 68.300781 38.964844 68.300781 38.644531 68.460938 C 38.320312 68.621094 38.320312 69.101562 38.480469 69.265625 C 38.644531 69.425781 38.964844 69.585938 39.125 69.425781 C 41.375 72.160156 44.433594 74.25 47.648438 75.375 C 47.648438 75.695312 47.808594 75.855469 48.128906 76.019531 C 48.453125 76.179688 48.773438 76.019531 48.933594 75.695312 C 49.09375 75.375 48.933594 75.054688 48.613281 74.890625 C 48.292969 74.730469 48.128906 74.890625 47.96875 75.054688 C 44.753906 73.765625 41.859375 71.835938 39.609375 69.101562 C 39.769531 69.101562 39.769531 68.78125 39.609375 68.621094 Z M 39.609375 68.621094 " fill-opacity="1" fill-rule="nonzero"/><path fill="#ffffff" d="M 55.847656 77.304688 C 56.171875 77.304688 56.332031 77.144531 56.492188 76.820312 C 60.191406 76.660156 63.890625 75.375 66.945312 73.285156 C 67.105469 73.445312 67.429688 73.445312 67.75 73.285156 C 68.070312 73.125 68.070312 72.640625 67.910156 72.480469 C 67.75 72.160156 67.265625 72.160156 67.105469 72.320312 C 66.945312 72.480469 66.785156 72.800781 66.945312 72.960938 C 63.890625 75.054688 60.351562 76.179688 56.652344 76.339844 C 56.492188 76.179688 56.332031 76.019531 56.011719 76.019531 C 55.6875 76.019531 55.367188 76.339844 55.367188 76.660156 C 55.367188 76.984375 55.527344 77.304688 55.847656 77.304688 Z M 55.847656 77.304688 " fill-opacity="1" fill-rule="nonzero"/><path fill="#ffffff" d="M 76.753906 54.308594 C 76.753906 53.988281 76.433594 53.664062 76.113281 53.664062 C 75.789062 53.664062 75.46875 53.988281 75.46875 54.308594 C 75.46875 54.628906 75.628906 54.789062 75.949219 54.789062 C 75.949219 55.113281 75.949219 55.433594 75.949219 55.753906 C 75.949219 59.9375 74.824219 63.796875 72.414062 67.171875 C 72.089844 67.171875 71.929688 67.171875 71.769531 67.335938 C 71.609375 67.65625 71.609375 67.976562 71.929688 68.136719 C 72.253906 68.300781 72.574219 68.300781 72.734375 67.976562 C 72.894531 67.816406 72.894531 67.496094 72.734375 67.171875 C 74.984375 63.636719 76.273438 59.617188 76.273438 55.433594 C 76.273438 55.113281 76.273438 54.789062 76.273438 54.46875 C 76.59375 54.789062 76.753906 54.628906 76.753906 54.308594 Z M 76.753906 54.308594 " fill-opacity="1" fill-rule="nonzero"/><path fill="#ffffff" d="M 70.644531 40.960938 C 70.324219 40.640625 70 40.640625 69.679688 40.960938 C 69.359375 41.28125 69.359375 41.605469 69.679688 41.925781 C 69.839844 42.085938 70.160156 42.085938 70.324219 42.085938 C 71.609375 43.535156 72.734375 44.980469 73.539062 46.75 C 73.378906 46.910156 73.378906 47.234375 73.378906 47.394531 C 73.539062 47.714844 73.859375 47.875 74.183594 47.714844 C 74.503906 47.554688 74.664062 47.234375 74.503906 46.910156 C 74.34375 46.589844 74.183594 46.589844 73.859375 46.589844 C 73.054688 44.820312 71.929688 43.375 70.644531 41.925781 C 70.964844 41.445312 70.804688 41.121094 70.644531 40.960938 Z M 70.644531 40.960938 " fill-opacity="1" fill-rule="nonzero"/><path fill="#ffffff" d="M 65.5 36.941406 C 65.175781 36.78125 65.015625 36.78125 64.695312 37.101562 C 61.800781 35.652344 58.582031 34.851562 55.367188 34.851562 C 54.402344 34.851562 53.277344 34.851562 52.3125 35.011719 C 52.152344 34.851562 51.988281 34.6875 51.667969 34.6875 C 51.347656 34.6875 51.023438 35.011719 51.1875 35.492188 C 51.1875 35.816406 51.507812 36.136719 51.988281 35.976562 C 52.3125 35.976562 52.472656 35.652344 52.472656 35.492188 C 53.4375 35.332031 54.402344 35.332031 55.367188 35.332031 C 58.582031 35.332031 61.800781 36.136719 64.535156 37.582031 C 64.535156 37.90625 64.695312 38.066406 64.855469 38.226562 C 65.175781 38.386719 65.5 38.226562 65.660156 37.90625 C 65.820312 37.582031 65.820312 37.101562 65.5 36.941406 Z M 65.5 36.941406 " fill-opacity="1" fill-rule="nonzero"/><path fill="#ffffff" d="M 47.808594 72.320312 C 47.488281 72.160156 47.164062 72.320312 47.003906 72.640625 C 46.84375 72.960938 47.003906 73.285156 47.328125 73.445312 C 47.648438 73.605469 47.808594 73.445312 48.128906 73.285156 C 50.382812 74.25 52.953125 74.730469 55.367188 74.730469 C 56.332031 74.730469 57.457031 74.730469 58.421875 74.570312 C 58.582031 74.730469 58.746094 74.890625 59.066406 74.890625 C 59.386719 74.890625 59.546875 74.570312 59.546875 74.089844 C 59.546875 73.605469 59.226562 73.605469 58.746094 73.605469 C 58.421875 73.605469 58.261719 73.925781 58.261719 74.089844 C 57.296875 74.25 56.332031 74.25 55.367188 74.25 C 52.953125 74.25 50.542969 73.765625 48.292969 72.800781 C 48.128906 72.800781 48.128906 72.480469 47.808594 72.320312 Z M 47.808594 72.320312 " fill-opacity="1" fill-rule="nonzero"/><path fill="#ffffff" d="M 71.609375 65.40625 C 71.929688 65.40625 72.089844 65.40625 72.253906 65.082031 C 72.414062 64.761719 72.253906 64.441406 71.929688 64.277344 C 71.609375 64.117188 71.289062 64.277344 71.125 64.601562 C 70.964844 64.761719 70.964844 65.082031 71.289062 65.242188 C 69.679688 67.976562 67.429688 70.390625 64.535156 71.996094 C 64.371094 71.835938 64.050781 71.835938 63.890625 71.835938 C 63.570312 71.996094 63.40625 72.320312 63.570312 72.640625 C 63.730469 72.960938 64.050781 73.125 64.371094 72.960938 C 64.695312 72.800781 64.695312 72.640625 64.695312 72.320312 C 67.75 70.550781 70 68.300781 71.609375 65.40625 Z M 71.609375 65.40625 " fill-opacity="1" fill-rule="nonzero"/><path fill="#ffffff" d="M 73.054688 59.292969 C 73.054688 59.617188 73.21875 59.9375 73.539062 60.097656 C 73.859375 60.097656 74.183594 59.9375 74.34375 59.617188 C 74.34375 59.292969 74.34375 59.132812 74.019531 58.972656 C 74.183594 58.007812 74.183594 57.042969 74.183594 55.917969 C 74.183594 52.539062 73.378906 49.324219 71.609375 46.429688 C 71.769531 46.269531 71.769531 45.945312 71.609375 45.625 C 71.449219 45.304688 70.964844 45.304688 70.804688 45.464844 C 70.644531 45.625 70.484375 46.105469 70.644531 46.269531 C 70.804688 46.429688 71.125 46.589844 71.289062 46.589844 C 72.894531 49.324219 73.699219 52.539062 73.699219 55.917969 C 73.699219 56.882812 73.699219 57.847656 73.539062 58.8125 C 73.378906 58.8125 73.054688 58.972656 73.054688 59.292969 Z M 73.054688 59.292969 " fill-opacity="1" fill-rule="nonzero"/><path fill="#ffffff" d="M 65.660156 39.996094 C 62.605469 37.90625 58.90625 36.941406 55.207031 36.941406 C 53.4375 36.941406 51.828125 37.101562 50.058594 37.582031 C 49.898438 37.421875 49.578125 37.261719 49.417969 37.421875 C 49.09375 37.582031 48.933594 37.90625 49.09375 38.226562 C 49.257812 38.546875 49.578125 38.710938 49.898438 38.546875 C 50.222656 38.386719 50.382812 38.226562 50.382812 37.90625 C 51.988281 37.421875 53.597656 37.261719 55.367188 37.261719 C 59.066406 37.261719 62.441406 38.386719 65.5 40.316406 C 65.5 40.640625 65.5 40.800781 65.660156 40.960938 C 65.980469 41.121094 66.300781 41.121094 66.464844 40.800781 C 66.625 40.480469 66.625 40.15625 66.300781 39.996094 C 66.140625 39.835938 65.980469 39.835938 65.660156 39.996094 Z M 65.660156 39.996094 " fill-opacity="1" fill-rule="nonzero"/><path fill="#ffffff" d="M 41.539062 64.277344 C 41.375 63.957031 41.054688 63.957031 40.734375 64.117188 C 40.410156 64.277344 40.410156 64.601562 40.574219 64.921875 C 40.734375 65.082031 41.054688 65.242188 41.214844 65.242188 C 42.019531 66.53125 42.984375 67.65625 44.109375 68.621094 C 45.234375 69.585938 46.523438 70.390625 47.808594 71.03125 C 47.808594 71.355469 47.96875 71.515625 48.128906 71.675781 C 48.453125 71.835938 48.773438 71.675781 48.933594 71.355469 C 49.09375 71.03125 48.933594 70.710938 48.613281 70.550781 C 48.292969 70.390625 48.128906 70.550781 47.96875 70.710938 C 45.398438 69.425781 43.144531 67.496094 41.539062 65.082031 C 41.699219 64.761719 41.699219 64.441406 41.539062 64.277344 Z M 41.539062 64.277344 " fill-opacity="1" fill-rule="nonzero"/><path fill="#ffffff" d="M 54.402344 72.320312 C 54.402344 71.996094 54.082031 71.835938 53.917969 71.835938 C 53.597656 71.835938 53.277344 71.996094 53.277344 72.320312 C 53.277344 72.640625 53.4375 72.960938 53.757812 72.960938 C 54.082031 72.960938 54.242188 72.800781 54.402344 72.640625 C 54.722656 72.640625 55.046875 72.640625 55.367188 72.640625 C 58.261719 72.640625 61.15625 71.835938 63.730469 70.390625 C 63.890625 70.550781 64.210938 70.550781 64.535156 70.390625 C 64.855469 70.230469 64.855469 69.746094 64.695312 69.585938 C 64.535156 69.265625 64.050781 69.265625 63.890625 69.425781 C 63.40625 69.746094 63.40625 69.90625 63.40625 70.230469 C 60.996094 71.675781 58.101562 72.320312 55.207031 72.320312 C 55.046875 72.320312 54.722656 72.320312 54.402344 72.320312 Z M 54.402344 72.320312 " fill-opacity="1" fill-rule="nonzero"/><path fill="#ffffff" d="M 68.070312 65.566406 C 67.910156 65.886719 67.910156 66.207031 68.230469 66.371094 C 68.554688 66.53125 68.875 66.53125 69.035156 66.207031 C 69.195312 66.046875 69.195312 65.726562 69.035156 65.40625 C 70 64.117188 70.644531 62.671875 71.289062 61.222656 C 71.929688 59.453125 72.253906 57.523438 72.253906 55.753906 C 72.253906 53.824219 71.929688 52.058594 71.289062 50.289062 C 71.449219 50.128906 71.609375 49.804688 71.449219 49.644531 C 71.289062 49.324219 70.964844 49.164062 70.644531 49.324219 C 70.324219 49.484375 70.160156 49.804688 70.324219 50.128906 C 70.484375 50.449219 70.644531 50.449219 70.964844 50.449219 C 71.609375 52.21875 71.769531 53.988281 71.769531 55.753906 C 71.769531 59.132812 70.804688 62.511719 68.714844 65.242188 C 68.554688 65.242188 68.230469 65.40625 68.070312 65.566406 Z M 68.070312 65.566406 " fill-opacity="1" fill-rule="nonzero"/><path fill="#ffffff" d="M 66.464844 43.210938 C 64.855469 41.765625 62.765625 40.640625 60.675781 39.835938 C 60.675781 39.515625 60.511719 39.351562 60.191406 39.191406 C 59.871094 39.03125 59.546875 39.351562 59.386719 39.675781 C 59.226562 39.996094 59.546875 40.316406 59.871094 40.480469 C 60.191406 40.480469 60.351562 40.480469 60.511719 40.316406 C 62.605469 40.960938 64.535156 42.085938 66.140625 43.535156 C 65.980469 43.695312 66.140625 44.015625 66.300781 44.175781 C 66.625 44.5 66.945312 44.339844 67.265625 44.175781 C 67.589844 44.015625 67.429688 43.535156 67.265625 43.210938 C 66.945312 43.210938 66.625 43.050781 66.464844 43.210938 Z M 66.464844 43.210938 " fill-opacity="1" fill-rule="nonzero"/><path fill="#ffffff" d="M 62.441406 69.265625 C 62.765625 69.101562 62.765625 68.941406 62.765625 68.621094 C 64.210938 67.816406 65.5 66.691406 66.625 65.40625 C 67.75 64.117188 68.554688 62.671875 69.195312 61.222656 C 69.519531 61.222656 69.679688 61.0625 69.839844 60.742188 C 70 60.417969 69.839844 60.097656 69.519531 59.9375 C 69.195312 59.777344 68.875 59.9375 68.714844 60.257812 C 68.554688 60.582031 68.714844 60.742188 68.875 60.902344 C 67.75 63.957031 65.5 66.371094 62.765625 68.136719 C 62.605469 67.976562 62.28125 67.976562 62.121094 67.976562 C 61.800781 68.136719 61.640625 68.460938 61.800781 68.78125 C 61.640625 69.425781 62.121094 69.425781 62.441406 69.265625 Z M 62.441406 69.265625 " fill-opacity="1" fill-rule="nonzero"/><path fill="#ffffff" d="M 68.394531 48.199219 C 68.230469 47.875 67.75 47.875 67.589844 48.035156 C 67.265625 48.199219 67.265625 48.679688 67.429688 48.839844 C 67.589844 49 67.75 49.164062 68.070312 49.164062 C 69.035156 50.929688 69.519531 52.699219 69.679688 54.628906 C 69.519531 54.789062 69.359375 54.953125 69.359375 55.273438 C 69.359375 55.59375 69.679688 55.917969 70 55.917969 C 70.324219 55.917969 70.644531 55.59375 70.644531 55.273438 C 70.644531 54.953125 70.484375 54.789062 70.160156 54.628906 C 70 52.699219 69.359375 50.769531 68.554688 49 C 68.554688 48.839844 68.554688 48.519531 68.394531 48.199219 Z M 68.394531 48.199219 " fill-opacity="1" fill-rule="nonzero"/><path fill="#ffffff" d="M 62.925781 44.175781 C 63.246094 44.339844 63.570312 44.339844 63.730469 44.015625 C 63.890625 43.695312 63.890625 43.375 63.570312 43.210938 C 63.40625 43.050781 63.085938 43.050781 62.765625 43.210938 C 60.511719 41.925781 57.941406 41.121094 55.207031 41.121094 C 54.082031 41.121094 53.117188 41.28125 51.988281 41.445312 C 51.828125 41.28125 51.507812 41.121094 51.347656 41.121094 C 51.023438 41.28125 50.863281 41.605469 50.863281 41.925781 C 51.023438 42.246094 51.347656 42.410156 51.667969 42.410156 C 51.988281 42.410156 52.152344 42.085938 52.152344 41.925781 C 53.117188 41.765625 54.242188 41.605469 55.207031 41.605469 C 57.78125 41.605469 60.351562 42.246094 62.441406 43.535156 C 62.605469 43.695312 62.605469 44.015625 62.925781 44.175781 Z M 62.925781 44.175781 " fill-opacity="1" fill-rule="nonzero"/><path fill="#ffffff" d="M 45.398438 65.726562 C 45.234375 65.40625 44.753906 65.40625 44.433594 65.726562 C 44.109375 65.886719 44.109375 66.371094 44.433594 66.691406 C 44.59375 66.851562 44.914062 67.011719 45.234375 66.851562 C 46.523438 67.976562 47.96875 68.941406 49.417969 69.585938 C 51.1875 70.390625 53.117188 70.710938 55.207031 70.710938 C 55.527344 70.710938 55.847656 70.710938 56.171875 70.710938 C 56.332031 71.03125 56.492188 71.03125 56.8125 71.03125 C 57.136719 71.03125 57.457031 70.710938 57.296875 70.390625 C 57.296875 70.066406 56.976562 69.746094 56.652344 69.90625 C 56.332031 69.90625 56.171875 70.066406 56.171875 70.390625 C 55.847656 70.390625 55.527344 70.390625 55.367188 70.390625 C 51.667969 70.390625 48.292969 69.101562 45.71875 66.691406 C 45.71875 66.207031 45.71875 66.046875 45.398438 65.726562 Z M 45.398438 65.726562 " fill-opacity="1" fill-rule="nonzero"/></svg>