<svg xmlns="http://www.w3.org/2000/svg" xmlns:xlink="http://www.w3.org/1999/xlink" width="900" zoomAndPan="magnify" viewBox="0 0 675 112.499997" height="150" preserveAspectRatio="xMidYMid meet" version="1.0"><defs><g/><clipPath id="e75dabf138"><path d="M 21 13.621094 L 56 13.621094 L 56 32 L 21 32 Z M 21 13.621094 " clip-rule="nonzero"/></clipPath><clipPath id="dfbfd19344"><path d="M 15.15625 68 L 29 68 L 29 89 L 15.15625 89 Z M 15.15625 68 " clip-rule="nonzero"/></clipPath><clipPath id="0a826d522c"><path d="M 32 90 L 56 90 L 56 98.746094 L 32 98.746094 Z M 32 90 " clip-rule="nonzero"/></clipPath><clipPath id="18f81c7699"><path d="M 90 33 L 97.292969 33 L 97.292969 63 L 90 63 Z M 90 33 " clip-rule="nonzero"/></clipPath><clipPath id="b16a637d89"><path d="M 61 13.621094 L 85 13.621094 L 85 27 L 61 27 Z M 61 13.621094 " clip-rule="nonzero"/></clipPath></defs><g fill="#181410" fill-opacity="1"><g transform="translate(102.728307, 84.145423)"><g><path d="M 13.8125 -56.9375 L 21.78125 -56.9375 C 25.144531 -56.9375 27.691406 -56.066406 29.421875 -54.328125 C 31.160156 -52.597656 32.03125 -50.050781 32.03125 -46.6875 L 32.03125 -39.140625 C 32.03125 -38.378906 31.648438 -38 30.890625 -38 L 23.484375 -38 C 22.722656 -38 22.34375 -38.378906 22.34375 -39.140625 L 22.34375 -44.703125 C 22.34375 -46.597656 21.394531 -47.546875 19.5 -47.546875 L 16.078125 -47.546875 C 14.179688 -47.546875 13.234375 -46.597656 13.234375 -44.703125 L 13.234375 -34.875 L 30.171875 -29.328125 C 31.410156 -28.804688 32.03125 -27.925781 32.03125 -26.6875 L 32.03125 -10.25 C 32.03125 -6.925781 31.160156 -4.382812 29.421875 -2.625 C 27.691406 -0.875 25.144531 0 21.78125 0 L 13.8125 0 C 10.488281 0 7.945312 -0.875 6.1875 -2.625 C 4.4375 -4.382812 3.5625 -6.925781 3.5625 -10.25 L 3.5625 -17.71875 C 3.5625 -18.476562 3.941406 -18.859375 4.703125 -18.859375 L 12.09375 -18.859375 C 12.851562 -18.859375 13.234375 -18.476562 13.234375 -17.71875 L 13.234375 -12.234375 C 13.234375 -10.335938 14.179688 -9.390625 16.078125 -9.390625 L 19.5 -9.390625 C 21.394531 -9.390625 22.34375 -10.335938 22.34375 -12.234375 L 22.34375 -21.703125 L 5.484375 -27.265625 C 4.203125 -27.691406 3.5625 -28.566406 3.5625 -29.890625 L 3.5625 -46.6875 C 3.5625 -50.050781 4.4375 -52.597656 6.1875 -54.328125 C 7.945312 -56.066406 10.488281 -56.9375 13.8125 -56.9375 Z M 13.8125 -56.9375 "/></g></g></g><g fill="#181410" fill-opacity="1"><g transform="translate(138.310512, 84.145423)"><g><path d="M 33.3125 -56.9375 L 42.703125 -56.9375 C 43.648438 -56.9375 44.125 -56.460938 44.125 -55.515625 L 44.125 -1.421875 C 44.125 -0.472656 43.648438 0 42.703125 0 L 36.078125 0 C 35.128906 0 34.65625 -0.472656 34.65625 -1.421875 L 34.65625 -33.453125 L 34.15625 -33.453125 L 27.109375 -1.28125 C 26.921875 -0.425781 26.398438 0 25.546875 0 L 22.0625 0 C 21.257812 0 20.738281 -0.425781 20.5 -1.28125 L 13.453125 -33.453125 L 12.953125 -33.453125 L 12.953125 -1.421875 C 12.953125 -0.472656 12.476562 0 11.53125 0 L 4.984375 0 C 4.035156 0 3.5625 -0.472656 3.5625 -1.421875 L 3.5625 -55.515625 C 3.5625 -56.460938 4.035156 -56.9375 4.984375 -56.9375 L 14.375 -56.9375 C 15.226562 -56.9375 15.75 -56.507812 15.9375 -55.65625 L 23.84375 -20.21875 L 31.75 -55.65625 C 31.976562 -56.507812 32.5 -56.9375 33.3125 -56.9375 Z M 33.3125 -56.9375 "/></g></g></g><g fill="#181410" fill-opacity="1"><g transform="translate(185.99066, 84.145423)"><g><path d="M 37.859375 0 L 30.3125 0 C 29.695312 0 29.320312 -0.332031 29.1875 -1 L 27.1875 -11.390625 L 14.515625 -11.390625 L 12.59375 -1 C 12.457031 -0.332031 12.078125 0 11.453125 0 L 3.84375 0 C 2.988281 0 2.679688 -0.398438 2.921875 -1.203125 L 14.734375 -55.9375 C 14.878906 -56.601562 15.28125 -56.9375 15.9375 -56.9375 L 25.828125 -56.9375 C 26.492188 -56.9375 26.898438 -56.601562 27.046875 -55.9375 L 38.859375 -1.203125 C 39.003906 -0.398438 38.671875 0 37.859375 0 Z M 25.40625 -19.640625 L 20.859375 -44.484375 L 16.296875 -19.640625 Z M 25.40625 -19.640625 "/></g></g></g><g fill="#181410" fill-opacity="1"><g transform="translate(227.692991, 84.145423)"><g><path d="M 32.8125 -46.6875 L 32.8125 -29.328125 C 32.8125 -24.578125 31.078125 -21.441406 27.609375 -19.921875 L 32.53125 -1.28125 C 32.757812 -0.425781 32.425781 0 31.53125 0 L 24.125 0 C 23.457031 0 23.054688 -0.332031 22.921875 -1 L 18.15625 -19.078125 L 13.234375 -19.078125 L 13.234375 -1.140625 C 13.234375 -0.378906 12.851562 0 12.09375 0 L 4.703125 0 C 3.941406 0 3.5625 -0.378906 3.5625 -1.140625 L 3.5625 -55.796875 C 3.5625 -56.554688 3.941406 -56.9375 4.703125 -56.9375 L 22.5625 -56.9375 C 25.925781 -56.9375 28.472656 -56.066406 30.203125 -54.328125 C 31.941406 -52.597656 32.8125 -50.050781 32.8125 -46.6875 Z M 13.234375 -28.46875 L 20.28125 -28.46875 C 22.175781 -28.46875 23.125 -29.414062 23.125 -31.3125 L 23.125 -44.703125 C 23.125 -46.597656 22.175781 -47.546875 20.28125 -47.546875 L 13.234375 -47.546875 Z M 13.234375 -28.46875 "/></g></g></g><g fill="#181410" fill-opacity="1"><g transform="translate(264.057992, 84.145423)"><g><path d="M 3.28125 -56.9375 L 29.46875 -56.9375 C 30.226562 -56.9375 30.609375 -56.554688 30.609375 -55.796875 L 30.609375 -48.6875 C 30.609375 -47.925781 30.226562 -47.546875 29.46875 -47.546875 L 21.203125 -47.546875 L 21.203125 -1.140625 C 21.203125 -0.378906 20.828125 0 20.078125 0 L 12.671875 0 C 11.910156 0 11.53125 -0.378906 11.53125 -1.140625 L 11.53125 -47.546875 L 3.28125 -47.546875 C 2.519531 -47.546875 2.140625 -47.925781 2.140625 -48.6875 L 2.140625 -55.796875 C 2.140625 -56.554688 2.519531 -56.9375 3.28125 -56.9375 Z M 3.28125 -56.9375 "/></g></g></g><g fill="#181410" fill-opacity="1"><g transform="translate(296.793621, 84.145423)"><g/></g></g><g fill="#181410" fill-opacity="1"><g transform="translate(314.584716, 84.145423)"><g><path d="M 32.8125 -46.6875 L 32.8125 -29.328125 C 32.8125 -24.578125 31.078125 -21.441406 27.609375 -19.921875 L 32.53125 -1.28125 C 32.757812 -0.425781 32.425781 0 31.53125 0 L 24.125 0 C 23.457031 0 23.054688 -0.332031 22.921875 -1 L 18.15625 -19.078125 L 13.234375 -19.078125 L 13.234375 -1.140625 C 13.234375 -0.378906 12.851562 0 12.09375 0 L 4.703125 0 C 3.941406 0 3.5625 -0.378906 3.5625 -1.140625 L 3.5625 -55.796875 C 3.5625 -56.554688 3.941406 -56.9375 4.703125 -56.9375 L 22.5625 -56.9375 C 25.925781 -56.9375 28.472656 -56.066406 30.203125 -54.328125 C 31.941406 -52.597656 32.8125 -50.050781 32.8125 -46.6875 Z M 13.234375 -28.46875 L 20.28125 -28.46875 C 22.175781 -28.46875 23.125 -29.414062 23.125 -31.3125 L 23.125 -44.703125 C 23.125 -46.597656 22.175781 -47.546875 20.28125 -47.546875 L 13.234375 -47.546875 Z M 13.234375 -28.46875 "/></g></g></g><g fill="#181410" fill-opacity="1"><g transform="translate(350.949717, 84.145423)"><g><path d="M 31.953125 -55.796875 L 31.953125 -48.6875 C 31.953125 -47.875 31.570312 -47.46875 30.8125 -47.46875 L 13.03125 -47.46875 L 13.03125 -33.234375 L 26.625 -33.234375 C 27.375 -33.234375 27.75 -32.832031 27.75 -32.03125 L 27.75 -24.984375 C 27.75 -24.171875 27.375 -23.765625 26.625 -23.765625 L 13.03125 -23.765625 L 13.03125 -9.390625 L 30.8125 -9.390625 C 31.570312 -9.390625 31.953125 -9.007812 31.953125 -8.25 L 31.953125 -1.140625 C 31.953125 -0.378906 31.570312 0 30.8125 0 L 4.625 0 C 3.914062 0 3.5625 -0.378906 3.5625 -1.140625 L 3.5625 -55.796875 C 3.5625 -56.554688 3.914062 -56.9375 4.625 -56.9375 L 30.8125 -56.9375 C 31.570312 -56.9375 31.953125 -56.554688 31.953125 -55.796875 Z M 31.953125 -55.796875 "/></g></g></g><g fill="#181410" fill-opacity="1"><g transform="translate(386.460766, 84.145423)"><g><path d="M 3.5625 -1.140625 L 3.5625 -55.796875 C 3.5625 -56.554688 3.941406 -56.9375 4.703125 -56.9375 L 21.78125 -56.9375 C 25.144531 -56.9375 27.691406 -56.066406 29.421875 -54.328125 C 31.160156 -52.597656 32.03125 -50.050781 32.03125 -46.6875 L 32.03125 -29.328125 C 32.03125 -26.003906 31.160156 -23.460938 29.421875 -21.703125 C 27.691406 -19.953125 25.144531 -19.078125 21.78125 -19.078125 L 13.234375 -19.078125 L 13.234375 -1.140625 C 13.234375 -0.378906 12.851562 0 12.09375 0 L 4.703125 0 C 3.941406 0 3.5625 -0.378906 3.5625 -1.140625 Z M 13.234375 -28.46875 L 19.5 -28.46875 C 21.394531 -28.46875 22.34375 -29.414062 22.34375 -31.3125 L 22.34375 -44.703125 C 22.34375 -46.597656 21.394531 -47.546875 19.5 -47.546875 L 13.234375 -47.546875 Z M 13.234375 -28.46875 "/></g></g></g><g fill="#181410" fill-opacity="1"><g transform="translate(422.042956, 84.145423)"><g><path d="M 3.5625 -10.25 L 3.5625 -46.6875 C 3.5625 -50.050781 4.4375 -52.597656 6.1875 -54.328125 C 7.945312 -56.066406 10.488281 -56.9375 13.8125 -56.9375 L 21.78125 -56.9375 C 25.144531 -56.9375 27.691406 -56.066406 29.421875 -54.328125 C 31.160156 -52.597656 32.03125 -50.050781 32.03125 -46.6875 L 32.03125 -10.25 C 32.03125 -6.925781 31.160156 -4.382812 29.421875 -2.625 C 27.691406 -0.875 25.144531 0 21.78125 0 L 13.8125 0 C 10.488281 0 7.945312 -0.875 6.1875 -2.625 C 4.4375 -4.382812 3.5625 -6.925781 3.5625 -10.25 Z M 15.875 -9.1875 L 20 -9.1875 C 21.894531 -9.1875 22.84375 -10.132812 22.84375 -12.03125 L 22.84375 -44.90625 C 22.84375 -46.800781 21.894531 -47.75 20 -47.75 L 15.875 -47.75 C 13.976562 -47.75 13.03125 -46.800781 13.03125 -44.90625 L 13.03125 -12.03125 C 13.03125 -10.132812 13.976562 -9.1875 15.875 -9.1875 Z M 15.875 -9.1875 "/></g></g></g><g fill="#181410" fill-opacity="1"><g transform="translate(457.625145, 84.145423)"><g><path d="M 32.8125 -46.6875 L 32.8125 -29.328125 C 32.8125 -24.578125 31.078125 -21.441406 27.609375 -19.921875 L 32.53125 -1.28125 C 32.757812 -0.425781 32.425781 0 31.53125 0 L 24.125 0 C 23.457031 0 23.054688 -0.332031 22.921875 -1 L 18.15625 -19.078125 L 13.234375 -19.078125 L 13.234375 -1.140625 C 13.234375 -0.378906 12.851562 0 12.09375 0 L 4.703125 0 C 3.941406 0 3.5625 -0.378906 3.5625 -1.140625 L 3.5625 -55.796875 C 3.5625 -56.554688 3.941406 -56.9375 4.703125 -56.9375 L 22.5625 -56.9375 C 25.925781 -56.9375 28.472656 -56.066406 30.203125 -54.328125 C 31.941406 -52.597656 32.8125 -50.050781 32.8125 -46.6875 Z M 13.234375 -28.46875 L 20.28125 -28.46875 C 22.175781 -28.46875 23.125 -29.414062 23.125 -31.3125 L 23.125 -44.703125 C 23.125 -46.597656 22.175781 -47.546875 20.28125 -47.546875 L 13.234375 -47.546875 Z M 13.234375 -28.46875 "/></g></g></g><g fill="#181410" fill-opacity="1"><g transform="translate(493.990146, 84.145423)"><g><path d="M 3.28125 -56.9375 L 29.46875 -56.9375 C 30.226562 -56.9375 30.609375 -56.554688 30.609375 -55.796875 L 30.609375 -48.6875 C 30.609375 -47.925781 30.226562 -47.546875 29.46875 -47.546875 L 21.203125 -47.546875 L 21.203125 -1.140625 C 21.203125 -0.378906 20.828125 0 20.078125 0 L 12.671875 0 C 11.910156 0 11.53125 -0.378906 11.53125 -1.140625 L 11.53125 -47.546875 L 3.28125 -47.546875 C 2.519531 -47.546875 2.140625 -47.925781 2.140625 -48.6875 L 2.140625 -55.796875 C 2.140625 -56.554688 2.519531 -56.9375 3.28125 -56.9375 Z M 3.28125 -56.9375 "/></g></g></g><g fill="#181410" fill-opacity="1"><g transform="translate(526.725775, 84.145423)"><g/></g></g><g fill="#181410" fill-opacity="1"><g transform="translate(544.51687, 84.145423)"><g><path d="M 13.234375 -9.390625 L 13.234375 -55.796875 C 13.234375 -56.554688 12.851562 -56.9375 12.09375 -56.9375 L 4.703125 -56.9375 C 3.941406 -56.9375 3.5625 -56.554688 3.5625 -55.796875 L 3.5625 -1.140625 C 3.5625 -0.378906 3.941406 0 4.703125 0 L 30.171875 0 C 30.929688 0 31.3125 -0.378906 31.3125 -1.140625 L 31.3125 -8.25 C 31.3125 -9.007812 30.929688 -9.390625 30.171875 -9.390625 Z M 13.234375 -9.390625 "/></g></g></g><g fill="#181410" fill-opacity="1"><g transform="translate(579.387419, 84.145423)"><g><path d="M 37.859375 0 L 30.3125 0 C 29.695312 0 29.320312 -0.332031 29.1875 -1 L 27.1875 -11.390625 L 14.515625 -11.390625 L 12.59375 -1 C 12.457031 -0.332031 12.078125 0 11.453125 0 L 3.84375 0 C 2.988281 0 2.679688 -0.398438 2.921875 -1.203125 L 14.734375 -55.9375 C 14.878906 -56.601562 15.28125 -56.9375 15.9375 -56.9375 L 25.828125 -56.9375 C 26.492188 -56.9375 26.898438 -56.601562 27.046875 -55.9375 L 38.859375 -1.203125 C 39.003906 -0.398438 38.671875 0 37.859375 0 Z M 25.40625 -19.640625 L 20.859375 -44.484375 L 16.296875 -19.640625 Z M 25.40625 -19.640625 "/></g></g></g><g fill="#181410" fill-opacity="1"><g transform="translate(621.089751, 84.145423)"><g><path d="M 32.09375 -46.6875 L 32.09375 -33.59375 C 32.09375 -32.257812 31.664062 -31.140625 30.8125 -30.234375 C 29.957031 -29.335938 28.890625 -28.773438 27.609375 -28.546875 L 27.609375 -28.390625 C 28.890625 -28.203125 29.957031 -27.644531 30.8125 -26.71875 C 31.664062 -25.800781 32.09375 -24.675781 32.09375 -23.34375 L 32.09375 -10.25 C 32.09375 -6.925781 31.210938 -4.382812 29.453125 -2.625 C 27.703125 -0.875 25.144531 0 21.78125 0 L 4.703125 0 C 3.941406 0 3.5625 -0.378906 3.5625 -1.140625 L 3.5625 -55.796875 C 3.5625 -56.554688 3.941406 -56.9375 4.703125 -56.9375 L 21.78125 -56.9375 C 25.144531 -56.9375 27.703125 -56.066406 29.453125 -54.328125 C 31.210938 -52.597656 32.09375 -50.050781 32.09375 -46.6875 Z M 22.625 -35.9375 L 22.625 -44.703125 C 22.625 -46.597656 21.675781 -47.546875 19.78125 -47.546875 L 13.3125 -47.546875 L 13.3125 -33.171875 L 19.78125 -33.171875 C 21.675781 -33.171875 22.625 -34.09375 22.625 -35.9375 Z M 22.625 -12.234375 L 22.625 -20.921875 C 22.625 -22.816406 21.675781 -23.765625 19.78125 -23.765625 L 13.3125 -23.765625 L 13.3125 -9.390625 L 19.78125 -9.390625 C 21.675781 -9.390625 22.625 -10.335938 22.625 -12.234375 Z M 22.625 -12.234375 "/></g></g></g><g clip-path="url(#e75dabf138)"><path fill="#000000" d="M 22.894531 30.90625 C 23.054688 30.742188 23.054688 30.421875 22.894531 30.257812 C 30.621094 20.566406 41.894531 14.914062 54.128906 14.59375 C 54.292969 14.914062 54.453125 15.078125 54.773438 15.078125 C 55.097656 15.078125 55.417969 14.753906 55.417969 14.429688 C 55.417969 14.105469 55.097656 13.621094 54.773438 13.621094 C 54.453125 13.621094 54.292969 13.785156 54.128906 14.105469 C 51.070312 14.269531 48.011719 14.59375 45.113281 15.398438 C 42.054688 16.207031 39.15625 17.335938 36.257812 18.792969 C 33.519531 20.082031 30.945312 21.699219 28.527344 23.636719 C 26.433594 25.574219 24.34375 27.675781 22.570312 29.9375 C 22.25 29.773438 22.085938 29.9375 21.925781 30.097656 C 21.765625 30.421875 21.765625 30.742188 22.085938 30.90625 C 22.25 31.230469 22.570312 31.066406 22.894531 30.90625 Z M 22.894531 30.90625 " fill-opacity="1" fill-rule="nonzero"/></g><g clip-path="url(#dfbfd19344)"><path fill="#000000" d="M 27.402344 86.953125 C 22.25 82.269531 18.382812 76.453125 16.128906 69.832031 C 16.292969 69.671875 16.453125 69.347656 16.292969 69.1875 C 16.128906 68.863281 15.808594 68.703125 15.484375 68.863281 C 15.324219 68.863281 15.164062 69.1875 15.164062 69.507812 C 15.324219 69.832031 15.484375 69.992188 15.808594 69.992188 C 18.0625 76.617188 22.085938 82.429688 27.242188 87.277344 C 27.078125 87.4375 27.242188 87.761719 27.402344 87.921875 C 27.722656 88.085938 28.046875 88.085938 28.207031 87.921875 C 28.367188 87.597656 28.367188 87.277344 28.207031 87.113281 C 28.046875 86.792969 27.722656 86.792969 27.402344 86.953125 Z M 27.402344 86.953125 " fill-opacity="1" fill-rule="nonzero"/></g><g clip-path="url(#0a826d522c)"><path fill="#000000" d="M 54.773438 97.289062 C 54.453125 97.289062 54.292969 97.453125 54.128906 97.773438 C 46.882812 97.613281 39.800781 95.515625 33.519531 91.636719 C 33.519531 91.316406 33.519531 91.152344 33.199219 90.992188 C 32.875 90.828125 32.554688 90.828125 32.394531 91.152344 C 32.230469 91.476562 32.230469 91.800781 32.554688 91.960938 C 32.714844 92.121094 33.035156 92.121094 33.199219 91.960938 C 39.476562 95.835938 46.5625 97.9375 53.96875 98.261719 C 54.128906 98.582031 54.292969 98.746094 54.613281 98.746094 C 54.933594 98.746094 55.257812 98.421875 55.257812 98.097656 C 55.257812 97.773438 55.097656 97.289062 54.773438 97.289062 Z M 54.773438 97.289062 " fill-opacity="1" fill-rule="nonzero"/></g><path fill="#000000" d="M 71.199219 94.058594 C 70.875 94.222656 70.875 94.382812 70.875 94.707031 C 68.945312 95.515625 66.851562 96.160156 64.917969 96.644531 C 64.757812 96.484375 64.597656 96.320312 64.273438 96.320312 C 63.953125 96.320312 63.792969 96.804688 63.792969 97.128906 C 63.792969 97.453125 64.273438 97.613281 64.597656 97.613281 C 64.917969 97.613281 65.078125 97.289062 65.078125 97.128906 C 67.171875 96.644531 69.105469 96 71.199219 95.191406 C 71.359375 95.351562 71.679688 95.515625 71.84375 95.351562 C 72.164062 95.191406 72.324219 94.867188 72.164062 94.546875 C 71.84375 94.058594 71.519531 93.898438 71.199219 94.058594 Z M 71.199219 94.058594 " fill-opacity="1" fill-rule="nonzero"/><path fill="#000000" d="M 95.671875 66.601562 C 95.351562 66.441406 95.027344 66.761719 94.867188 67.085938 C 94.867188 67.410156 94.867188 67.570312 95.191406 67.734375 C 92.292969 77.746094 86.011719 86.144531 77.15625 91.636719 C 76.996094 91.476562 76.671875 91.476562 76.511719 91.636719 C 76.191406 91.800781 76.191406 92.121094 76.351562 92.445312 C 76.511719 92.769531 76.835938 92.769531 77.15625 92.605469 C 77.316406 92.445312 77.476562 92.121094 77.476562 91.960938 C 81.824219 89.214844 85.691406 85.824219 88.75 81.625 C 91.96875 77.421875 94.222656 72.738281 95.671875 67.734375 C 95.996094 67.734375 96.15625 67.570312 96.15625 67.246094 C 96.316406 66.925781 95.996094 66.601562 95.671875 66.601562 Z M 95.671875 66.601562 " fill-opacity="1" fill-rule="nonzero"/><g clip-path="url(#18f81c7699)"><path fill="#000000" d="M 96.960938 61.109375 C 97.121094 59.496094 97.285156 57.71875 97.285156 55.941406 C 97.285156 52.066406 96.800781 48.1875 95.671875 44.472656 C 94.707031 41.082031 93.417969 37.851562 91.648438 34.78125 C 91.808594 34.621094 91.808594 34.296875 91.648438 34.136719 C 91.488281 33.8125 91.164062 33.8125 90.84375 33.972656 C 90.519531 34.136719 90.519531 34.460938 90.683594 34.78125 C 90.84375 34.945312 91.164062 35.105469 91.324219 35.105469 C 95.027344 41.40625 96.960938 48.671875 96.960938 55.941406 C 96.960938 57.554688 96.800781 59.332031 96.640625 60.949219 C 96.316406 60.949219 96.15625 61.273438 96.15625 61.433594 C 96.15625 61.757812 96.316406 62.078125 96.640625 62.078125 C 96.960938 62.078125 97.285156 61.917969 97.285156 61.59375 C 97.285156 61.59375 97.121094 61.273438 96.960938 61.109375 Z M 96.960938 61.109375 " fill-opacity="1" fill-rule="nonzero"/></g><g clip-path="url(#b16a637d89)"><path fill="#000000" d="M 62.179688 15.398438 C 62.503906 15.398438 62.664062 15.238281 62.824219 15.078125 C 70.554688 16.53125 77.800781 20.082031 83.597656 25.414062 C 83.4375 25.574219 83.597656 25.898438 83.757812 26.058594 C 84.078125 26.222656 84.402344 26.222656 84.722656 26.058594 C 84.886719 25.738281 84.886719 25.414062 84.722656 25.089844 C 84.5625 24.929688 84.242188 24.929688 84.078125 24.929688 C 81.179688 22.183594 77.960938 19.921875 74.417969 18.308594 C 70.875 16.53125 67.011719 15.238281 63.148438 14.429688 C 63.148438 14.105469 62.824219 13.945312 62.664062 13.945312 C 62.34375 13.945312 62.019531 14.105469 62.019531 14.429688 C 62.019531 14.753906 61.699219 15.398438 62.179688 15.398438 Z M 62.179688 15.398438 " fill-opacity="1" fill-rule="nonzero"/></g><path fill="#000000" d="M 44.148438 94.867188 C 44.46875 95.03125 44.792969 94.707031 44.953125 94.382812 C 45.113281 94.058594 44.792969 93.738281 44.46875 93.574219 C 44.148438 93.574219 43.984375 93.574219 43.824219 93.738281 C 35.128906 91.152344 27.5625 85.5 22.410156 77.910156 C 22.570312 77.746094 22.570312 77.421875 22.410156 77.261719 C 22.25 76.9375 21.765625 76.9375 21.605469 77.101562 C 21.28125 77.261719 21.28125 77.746094 21.445312 77.910156 C 21.605469 78.070312 21.925781 78.230469 22.085938 78.070312 C 24.664062 81.945312 27.722656 85.175781 31.425781 87.921875 C 35.128906 90.667969 39.316406 92.769531 43.664062 94.222656 C 43.664062 94.546875 43.824219 94.707031 44.148438 94.867188 Z M 44.148438 94.867188 " fill-opacity="1" fill-rule="nonzero"/><path fill="#000000" d="M 79.570312 87.761719 C 79.730469 87.921875 80.054688 87.921875 80.375 87.761719 C 80.699219 87.597656 80.699219 87.113281 80.539062 86.953125 C 80.375 86.792969 79.894531 86.628906 79.730469 86.792969 C 79.570312 86.953125 79.410156 87.277344 79.570312 87.4375 C 72.648438 92.769531 64.4375 95.515625 55.578125 95.515625 C 54.613281 95.515625 53.648438 95.515625 52.679688 95.351562 C 52.679688 95.03125 52.359375 94.867188 52.199219 94.867188 C 51.875 94.867188 51.554688 95.03125 51.554688 95.515625 C 51.554688 95.835938 51.714844 96.160156 52.199219 96.160156 C 52.519531 96.160156 52.679688 96 52.84375 95.835938 C 53.808594 95.835938 54.773438 96 55.742188 96 C 60.25 96 64.757812 95.191406 69.105469 93.738281 C 72.488281 92.285156 76.191406 90.34375 79.570312 87.761719 Z M 79.570312 87.761719 " fill-opacity="1" fill-rule="nonzero"/><path fill="#000000" d="M 90.519531 75.808594 C 90.683594 75.484375 90.519531 75.164062 90.359375 75 C 90.199219 74.839844 89.714844 75 89.554688 75.164062 C 89.394531 75.324219 89.394531 75.648438 89.554688 75.808594 C 88.265625 78.070312 86.65625 80.167969 85.046875 82.109375 C 84.886719 81.945312 84.5625 82.109375 84.402344 82.269531 C 84.242188 82.59375 84.242188 82.914062 84.402344 83.238281 C 84.5625 83.5625 85.046875 83.398438 85.367188 83.238281 C 85.527344 83.078125 85.527344 82.753906 85.527344 82.59375 C 87.300781 80.652344 88.75 78.394531 90.199219 76.132812 C 90.039062 76.132812 90.359375 75.96875 90.519531 75.808594 Z M 90.519531 75.808594 " fill-opacity="1" fill-rule="nonzero"/><path fill="#000000" d="M 92.9375 43.503906 C 92.613281 43.664062 92.453125 43.988281 92.453125 44.3125 C 92.613281 44.636719 92.773438 44.796875 93.097656 44.796875 C 94.222656 48.511719 94.707031 52.226562 94.707031 56.101562 C 94.707031 60.785156 93.902344 65.308594 92.453125 69.507812 C 92.128906 69.507812 91.96875 69.671875 91.808594 69.832031 C 91.648438 70.15625 91.808594 70.476562 92.128906 70.640625 C 92.453125 70.800781 92.773438 70.640625 92.9375 70.316406 C 93.097656 69.992188 92.9375 69.832031 92.773438 69.671875 C 94.386719 65.308594 95.191406 60.785156 95.191406 56.101562 C 95.191406 52.226562 94.707031 48.351562 93.578125 44.636719 C 93.742188 44.472656 93.902344 44.148438 93.742188 43.988281 C 93.578125 43.664062 93.257812 43.34375 92.9375 43.503906 Z M 92.9375 43.503906 " fill-opacity="1" fill-rule="nonzero"/><path fill="#000000" d="M 90.359375 37.203125 C 86.171875 29.289062 79.25 22.992188 71.039062 19.4375 C 71.039062 19.113281 70.875 18.953125 70.714844 18.792969 C 70.394531 18.628906 70.070312 18.792969 69.910156 19.113281 C 69.75 19.4375 69.910156 19.761719 70.230469 19.921875 C 70.554688 20.082031 70.714844 19.921875 70.875 19.761719 C 78.925781 23.3125 85.691406 29.453125 89.875 37.367188 C 89.714844 37.527344 89.714844 37.851562 89.714844 38.011719 C 89.875 38.335938 90.199219 38.496094 90.519531 38.335938 C 90.84375 38.175781 91.003906 37.851562 90.84375 37.527344 C 91.003906 37.203125 90.683594 37.042969 90.359375 37.203125 Z M 90.359375 37.203125 " fill-opacity="1" fill-rule="nonzero"/><path fill="#000000" d="M 65.242188 17.015625 C 64.917969 17.015625 64.757812 17.015625 64.597656 17.335938 C 61.539062 16.691406 58.476562 16.207031 55.257812 16.207031 C 51.554688 16.207031 48.011719 16.691406 44.46875 17.660156 C 41.25 18.628906 38.191406 19.921875 35.292969 21.539062 C 35.128906 21.375 34.808594 21.375 34.648438 21.539062 C 34.484375 21.539062 34.324219 22.023438 34.484375 22.34375 C 34.648438 22.667969 34.96875 22.667969 35.292969 22.507812 C 35.453125 22.34375 35.613281 22.023438 35.613281 21.859375 C 41.570312 18.46875 48.332031 16.53125 55.257812 16.53125 C 58.316406 16.53125 61.375 16.851562 64.4375 17.660156 C 64.4375 17.984375 64.597656 18.144531 64.917969 18.144531 C 65.242188 18.308594 65.5625 17.984375 65.722656 17.660156 C 65.886719 17.335938 65.722656 17.015625 65.242188 17.015625 Z M 65.242188 17.015625 " fill-opacity="1" fill-rule="nonzero"/><path fill="#000000" d="M 18.867188 40.597656 C 19.1875 40.757812 19.511719 40.597656 19.671875 40.273438 C 19.832031 39.949219 19.671875 39.789062 19.511719 39.628906 C 21.925781 34.296875 25.628906 29.453125 30.136719 25.738281 C 30.300781 25.898438 30.621094 25.898438 30.78125 25.738281 C 31.265625 25.414062 31.265625 24.929688 30.945312 24.769531 C 30.78125 24.445312 30.460938 24.445312 30.136719 24.605469 C 29.976562 24.769531 29.816406 25.089844 29.976562 25.253906 C 25.308594 29.128906 21.605469 33.972656 19.1875 39.464844 C 18.867188 39.464844 18.707031 39.628906 18.546875 39.789062 C 18.382812 40.113281 18.546875 40.433594 18.867188 40.597656 Z M 18.867188 40.597656 " fill-opacity="1" fill-rule="nonzero"/><path fill="#000000" d="M 24.019531 34.78125 C 23.699219 34.78125 23.535156 34.78125 23.375 35.105469 C 23.214844 35.429688 23.214844 35.75 23.535156 35.914062 C 23.859375 36.074219 24.179688 36.074219 24.34375 35.75 C 24.503906 35.589844 24.503906 35.265625 24.34375 35.105469 C 28.527344 28.96875 34.484375 24.121094 41.25 21.375 C 41.410156 21.539062 41.730469 21.699219 41.894531 21.539062 C 42.214844 21.375 42.375 21.054688 42.214844 20.730469 C 42.054688 20.40625 41.730469 20.246094 41.410156 20.40625 C 41.089844 20.566406 40.925781 20.730469 40.925781 21.054688 C 37.707031 22.34375 34.484375 24.285156 31.585938 26.707031 C 28.691406 28.96875 26.113281 31.714844 24.019531 34.78125 Z M 24.019531 34.78125 " fill-opacity="1" fill-rule="nonzero"/><path fill="#000000" d="M 31.425781 85.984375 C 31.75 86.144531 32.070312 86.144531 32.230469 85.824219 C 32.394531 85.5 32.394531 85.175781 32.070312 85.015625 C 31.910156 84.855469 31.585938 84.855469 31.425781 85.015625 C 27.5625 81.785156 24.179688 77.585938 21.925781 73.0625 C 22.085938 72.902344 22.085938 72.578125 22.085938 72.417969 C 21.925781 71.933594 21.605469 71.769531 21.28125 71.933594 C 20.960938 72.09375 20.800781 72.417969 20.960938 72.738281 C 21.121094 73.0625 21.28125 73.0625 21.605469 73.0625 C 22.730469 75.324219 24.179688 77.585938 25.792969 79.683594 C 27.402344 81.625 29.171875 83.5625 31.265625 85.175781 C 31.105469 85.5 31.265625 85.824219 31.425781 85.984375 Z M 31.425781 85.984375 " fill-opacity="1" fill-rule="nonzero"/><path fill="#000000" d="M 38.996094 90.667969 C 39.316406 90.828125 39.476562 90.667969 39.640625 90.507812 C 44.148438 92.605469 48.976562 93.738281 54.128906 93.898438 C 54.292969 94.222656 54.453125 94.382812 54.773438 94.382812 C 55.097656 94.382812 55.417969 94.058594 55.417969 93.738281 C 55.417969 93.414062 55.097656 93.089844 54.773438 93.089844 C 54.453125 93.089844 54.292969 93.253906 54.128906 93.574219 C 49.140625 93.414062 44.308594 92.285156 39.800781 90.183594 C 39.800781 89.859375 39.640625 89.699219 39.476562 89.539062 C 39.15625 89.375 38.832031 89.539062 38.671875 89.859375 C 38.511719 90.183594 38.671875 90.507812 38.996094 90.667969 Z M 38.996094 90.667969 " fill-opacity="1" fill-rule="nonzero"/><path fill="#000000" d="M 60.25 94.058594 C 60.570312 94.058594 60.730469 93.898438 60.730469 93.574219 C 63.308594 93.253906 65.886719 92.605469 68.300781 91.636719 C 70.714844 90.828125 72.96875 89.539062 75.222656 88.246094 C 75.386719 88.40625 75.707031 88.40625 76.027344 88.246094 C 76.351562 88.085938 76.351562 87.597656 76.191406 87.4375 C 76.027344 87.113281 75.546875 87.113281 75.386719 87.277344 C 75.222656 87.4375 75.0625 87.761719 75.0625 87.921875 C 70.714844 90.667969 65.886719 92.445312 60.730469 93.253906 C 60.570312 92.929688 60.25 92.769531 60.089844 92.769531 C 59.765625 92.769531 59.445312 93.089844 59.605469 93.414062 C 59.765625 93.738281 59.925781 94.058594 60.25 94.058594 Z M 60.25 94.058594 " fill-opacity="1" fill-rule="nonzero"/><path fill="#000000" d="M 92.9375 63.046875 C 92.9375 62.726562 92.773438 62.402344 92.453125 62.242188 C 92.128906 62.078125 91.808594 62.402344 91.648438 62.726562 C 91.648438 63.046875 91.808594 63.210938 91.96875 63.371094 C 90.519531 70.476562 87.140625 76.9375 81.988281 82.109375 C 81.824219 81.945312 81.503906 82.109375 81.34375 82.269531 C 81.019531 82.59375 81.019531 82.914062 81.34375 83.238281 C 81.664062 83.5625 81.988281 83.5625 82.308594 83.238281 C 82.46875 83.078125 82.46875 82.753906 82.46875 82.59375 C 85.046875 80.007812 87.140625 77.101562 88.75 73.871094 C 90.519531 70.640625 91.648438 67.085938 92.453125 63.53125 C 92.613281 63.53125 92.773438 63.371094 92.9375 63.046875 Z M 92.9375 63.046875 " fill-opacity="1" fill-rule="nonzero"/><path fill="#000000" d="M 87.460938 35.429688 C 87.300781 35.105469 86.816406 35.105469 86.65625 35.265625 C 86.335938 35.429688 86.335938 35.914062 86.496094 36.074219 C 86.65625 36.234375 86.976562 36.398438 87.140625 36.398438 C 90.84375 42.375 92.773438 49.15625 92.773438 56.101562 C 92.773438 56.425781 92.773438 56.75 92.773438 56.910156 C 92.453125 56.910156 92.292969 57.234375 92.292969 57.554688 C 92.292969 57.878906 92.613281 58.203125 92.9375 58.203125 C 93.257812 58.203125 93.578125 57.878906 93.578125 57.554688 C 93.578125 57.234375 93.417969 57.070312 93.257812 56.910156 C 93.257812 56.585938 93.257812 56.265625 93.257812 56.101562 C 93.257812 48.996094 91.324219 42.210938 87.621094 36.234375 C 87.621094 35.914062 87.621094 35.75 87.460938 35.429688 Z M 87.460938 35.429688 " fill-opacity="1" fill-rule="nonzero"/><path fill="#000000" d="M 82.792969 30.097656 C 80.859375 28 78.605469 26.222656 76.351562 24.605469 C 75.386719 23.960938 74.257812 23.3125 73.128906 22.667969 C 73.128906 22.34375 72.96875 22.183594 72.808594 22.023438 C 72.488281 21.859375 72.164062 22.023438 72.003906 22.34375 C 71.84375 22.667969 72.003906 22.992188 72.324219 23.152344 C 72.648438 23.3125 72.808594 23.152344 72.96875 22.992188 C 74.097656 23.636719 75.0625 24.285156 76.191406 24.929688 C 78.445312 26.542969 80.699219 28.320312 82.628906 30.421875 C 82.46875 30.582031 82.46875 30.90625 82.792969 31.066406 C 82.953125 31.390625 83.4375 31.390625 83.757812 31.066406 C 84.078125 30.90625 84.078125 30.421875 83.757812 30.097656 C 83.273438 30.097656 83.113281 29.9375 82.792969 30.097656 Z M 82.792969 30.097656 " fill-opacity="1" fill-rule="nonzero"/><path fill="#000000" d="M 32.394531 82.429688 C 32.230469 82.269531 31.910156 82.269531 31.75 82.429688 C 29.65625 80.492188 27.722656 78.394531 26.113281 75.96875 C 26.273438 75.808594 26.273438 75.484375 26.113281 75.164062 C 25.953125 74.839844 25.46875 74.839844 25.308594 75 C 24.984375 75.164062 24.984375 75.648438 25.148438 75.808594 C 25.308594 75.96875 25.628906 76.132812 25.792969 76.132812 C 27.402344 78.554688 29.332031 80.816406 31.425781 82.753906 C 31.265625 82.914062 31.425781 83.238281 31.585938 83.398438 C 31.910156 83.5625 32.230469 83.5625 32.394531 83.398438 C 32.554688 83.238281 32.714844 82.59375 32.394531 82.429688 Z M 32.394531 82.429688 " fill-opacity="1" fill-rule="nonzero"/><path fill="#000000" d="M 36.742188 86.953125 C 36.902344 87.113281 37.222656 87.113281 37.382812 86.953125 C 39.960938 88.570312 42.859375 89.699219 45.757812 90.507812 C 45.757812 90.828125 45.917969 90.992188 46.242188 90.992188 C 46.5625 91.152344 46.882812 90.828125 47.046875 90.507812 C 47.207031 90.183594 46.882812 89.859375 46.5625 89.699219 C 46.242188 89.699219 46.078125 89.699219 45.917969 90.023438 C 43.019531 89.214844 40.28125 88.085938 37.707031 86.46875 C 37.707031 86.144531 37.707031 85.984375 37.382812 85.824219 C 37.0625 85.660156 36.742188 85.660156 36.578125 85.984375 C 36.417969 86.308594 36.417969 86.792969 36.742188 86.953125 Z M 36.742188 86.953125 " fill-opacity="1" fill-rule="nonzero"/><path fill="#000000" d="M 66.527344 90.023438 C 66.691406 90.183594 67.011719 90.34375 67.171875 90.183594 C 67.496094 90.023438 67.65625 89.699219 67.496094 89.375 C 67.332031 89.054688 67.011719 88.890625 66.691406 89.054688 C 66.367188 89.214844 66.207031 89.375 66.207031 89.699219 C 62.664062 90.828125 58.960938 91.476562 55.097656 91.476562 C 54.128906 91.476562 53.164062 91.476562 52.199219 91.316406 C 52.199219 90.992188 51.875 90.828125 51.714844 90.828125 C 51.394531 90.828125 51.070312 90.992188 51.070312 91.316406 C 51.070312 91.636719 51.230469 91.960938 51.554688 91.960938 C 51.875 91.960938 52.039062 91.800781 52.199219 91.636719 C 53.164062 91.800781 54.128906 91.800781 55.097656 91.800781 C 59.121094 91.800781 62.988281 91.316406 66.527344 90.023438 Z M 66.527344 90.023438 " fill-opacity="1" fill-rule="nonzero"/><path fill="#000000" d="M 83.917969 77.421875 C 84.242188 77.421875 84.402344 77.421875 84.5625 77.261719 C 84.722656 76.9375 84.722656 76.617188 84.402344 76.453125 C 84.078125 76.292969 83.757812 76.292969 83.597656 76.617188 C 83.4375 76.777344 83.4375 77.101562 83.597656 77.261719 C 80.699219 81.140625 76.996094 84.367188 72.96875 86.792969 C 72.808594 86.628906 72.488281 86.628906 72.324219 86.792969 C 72.003906 86.953125 71.84375 87.277344 72.003906 87.597656 C 72.164062 87.921875 72.488281 88.085938 72.808594 87.921875 C 72.96875 87.761719 73.128906 87.597656 73.128906 87.277344 C 75.222656 85.984375 77.15625 84.691406 79.089844 82.914062 C 80.859375 81.140625 82.46875 79.363281 83.917969 77.421875 Z M 83.917969 77.421875 " fill-opacity="1" fill-rule="nonzero"/><path fill="#000000" d="M 89.234375 45.605469 C 88.910156 45.765625 88.75 46.089844 88.75 46.410156 C 88.75 46.734375 89.070312 46.894531 89.394531 46.894531 C 90.199219 49.964844 90.683594 53.035156 90.683594 56.101562 C 90.683594 59.980469 90.039062 63.855469 88.910156 67.410156 C 88.589844 67.410156 88.425781 67.570312 88.265625 67.894531 C 88.105469 68.21875 88.265625 68.539062 88.589844 68.703125 C 88.910156 68.863281 89.234375 68.703125 89.394531 68.378906 C 89.554688 68.054688 89.394531 67.894531 89.234375 67.734375 C 90.519531 64.015625 91.164062 60.140625 91.164062 56.265625 C 91.164062 53.035156 90.683594 49.964844 89.875 46.894531 C 90.039062 46.734375 90.199219 46.410156 90.039062 46.25 C 89.875 45.765625 89.554688 45.441406 89.234375 45.605469 Z M 89.234375 45.605469 " fill-opacity="1" fill-rule="nonzero"/><path fill="#000000" d="M 87.300781 40.273438 C 86.335938 38.175781 85.046875 36.398438 83.757812 34.460938 C 82.46875 32.683594 80.859375 31.066406 79.25 29.453125 C 79.410156 29.289062 79.25 28.96875 79.089844 28.804688 C 78.765625 28.644531 78.445312 28.644531 78.285156 28.804688 C 77.960938 29.128906 77.960938 29.613281 78.285156 29.773438 C 78.445312 29.9375 78.765625 29.9375 78.925781 29.773438 C 82.308594 32.84375 84.886719 36.398438 86.976562 40.273438 C 86.816406 40.433594 86.816406 40.757812 86.816406 40.917969 C 86.976562 41.242188 87.300781 41.40625 87.621094 41.242188 C 87.945312 41.082031 88.105469 40.757812 87.945312 40.433594 C 87.785156 40.273438 87.621094 40.273438 87.300781 40.273438 Z M 87.300781 40.273438 " fill-opacity="1" fill-rule="nonzero"/><path fill="#000000" d="M 64.4375 21.054688 C 64.113281 20.890625 63.792969 21.214844 63.628906 21.539062 C 63.46875 21.859375 63.792969 22.183594 64.113281 22.34375 C 64.4375 22.34375 64.597656 22.34375 64.757812 22.023438 C 67.65625 22.828125 70.394531 23.960938 72.96875 25.414062 C 72.96875 25.738281 72.96875 25.898438 73.292969 26.058594 C 73.613281 26.222656 73.9375 26.222656 74.097656 25.898438 C 74.257812 25.574219 74.257812 25.253906 73.9375 25.089844 C 73.613281 24.929688 73.292969 24.929688 73.128906 25.089844 C 70.554688 23.636719 67.816406 22.34375 64.917969 21.539062 C 64.917969 21.375 64.757812 21.054688 64.4375 21.054688 Z M 64.4375 21.054688 " fill-opacity="1" fill-rule="nonzero"/><path fill="#000000" d="M 58.960938 20.082031 C 58.640625 20.082031 58.476562 20.246094 58.316406 20.40625 C 57.351562 20.246094 56.382812 20.246094 55.417969 20.246094 C 52.519531 20.246094 49.78125 20.566406 47.046875 21.214844 C 46.402344 21.375 45.597656 21.539062 44.953125 21.859375 C 40.765625 23.152344 36.902344 25.253906 33.359375 28 C 33.199219 27.835938 32.875 27.835938 32.554688 28 C 32.230469 28.160156 32.230469 28.644531 32.394531 28.804688 C 32.554688 29.128906 33.035156 29.128906 33.199219 28.96875 C 33.359375 28.804688 33.519531 28.484375 33.359375 28.320312 C 36.742188 25.574219 40.605469 23.636719 44.792969 22.34375 C 45.433594 22.183594 46.242188 22.023438 46.882812 21.699219 C 49.621094 21.054688 52.359375 20.730469 55.097656 20.730469 C 56.0625 20.730469 57.027344 20.730469 57.996094 20.890625 C 57.996094 21.214844 58.316406 21.375 58.476562 21.375 C 58.800781 21.375 59.121094 21.214844 59.121094 20.890625 C 59.605469 20.40625 59.28125 20.082031 58.960938 20.082031 Z M 58.960938 20.082031 " fill-opacity="1" fill-rule="nonzero"/><path fill="#000000" d="M 62.34375 89.375 C 62.664062 89.375 62.824219 89.054688 62.824219 88.890625 C 67.171875 87.921875 71.199219 86.144531 74.902344 83.398438 C 76.671875 82.109375 78.445312 80.492188 80.054688 78.878906 C 81.503906 77.421875 82.792969 75.648438 83.917969 73.871094 C 84.242188 73.871094 84.402344 73.871094 84.5625 73.546875 C 84.722656 73.222656 84.722656 72.902344 84.402344 72.738281 C 84.078125 72.578125 83.757812 72.578125 83.597656 72.902344 C 83.4375 73.0625 83.4375 73.386719 83.597656 73.546875 C 78.925781 80.976562 71.519531 86.308594 62.988281 88.246094 C 62.824219 88.085938 62.664062 87.921875 62.34375 87.921875 C 62.019531 87.921875 61.859375 88.246094 61.859375 88.730469 C 61.699219 89.214844 62.019531 89.539062 62.34375 89.375 Z M 62.34375 89.375 " fill-opacity="1" fill-rule="nonzero"/><path fill="#000000" d="M 88.910156 60.949219 C 88.910156 60.625 88.75 60.300781 88.425781 60.300781 C 88.105469 60.300781 87.785156 60.464844 87.785156 60.785156 C 87.785156 61.109375 87.945312 61.273438 88.105469 61.433594 C 87.621094 64.179688 86.816406 66.925781 85.691406 69.507812 C 85.367188 69.507812 85.207031 69.671875 85.046875 69.832031 C 84.886719 70.15625 85.046875 70.476562 85.367188 70.640625 C 85.691406 70.800781 86.011719 70.640625 86.171875 70.316406 C 86.335938 69.992188 86.171875 69.832031 86.011719 69.671875 C 87.140625 67.085938 87.945312 64.339844 88.425781 61.433594 C 88.75 61.433594 88.910156 61.273438 88.910156 60.949219 Z M 88.910156 60.949219 " fill-opacity="1" fill-rule="nonzero"/><path fill="#000000" d="M 86.011719 42.375 C 86.171875 42.210938 86.335938 41.890625 86.171875 41.726562 C 86.011719 41.40625 85.691406 41.242188 85.367188 41.40625 C 85.046875 41.566406 84.886719 41.890625 85.046875 42.210938 C 85.207031 42.535156 85.367188 42.535156 85.691406 42.535156 C 86.171875 43.828125 86.65625 45.121094 87.140625 46.410156 C 87.945312 49.15625 88.425781 51.902344 88.425781 54.648438 C 88.105469 54.8125 87.945312 54.972656 87.945312 55.296875 C 87.945312 55.617188 88.265625 55.941406 88.589844 55.941406 C 88.910156 55.941406 89.234375 55.617188 89.234375 55.296875 C 89.234375 54.972656 89.070312 54.8125 88.75 54.648438 C 88.589844 51.742188 88.105469 48.996094 87.300781 46.25 C 87.140625 45.121094 86.65625 43.664062 86.011719 42.375 Z M 86.011719 42.375 " fill-opacity="1" fill-rule="nonzero"/><path fill="#000000" d="M 83.273438 38.980469 C 83.4375 39.304688 83.917969 39.304688 84.078125 39.144531 C 84.402344 38.980469 84.402344 38.496094 84.242188 38.335938 C 84.078125 38.175781 83.757812 38.011719 83.597656 38.011719 C 80.859375 33.8125 77.316406 30.097656 72.96875 27.511719 C 72.96875 27.191406 72.96875 27.027344 72.648438 26.867188 C 72.324219 26.707031 72.003906 26.867188 71.84375 27.027344 C 71.679688 27.351562 71.84375 27.675781 72.003906 27.835938 C 72.164062 28 72.488281 28 72.648438 27.835938 C 76.835938 30.421875 80.375 33.972656 83.113281 38.175781 C 83.113281 38.335938 83.113281 38.660156 83.273438 38.980469 Z M 83.273438 38.980469 " fill-opacity="1" fill-rule="nonzero"/><path fill="#000000" d="M 67.496094 24.285156 C 67.171875 24.121094 67.011719 24.285156 66.851562 24.445312 C 63.628906 23.3125 60.089844 22.507812 56.707031 22.507812 C 56.546875 22.183594 56.382812 22.023438 56.0625 22.023438 C 55.742188 22.023438 55.417969 22.34375 55.417969 22.667969 C 55.417969 22.992188 55.742188 23.3125 56.0625 23.3125 C 56.382812 23.3125 56.546875 23.152344 56.707031 22.828125 C 60.089844 22.992188 63.46875 23.636719 66.691406 24.769531 C 66.691406 25.089844 66.851562 25.253906 67.011719 25.414062 C 67.332031 25.574219 67.65625 25.414062 67.816406 25.089844 C 67.976562 24.769531 67.816406 24.285156 67.496094 24.285156 Z M 67.496094 24.285156 " fill-opacity="1" fill-rule="nonzero"/><path fill="#000000" d="M 50.265625 22.34375 C 49.945312 22.34375 49.78125 22.667969 49.78125 22.828125 C 47.046875 23.3125 44.308594 24.121094 41.730469 25.253906 C 41.570312 25.089844 41.25 24.929688 41.089844 25.089844 C 40.765625 25.253906 40.605469 25.574219 40.765625 25.898438 C 40.925781 26.222656 41.25 26.382812 41.570312 26.222656 C 41.894531 26.058594 41.894531 25.898438 41.894531 25.574219 C 44.46875 24.445312 47.046875 23.636719 49.78125 23.152344 C 49.945312 23.3125 50.105469 23.476562 50.425781 23.476562 C 50.75 23.476562 51.070312 23.152344 50.910156 22.828125 C 50.910156 22.507812 50.589844 22.34375 50.265625 22.34375 Z M 50.265625 22.34375 " fill-opacity="1" fill-rule="nonzero"/><path fill="#000000" d="M 26.597656 38.660156 C 26.273438 38.660156 26.113281 38.660156 25.953125 38.980469 C 25.792969 39.304688 25.953125 39.628906 26.113281 39.789062 C 26.433594 39.949219 26.757812 39.789062 26.917969 39.628906 C 27.078125 39.464844 27.078125 39.144531 26.917969 38.980469 C 29.171875 35.265625 32.230469 31.875 35.613281 29.289062 C 35.773438 29.453125 36.097656 29.453125 36.257812 29.289062 C 36.578125 29.128906 36.578125 28.644531 36.417969 28.484375 C 36.257812 28.160156 35.773438 28.160156 35.613281 28.320312 C 35.453125 28.484375 35.292969 28.804688 35.453125 28.96875 C 33.679688 30.257812 32.070312 31.714844 30.460938 33.328125 C 29.011719 34.945312 27.722656 36.882812 26.597656 38.660156 Z M 26.597656 38.660156 " fill-opacity="1" fill-rule="nonzero"/><path fill="#000000" d="M 39.640625 86.308594 C 39.960938 86.46875 40.28125 86.308594 40.445312 85.984375 C 40.605469 85.660156 40.445312 85.339844 40.121094 85.175781 C 39.800781 85.015625 39.640625 85.175781 39.476562 85.339844 C 34.003906 82.429688 29.496094 78.070312 26.433594 72.578125 C 26.597656 72.417969 26.597656 72.09375 26.597656 71.933594 C 26.433594 71.609375 26.113281 71.449219 25.792969 71.609375 C 25.46875 71.769531 25.308594 72.09375 25.46875 72.417969 C 25.628906 72.578125 25.792969 72.738281 26.113281 72.738281 C 27.722656 75.484375 29.496094 77.910156 31.75 80.167969 C 34.003906 82.429688 36.417969 84.207031 39.15625 85.660156 C 39.316406 85.984375 39.476562 86.308594 39.640625 86.308594 Z M 39.640625 86.308594 " fill-opacity="1" fill-rule="nonzero"/><path fill="#000000" d="M 45.273438 88.730469 C 45.597656 88.730469 45.757812 88.730469 45.917969 88.570312 C 48.976562 89.375 52.039062 89.859375 55.257812 89.859375 C 55.578125 89.859375 55.902344 89.859375 56.0625 89.859375 C 56.222656 90.023438 56.382812 90.34375 56.707031 90.183594 C 57.027344 90.183594 57.351562 89.859375 57.351562 89.539062 C 57.351562 89.214844 57.027344 88.890625 56.707031 88.890625 C 56.382812 88.890625 56.222656 89.054688 56.0625 89.375 C 55.742188 89.375 55.417969 89.375 55.257812 89.375 C 52.199219 89.375 48.976562 88.890625 46.078125 88.085938 C 46.078125 87.761719 45.917969 87.597656 45.597656 87.4375 C 45.273438 87.277344 44.953125 87.597656 44.792969 87.921875 C 44.792969 88.246094 44.953125 88.570312 45.273438 88.730469 Z M 45.273438 88.730469 " fill-opacity="1" fill-rule="nonzero"/><path fill="#000000" d="M 70.875 83.078125 C 70.714844 82.914062 70.394531 82.914062 70.230469 83.078125 C 69.910156 83.078125 69.75 83.5625 69.910156 83.882812 C 70.070312 84.207031 70.394531 84.367188 70.714844 84.207031 C 70.875 84.046875 71.039062 83.882812 71.039062 83.5625 C 73.773438 81.945312 76.191406 80.007812 78.285156 77.746094 C 80.375 75.484375 82.148438 72.902344 83.597656 69.992188 C 83.917969 69.992188 84.078125 69.832031 84.242188 69.671875 C 84.402344 69.347656 84.242188 69.023438 83.917969 68.863281 C 83.597656 68.703125 83.273438 68.863281 83.113281 69.1875 C 82.953125 69.507812 83.113281 69.671875 83.273438 69.832031 C 80.699219 75.164062 76.191406 80.007812 70.875 83.078125 Z M 70.875 83.078125 " fill-opacity="1" fill-rule="nonzero"/><path fill="#000000" d="M 87.140625 54.488281 C 87.140625 54.164062 86.816406 53.839844 86.496094 53.839844 C 86.171875 53.839844 85.851562 54.164062 85.851562 54.488281 C 85.851562 54.8125 86.011719 54.972656 86.335938 55.132812 C 86.335938 55.457031 86.335938 55.78125 86.335938 56.101562 C 86.335938 58.527344 86.011719 60.949219 85.527344 63.210938 C 85.207031 63.210938 85.046875 63.371094 85.046875 63.695312 C 84.886719 64.015625 85.207031 64.339844 85.527344 64.503906 C 85.851562 64.664062 86.171875 64.339844 86.335938 64.015625 C 86.335938 63.695312 86.335938 63.53125 86.011719 63.371094 C 86.496094 60.949219 86.816406 58.527344 86.816406 56.101562 C 86.816406 55.78125 86.816406 55.457031 86.816406 55.132812 C 86.976562 54.972656 87.140625 54.8125 87.140625 54.488281 Z M 87.140625 54.488281 " fill-opacity="1" fill-rule="nonzero"/><path fill="#000000" d="M 85.207031 49.320312 C 85.207031 49.640625 85.691406 49.804688 86.011719 49.804688 C 86.335938 49.804688 86.496094 49.320312 86.496094 48.996094 C 86.496094 48.671875 86.171875 48.511719 86.011719 48.511719 C 85.207031 45.28125 83.917969 42.375 82.308594 39.464844 C 82.46875 39.304688 82.46875 38.980469 82.308594 38.660156 C 82.148438 38.335938 81.664062 38.335938 81.503906 38.496094 C 81.179688 38.660156 81.179688 39.144531 81.34375 39.304688 C 81.503906 39.464844 81.824219 39.628906 81.988281 39.628906 C 83.597656 42.375 84.886719 45.28125 85.691406 48.511719 C 85.367188 48.835938 85.207031 48.996094 85.207031 49.320312 Z M 85.207031 49.320312 " fill-opacity="1" fill-rule="nonzero"/><path fill="#000000" d="M 64.4375 25.414062 C 64.113281 25.253906 63.792969 25.574219 63.628906 25.898438 C 63.628906 26.222656 63.792969 26.542969 64.113281 26.542969 C 64.4375 26.542969 64.597656 26.542969 64.757812 26.382812 C 69.425781 27.835938 73.613281 30.421875 77.15625 33.972656 C 76.996094 34.136719 77.15625 34.460938 77.316406 34.621094 C 77.476562 34.945312 77.960938 34.945312 78.285156 34.621094 C 78.605469 34.296875 78.605469 33.972656 78.285156 33.652344 C 78.121094 33.488281 77.800781 33.328125 77.640625 33.488281 C 74.097656 29.9375 69.75 27.351562 65.078125 25.898438 C 64.917969 25.738281 64.757812 25.414062 64.4375 25.414062 Z M 64.4375 25.414062 " fill-opacity="1" fill-rule="nonzero"/><path fill="#000000" d="M 58.800781 25.574219 C 59.121094 25.574219 59.445312 25.414062 59.445312 25.089844 C 59.445312 24.769531 59.28125 24.445312 58.960938 24.445312 C 58.640625 24.445312 58.476562 24.605469 58.316406 24.769531 C 57.351562 24.605469 56.382812 24.605469 55.257812 24.605469 C 53.324219 24.605469 51.394531 24.769531 49.460938 25.089844 C 49.300781 24.929688 49.140625 24.769531 48.816406 24.769531 C 48.496094 24.769531 48.332031 25.253906 48.332031 25.574219 C 48.332031 25.898438 48.816406 26.058594 49.140625 26.058594 C 49.460938 26.058594 49.621094 25.738281 49.621094 25.574219 C 51.554688 25.089844 53.488281 24.929688 55.417969 24.929688 C 56.382812 24.929688 57.351562 24.929688 58.316406 25.089844 C 58.316406 25.253906 58.476562 25.574219 58.800781 25.574219 Z M 58.800781 25.574219 " fill-opacity="1" fill-rule="nonzero"/><path fill="#000000" d="M 42.375 27.835938 C 42.535156 28 42.859375 28.160156 43.019531 28 C 43.34375 27.835938 43.503906 27.511719 43.34375 27.191406 C 43.179688 26.867188 42.859375 26.707031 42.535156 26.867188 C 42.214844 27.027344 42.214844 27.191406 42.214844 27.511719 C 37.546875 29.613281 33.359375 33.003906 30.300781 37.203125 C 29.976562 37.203125 29.816406 37.203125 29.65625 37.367188 C 29.496094 37.691406 29.496094 38.011719 29.816406 38.175781 C 30.136719 38.335938 30.460938 38.335938 30.621094 38.011719 C 30.78125 37.851562 30.78125 37.527344 30.621094 37.367188 C 33.679688 33.167969 37.707031 29.9375 42.375 27.835938 Z M 42.375 27.835938 " fill-opacity="1" fill-rule="nonzero"/><path fill="#000000" d="M 31.425781 77.261719 C 31.585938 77.585938 32.070312 77.585938 32.394531 77.261719 C 32.714844 77.101562 32.714844 76.617188 32.394531 76.292969 C 32.230469 76.132812 31.910156 75.96875 31.75 76.132812 C 29.65625 73.707031 28.046875 71.125 26.917969 68.21875 C 27.078125 68.054688 27.242188 67.734375 27.078125 67.570312 C 26.917969 67.246094 26.597656 67.085938 26.273438 67.246094 C 25.953125 67.410156 25.792969 67.734375 25.953125 68.054688 C 25.953125 68.378906 26.113281 68.539062 26.433594 68.539062 C 27.722656 71.449219 29.332031 74.03125 31.425781 76.453125 C 31.265625 76.777344 31.265625 77.101562 31.425781 77.261719 Z M 31.425781 77.261719 " fill-opacity="1" fill-rule="nonzero"/><path fill="#000000" d="M 37.382812 82.109375 C 40.605469 84.367188 44.148438 85.984375 47.851562 86.792969 C 47.851562 87.113281 48.011719 87.277344 48.332031 87.277344 C 48.65625 87.277344 48.976562 87.113281 49.140625 86.792969 C 49.140625 86.46875 48.976562 86.144531 48.65625 85.984375 C 48.332031 85.984375 48.171875 85.984375 48.011719 86.308594 C 44.308594 85.339844 40.925781 83.882812 37.707031 81.625 C 37.707031 81.300781 37.707031 81.140625 37.546875 80.976562 C 37.222656 80.816406 36.902344 80.816406 36.742188 81.140625 C 36.578125 81.460938 36.578125 81.785156 36.902344 81.945312 C 36.902344 82.269531 37.222656 82.269531 37.382812 82.109375 Z M 37.382812 82.109375 " fill-opacity="1" fill-rule="nonzero"/><path fill="#000000" d="M 65.402344 86.46875 C 65.722656 86.308594 65.886719 85.984375 65.722656 85.660156 C 65.5625 85.339844 65.242188 85.175781 64.917969 85.339844 C 64.597656 85.5 64.4375 85.660156 64.4375 85.984375 C 61.539062 86.953125 58.316406 87.4375 55.257812 87.4375 C 54.933594 87.4375 54.613281 87.4375 54.453125 87.4375 C 54.453125 87.113281 54.128906 86.953125 53.808594 86.953125 C 53.488281 86.953125 53.164062 87.277344 53.164062 87.597656 C 53.164062 87.921875 53.488281 88.246094 53.808594 88.246094 C 54.128906 88.246094 54.292969 88.085938 54.453125 87.921875 C 54.773438 87.921875 55.097656 87.921875 55.257812 87.921875 C 58.476562 87.921875 61.539062 87.4375 64.597656 86.46875 C 64.757812 86.46875 65.078125 86.46875 65.402344 86.46875 Z M 65.402344 86.46875 " fill-opacity="1" fill-rule="nonzero"/><path fill="#000000" d="M 41.089844 31.230469 C 41.25 31.066406 41.410156 30.90625 41.410156 30.582031 C 44.792969 28.804688 48.332031 27.511719 52.199219 27.191406 C 52.359375 27.351562 52.519531 27.511719 52.84375 27.511719 C 53.164062 27.511719 53.488281 27.191406 53.488281 26.867188 C 53.488281 26.542969 53.164062 26.222656 52.84375 26.222656 C 52.519531 26.222656 52.359375 26.382812 52.359375 26.707031 C 48.496094 27.191406 44.792969 28.320312 41.410156 30.257812 C 41.25 30.097656 40.925781 30.097656 40.605469 30.257812 C 40.28125 30.421875 40.28125 30.742188 40.445312 31.066406 C 40.28125 31.390625 40.765625 31.390625 41.089844 31.230469 Z M 41.089844 31.230469 " fill-opacity="1" fill-rule="nonzero"/><path fill="#000000" d="M 33.035156 75.324219 C 34.96875 77.421875 37.0625 79.363281 39.476562 80.976562 C 39.476562 81.300781 39.476562 81.460938 39.800781 81.625 C 40.121094 81.785156 40.445312 81.625 40.605469 81.460938 C 40.765625 81.300781 40.605469 80.816406 40.445312 80.652344 C 40.28125 80.492188 39.960938 80.492188 39.800781 80.652344 C 37.382812 79.199219 35.292969 77.261719 33.359375 75.164062 C 33.519531 75 33.519531 74.679688 33.359375 74.515625 C 33.199219 74.191406 32.714844 74.191406 32.554688 74.355469 C 32.230469 74.515625 32.230469 75 32.394531 75.164062 C 32.554688 75.484375 32.875 75.484375 33.035156 75.324219 Z M 33.035156 75.324219 " fill-opacity="1" fill-rule="nonzero"/><path fill="#000000" d="M 45.273438 84.207031 C 45.597656 84.367188 45.757812 84.207031 45.917969 84.046875 C 48.976562 85.015625 52.039062 85.5 55.257812 85.5 C 56.222656 85.5 57.191406 85.5 58.316406 85.339844 C 58.476562 85.5 58.640625 85.660156 58.960938 85.660156 C 59.28125 85.660156 59.605469 85.339844 59.445312 85.015625 C 59.445312 84.691406 59.121094 84.367188 58.800781 84.53125 C 58.476562 84.53125 58.316406 84.691406 58.316406 85.015625 C 57.351562 85.175781 56.382812 85.175781 55.417969 85.175781 C 52.199219 85.175781 49.140625 84.691406 46.242188 83.722656 C 46.242188 83.398438 46.078125 83.238281 45.757812 83.078125 C 45.433594 82.914062 45.113281 83.078125 44.953125 83.398438 C 44.792969 83.722656 44.953125 84.046875 45.273438 84.207031 Z M 45.273438 84.207031 " fill-opacity="1" fill-rule="nonzero"/><path fill="#000000" d="M 64.4375 84.53125 C 64.757812 84.367188 64.917969 84.207031 64.917969 83.882812 C 69.589844 82.269531 73.773438 79.523438 76.996094 75.808594 C 77.15625 75.96875 77.476562 75.808594 77.640625 75.648438 C 77.800781 75.324219 77.800781 75 77.640625 74.839844 C 77.316406 74.679688 76.996094 74.679688 76.835938 74.839844 C 76.671875 75 76.671875 75.324219 76.835938 75.484375 C 73.613281 79.039062 69.425781 81.785156 64.917969 83.398438 C 64.757812 83.238281 64.4375 83.078125 64.273438 83.238281 C 63.953125 83.398438 63.792969 83.722656 63.792969 84.046875 C 63.792969 84.367188 64.113281 84.691406 64.4375 84.53125 Z M 64.4375 84.53125 " fill-opacity="1" fill-rule="nonzero"/><path fill="#000000" d="M 84.886719 52.386719 C 84.886719 52.066406 84.5625 51.742188 84.242188 51.902344 C 83.917969 51.902344 83.597656 52.226562 83.757812 52.550781 C 83.757812 52.871094 83.917969 53.035156 84.242188 53.035156 C 84.402344 54.003906 84.402344 54.972656 84.402344 55.941406 C 84.402344 60.625 83.273438 65.308594 81.179688 69.347656 C 80.859375 69.347656 80.699219 69.347656 80.539062 69.671875 C 80.375 69.992188 80.539062 70.316406 80.859375 70.476562 C 81.179688 70.640625 81.503906 70.476562 81.664062 70.15625 C 81.824219 69.992188 81.824219 69.671875 81.503906 69.347656 C 82.46875 67.410156 83.273438 65.308594 83.917969 63.210938 C 84.5625 60.785156 84.886719 58.203125 84.886719 55.78125 C 84.886719 54.8125 84.886719 53.839844 84.722656 52.710938 C 84.886719 53.035156 85.046875 52.710938 84.886719 52.386719 Z M 84.886719 52.386719 " fill-opacity="1" fill-rule="nonzero"/><path fill="#000000" d="M 82.953125 44.796875 C 82.792969 44.472656 82.628906 44.3125 82.308594 44.472656 C 80.214844 39.789062 76.996094 35.589844 72.96875 32.519531 C 68.78125 29.289062 63.792969 27.351562 58.640625 26.867188 C 58.640625 26.542969 58.316406 26.382812 58.15625 26.382812 C 57.832031 26.382812 57.511719 26.542969 57.511719 27.027344 C 57.511719 27.511719 57.671875 27.675781 58.15625 27.675781 C 58.476562 27.675781 58.640625 27.511719 58.800781 27.351562 C 69.105469 28.484375 77.960938 35.105469 82.148438 44.796875 C 81.988281 44.957031 81.824219 45.28125 81.988281 45.441406 C 82.148438 45.765625 82.46875 45.925781 82.792969 45.765625 C 82.953125 45.441406 83.113281 45.121094 82.953125 44.796875 Z M 82.953125 44.796875 " fill-opacity="1" fill-rule="nonzero"/><path fill="#000000" d="M 67.496094 19.761719 C 67.171875 19.597656 67.011719 19.761719 66.851562 19.921875 C 65.242188 19.4375 63.46875 18.953125 61.699219 18.628906 C 59.605469 18.46875 57.511719 18.144531 55.417969 18.144531 C 53.648438 18.144531 52.039062 18.308594 50.265625 18.46875 C 50.105469 18.308594 49.945312 18.144531 49.621094 18.144531 C 49.300781 18.144531 48.976562 18.46875 49.140625 18.792969 C 49.140625 19.113281 49.460938 19.4375 49.78125 19.277344 C 50.105469 19.277344 50.265625 18.953125 50.265625 18.792969 C 51.875 18.628906 53.648438 18.46875 55.257812 18.46875 C 57.351562 18.46875 59.445312 18.628906 61.539062 18.953125 C 63.308594 19.277344 64.917969 19.597656 66.527344 20.246094 C 66.527344 20.566406 66.691406 20.730469 67.011719 20.890625 C 67.332031 21.054688 67.65625 20.890625 67.816406 20.566406 C 67.976562 20.246094 67.816406 19.921875 67.496094 19.761719 Z M 67.496094 19.761719 " fill-opacity="1" fill-rule="nonzero"/><path fill="#000000" d="M 33.035156 71.933594 C 36.578125 77.101562 41.894531 80.816406 47.851562 82.429688 C 47.851562 82.753906 48.011719 82.914062 48.332031 82.914062 C 48.65625 83.078125 48.976562 82.753906 49.140625 82.429688 C 49.300781 82.109375 48.976562 81.785156 48.65625 81.625 C 48.332031 81.625 48.171875 81.625 48.011719 81.945312 C 42.054688 80.332031 36.902344 76.617188 33.359375 71.609375 C 33.519531 71.449219 33.519531 71.125 33.359375 70.960938 C 33.199219 70.640625 32.714844 70.640625 32.554688 70.800781 C 32.394531 70.960938 32.230469 71.449219 32.394531 71.609375 C 32.394531 71.769531 32.714844 71.933594 33.035156 71.933594 Z M 33.035156 71.933594 " fill-opacity="1" fill-rule="nonzero"/><path fill="#000000" d="M 65.402344 81.945312 C 65.722656 81.785156 65.886719 81.460938 65.722656 81.140625 C 65.5625 80.816406 65.242188 80.652344 64.917969 80.816406 C 64.597656 80.976562 64.597656 81.140625 64.597656 81.460938 C 61.699219 82.59375 58.476562 83.078125 55.417969 83.078125 C 55.097656 83.078125 54.773438 83.078125 54.453125 83.078125 C 54.453125 82.753906 54.128906 82.59375 53.808594 82.59375 C 53.488281 82.59375 53.164062 82.914062 53.164062 83.238281 C 53.164062 83.5625 53.488281 83.882812 53.808594 83.882812 C 54.128906 83.882812 54.292969 83.722656 54.453125 83.5625 C 54.773438 83.5625 55.097656 83.5625 55.417969 83.5625 C 58.640625 83.5625 61.859375 83.078125 64.757812 81.945312 C 64.917969 81.945312 65.242188 82.109375 65.402344 81.945312 Z M 65.402344 81.945312 " fill-opacity="1" fill-rule="nonzero"/><path fill="#000000" d="M 80.699219 67.410156 C 80.859375 67.085938 80.699219 66.761719 80.375 66.601562 C 80.054688 66.441406 79.730469 66.601562 79.570312 66.925781 C 79.410156 67.246094 79.570312 67.410156 79.730469 67.570312 C 77.640625 71.769531 74.578125 75.484375 70.714844 78.230469 C 70.554688 78.070312 70.230469 78.070312 70.070312 78.230469 C 69.75 78.394531 69.75 78.878906 69.910156 79.039062 C 70.070312 79.363281 70.554688 79.363281 70.714844 79.199219 C 70.875 79.039062 71.039062 78.714844 71.039062 78.554688 C 75.0625 75.808594 78.121094 72.09375 80.214844 67.734375 C 80.375 67.734375 80.539062 67.570312 80.699219 67.410156 Z M 80.699219 67.410156 " fill-opacity="1" fill-rule="nonzero"/><path fill="#000000" d="M 81.664062 59.496094 C 81.664062 59.816406 81.824219 60.140625 82.148438 60.140625 C 82.46875 60.140625 82.792969 59.980469 82.792969 59.65625 C 82.792969 59.332031 82.628906 59.171875 82.46875 59.011719 C 82.628906 58.042969 82.628906 57.070312 82.628906 55.941406 C 82.628906 53.839844 82.308594 51.742188 81.824219 49.640625 C 81.34375 47.867188 80.859375 46.089844 80.054688 44.472656 C 80.214844 44.3125 80.214844 43.988281 80.214844 43.828125 C 80.054688 43.503906 79.730469 43.34375 79.410156 43.503906 C 79.089844 43.664062 78.925781 43.988281 79.089844 44.3125 C 79.25 44.472656 79.410156 44.636719 79.730469 44.636719 C 81.34375 48.1875 82.148438 52.066406 82.148438 55.941406 C 82.148438 56.910156 82.148438 57.878906 81.988281 58.847656 C 81.824219 59.011719 81.664062 59.332031 81.664062 59.496094 Z M 81.664062 59.496094 " fill-opacity="1" fill-rule="nonzero"/><path fill="#000000" d="M 75.867188 38.011719 C 73.453125 35.105469 70.394531 32.84375 67.011719 31.230469 C 67.011719 30.90625 66.851562 30.742188 66.691406 30.582031 C 66.367188 30.421875 66.046875 30.582031 65.886719 30.90625 C 65.722656 31.230469 65.886719 31.550781 66.207031 31.714844 C 66.527344 31.875 66.691406 31.714844 66.851562 31.550781 C 70.230469 33.167969 73.128906 35.429688 75.546875 38.175781 C 75.386719 38.335938 75.386719 38.660156 75.546875 38.820312 C 75.707031 39.144531 76.191406 39.144531 76.351562 38.980469 C 76.671875 38.820312 76.671875 38.335938 76.511719 38.175781 C 76.511719 38.011719 76.191406 38.011719 75.867188 38.011719 Z M 75.867188 38.011719 " fill-opacity="1" fill-rule="nonzero"/><path fill="#000000" d="M 61.054688 28.804688 C 60.730469 28.804688 60.570312 28.804688 60.410156 29.128906 C 58.800781 28.804688 57.027344 28.644531 55.257812 28.644531 C 51.554688 28.644531 48.011719 29.289062 44.628906 30.742188 C 41.570312 32.035156 38.832031 33.8125 36.417969 36.234375 C 36.257812 36.074219 35.933594 36.234375 35.613281 36.398438 C 35.292969 36.71875 35.453125 37.042969 35.613281 37.367188 C 35.933594 37.691406 36.257812 37.527344 36.578125 37.367188 C 36.742188 37.203125 36.742188 36.882812 36.742188 36.71875 C 41.730469 31.875 48.332031 29.289062 55.257812 29.289062 C 56.867188 29.289062 58.640625 29.453125 60.25 29.773438 C 60.25 30.097656 60.410156 30.257812 60.730469 30.257812 C 61.054688 30.257812 61.375 30.097656 61.539062 29.773438 C 61.699219 29.289062 61.375 28.96875 61.054688 28.804688 Z M 61.054688 28.804688 " fill-opacity="1" fill-rule="nonzero"/><path fill="#000000" d="M 81.019531 56.75 C 81.019531 56.425781 80.699219 56.101562 80.375 56.101562 C 80.054688 56.101562 79.730469 56.425781 79.730469 56.75 C 79.730469 57.070312 79.894531 57.234375 80.054688 57.394531 C 79.894531 61.917969 78.445312 66.117188 76.027344 69.832031 C 75.707031 69.832031 75.546875 69.832031 75.386719 70.15625 C 75.222656 70.476562 75.222656 70.800781 75.546875 70.960938 C 75.867188 71.125 76.191406 71.125 76.351562 70.800781 C 76.511719 70.640625 76.511719 70.316406 76.351562 69.992188 C 78.765625 66.277344 80.214844 61.917969 80.375 57.394531 C 80.859375 57.234375 81.019531 57.070312 81.019531 56.75 Z M 81.019531 56.75 " fill-opacity="1" fill-rule="nonzero"/><path fill="#000000" d="M 80.054688 51.902344 C 80.375 51.902344 80.699219 51.582031 80.539062 51.097656 C 80.539062 50.773438 80.214844 50.609375 80.054688 50.609375 C 79.25 46.734375 77.476562 43.019531 74.902344 39.949219 C 75.0625 39.789062 75.0625 39.464844 74.902344 39.144531 C 74.742188 38.820312 74.257812 38.820312 74.097656 39.144531 C 73.773438 39.304688 73.773438 39.789062 74.097656 39.949219 C 74.257812 40.113281 74.578125 40.273438 74.742188 40.113281 C 77.316406 43.179688 79.089844 46.734375 79.894531 50.609375 C 79.730469 50.773438 79.570312 50.933594 79.570312 51.257812 C 79.410156 51.742188 79.730469 51.902344 80.054688 51.902344 Z M 80.054688 51.902344 " fill-opacity="1" fill-rule="nonzero"/><path fill="#000000" d="M 54.453125 30.742188 C 54.292969 30.582031 54.128906 30.257812 53.808594 30.421875 C 53.488281 30.421875 53.164062 30.742188 53.164062 31.066406 C 53.164062 31.390625 53.488281 31.714844 53.808594 31.714844 C 54.128906 31.714844 54.292969 31.550781 54.292969 31.230469 C 54.613281 31.230469 54.933594 31.230469 55.097656 31.230469 C 59.925781 31.230469 64.597656 32.683594 68.621094 35.265625 C 68.621094 35.589844 68.621094 35.75 68.945312 35.914062 C 69.265625 36.074219 69.589844 36.074219 69.75 35.75 C 69.910156 35.429688 69.910156 35.105469 69.589844 34.945312 C 69.425781 34.78125 69.105469 34.78125 68.78125 34.945312 C 64.757812 32.359375 59.925781 30.90625 55.097656 30.90625 C 55.097656 30.742188 54.773438 30.742188 54.453125 30.742188 Z M 54.453125 30.742188 " fill-opacity="1" fill-rule="nonzero"/><path fill="#000000" d="M 39.476562 75.808594 C 41.570312 77.421875 43.824219 78.714844 46.242188 79.683594 C 48.816406 80.652344 51.394531 81.300781 54.128906 81.300781 C 54.128906 81.625 54.453125 81.785156 54.773438 81.785156 C 55.097656 81.785156 55.417969 81.460938 55.417969 81.140625 C 55.417969 80.816406 55.097656 80.492188 54.773438 80.492188 C 54.453125 80.492188 54.292969 80.652344 54.128906 80.816406 C 48.976562 80.492188 43.824219 78.554688 39.800781 75.324219 C 39.960938 75.164062 39.800781 74.839844 39.640625 74.679688 C 39.316406 74.515625 38.996094 74.515625 38.832031 74.679688 C 38.671875 74.839844 38.671875 75.324219 38.832031 75.484375 C 38.996094 75.96875 39.316406 75.96875 39.476562 75.808594 Z M 39.476562 75.808594 " fill-opacity="1" fill-rule="nonzero"/><path fill="#000000" d="M 60.25 81.300781 C 60.570312 81.300781 60.730469 80.976562 60.730469 80.816406 C 64.597656 80.007812 68.140625 78.230469 71.199219 75.808594 C 71.359375 75.96875 71.679688 75.96875 72.003906 75.808594 C 72.324219 75.648438 72.324219 75.164062 72.003906 75 C 71.84375 74.679688 71.359375 74.679688 71.199219 75 C 71.039062 75.164062 70.875 75.484375 71.039062 75.648438 C 67.976562 78.070312 64.4375 79.847656 60.730469 80.652344 C 60.570312 80.492188 60.410156 80.332031 60.089844 80.332031 C 59.765625 80.332031 59.445312 80.652344 59.605469 81.140625 C 59.605469 81.140625 59.925781 81.460938 60.25 81.300781 Z M 60.25 81.300781 " fill-opacity="1" fill-rule="nonzero"/><path fill="#000000" d="M 60.410156 78.714844 C 60.570312 78.878906 60.894531 79.039062 61.054688 79.039062 C 61.375 78.878906 61.539062 78.554688 61.539062 78.230469 C 61.375 77.910156 61.054688 77.746094 60.730469 77.746094 C 60.410156 77.746094 60.25 78.070312 60.25 78.230469 C 58.640625 78.554688 56.867188 78.714844 55.257812 78.714844 C 54.292969 78.714844 53.324219 78.714844 52.359375 78.554688 C 52.359375 78.230469 52.039062 78.070312 51.875 78.070312 C 51.554688 78.070312 51.230469 78.230469 51.230469 78.554688 C 51.230469 78.878906 51.394531 79.199219 51.714844 79.199219 C 52.039062 79.199219 52.199219 79.039062 52.359375 78.878906 C 53.324219 79.039062 54.292969 79.039062 55.417969 79.039062 C 57.027344 79.363281 58.800781 79.039062 60.410156 78.714844 Z M 60.410156 78.714844 " fill-opacity="1" fill-rule="nonzero"/><path fill="#000000" d="M 76.027344 67.410156 C 76.191406 67.085938 76.027344 66.761719 75.707031 66.601562 C 75.386719 66.441406 75.0625 66.601562 74.902344 66.925781 C 74.742188 67.085938 74.742188 67.410156 75.0625 67.570312 C 72.96875 71.125 70.230469 73.871094 66.691406 75.96875 C 66.527344 75.808594 66.207031 75.808594 66.046875 75.808594 C 65.722656 75.96875 65.5625 76.292969 65.722656 76.617188 C 65.886719 76.9375 66.207031 77.101562 66.527344 76.9375 C 66.851562 76.777344 66.851562 76.617188 66.851562 76.292969 C 70.394531 74.191406 73.292969 71.285156 75.386719 67.734375 C 75.546875 67.734375 75.867188 67.570312 76.027344 67.410156 Z M 76.027344 67.410156 " fill-opacity="1" fill-rule="nonzero"/><path fill="#000000" d="M 74.578125 43.019531 C 72.164062 39.464844 68.78125 36.558594 64.917969 34.78125 C 64.917969 34.460938 64.757812 34.296875 64.597656 34.136719 C 64.273438 33.972656 63.953125 34.136719 63.792969 34.460938 C 63.628906 34.78125 63.792969 35.105469 64.113281 35.265625 C 64.4375 35.429688 64.597656 35.265625 64.757812 35.105469 C 72.808594 38.820312 78.121094 46.894531 78.121094 55.941406 C 78.121094 57.71875 77.960938 59.332031 77.640625 60.949219 C 77.316406 60.949219 77.15625 61.109375 77.15625 61.433594 C 76.996094 61.757812 77.316406 62.078125 77.640625 62.242188 C 77.960938 62.402344 78.285156 62.078125 78.445312 61.757812 C 78.445312 61.433594 78.445312 61.273438 78.121094 61.109375 C 78.445312 59.496094 78.765625 57.71875 78.765625 55.941406 C 78.445312 51.417969 77.15625 46.894531 74.578125 43.019531 Z M 74.578125 43.019531 " fill-opacity="1" fill-rule="nonzero"/><path fill="#000000" d="M 56.867188 32.519531 C 56.546875 32.519531 56.382812 32.683594 56.222656 32.84375 C 55.902344 32.84375 55.578125 32.84375 55.257812 32.84375 C 53.488281 32.84375 51.714844 33.003906 49.945312 33.488281 C 49.78125 33.328125 49.460938 33.167969 49.300781 33.167969 C 48.976562 33.328125 48.816406 33.652344 48.816406 33.972656 C 48.976562 34.296875 49.300781 34.460938 49.621094 34.460938 C 49.945312 34.460938 50.105469 34.136719 50.105469 33.972656 C 51.875 33.652344 53.488281 33.328125 55.257812 33.328125 C 55.578125 33.328125 55.902344 33.328125 56.0625 33.328125 C 56.0625 33.652344 56.382812 33.8125 56.546875 33.8125 C 56.867188 33.8125 57.191406 33.652344 57.191406 33.167969 C 57.191406 32.683594 57.191406 32.519531 56.867188 32.519531 Z M 56.867188 32.519531 " fill-opacity="1" fill-rule="nonzero"/><path fill="#000000" d="M 39.640625 68.863281 C 39.316406 68.539062 38.996094 68.539062 38.671875 68.703125 C 38.351562 68.863281 38.351562 69.347656 38.511719 69.507812 C 38.671875 69.671875 38.996094 69.832031 39.15625 69.671875 C 41.410156 72.417969 44.46875 74.515625 47.691406 75.648438 C 47.691406 75.96875 47.851562 76.132812 48.171875 76.292969 C 48.496094 76.453125 48.816406 76.292969 48.976562 75.96875 C 49.140625 75.648438 48.976562 75.324219 48.65625 75.164062 C 48.332031 75 48.171875 75.164062 48.011719 75.324219 C 44.792969 74.03125 41.894531 72.09375 39.640625 69.347656 C 39.800781 69.347656 39.800781 69.023438 39.640625 68.863281 Z M 39.640625 68.863281 " fill-opacity="1" fill-rule="nonzero"/><path fill="#000000" d="M 55.902344 77.585938 C 56.222656 77.585938 56.382812 77.421875 56.546875 77.101562 C 60.25 76.9375 63.953125 75.648438 67.011719 73.546875 C 67.171875 73.707031 67.496094 73.707031 67.816406 73.546875 C 68.140625 73.386719 68.140625 72.902344 67.976562 72.738281 C 67.816406 72.417969 67.332031 72.417969 67.171875 72.578125 C 67.011719 72.738281 66.851562 73.0625 67.011719 73.222656 C 63.953125 75.324219 60.410156 76.453125 56.707031 76.617188 C 56.546875 76.453125 56.382812 76.292969 56.0625 76.292969 C 55.742188 76.292969 55.417969 76.617188 55.417969 76.9375 C 55.417969 77.261719 55.578125 77.585938 55.902344 77.585938 Z M 55.902344 77.585938 " fill-opacity="1" fill-rule="nonzero"/><path fill="#000000" d="M 76.835938 54.488281 C 76.835938 54.164062 76.511719 53.839844 76.191406 53.839844 C 75.867188 53.839844 75.546875 54.164062 75.546875 54.488281 C 75.546875 54.8125 75.707031 54.972656 76.027344 54.972656 C 76.027344 55.296875 76.027344 55.617188 76.027344 55.941406 C 76.027344 60.140625 74.902344 64.015625 72.488281 67.410156 C 72.164062 67.410156 72.003906 67.410156 71.84375 67.570312 C 71.679688 67.894531 71.679688 68.21875 72.003906 68.378906 C 72.324219 68.539062 72.648438 68.539062 72.808594 68.21875 C 72.96875 68.054688 72.96875 67.734375 72.808594 67.410156 C 75.0625 63.855469 76.351562 59.816406 76.351562 55.617188 C 76.351562 55.296875 76.351562 54.972656 76.351562 54.648438 C 76.671875 54.972656 76.835938 54.8125 76.835938 54.488281 Z M 76.835938 54.488281 " fill-opacity="1" fill-rule="nonzero"/><path fill="#000000" d="M 70.714844 41.082031 C 70.394531 40.757812 70.070312 40.757812 69.75 41.082031 C 69.425781 41.40625 69.425781 41.726562 69.75 42.050781 C 69.910156 42.210938 70.230469 42.210938 70.394531 42.210938 C 71.679688 43.664062 72.808594 45.121094 73.613281 46.894531 C 73.453125 47.058594 73.453125 47.378906 73.453125 47.542969 C 73.613281 47.867188 73.9375 48.027344 74.257812 47.867188 C 74.578125 47.703125 74.742188 47.378906 74.578125 47.058594 C 74.417969 46.734375 74.257812 46.734375 73.9375 46.734375 C 73.128906 44.957031 72.003906 43.503906 70.714844 42.050781 C 71.039062 41.566406 70.875 41.242188 70.714844 41.082031 Z M 70.714844 41.082031 " fill-opacity="1" fill-rule="nonzero"/><path fill="#000000" d="M 65.5625 37.042969 C 65.242188 36.882812 65.078125 36.882812 64.757812 37.203125 C 61.859375 35.75 58.640625 34.945312 55.417969 34.945312 C 54.453125 34.945312 53.324219 34.945312 52.359375 35.105469 C 52.199219 34.945312 52.039062 34.78125 51.714844 34.78125 C 51.394531 34.78125 51.070312 35.105469 51.230469 35.589844 C 51.230469 35.914062 51.554688 36.234375 52.039062 36.074219 C 52.359375 36.074219 52.519531 35.75 52.519531 35.589844 C 53.488281 35.429688 54.453125 35.429688 55.417969 35.429688 C 58.640625 35.429688 61.859375 36.234375 64.597656 37.691406 C 64.597656 38.011719 64.757812 38.175781 64.917969 38.335938 C 65.242188 38.496094 65.5625 38.335938 65.722656 38.011719 C 65.886719 37.691406 65.886719 37.203125 65.5625 37.042969 Z M 65.5625 37.042969 " fill-opacity="1" fill-rule="nonzero"/><path fill="#000000" d="M 47.851562 72.578125 C 47.527344 72.417969 47.207031 72.578125 47.046875 72.902344 C 46.882812 73.222656 47.046875 73.546875 47.367188 73.707031 C 47.691406 73.871094 47.851562 73.707031 48.171875 73.546875 C 50.425781 74.515625 53.003906 75 55.417969 75 C 56.382812 75 57.511719 75 58.476562 74.839844 C 58.640625 75 58.800781 75.164062 59.121094 75.164062 C 59.445312 75.164062 59.605469 74.839844 59.605469 74.355469 C 59.605469 73.871094 59.28125 73.871094 58.800781 73.871094 C 58.476562 73.871094 58.316406 74.191406 58.316406 74.355469 C 57.351562 74.515625 56.382812 74.515625 55.417969 74.515625 C 53.003906 74.515625 50.589844 74.03125 48.332031 73.0625 C 48.171875 73.0625 48.171875 72.738281 47.851562 72.578125 Z M 47.851562 72.578125 " fill-opacity="1" fill-rule="nonzero"/><path fill="#000000" d="M 71.679688 65.632812 C 72.003906 65.632812 72.164062 65.632812 72.324219 65.308594 C 72.488281 64.988281 72.324219 64.664062 72.003906 64.503906 C 71.679688 64.339844 71.359375 64.503906 71.199219 64.824219 C 71.039062 64.988281 71.039062 65.308594 71.359375 65.472656 C 69.75 68.21875 67.496094 70.640625 64.597656 72.253906 C 64.4375 72.09375 64.113281 72.09375 63.953125 72.09375 C 63.628906 72.253906 63.46875 72.578125 63.628906 72.902344 C 63.792969 73.222656 64.113281 73.386719 64.4375 73.222656 C 64.757812 73.0625 64.757812 72.902344 64.757812 72.578125 C 67.816406 70.800781 70.070312 68.539062 71.679688 65.632812 Z M 71.679688 65.632812 " fill-opacity="1" fill-rule="nonzero"/><path fill="#000000" d="M 73.128906 59.496094 C 73.128906 59.816406 73.292969 60.140625 73.613281 60.300781 C 73.9375 60.300781 74.257812 60.140625 74.417969 59.816406 C 74.417969 59.496094 74.417969 59.332031 74.097656 59.171875 C 74.257812 58.203125 74.257812 57.234375 74.257812 56.101562 C 74.257812 52.710938 73.453125 49.480469 71.679688 46.574219 C 71.84375 46.410156 71.84375 46.089844 71.679688 45.765625 C 71.519531 45.441406 71.039062 45.441406 70.875 45.605469 C 70.714844 45.765625 70.554688 46.25 70.714844 46.410156 C 70.875 46.574219 71.199219 46.734375 71.359375 46.734375 C 72.96875 49.480469 73.773438 52.710938 73.773438 56.101562 C 73.773438 57.070312 73.773438 58.042969 73.613281 59.011719 C 73.453125 59.011719 73.128906 59.171875 73.128906 59.496094 Z M 73.128906 59.496094 " fill-opacity="1" fill-rule="nonzero"/><path fill="#000000" d="M 65.722656 40.113281 C 62.664062 38.011719 58.960938 37.042969 55.257812 37.042969 C 53.488281 37.042969 51.875 37.203125 50.105469 37.691406 C 49.945312 37.527344 49.621094 37.367188 49.460938 37.527344 C 49.140625 37.691406 48.976562 38.011719 49.140625 38.335938 C 49.300781 38.660156 49.621094 38.820312 49.945312 38.660156 C 50.265625 38.496094 50.425781 38.335938 50.425781 38.011719 C 52.039062 37.527344 53.648438 37.367188 55.417969 37.367188 C 59.121094 37.367188 62.503906 38.496094 65.5625 40.433594 C 65.5625 40.757812 65.5625 40.917969 65.722656 41.082031 C 66.046875 41.242188 66.367188 41.242188 66.527344 40.917969 C 66.691406 40.597656 66.691406 40.273438 66.367188 40.113281 C 66.207031 39.949219 66.046875 39.949219 65.722656 40.113281 Z M 65.722656 40.113281 " fill-opacity="1" fill-rule="nonzero"/><path fill="#000000" d="M 41.570312 64.503906 C 41.410156 64.179688 41.089844 64.179688 40.765625 64.339844 C 40.445312 64.503906 40.445312 64.824219 40.605469 65.148438 C 40.765625 65.308594 41.089844 65.472656 41.25 65.472656 C 42.054688 66.761719 43.019531 67.894531 44.148438 68.863281 C 45.273438 69.832031 46.5625 70.640625 47.851562 71.285156 C 47.851562 71.609375 48.011719 71.769531 48.171875 71.933594 C 48.496094 72.09375 48.816406 71.933594 48.976562 71.609375 C 49.140625 71.285156 48.976562 70.960938 48.65625 70.800781 C 48.332031 70.640625 48.171875 70.800781 48.011719 70.960938 C 45.433594 69.671875 43.179688 67.734375 41.570312 65.308594 C 41.730469 64.988281 41.730469 64.664062 41.570312 64.503906 Z M 41.570312 64.503906 " fill-opacity="1" fill-rule="nonzero"/><path fill="#000000" d="M 54.453125 72.578125 C 54.453125 72.253906 54.128906 72.09375 53.96875 72.09375 C 53.648438 72.09375 53.324219 72.253906 53.324219 72.578125 C 53.324219 72.902344 53.488281 73.222656 53.808594 73.222656 C 54.128906 73.222656 54.292969 73.0625 54.453125 72.902344 C 54.773438 72.902344 55.097656 72.902344 55.417969 72.902344 C 58.316406 72.902344 61.214844 72.09375 63.792969 70.640625 C 63.953125 70.800781 64.273438 70.800781 64.597656 70.640625 C 64.917969 70.476562 64.917969 69.992188 64.757812 69.832031 C 64.597656 69.507812 64.113281 69.507812 63.953125 69.671875 C 63.46875 69.992188 63.46875 70.15625 63.46875 70.476562 C 61.054688 71.933594 58.15625 72.578125 55.257812 72.578125 C 55.097656 72.578125 54.773438 72.578125 54.453125 72.578125 Z M 54.453125 72.578125 " fill-opacity="1" fill-rule="nonzero"/><path fill="#000000" d="M 68.140625 65.792969 C 67.976562 66.117188 67.976562 66.441406 68.300781 66.601562 C 68.621094 66.761719 68.945312 66.761719 69.105469 66.441406 C 69.265625 66.277344 69.265625 65.957031 69.105469 65.632812 C 70.070312 64.339844 70.714844 62.886719 71.359375 61.433594 C 72.003906 59.65625 72.324219 57.71875 72.324219 55.941406 C 72.324219 54.003906 72.003906 52.226562 71.359375 50.449219 C 71.519531 50.289062 71.679688 49.964844 71.519531 49.804688 C 71.359375 49.480469 71.039062 49.320312 70.714844 49.480469 C 70.394531 49.640625 70.230469 49.964844 70.394531 50.289062 C 70.554688 50.609375 70.714844 50.609375 71.039062 50.609375 C 71.679688 52.386719 71.84375 54.164062 71.84375 55.941406 C 71.84375 59.332031 70.875 62.726562 68.78125 65.472656 C 68.621094 65.472656 68.300781 65.632812 68.140625 65.792969 Z M 68.140625 65.792969 " fill-opacity="1" fill-rule="nonzero"/><path fill="#000000" d="M 66.527344 43.34375 C 64.917969 41.890625 62.824219 40.757812 60.730469 39.949219 C 60.730469 39.628906 60.570312 39.464844 60.25 39.304688 C 59.925781 39.144531 59.605469 39.464844 59.445312 39.789062 C 59.28125 40.113281 59.605469 40.433594 59.925781 40.597656 C 60.25 40.597656 60.410156 40.597656 60.570312 40.433594 C 62.664062 41.082031 64.597656 42.210938 66.207031 43.664062 C 66.046875 43.828125 66.207031 44.148438 66.367188 44.3125 C 66.691406 44.636719 67.011719 44.472656 67.332031 44.3125 C 67.65625 44.148438 67.496094 43.664062 67.332031 43.34375 C 67.011719 43.34375 66.691406 43.179688 66.527344 43.34375 Z M 66.527344 43.34375 " fill-opacity="1" fill-rule="nonzero"/><path fill="#000000" d="M 62.503906 69.507812 C 62.824219 69.347656 62.824219 69.1875 62.824219 68.863281 C 64.273438 68.054688 65.5625 66.925781 66.691406 65.632812 C 67.816406 64.339844 68.621094 62.886719 69.265625 61.433594 C 69.589844 61.433594 69.75 61.273438 69.910156 60.949219 C 70.070312 60.625 69.910156 60.300781 69.589844 60.140625 C 69.265625 59.980469 68.945312 60.140625 68.78125 60.464844 C 68.621094 60.785156 68.78125 60.949219 68.945312 61.109375 C 67.816406 64.179688 65.5625 66.601562 62.824219 68.378906 C 62.664062 68.21875 62.34375 68.21875 62.179688 68.21875 C 61.859375 68.378906 61.699219 68.703125 61.859375 69.023438 C 61.699219 69.671875 62.179688 69.671875 62.503906 69.507812 Z M 62.503906 69.507812 " fill-opacity="1" fill-rule="nonzero"/><path fill="#000000" d="M 68.460938 48.351562 C 68.300781 48.027344 67.816406 48.027344 67.65625 48.1875 C 67.332031 48.351562 67.332031 48.835938 67.496094 48.996094 C 67.65625 49.15625 67.816406 49.320312 68.140625 49.320312 C 69.105469 51.097656 69.589844 52.871094 69.75 54.8125 C 69.589844 54.972656 69.425781 55.132812 69.425781 55.457031 C 69.425781 55.78125 69.75 56.101562 70.070312 56.101562 C 70.394531 56.101562 70.714844 55.78125 70.714844 55.457031 C 70.714844 55.132812 70.554688 54.972656 70.230469 54.8125 C 70.070312 52.871094 69.425781 50.933594 68.621094 49.15625 C 68.621094 48.996094 68.621094 48.671875 68.460938 48.351562 Z M 68.460938 48.351562 " fill-opacity="1" fill-rule="nonzero"/><path fill="#000000" d="M 62.988281 44.3125 C 63.308594 44.472656 63.628906 44.472656 63.792969 44.148438 C 63.953125 43.828125 63.953125 43.503906 63.628906 43.34375 C 63.46875 43.179688 63.148438 43.179688 62.824219 43.34375 C 60.570312 42.050781 57.996094 41.242188 55.257812 41.242188 C 54.128906 41.242188 53.164062 41.40625 52.039062 41.566406 C 51.875 41.40625 51.554688 41.242188 51.394531 41.242188 C 51.070312 41.40625 50.910156 41.726562 50.910156 42.050781 C 51.070312 42.375 51.394531 42.535156 51.714844 42.535156 C 52.039062 42.535156 52.199219 42.210938 52.199219 42.050781 C 53.164062 41.890625 54.292969 41.726562 55.257812 41.726562 C 57.832031 41.726562 60.410156 42.375 62.503906 43.664062 C 62.664062 43.828125 62.664062 44.148438 62.988281 44.3125 Z M 62.988281 44.3125 " fill-opacity="1" fill-rule="nonzero"/><path fill="#000000" d="M 45.433594 65.957031 C 45.273438 65.632812 44.792969 65.632812 44.46875 65.957031 C 44.148438 66.117188 44.148438 66.601562 44.46875 66.925781 C 44.628906 67.085938 44.953125 67.246094 45.273438 67.085938 C 46.5625 68.21875 48.011719 69.1875 49.460938 69.832031 C 51.230469 70.640625 53.164062 70.960938 55.257812 70.960938 C 55.578125 70.960938 55.902344 70.960938 56.222656 70.960938 C 56.382812 71.285156 56.546875 71.285156 56.867188 71.285156 C 57.191406 71.285156 57.511719 70.960938 57.351562 70.640625 C 57.351562 70.316406 57.027344 69.992188 56.707031 70.15625 C 56.382812 70.15625 56.222656 70.316406 56.222656 70.640625 C 55.902344 70.640625 55.578125 70.640625 55.417969 70.640625 C 51.714844 70.640625 48.332031 69.347656 45.757812 66.925781 C 45.757812 66.441406 45.757812 66.277344 45.433594 65.957031 Z M 45.433594 65.957031 " fill-opacity="1" fill-rule="nonzero"/></svg>